M48
;GenerationSoftware,Autodesk,EAGLE,9.6.1*%
;CreationDate,2024-07-18T19:39:14Z*%
FMAT,2
ICI,OFF
METRIC,TZ,000.000
T7C0.250
T6C0.300
T5C0.350
T4C1.000
T3C1.016
T2C1.321
T1C1.500
%
G90
M71
T1
X-19368Y3016
X-21368Y9016
X-7167Y15016
X-7167Y3016
X-19368Y15016
T2
X25559Y13735
X25559Y3727
X25559Y8731
T3
X-14922Y20638
X-17304Y-3334
X-14764Y-3334
X-12224Y-3334
T4
X14605Y1270
X14605Y16270
X6032Y16510
X6032Y1510
T5
X14129Y-6032
X2223Y1111
X-18415Y19424
X-24924Y4763
X-23971Y6826
X-8781Y-794
X-12859Y-6509
X-17304Y-6350
X-19209Y-3492
X-20161Y17145
X-24289Y17621
X-11271Y20003
X-9319Y18368
X2857Y16510
X15081Y21907
X-27089Y12593
T6
X-25512Y2064
X-21611Y18661
X-27940Y6191
T7
X-18642Y-5473
X-10096Y19435
X-9358Y-1370
M30