G04 EAGLE Gerber RS-274X export*
G75*
%MOMM*%
%FSLAX34Y34*%
%LPD*%
%INBottom Copper*%
%IPPOS*%
%AMOC8*
5,1,8,0,0,1.08239X$1,22.5*%
G01*
%ADD10C,1.000000*%
%ADD11C,2.250000*%
%ADD12R,0.400000X1.399997*%
%ADD13R,0.254000X0.550000*%
%ADD14R,0.550000X0.254000*%
%ADD15R,5.600000X5.600000*%
%ADD16P,1.649562X8X112.500000*%
%ADD17R,1.000000X1.100000*%
%ADD18R,1.100000X1.000000*%
%ADD19C,1.524000*%
%ADD20R,1.300000X1.500000*%
%ADD21R,0.800000X0.500000*%
%ADD22R,1.000000X1.400000*%
%ADD23R,1.220000X0.915000*%
%ADD24R,0.915000X1.220000*%
%ADD25R,1.508000X1.508000*%
%ADD26C,1.508000*%
%ADD27C,1.981200*%
%ADD28C,0.609600*%
%ADD29C,0.406400*%
%ADD30C,0.750000*%
%ADD31C,0.254000*%
%ADD32C,0.508000*%
%ADD33C,0.554800*%
%ADD34C,0.203200*%
%ADD35C,0.604800*%

G36*
X200696Y-53746D02*
X200696Y-53746D01*
X200776Y-53744D01*
X200818Y-53729D01*
X200861Y-53723D01*
X200994Y-53665D01*
X201007Y-53660D01*
X201010Y-53658D01*
X201015Y-53656D01*
X296806Y1648D01*
X296859Y1691D01*
X296916Y1725D01*
X296953Y1768D01*
X296996Y1804D01*
X297032Y1861D01*
X297076Y1912D01*
X297097Y1964D01*
X297127Y2012D01*
X297143Y2078D01*
X297168Y2140D01*
X297177Y2219D01*
X297185Y2251D01*
X297183Y2272D01*
X297187Y2307D01*
X297187Y79812D01*
X297172Y79902D01*
X297165Y79993D01*
X297152Y80023D01*
X297147Y80055D01*
X297104Y80135D01*
X297069Y80219D01*
X297043Y80251D01*
X297032Y80272D01*
X297009Y80294D01*
X296964Y80350D01*
X291051Y86263D01*
X290977Y86316D01*
X290907Y86376D01*
X290877Y86388D01*
X290851Y86407D01*
X290764Y86434D01*
X290679Y86468D01*
X290638Y86472D01*
X290616Y86479D01*
X290584Y86478D01*
X290513Y86486D01*
X286321Y86486D01*
X286302Y86483D01*
X286282Y86485D01*
X286181Y86463D01*
X286079Y86447D01*
X286061Y86437D01*
X286042Y86433D01*
X285953Y86380D01*
X285861Y86331D01*
X285848Y86317D01*
X285831Y86307D01*
X285763Y86228D01*
X285692Y86153D01*
X285684Y86135D01*
X285671Y86120D01*
X285632Y86024D01*
X285588Y85930D01*
X285586Y85910D01*
X285579Y85892D01*
X285560Y85725D01*
X285560Y83321D01*
X282505Y75946D01*
X276860Y70301D01*
X269485Y67246D01*
X241690Y67246D01*
X234315Y70301D01*
X228670Y75946D01*
X225615Y83321D01*
X225615Y85725D01*
X225612Y85745D01*
X225614Y85764D01*
X225592Y85866D01*
X225575Y85968D01*
X225566Y85985D01*
X225561Y86005D01*
X225508Y86094D01*
X225460Y86185D01*
X225446Y86199D01*
X225435Y86216D01*
X225357Y86283D01*
X225282Y86355D01*
X225264Y86363D01*
X225248Y86376D01*
X225152Y86415D01*
X225059Y86458D01*
X225039Y86460D01*
X225020Y86468D01*
X224854Y86486D01*
X-77788Y86486D01*
X-77878Y86472D01*
X-77969Y86464D01*
X-77998Y86452D01*
X-78030Y86447D01*
X-78111Y86404D01*
X-78195Y86368D01*
X-78227Y86342D01*
X-78248Y86331D01*
X-78270Y86308D01*
X-78326Y86263D01*
X-83088Y81501D01*
X-83133Y81438D01*
X-83158Y81412D01*
X-83163Y81401D01*
X-83201Y81357D01*
X-83213Y81327D01*
X-83232Y81301D01*
X-83259Y81214D01*
X-83293Y81129D01*
X-83297Y81088D01*
X-83304Y81066D01*
X-83303Y81034D01*
X-83311Y80963D01*
X-83311Y6032D01*
X-83308Y6013D01*
X-83310Y5993D01*
X-83288Y5892D01*
X-83272Y5790D01*
X-83262Y5772D01*
X-83258Y5753D01*
X-83205Y5664D01*
X-83156Y5572D01*
X-83142Y5559D01*
X-83132Y5542D01*
X-83053Y5474D01*
X-82978Y5403D01*
X-82960Y5395D01*
X-82945Y5382D01*
X-82849Y5343D01*
X-82755Y5299D01*
X-82735Y5297D01*
X-82717Y5290D01*
X-82550Y5271D01*
X-40712Y5271D01*
X-40621Y5286D01*
X-40531Y5293D01*
X-40501Y5306D01*
X-40469Y5311D01*
X-40388Y5354D01*
X-40304Y5389D01*
X-40272Y5415D01*
X-40251Y5426D01*
X-40229Y5449D01*
X-40173Y5494D01*
X-24677Y20990D01*
X-21318Y22382D01*
X-21246Y22427D01*
X-21169Y22464D01*
X-21132Y22497D01*
X-21109Y22511D01*
X-21090Y22535D01*
X-21044Y22576D01*
X-20358Y23337D01*
X-19610Y23694D01*
X-19609Y23695D01*
X-19607Y23695D01*
X-19465Y23784D01*
X-18990Y24161D01*
X-18989Y24162D01*
X-18987Y24163D01*
X-18869Y24281D01*
X-18350Y24929D01*
X-17332Y25488D01*
X-17307Y25508D01*
X-17226Y25559D01*
X-16316Y26280D01*
X-15518Y26507D01*
X-15517Y26508D01*
X-15515Y26508D01*
X-15360Y26572D01*
X-14829Y26864D01*
X-14828Y26865D01*
X-14826Y26866D01*
X-14690Y26963D01*
X-14071Y27515D01*
X-12974Y27896D01*
X-12945Y27912D01*
X-12857Y27948D01*
X-11839Y28508D01*
X-11015Y28599D01*
X-11014Y28599D01*
X-11012Y28599D01*
X-10848Y28637D01*
X-10276Y28836D01*
X-10275Y28837D01*
X-10273Y28837D01*
X-10122Y28910D01*
X-9419Y29351D01*
X-8274Y29544D01*
X-8244Y29555D01*
X-8151Y29576D01*
X-7054Y29958D01*
X-6226Y29910D01*
X-6224Y29910D01*
X-6223Y29910D01*
X-6055Y29920D01*
X-5458Y30021D01*
X-5456Y30021D01*
X-5455Y30021D01*
X-5293Y30068D01*
X-4527Y30385D01*
X-3366Y30385D01*
X-3334Y30390D01*
X-3239Y30396D01*
X-2094Y30590D01*
X-1285Y30404D01*
X-1284Y30404D01*
X-1282Y30404D01*
X-1116Y30385D01*
X-509Y30385D01*
X-508Y30386D01*
X-506Y30385D01*
X-340Y30404D01*
X469Y30590D01*
X1614Y30396D01*
X1646Y30396D01*
X1741Y30385D01*
X2902Y30385D01*
X3668Y30068D01*
X3670Y30067D01*
X3672Y30067D01*
X3833Y30021D01*
X4430Y29920D01*
X4432Y29920D01*
X4434Y29919D01*
X4601Y29910D01*
X5429Y29958D01*
X6526Y29576D01*
X6558Y29570D01*
X6649Y29544D01*
X7794Y29351D01*
X8497Y28910D01*
X8498Y28909D01*
X8500Y28908D01*
X8651Y28836D01*
X9223Y28637D01*
X9225Y28636D01*
X9227Y28635D01*
X9390Y28599D01*
X10214Y28508D01*
X11232Y27948D01*
X11263Y27937D01*
X11349Y27896D01*
X12446Y27515D01*
X13065Y26963D01*
X13066Y26962D01*
X13067Y26961D01*
X13204Y26864D01*
X13735Y26572D01*
X13737Y26572D01*
X13738Y26571D01*
X13893Y26507D01*
X14691Y26280D01*
X15601Y25559D01*
X15629Y25543D01*
X15646Y25531D01*
X15656Y25523D01*
X15661Y25521D01*
X15707Y25488D01*
X16725Y24929D01*
X16992Y24596D01*
X17018Y24572D01*
X17039Y24542D01*
X17109Y24490D01*
X17174Y24431D01*
X17207Y24417D01*
X17236Y24396D01*
X17320Y24368D01*
X17400Y24333D01*
X17436Y24330D01*
X17470Y24319D01*
X17558Y24320D01*
X17645Y24313D01*
X17680Y24321D01*
X17716Y24322D01*
X17877Y24368D01*
X19458Y25023D01*
X24992Y25023D01*
X30105Y22905D01*
X34018Y18992D01*
X34487Y17859D01*
X34525Y17798D01*
X34555Y17732D01*
X34590Y17694D01*
X34617Y17650D01*
X34672Y17604D01*
X34721Y17551D01*
X34782Y17514D01*
X34806Y17493D01*
X34828Y17485D01*
X34864Y17463D01*
X41536Y14289D01*
X41599Y14271D01*
X41658Y14244D01*
X41716Y14237D01*
X41772Y14221D01*
X41838Y14224D01*
X41902Y14217D01*
X41960Y14229D01*
X42018Y14232D01*
X42079Y14255D01*
X42143Y14269D01*
X42193Y14299D01*
X42248Y14320D01*
X42298Y14362D01*
X42354Y14395D01*
X42392Y14440D01*
X42437Y14477D01*
X42471Y14532D01*
X42514Y14582D01*
X42536Y14636D01*
X42566Y14686D01*
X42581Y14749D01*
X42606Y14810D01*
X42615Y14894D01*
X42623Y14926D01*
X42621Y14945D01*
X42624Y14977D01*
X42624Y18621D01*
X45319Y25127D01*
X50298Y30106D01*
X56804Y32801D01*
X63846Y32801D01*
X70352Y30106D01*
X75331Y25127D01*
X78026Y18621D01*
X78026Y11579D01*
X75331Y5073D01*
X72383Y2126D01*
X72342Y2068D01*
X72292Y2016D01*
X72270Y1968D01*
X72240Y1926D01*
X72219Y1858D01*
X72189Y1793D01*
X72183Y1741D01*
X72168Y1691D01*
X72169Y1619D01*
X72161Y1548D01*
X72173Y1497D01*
X72174Y1445D01*
X72199Y1378D01*
X72214Y1308D01*
X72240Y1263D01*
X72258Y1214D01*
X72303Y1158D01*
X72340Y1097D01*
X72379Y1063D01*
X72412Y1022D01*
X72472Y983D01*
X72527Y937D01*
X72575Y917D01*
X72619Y889D01*
X72688Y872D01*
X72755Y845D01*
X72826Y837D01*
X72857Y829D01*
X72881Y831D01*
X72922Y826D01*
X145735Y826D01*
X200096Y-53535D01*
X200131Y-53560D01*
X200161Y-53593D01*
X200231Y-53632D01*
X200295Y-53678D01*
X200337Y-53691D01*
X200376Y-53713D01*
X200454Y-53727D01*
X200531Y-53751D01*
X200574Y-53750D01*
X200617Y-53758D01*
X200696Y-53746D01*
G37*
G36*
X224873Y89729D02*
X224873Y89729D01*
X224893Y89727D01*
X224994Y89749D01*
X225096Y89766D01*
X225114Y89775D01*
X225133Y89780D01*
X225222Y89833D01*
X225314Y89881D01*
X225327Y89896D01*
X225344Y89906D01*
X225412Y89984D01*
X225483Y90059D01*
X225491Y90077D01*
X225504Y90093D01*
X225543Y90189D01*
X225587Y90283D01*
X225589Y90302D01*
X225596Y90321D01*
X225615Y90488D01*
X225615Y91304D01*
X228670Y98679D01*
X234315Y104324D01*
X241690Y107379D01*
X269485Y107379D01*
X276860Y104324D01*
X282516Y98669D01*
X282519Y98659D01*
X282568Y98599D01*
X282609Y98532D01*
X282644Y98503D01*
X282673Y98467D01*
X282739Y98425D01*
X282799Y98376D01*
X282841Y98359D01*
X282880Y98334D01*
X282956Y98315D01*
X283028Y98287D01*
X283074Y98286D01*
X283119Y98274D01*
X283196Y98280D01*
X283274Y98277D01*
X283318Y98290D01*
X283364Y98293D01*
X283435Y98324D01*
X283510Y98346D01*
X283548Y98372D01*
X283590Y98390D01*
X283697Y98475D01*
X283712Y98486D01*
X283715Y98490D01*
X283721Y98495D01*
X296964Y111737D01*
X297017Y111811D01*
X297076Y111881D01*
X297089Y111911D01*
X297107Y111937D01*
X297134Y112024D01*
X297168Y112109D01*
X297173Y112150D01*
X297180Y112172D01*
X297179Y112204D01*
X297187Y112276D01*
X297187Y160774D01*
X297172Y160865D01*
X297165Y160955D01*
X297152Y160985D01*
X297147Y161017D01*
X297104Y161098D01*
X297069Y161182D01*
X297043Y161214D01*
X297032Y161235D01*
X297009Y161257D01*
X296964Y161313D01*
X283336Y174940D01*
X283336Y180314D01*
X283332Y180339D01*
X283334Y180354D01*
X283325Y180394D01*
X283324Y180448D01*
X283306Y180502D01*
X283297Y180557D01*
X283285Y180579D01*
X283282Y180595D01*
X283260Y180631D01*
X283242Y180680D01*
X283208Y180725D01*
X283181Y180774D01*
X283165Y180790D01*
X283155Y180806D01*
X283121Y180835D01*
X283091Y180874D01*
X283027Y180921D01*
X283003Y180944D01*
X282984Y180952D01*
X282983Y180953D01*
X282968Y180966D01*
X282963Y180968D01*
X282956Y180973D01*
X210319Y222909D01*
X210211Y222950D01*
X210105Y222993D01*
X210095Y222994D01*
X210089Y222996D01*
X210066Y222997D01*
X209938Y223011D01*
X198438Y223011D01*
X198347Y222997D01*
X198257Y222989D01*
X198227Y222977D01*
X198195Y222972D01*
X198114Y222929D01*
X198030Y222893D01*
X197998Y222867D01*
X197977Y222856D01*
X197955Y222833D01*
X197899Y222788D01*
X183612Y208501D01*
X183559Y208427D01*
X183499Y208357D01*
X183487Y208327D01*
X183468Y208301D01*
X183441Y208214D01*
X183407Y208129D01*
X183403Y208088D01*
X183396Y208066D01*
X183397Y208034D01*
X183389Y207963D01*
X183389Y178535D01*
X157364Y178248D01*
X157298Y178236D01*
X157230Y178234D01*
X157177Y178215D01*
X157122Y178205D01*
X157063Y178173D01*
X156999Y178150D01*
X156955Y178115D01*
X156906Y178088D01*
X156860Y178038D01*
X156807Y177996D01*
X156777Y177949D01*
X156738Y177908D01*
X156711Y177846D01*
X156674Y177789D01*
X156660Y177735D01*
X156637Y177683D01*
X156631Y177616D01*
X156614Y177551D01*
X156618Y177495D01*
X156613Y177439D01*
X156628Y177373D01*
X156633Y177306D01*
X156655Y177254D01*
X156668Y177199D01*
X156703Y177141D01*
X156730Y177079D01*
X156779Y177017D01*
X156796Y176989D01*
X156812Y176976D01*
X156834Y176948D01*
X161056Y172727D01*
X163751Y166221D01*
X163751Y159179D01*
X161056Y152673D01*
X156077Y147694D01*
X149571Y144999D01*
X142529Y144999D01*
X136023Y147694D01*
X131044Y152673D01*
X128349Y159179D01*
X128349Y166221D01*
X131044Y172727D01*
X135013Y176695D01*
X135057Y176757D01*
X135109Y176812D01*
X135128Y176856D01*
X135156Y176895D01*
X135178Y176967D01*
X135210Y177037D01*
X135214Y177084D01*
X135229Y177130D01*
X135227Y177206D01*
X135234Y177281D01*
X135223Y177328D01*
X135222Y177376D01*
X135196Y177447D01*
X135179Y177521D01*
X135154Y177562D01*
X135138Y177607D01*
X135090Y177666D01*
X135051Y177731D01*
X135014Y177762D01*
X134984Y177799D01*
X134920Y177840D01*
X134862Y177889D01*
X134817Y177906D01*
X134777Y177932D01*
X134703Y177951D01*
X134633Y177978D01*
X134569Y177985D01*
X134539Y177992D01*
X134513Y177990D01*
X134466Y177995D01*
X60526Y177178D01*
X60413Y177158D01*
X60299Y177140D01*
X60290Y177136D01*
X60284Y177135D01*
X60265Y177125D01*
X60146Y177071D01*
X53030Y172850D01*
X53021Y172843D01*
X53011Y172839D01*
X52880Y172734D01*
X52302Y172156D01*
X52264Y172103D01*
X52218Y172056D01*
X52178Y171983D01*
X52159Y171957D01*
X52153Y171938D01*
X52137Y171909D01*
X50775Y168620D01*
X41177Y159022D01*
X41139Y158969D01*
X41093Y158922D01*
X41053Y158849D01*
X41033Y158822D01*
X41028Y158804D01*
X41012Y158775D01*
X40368Y157220D01*
X36455Y153307D01*
X31342Y151189D01*
X25808Y151189D01*
X21277Y153066D01*
X21205Y153083D01*
X21137Y153109D01*
X21086Y153111D01*
X21038Y153122D01*
X20964Y153115D01*
X20891Y153118D01*
X20843Y153104D01*
X20793Y153099D01*
X20726Y153069D01*
X20655Y153048D01*
X20597Y153012D01*
X20568Y152999D01*
X20550Y152983D01*
X20513Y152959D01*
X19603Y152238D01*
X19582Y152215D01*
X19511Y152151D01*
X18733Y151288D01*
X17985Y150931D01*
X17984Y150930D01*
X17982Y150930D01*
X17840Y150841D01*
X17365Y150464D01*
X17364Y150463D01*
X17362Y150462D01*
X17244Y150344D01*
X16725Y149696D01*
X15707Y149137D01*
X15682Y149117D01*
X15601Y149066D01*
X14691Y148345D01*
X13893Y148118D01*
X13892Y148117D01*
X13890Y148117D01*
X13735Y148053D01*
X13204Y147761D01*
X13203Y147760D01*
X13201Y147759D01*
X13065Y147662D01*
X12446Y147110D01*
X11349Y146729D01*
X11320Y146713D01*
X11232Y146677D01*
X10214Y146117D01*
X9390Y146026D01*
X9389Y146026D01*
X9387Y146026D01*
X9223Y145988D01*
X8651Y145789D01*
X8650Y145788D01*
X8648Y145788D01*
X8497Y145715D01*
X7794Y145274D01*
X6649Y145081D01*
X6619Y145070D01*
X6526Y145049D01*
X5429Y144667D01*
X4601Y144715D01*
X4599Y144715D01*
X4598Y144715D01*
X4430Y144705D01*
X3833Y144604D01*
X3831Y144604D01*
X3830Y144604D01*
X3668Y144557D01*
X2902Y144240D01*
X1741Y144240D01*
X1709Y144235D01*
X1614Y144229D01*
X469Y144035D01*
X-340Y144221D01*
X-341Y144221D01*
X-343Y144221D01*
X-509Y144240D01*
X-1116Y144240D01*
X-1117Y144239D01*
X-1119Y144240D01*
X-1285Y144221D01*
X-2094Y144035D01*
X-3239Y144229D01*
X-3271Y144229D01*
X-3366Y144240D01*
X-4527Y144240D01*
X-5293Y144557D01*
X-5295Y144558D01*
X-5297Y144558D01*
X-5458Y144604D01*
X-6055Y144705D01*
X-6057Y144705D01*
X-6059Y144706D01*
X-6226Y144715D01*
X-7054Y144667D01*
X-8151Y145049D01*
X-8183Y145055D01*
X-8274Y145081D01*
X-9419Y145274D01*
X-10122Y145715D01*
X-10123Y145716D01*
X-10125Y145717D01*
X-10276Y145789D01*
X-10848Y145988D01*
X-10850Y145989D01*
X-10852Y145990D01*
X-11015Y146026D01*
X-11839Y146117D01*
X-12857Y146677D01*
X-12888Y146688D01*
X-12974Y146729D01*
X-14071Y147110D01*
X-14690Y147662D01*
X-14691Y147663D01*
X-14692Y147664D01*
X-14829Y147761D01*
X-15360Y148053D01*
X-15362Y148053D01*
X-15363Y148054D01*
X-15518Y148118D01*
X-16316Y148345D01*
X-17226Y149066D01*
X-17254Y149082D01*
X-17332Y149137D01*
X-18350Y149696D01*
X-18869Y150344D01*
X-18870Y150345D01*
X-18871Y150346D01*
X-18876Y150352D01*
X-18879Y150356D01*
X-18891Y150367D01*
X-18990Y150464D01*
X-19465Y150841D01*
X-19466Y150842D01*
X-19467Y150843D01*
X-19610Y150931D01*
X-20358Y151288D01*
X-21136Y152151D01*
X-21161Y152171D01*
X-21228Y152239D01*
X-22139Y152960D01*
X-22542Y153685D01*
X-22543Y153686D01*
X-22544Y153687D01*
X-22641Y153824D01*
X-23047Y154274D01*
X-23048Y154275D01*
X-23049Y154277D01*
X-23175Y154387D01*
X-23853Y154864D01*
X-24476Y155845D01*
X-24497Y155869D01*
X-24553Y155946D01*
X-25330Y156810D01*
X-25607Y157591D01*
X-25607Y157593D01*
X-25608Y157594D01*
X-25681Y157745D01*
X-26006Y158257D01*
X-26007Y158258D01*
X-26008Y158260D01*
X-26114Y158390D01*
X-26703Y158973D01*
X-27153Y160044D01*
X-27170Y160071D01*
X-27212Y160157D01*
X-27517Y160637D01*
X-27583Y160711D01*
X-27644Y160789D01*
X-27668Y160807D01*
X-27680Y160820D01*
X-27709Y160837D01*
X-27779Y160888D01*
X-44196Y170367D01*
X-44304Y170407D01*
X-44410Y170450D01*
X-44420Y170451D01*
X-44427Y170454D01*
X-44449Y170454D01*
X-44577Y170469D01*
X-82550Y170469D01*
X-82570Y170465D01*
X-82589Y170468D01*
X-82691Y170446D01*
X-82793Y170429D01*
X-82810Y170420D01*
X-82830Y170415D01*
X-82919Y170362D01*
X-83010Y170314D01*
X-83024Y170299D01*
X-83041Y170289D01*
X-83108Y170210D01*
X-83180Y170135D01*
X-83188Y170117D01*
X-83201Y170102D01*
X-83240Y170006D01*
X-83283Y169912D01*
X-83285Y169893D01*
X-83293Y169874D01*
X-83311Y169707D01*
X-83311Y90488D01*
X-83308Y90468D01*
X-83310Y90448D01*
X-83288Y90347D01*
X-83272Y90245D01*
X-83262Y90227D01*
X-83258Y90208D01*
X-83205Y90119D01*
X-83156Y90027D01*
X-83142Y90014D01*
X-83132Y89997D01*
X-83053Y89929D01*
X-82978Y89858D01*
X-82960Y89850D01*
X-82945Y89837D01*
X-82849Y89798D01*
X-82755Y89754D01*
X-82735Y89752D01*
X-82717Y89745D01*
X-82550Y89726D01*
X224854Y89726D01*
X224873Y89729D01*
G37*
G36*
X-118815Y-45145D02*
X-118815Y-45145D01*
X-118724Y-45137D01*
X-118694Y-45125D01*
X-118662Y-45120D01*
X-118582Y-45077D01*
X-118498Y-45041D01*
X-118466Y-45015D01*
X-118445Y-45004D01*
X-118441Y-45000D01*
X-118440Y-45000D01*
X-118422Y-44980D01*
X-118367Y-44936D01*
X-113453Y-40023D01*
X-113400Y-39949D01*
X-113341Y-39879D01*
X-113328Y-39849D01*
X-113310Y-39823D01*
X-113283Y-39736D01*
X-113249Y-39651D01*
X-113244Y-39610D01*
X-113237Y-39588D01*
X-113238Y-39556D01*
X-113230Y-39484D01*
X-113230Y-39101D01*
X-113242Y-39030D01*
X-113244Y-38958D01*
X-113262Y-38909D01*
X-113270Y-38858D01*
X-113304Y-38795D01*
X-113328Y-38727D01*
X-113361Y-38687D01*
X-113385Y-38641D01*
X-113437Y-38591D01*
X-113482Y-38535D01*
X-113526Y-38507D01*
X-113563Y-38471D01*
X-113628Y-38441D01*
X-113689Y-38402D01*
X-113739Y-38389D01*
X-113786Y-38368D01*
X-113858Y-38360D01*
X-113927Y-38342D01*
X-113979Y-38346D01*
X-114031Y-38340D01*
X-114101Y-38356D01*
X-114172Y-38361D01*
X-114220Y-38382D01*
X-114271Y-38393D01*
X-114333Y-38429D01*
X-114399Y-38458D01*
X-114455Y-38502D01*
X-114482Y-38519D01*
X-114498Y-38537D01*
X-114530Y-38562D01*
X-117057Y-41090D01*
X-120419Y-42482D01*
X-124056Y-42482D01*
X-127418Y-41090D01*
X-129990Y-38518D01*
X-131382Y-35156D01*
X-131382Y-31519D01*
X-130484Y-29349D01*
X-130457Y-29236D01*
X-130428Y-29122D01*
X-130429Y-29116D01*
X-130427Y-29110D01*
X-130438Y-28993D01*
X-130448Y-28877D01*
X-130450Y-28871D01*
X-130451Y-28865D01*
X-130498Y-28757D01*
X-130544Y-28650D01*
X-130548Y-28645D01*
X-130551Y-28640D01*
X-130563Y-28626D01*
X-130649Y-28519D01*
X-166210Y7042D01*
X-166288Y7120D01*
X-166346Y7161D01*
X-166398Y7211D01*
X-166445Y7233D01*
X-166487Y7263D01*
X-166556Y7284D01*
X-166621Y7314D01*
X-166673Y7320D01*
X-166722Y7335D01*
X-166794Y7334D01*
X-166865Y7342D01*
X-166916Y7331D01*
X-166968Y7329D01*
X-167036Y7305D01*
X-167106Y7289D01*
X-167150Y7263D01*
X-167199Y7245D01*
X-167255Y7200D01*
X-167317Y7163D01*
X-167351Y7124D01*
X-167391Y7091D01*
X-167430Y7031D01*
X-167477Y6976D01*
X-167496Y6928D01*
X-167524Y6884D01*
X-167542Y6815D01*
X-167569Y6748D01*
X-167577Y6677D01*
X-167585Y6646D01*
X-167583Y6622D01*
X-167587Y6581D01*
X-167587Y4909D01*
X-167573Y4819D01*
X-167565Y4728D01*
X-167553Y4698D01*
X-167548Y4666D01*
X-167538Y4648D01*
X-167538Y-7719D01*
X-168431Y-8612D01*
X-170507Y-8612D01*
X-170526Y-8615D01*
X-170546Y-8613D01*
X-170647Y-8635D01*
X-170749Y-8652D01*
X-170767Y-8661D01*
X-170786Y-8666D01*
X-170875Y-8719D01*
X-170967Y-8767D01*
X-170980Y-8781D01*
X-170997Y-8792D01*
X-171065Y-8870D01*
X-171136Y-8945D01*
X-171144Y-8963D01*
X-171157Y-8979D01*
X-171196Y-9075D01*
X-171240Y-9168D01*
X-171242Y-9188D01*
X-171249Y-9207D01*
X-171268Y-9373D01*
X-171268Y-23664D01*
X-171249Y-23778D01*
X-171232Y-23895D01*
X-171229Y-23900D01*
X-171228Y-23906D01*
X-171174Y-24009D01*
X-171120Y-24114D01*
X-171116Y-24118D01*
X-171113Y-24124D01*
X-171029Y-24204D01*
X-170945Y-24286D01*
X-170938Y-24290D01*
X-170935Y-24293D01*
X-170918Y-24301D01*
X-170798Y-24367D01*
X-167857Y-25585D01*
X-165285Y-28157D01*
X-164386Y-30327D01*
X-164325Y-30426D01*
X-164265Y-30526D01*
X-164260Y-30531D01*
X-164257Y-30536D01*
X-164167Y-30610D01*
X-164078Y-30686D01*
X-164072Y-30689D01*
X-164067Y-30693D01*
X-163959Y-30734D01*
X-163850Y-30778D01*
X-163842Y-30779D01*
X-163838Y-30781D01*
X-163819Y-30782D01*
X-163683Y-30797D01*
X-156992Y-30797D01*
X-156877Y-30778D01*
X-156761Y-30761D01*
X-156755Y-30758D01*
X-156749Y-30757D01*
X-156647Y-30703D01*
X-156542Y-30649D01*
X-156537Y-30645D01*
X-156532Y-30642D01*
X-156452Y-30558D01*
X-156369Y-30474D01*
X-156366Y-30467D01*
X-156362Y-30464D01*
X-156355Y-30447D01*
X-156289Y-30327D01*
X-155390Y-28157D01*
X-152818Y-25585D01*
X-149456Y-24193D01*
X-145819Y-24193D01*
X-142457Y-25585D01*
X-139885Y-28157D01*
X-138493Y-31519D01*
X-138493Y-35156D01*
X-139885Y-38518D01*
X-142457Y-41090D01*
X-145819Y-42482D01*
X-149456Y-42482D01*
X-152818Y-41090D01*
X-155390Y-38518D01*
X-156289Y-36348D01*
X-156350Y-36249D01*
X-156410Y-36149D01*
X-156415Y-36144D01*
X-156418Y-36139D01*
X-156508Y-36065D01*
X-156597Y-35989D01*
X-156603Y-35986D01*
X-156608Y-35982D01*
X-156716Y-35941D01*
X-156825Y-35897D01*
X-156833Y-35896D01*
X-156837Y-35894D01*
X-156856Y-35893D01*
X-156992Y-35878D01*
X-163683Y-35878D01*
X-163798Y-35897D01*
X-163914Y-35914D01*
X-163920Y-35917D01*
X-163926Y-35918D01*
X-164028Y-35972D01*
X-164133Y-36026D01*
X-164138Y-36030D01*
X-164143Y-36033D01*
X-164223Y-36117D01*
X-164306Y-36201D01*
X-164309Y-36208D01*
X-164313Y-36211D01*
X-164320Y-36228D01*
X-164386Y-36348D01*
X-165285Y-38518D01*
X-167857Y-41090D01*
X-171219Y-42482D01*
X-174856Y-42482D01*
X-178218Y-41090D01*
X-180790Y-38518D01*
X-182182Y-35156D01*
X-182182Y-31519D01*
X-180790Y-28157D01*
X-178218Y-25585D01*
X-177327Y-25216D01*
X-177227Y-25154D01*
X-177128Y-25095D01*
X-177124Y-25090D01*
X-177118Y-25087D01*
X-177043Y-24996D01*
X-176968Y-24908D01*
X-176965Y-24902D01*
X-176961Y-24897D01*
X-176920Y-24789D01*
X-176876Y-24680D01*
X-176875Y-24672D01*
X-176873Y-24667D01*
X-176872Y-24649D01*
X-176857Y-24513D01*
X-176857Y-9373D01*
X-176860Y-9355D01*
X-176858Y-9336D01*
X-176858Y-9335D01*
X-176858Y-9334D01*
X-176880Y-9233D01*
X-176897Y-9131D01*
X-176906Y-9113D01*
X-176911Y-9094D01*
X-176964Y-9005D01*
X-177012Y-8913D01*
X-177026Y-8900D01*
X-177037Y-8883D01*
X-177115Y-8815D01*
X-177190Y-8744D01*
X-177208Y-8736D01*
X-177224Y-8723D01*
X-177320Y-8684D01*
X-177413Y-8640D01*
X-177433Y-8638D01*
X-177452Y-8631D01*
X-177618Y-8612D01*
X-179694Y-8612D01*
X-180587Y-7719D01*
X-180587Y4544D01*
X-179694Y5437D01*
X-173938Y5437D01*
X-173918Y5440D01*
X-173899Y5438D01*
X-173797Y5460D01*
X-173695Y5477D01*
X-173678Y5486D01*
X-173658Y5491D01*
X-173569Y5544D01*
X-173478Y5592D01*
X-173464Y5606D01*
X-173447Y5617D01*
X-173380Y5695D01*
X-173308Y5770D01*
X-173300Y5788D01*
X-173287Y5804D01*
X-173248Y5900D01*
X-173205Y5993D01*
X-173203Y6013D01*
X-173195Y6032D01*
X-173177Y6198D01*
X-173177Y59425D01*
X-173180Y59444D01*
X-173178Y59464D01*
X-173200Y59565D01*
X-173216Y59667D01*
X-173226Y59685D01*
X-173230Y59704D01*
X-173283Y59793D01*
X-173332Y59885D01*
X-173346Y59898D01*
X-173356Y59915D01*
X-173435Y59983D01*
X-173510Y60054D01*
X-173528Y60062D01*
X-173543Y60075D01*
X-173639Y60114D01*
X-173733Y60158D01*
X-173753Y60160D01*
X-173771Y60167D01*
X-173938Y60186D01*
X-188654Y60186D01*
X-188744Y60171D01*
X-188835Y60164D01*
X-188865Y60151D01*
X-188897Y60146D01*
X-188978Y60103D01*
X-189062Y60068D01*
X-189094Y60042D01*
X-189114Y60031D01*
X-189137Y60008D01*
X-189193Y59963D01*
X-220265Y28891D01*
X-220318Y28817D01*
X-220377Y28747D01*
X-220390Y28717D01*
X-220408Y28691D01*
X-220435Y28604D01*
X-220469Y28519D01*
X-220474Y28478D01*
X-220481Y28456D01*
X-220480Y28424D01*
X-220488Y28352D01*
X-220488Y16093D01*
X-221381Y15200D01*
X-232644Y15200D01*
X-233537Y16093D01*
X-233537Y28357D01*
X-232644Y29250D01*
X-228126Y29250D01*
X-228036Y29264D01*
X-227945Y29272D01*
X-227915Y29284D01*
X-227883Y29289D01*
X-227802Y29332D01*
X-227718Y29368D01*
X-227686Y29394D01*
X-227666Y29405D01*
X-227643Y29428D01*
X-227587Y29473D01*
X-205719Y51341D01*
X-205677Y51399D01*
X-205628Y51451D01*
X-205606Y51499D01*
X-205575Y51541D01*
X-205554Y51609D01*
X-205524Y51675D01*
X-205518Y51726D01*
X-205503Y51776D01*
X-205505Y51848D01*
X-205497Y51919D01*
X-205508Y51970D01*
X-205509Y52022D01*
X-205534Y52089D01*
X-205549Y52159D01*
X-205576Y52204D01*
X-205594Y52253D01*
X-205639Y52309D01*
X-205675Y52370D01*
X-205715Y52404D01*
X-205748Y52445D01*
X-205808Y52484D01*
X-205862Y52530D01*
X-205911Y52550D01*
X-205954Y52578D01*
X-206024Y52595D01*
X-206090Y52622D01*
X-206162Y52630D01*
X-206193Y52638D01*
X-206216Y52636D01*
X-206257Y52641D01*
X-287940Y52641D01*
X-289651Y54352D01*
X-294088Y58788D01*
X-294131Y58819D01*
X-294168Y58858D01*
X-294230Y58891D01*
X-294287Y58932D01*
X-294338Y58948D01*
X-294386Y58972D01*
X-294455Y58984D01*
X-294522Y59004D01*
X-294576Y59003D01*
X-294629Y59011D01*
X-294739Y58999D01*
X-294768Y58998D01*
X-294779Y58994D01*
X-294795Y58992D01*
X-295444Y58844D01*
X-295476Y58831D01*
X-295510Y58826D01*
X-295590Y58785D01*
X-295672Y58751D01*
X-295698Y58729D01*
X-295729Y58713D01*
X-295787Y58659D01*
X-296429Y58611D01*
X-296461Y58603D01*
X-296541Y58594D01*
X-297166Y58451D01*
X-297234Y58473D01*
X-297316Y58507D01*
X-297351Y58510D01*
X-297384Y58521D01*
X-297551Y58526D01*
X-298107Y58485D01*
X-298219Y58458D01*
X-298330Y58434D01*
X-298338Y58429D01*
X-298346Y58427D01*
X-298443Y58366D01*
X-298541Y58307D01*
X-298547Y58301D01*
X-298555Y58296D01*
X-298627Y58208D01*
X-298701Y58121D01*
X-298705Y58112D01*
X-298710Y58106D01*
X-298750Y57999D01*
X-298793Y57892D01*
X-298794Y57882D01*
X-298797Y57875D01*
X-298798Y57852D01*
X-298812Y57726D01*
X-298812Y23385D01*
X-298797Y23293D01*
X-298789Y23200D01*
X-298777Y23172D01*
X-298772Y23142D01*
X-298728Y23060D01*
X-298691Y22974D01*
X-298671Y22952D01*
X-298657Y22925D01*
X-298589Y22861D01*
X-298527Y22791D01*
X-298501Y22776D01*
X-298479Y22756D01*
X-298394Y22716D01*
X-298313Y22670D01*
X-298276Y22661D01*
X-298256Y22652D01*
X-298223Y22648D01*
X-298150Y22630D01*
X-296511Y22415D01*
X-294362Y21839D01*
X-293714Y21665D01*
X-291517Y20755D01*
X-291038Y20557D01*
X-288896Y19320D01*
X-288530Y19109D01*
X-286451Y17513D01*
X-286232Y17346D01*
X-284185Y15298D01*
X-282468Y13060D01*
X-284714Y11763D01*
X-284719Y11772D01*
X-284741Y11798D01*
X-284764Y11838D01*
X-286703Y14213D01*
X-286730Y14235D01*
X-286759Y14271D01*
X-289054Y16305D01*
X-289083Y16321D01*
X-289118Y16353D01*
X-291710Y17992D01*
X-291742Y18004D01*
X-291781Y18029D01*
X-294602Y19231D01*
X-294635Y19238D01*
X-294678Y19256D01*
X-297655Y19990D01*
X-297689Y19991D01*
X-297734Y20003D01*
X-300791Y20250D01*
X-300819Y20246D01*
X-300848Y20251D01*
X-300917Y20234D01*
X-300988Y20226D01*
X-301013Y20211D01*
X-301041Y20205D01*
X-301099Y20162D01*
X-301161Y20127D01*
X-301178Y20104D01*
X-301201Y20087D01*
X-301238Y20025D01*
X-301281Y19968D01*
X-301288Y19940D01*
X-301303Y19915D01*
X-301319Y19817D01*
X-301330Y19776D01*
X-301328Y19765D01*
X-301330Y19751D01*
X-301307Y712D01*
X-301292Y637D01*
X-301284Y560D01*
X-301272Y540D01*
X-301268Y517D01*
X-301224Y454D01*
X-301186Y387D01*
X-301166Y370D01*
X-301155Y353D01*
X-301117Y329D01*
X-301058Y280D01*
X-284581Y-9259D01*
X-284554Y-9268D01*
X-284530Y-9285D01*
X-284460Y-9300D01*
X-284393Y-9322D01*
X-284364Y-9320D01*
X-284335Y-9326D01*
X-284265Y-9313D01*
X-284194Y-9307D01*
X-284169Y-9294D01*
X-284140Y-9288D01*
X-284081Y-9248D01*
X-284018Y-9216D01*
X-283999Y-9193D01*
X-283975Y-9177D01*
X-283918Y-9095D01*
X-283891Y-9063D01*
X-283888Y-9052D01*
X-283880Y-9041D01*
X-282565Y-6271D01*
X-282557Y-6238D01*
X-282537Y-6196D01*
X-281684Y-3251D01*
X-281681Y-3217D01*
X-281668Y-3172D01*
X-281298Y-128D01*
X-281301Y-94D01*
X-281295Y-48D01*
X-281418Y3016D01*
X-281426Y3049D01*
X-281428Y3096D01*
X-282041Y6100D01*
X-282055Y6131D01*
X-282064Y6177D01*
X-283151Y9044D01*
X-283169Y9073D01*
X-283185Y9117D01*
X-283190Y9125D01*
X-280944Y10422D01*
X-279865Y7816D01*
X-279116Y5019D01*
X-278738Y2147D01*
X-278738Y-749D01*
X-279116Y-3620D01*
X-279865Y-6418D01*
X-280497Y-7942D01*
X-280518Y-8033D01*
X-280546Y-8122D01*
X-280546Y-8152D01*
X-280553Y-8182D01*
X-280544Y-8274D01*
X-280543Y-8368D01*
X-280533Y-8396D01*
X-280530Y-8426D01*
X-280492Y-8512D01*
X-280461Y-8600D01*
X-280442Y-8623D01*
X-280430Y-8651D01*
X-280367Y-8720D01*
X-280309Y-8793D01*
X-280278Y-8816D01*
X-280263Y-8832D01*
X-280235Y-8848D01*
X-280174Y-8893D01*
X-250448Y-26054D01*
X-250341Y-26095D01*
X-250235Y-26138D01*
X-250226Y-26138D01*
X-250218Y-26141D01*
X-250104Y-26145D01*
X-249990Y-26152D01*
X-249981Y-26150D01*
X-249973Y-26150D01*
X-249863Y-26118D01*
X-249752Y-26088D01*
X-249745Y-26083D01*
X-249737Y-26080D01*
X-249643Y-26015D01*
X-249548Y-25951D01*
X-249541Y-25943D01*
X-249535Y-25939D01*
X-249522Y-25921D01*
X-249439Y-25824D01*
X-249129Y-25368D01*
X-249114Y-25337D01*
X-249092Y-25310D01*
X-249062Y-25226D01*
X-249025Y-25145D01*
X-249021Y-25111D01*
X-249009Y-25078D01*
X-249003Y-24999D01*
X-248566Y-24527D01*
X-248548Y-24500D01*
X-248495Y-24438D01*
X-248379Y-24268D01*
X-248379Y-24267D01*
X-248378Y-24267D01*
X-248134Y-23909D01*
X-248069Y-23878D01*
X-247986Y-23848D01*
X-247959Y-23826D01*
X-247927Y-23811D01*
X-247800Y-23702D01*
X-246302Y-22086D01*
X-246283Y-22057D01*
X-246257Y-22033D01*
X-246233Y-21988D01*
X-246229Y-21984D01*
X-246219Y-21962D01*
X-246215Y-21955D01*
X-246166Y-21881D01*
X-246157Y-21847D01*
X-246140Y-21816D01*
X-246130Y-21771D01*
X-246125Y-21761D01*
X-246123Y-21740D01*
X-246123Y-21739D01*
X-245620Y-21338D01*
X-245598Y-21313D01*
X-245536Y-21260D01*
X-245101Y-20791D01*
X-245032Y-20770D01*
X-244945Y-20752D01*
X-244915Y-20735D01*
X-244882Y-20725D01*
X-244751Y-20643D01*
X-244745Y-20640D01*
X-244744Y-20638D01*
X-244740Y-20636D01*
X-243017Y-19261D01*
X-242994Y-19235D01*
X-242965Y-19215D01*
X-242912Y-19144D01*
X-242852Y-19078D01*
X-242838Y-19046D01*
X-242818Y-19019D01*
X-242789Y-18945D01*
X-242232Y-18623D01*
X-242206Y-18602D01*
X-242137Y-18559D01*
X-241637Y-18159D01*
X-241566Y-18149D01*
X-241477Y-18145D01*
X-241445Y-18132D01*
X-241411Y-18127D01*
X-241257Y-18060D01*
X-239348Y-16957D01*
X-239321Y-16935D01*
X-239290Y-16920D01*
X-239227Y-16858D01*
X-239158Y-16801D01*
X-239140Y-16772D01*
X-239115Y-16748D01*
X-239075Y-16679D01*
X-238476Y-16443D01*
X-238448Y-16427D01*
X-238374Y-16394D01*
X-237819Y-16074D01*
X-237748Y-16074D01*
X-237659Y-16083D01*
X-237625Y-16075D01*
X-237591Y-16076D01*
X-237429Y-16032D01*
X-235377Y-15226D01*
X-235347Y-15208D01*
X-235314Y-15198D01*
X-235242Y-15146D01*
X-235166Y-15100D01*
X-235143Y-15074D01*
X-235115Y-15054D01*
X-235066Y-14991D01*
X-234438Y-14848D01*
X-234408Y-14835D01*
X-234330Y-14814D01*
X-233734Y-14580D01*
X-233663Y-14592D01*
X-233577Y-14613D01*
X-233542Y-14611D01*
X-233508Y-14616D01*
X-233341Y-14597D01*
X-231192Y-14106D01*
X-231160Y-14093D01*
X-231126Y-14088D01*
X-231047Y-14047D01*
X-230965Y-14013D01*
X-230938Y-13991D01*
X-230907Y-13975D01*
X-230849Y-13920D01*
X-230208Y-13872D01*
X-230176Y-13864D01*
X-230095Y-13855D01*
X-229471Y-13712D01*
X-229403Y-13734D01*
X-229320Y-13769D01*
X-229286Y-13771D01*
X-229253Y-13782D01*
X-229085Y-13788D01*
X-226887Y-13622D01*
X-226854Y-13614D01*
X-226819Y-13614D01*
X-226735Y-13585D01*
X-226648Y-13564D01*
X-226619Y-13546D01*
X-226586Y-13535D01*
X-226521Y-13490D01*
X-225879Y-13538D01*
X-225846Y-13535D01*
X-225765Y-13538D01*
X-225126Y-13490D01*
X-225062Y-13521D01*
X-224986Y-13568D01*
X-224952Y-13575D01*
X-224921Y-13591D01*
X-224756Y-13622D01*
X-222558Y-13786D01*
X-222524Y-13783D01*
X-222489Y-13788D01*
X-222402Y-13772D01*
X-222313Y-13764D01*
X-222281Y-13750D01*
X-222247Y-13744D01*
X-222176Y-13709D01*
X-221548Y-13852D01*
X-221515Y-13854D01*
X-221436Y-13869D01*
X-220797Y-13917D01*
X-220738Y-13958D01*
X-220670Y-14015D01*
X-220638Y-14028D01*
X-220609Y-14047D01*
X-220451Y-14103D01*
X-218302Y-14592D01*
X-218267Y-14595D01*
X-218234Y-14605D01*
X-218145Y-14602D01*
X-218056Y-14608D01*
X-218023Y-14599D01*
X-217988Y-14598D01*
X-217912Y-14574D01*
X-217313Y-14809D01*
X-217281Y-14816D01*
X-217204Y-14842D01*
X-216580Y-14985D01*
X-216528Y-15034D01*
X-216469Y-15101D01*
X-216439Y-15118D01*
X-216414Y-15142D01*
X-216265Y-15220D01*
X-214213Y-16024D01*
X-214179Y-16032D01*
X-214148Y-16047D01*
X-214060Y-16057D01*
X-213973Y-16076D01*
X-213938Y-16072D01*
X-213904Y-16076D01*
X-213825Y-16064D01*
X-213268Y-16386D01*
X-213237Y-16398D01*
X-213165Y-16435D01*
X-212569Y-16669D01*
X-212525Y-16725D01*
X-212477Y-16800D01*
X-212450Y-16822D01*
X-212428Y-16849D01*
X-212293Y-16948D01*
X-210384Y-18050D01*
X-210351Y-18062D01*
X-210323Y-18082D01*
X-210237Y-18105D01*
X-210154Y-18137D01*
X-210119Y-18138D01*
X-210086Y-18147D01*
X-210006Y-18147D01*
X-209503Y-18548D01*
X-209474Y-18564D01*
X-209409Y-18612D01*
X-208854Y-18932D01*
X-208819Y-18995D01*
X-208782Y-19076D01*
X-208759Y-19101D01*
X-208742Y-19131D01*
X-208623Y-19250D01*
X-206899Y-20623D01*
X-206869Y-20640D01*
X-206843Y-20664D01*
X-206762Y-20700D01*
X-206684Y-20744D01*
X-206650Y-20750D01*
X-206619Y-20764D01*
X-206540Y-20776D01*
X-206102Y-21248D01*
X-206076Y-21268D01*
X-206019Y-21325D01*
X-205518Y-21724D01*
X-205498Y-21775D01*
X-205485Y-21835D01*
X-205475Y-21853D01*
X-205468Y-21877D01*
X-205449Y-21905D01*
X-205436Y-21938D01*
X-205374Y-22021D01*
X-205359Y-22047D01*
X-205349Y-22055D01*
X-205336Y-22072D01*
X-203837Y-23688D01*
X-203809Y-23709D01*
X-203788Y-23736D01*
X-203713Y-23784D01*
X-203642Y-23839D01*
X-203610Y-23850D01*
X-203580Y-23869D01*
X-203505Y-23892D01*
X-203142Y-24424D01*
X-203119Y-24447D01*
X-203071Y-24512D01*
X-202635Y-24982D01*
X-202620Y-25052D01*
X-202609Y-25140D01*
X-202594Y-25171D01*
X-202586Y-25205D01*
X-202508Y-25353D01*
X-201265Y-27174D01*
X-201241Y-27199D01*
X-201224Y-27229D01*
X-201157Y-27288D01*
X-201096Y-27352D01*
X-201065Y-27368D01*
X-201039Y-27391D01*
X-200967Y-27426D01*
X-200688Y-28005D01*
X-200669Y-28032D01*
X-200631Y-28104D01*
X-200270Y-28633D01*
X-200265Y-28704D01*
X-200267Y-28793D01*
X-200257Y-28826D01*
X-200255Y-28861D01*
X-200199Y-29019D01*
X-199242Y-31005D01*
X-199222Y-31033D01*
X-199210Y-31065D01*
X-199152Y-31133D01*
X-199101Y-31206D01*
X-199073Y-31227D01*
X-199051Y-31253D01*
X-198985Y-31298D01*
X-198795Y-31913D01*
X-198780Y-31942D01*
X-198754Y-32019D01*
X-198475Y-32596D01*
X-198481Y-32667D01*
X-198497Y-32755D01*
X-198492Y-32789D01*
X-198495Y-32824D01*
X-198463Y-32988D01*
X-197813Y-35094D01*
X-197797Y-35125D01*
X-197789Y-35159D01*
X-197743Y-35235D01*
X-197703Y-35314D01*
X-197679Y-35339D01*
X-197660Y-35369D01*
X-197602Y-35422D01*
X-197506Y-36059D01*
X-197496Y-36090D01*
X-197481Y-36170D01*
X-197292Y-36782D01*
X-197308Y-36851D01*
X-197336Y-36936D01*
X-197336Y-36970D01*
X-197344Y-37004D01*
X-197338Y-37172D01*
X-197009Y-39351D01*
X-196998Y-39384D01*
X-196995Y-39419D01*
X-196960Y-39501D01*
X-196933Y-39585D01*
X-196912Y-39613D01*
X-196899Y-39645D01*
X-196849Y-39707D01*
X-196849Y-40351D01*
X-196844Y-40383D01*
X-196841Y-40464D01*
X-196745Y-41097D01*
X-196772Y-41164D01*
X-196812Y-41243D01*
X-196817Y-41277D01*
X-196830Y-41309D01*
X-196849Y-41476D01*
X-196848Y-43680D01*
X-196842Y-43715D01*
X-196845Y-43749D01*
X-196823Y-43835D01*
X-196808Y-43923D01*
X-196792Y-43954D01*
X-196783Y-43987D01*
X-196743Y-44056D01*
X-196778Y-44285D01*
X-196777Y-44361D01*
X-196785Y-44437D01*
X-196775Y-44484D01*
X-196775Y-44531D01*
X-196749Y-44603D01*
X-196733Y-44678D01*
X-196709Y-44718D01*
X-196693Y-44763D01*
X-196646Y-44823D01*
X-196607Y-44889D01*
X-196571Y-44920D01*
X-196542Y-44957D01*
X-196478Y-44999D01*
X-196420Y-45049D01*
X-196376Y-45067D01*
X-196337Y-45093D01*
X-196263Y-45112D01*
X-196192Y-45141D01*
X-196129Y-45148D01*
X-196099Y-45156D01*
X-196073Y-45154D01*
X-196025Y-45159D01*
X-118905Y-45159D01*
X-118815Y-45145D01*
G37*
G36*
X-224172Y62877D02*
X-224172Y62877D01*
X-224100Y62879D01*
X-224051Y62897D01*
X-224000Y62905D01*
X-223937Y62939D01*
X-223869Y62964D01*
X-223829Y62996D01*
X-223783Y63021D01*
X-223733Y63073D01*
X-223677Y63117D01*
X-223649Y63161D01*
X-223613Y63199D01*
X-223583Y63264D01*
X-223544Y63324D01*
X-223532Y63375D01*
X-223510Y63422D01*
X-223502Y63493D01*
X-223484Y63563D01*
X-223488Y63615D01*
X-223483Y63666D01*
X-223498Y63737D01*
X-223503Y63808D01*
X-223524Y63856D01*
X-223535Y63907D01*
X-223572Y63968D01*
X-223600Y64034D01*
X-223644Y64090D01*
X-223661Y64118D01*
X-223679Y64133D01*
X-223704Y64165D01*
X-239150Y79610D01*
X-239150Y81052D01*
X-239153Y81071D01*
X-239151Y81091D01*
X-239173Y81192D01*
X-239189Y81294D01*
X-239199Y81312D01*
X-239203Y81331D01*
X-239256Y81420D01*
X-239305Y81512D01*
X-239319Y81525D01*
X-239329Y81542D01*
X-239408Y81610D01*
X-239483Y81681D01*
X-239501Y81689D01*
X-239516Y81702D01*
X-239612Y81741D01*
X-239706Y81785D01*
X-239726Y81787D01*
X-239744Y81794D01*
X-239911Y81813D01*
X-247432Y81813D01*
X-248325Y82706D01*
X-248325Y93969D01*
X-247432Y94862D01*
X-235412Y94862D01*
X-235297Y94881D01*
X-235181Y94898D01*
X-235175Y94901D01*
X-235169Y94902D01*
X-235066Y94956D01*
X-234962Y95010D01*
X-234957Y95014D01*
X-234952Y95017D01*
X-234872Y95101D01*
X-234789Y95185D01*
X-234786Y95192D01*
X-234782Y95195D01*
X-234774Y95212D01*
X-234708Y95332D01*
X-233387Y98523D01*
X-233364Y98618D01*
X-233336Y98711D01*
X-233336Y98738D01*
X-233330Y98763D01*
X-233340Y98860D01*
X-233342Y98957D01*
X-233351Y98982D01*
X-233354Y99008D01*
X-233393Y99097D01*
X-233427Y99188D01*
X-233443Y99209D01*
X-233454Y99233D01*
X-233519Y99304D01*
X-233580Y99380D01*
X-233602Y99394D01*
X-233620Y99414D01*
X-233705Y99461D01*
X-233733Y99478D01*
X-233719Y99472D01*
X-233622Y99461D01*
X-233526Y99444D01*
X-233500Y99448D01*
X-233475Y99445D01*
X-233379Y99465D01*
X-233283Y99480D01*
X-233260Y99491D01*
X-233234Y99497D01*
X-233151Y99547D01*
X-233064Y99591D01*
X-233045Y99610D01*
X-233023Y99623D01*
X-232960Y99697D01*
X-232892Y99767D01*
X-232876Y99795D01*
X-232863Y99810D01*
X-232851Y99841D01*
X-232811Y99914D01*
X-231826Y102291D01*
X-225803Y108314D01*
X-217934Y111573D01*
X-209416Y111573D01*
X-201547Y108314D01*
X-195524Y102291D01*
X-192264Y94421D01*
X-192264Y85904D01*
X-193656Y82543D01*
X-193679Y82448D01*
X-193707Y82355D01*
X-193707Y82329D01*
X-193713Y82303D01*
X-193703Y82206D01*
X-193701Y82109D01*
X-193692Y82084D01*
X-193689Y82058D01*
X-193650Y81969D01*
X-193616Y81878D01*
X-193600Y81858D01*
X-193589Y81834D01*
X-193524Y81762D01*
X-193463Y81686D01*
X-193441Y81672D01*
X-193423Y81653D01*
X-193338Y81606D01*
X-193256Y81553D01*
X-193230Y81547D01*
X-193208Y81534D01*
X-193112Y81517D01*
X-193017Y81493D01*
X-192991Y81495D01*
X-192965Y81490D01*
X-192869Y81504D01*
X-192772Y81512D01*
X-192748Y81522D01*
X-192722Y81526D01*
X-192635Y81570D01*
X-192546Y81608D01*
X-192520Y81629D01*
X-192503Y81638D01*
X-192480Y81661D01*
X-192415Y81713D01*
X-183347Y90781D01*
X-181711Y90781D01*
X-181691Y90784D01*
X-181672Y90782D01*
X-181570Y90804D01*
X-181468Y90821D01*
X-181451Y90830D01*
X-181431Y90835D01*
X-181342Y90888D01*
X-181251Y90936D01*
X-181237Y90950D01*
X-181220Y90961D01*
X-181153Y91039D01*
X-181081Y91114D01*
X-181073Y91132D01*
X-181060Y91148D01*
X-181021Y91244D01*
X-180978Y91337D01*
X-180976Y91357D01*
X-180968Y91376D01*
X-180950Y91542D01*
X-180950Y94890D01*
X-180889Y94951D01*
X-180877Y94967D01*
X-180862Y94979D01*
X-180806Y95066D01*
X-180746Y95150D01*
X-180740Y95169D01*
X-180729Y95186D01*
X-180704Y95287D01*
X-180673Y95385D01*
X-180674Y95405D01*
X-180669Y95425D01*
X-180677Y95528D01*
X-180680Y95631D01*
X-180686Y95650D01*
X-180688Y95670D01*
X-180728Y95765D01*
X-180764Y95862D01*
X-180776Y95878D01*
X-180784Y95896D01*
X-180889Y96027D01*
X-180950Y96088D01*
X-180950Y99891D01*
X-180889Y99952D01*
X-180877Y99968D01*
X-180862Y99980D01*
X-180806Y100067D01*
X-180746Y100151D01*
X-180740Y100170D01*
X-180729Y100187D01*
X-180704Y100288D01*
X-180673Y100386D01*
X-180674Y100406D01*
X-180669Y100426D01*
X-180677Y100529D01*
X-180680Y100632D01*
X-180686Y100651D01*
X-180688Y100671D01*
X-180728Y100766D01*
X-180764Y100863D01*
X-180776Y100879D01*
X-180784Y100897D01*
X-180889Y101028D01*
X-180950Y101089D01*
X-180950Y104892D01*
X-180889Y104953D01*
X-180877Y104969D01*
X-180862Y104981D01*
X-180806Y105068D01*
X-180746Y105152D01*
X-180740Y105171D01*
X-180729Y105188D01*
X-180704Y105289D01*
X-180673Y105387D01*
X-180674Y105407D01*
X-180669Y105427D01*
X-180677Y105530D01*
X-180680Y105633D01*
X-180686Y105652D01*
X-180688Y105672D01*
X-180728Y105767D01*
X-180764Y105864D01*
X-180776Y105880D01*
X-180784Y105898D01*
X-180889Y106029D01*
X-180950Y106090D01*
X-180950Y109692D01*
X-180953Y109711D01*
X-180951Y109731D01*
X-180973Y109832D01*
X-180989Y109934D01*
X-180999Y109952D01*
X-181003Y109971D01*
X-181056Y110060D01*
X-181105Y110152D01*
X-181119Y110165D01*
X-181129Y110182D01*
X-181208Y110250D01*
X-181283Y110321D01*
X-181301Y110329D01*
X-181316Y110342D01*
X-181412Y110381D01*
X-181506Y110425D01*
X-181526Y110427D01*
X-181544Y110434D01*
X-181711Y110453D01*
X-182089Y110453D01*
X-214563Y142927D01*
X-214563Y153977D01*
X-214566Y153996D01*
X-214564Y154016D01*
X-214586Y154117D01*
X-214603Y154219D01*
X-214612Y154237D01*
X-214617Y154256D01*
X-214670Y154345D01*
X-214718Y154437D01*
X-214732Y154450D01*
X-214743Y154467D01*
X-214821Y154535D01*
X-214896Y154606D01*
X-214914Y154614D01*
X-214930Y154627D01*
X-215026Y154666D01*
X-215119Y154710D01*
X-215139Y154712D01*
X-215158Y154719D01*
X-215324Y154738D01*
X-227394Y154738D01*
X-228287Y155631D01*
X-228287Y163253D01*
X-228302Y163343D01*
X-228309Y163434D01*
X-228322Y163464D01*
X-228327Y163496D01*
X-228370Y163577D01*
X-228405Y163660D01*
X-228431Y163693D01*
X-228442Y163713D01*
X-228465Y163735D01*
X-228510Y163791D01*
X-229437Y164718D01*
X-229437Y178182D01*
X-228544Y179075D01*
X-219417Y179075D01*
X-219397Y179078D01*
X-219377Y179076D01*
X-219276Y179098D01*
X-219174Y179114D01*
X-219157Y179124D01*
X-219137Y179128D01*
X-219048Y179181D01*
X-218957Y179230D01*
X-218943Y179244D01*
X-218926Y179254D01*
X-218859Y179333D01*
X-218787Y179408D01*
X-218779Y179426D01*
X-218766Y179441D01*
X-218727Y179537D01*
X-218684Y179631D01*
X-218682Y179651D01*
X-218674Y179669D01*
X-218656Y179836D01*
X-218656Y182407D01*
X-218670Y182498D01*
X-218678Y182588D01*
X-218690Y182618D01*
X-218695Y182650D01*
X-218738Y182731D01*
X-218774Y182815D01*
X-218800Y182847D01*
X-218811Y182868D01*
X-218834Y182890D01*
X-218879Y182946D01*
X-220664Y184731D01*
X-220664Y187725D01*
X-220681Y187828D01*
X-220693Y187932D01*
X-220700Y187949D01*
X-220703Y187968D01*
X-220752Y188060D01*
X-220797Y188155D01*
X-220810Y188168D01*
X-220819Y188185D01*
X-220894Y188257D01*
X-220967Y188333D01*
X-220983Y188341D01*
X-220997Y188354D01*
X-221092Y188398D01*
X-221185Y188447D01*
X-221203Y188450D01*
X-221220Y188458D01*
X-221324Y188469D01*
X-221427Y188486D01*
X-221450Y188483D01*
X-221464Y188485D01*
X-221495Y188478D01*
X-221594Y188467D01*
X-222173Y188335D01*
X-222241Y188357D01*
X-222323Y188391D01*
X-222358Y188394D01*
X-222391Y188405D01*
X-222558Y188411D01*
X-224756Y188247D01*
X-224790Y188238D01*
X-224825Y188238D01*
X-224909Y188210D01*
X-224995Y188189D01*
X-225025Y188170D01*
X-225058Y188159D01*
X-225123Y188114D01*
X-225765Y188163D01*
X-225798Y188160D01*
X-225879Y188163D01*
X-226517Y188115D01*
X-226582Y188147D01*
X-226658Y188193D01*
X-226691Y188201D01*
X-226722Y188216D01*
X-226887Y188247D01*
X-229085Y188413D01*
X-229120Y188410D01*
X-229154Y188415D01*
X-229242Y188399D01*
X-229330Y188391D01*
X-229362Y188377D01*
X-229396Y188371D01*
X-229468Y188337D01*
X-230095Y188480D01*
X-230128Y188482D01*
X-230208Y188497D01*
X-230846Y188545D01*
X-230905Y188586D01*
X-230973Y188643D01*
X-231005Y188656D01*
X-231034Y188676D01*
X-231192Y188731D01*
X-233341Y189222D01*
X-233376Y189224D01*
X-233409Y189234D01*
X-233498Y189232D01*
X-233587Y189238D01*
X-233620Y189229D01*
X-233655Y189228D01*
X-233731Y189204D01*
X-234330Y189439D01*
X-234362Y189446D01*
X-234438Y189473D01*
X-235063Y189616D01*
X-235115Y189665D01*
X-235174Y189732D01*
X-235204Y189749D01*
X-235229Y189773D01*
X-235377Y189851D01*
X-237429Y190657D01*
X-237463Y190664D01*
X-237494Y190679D01*
X-237582Y190690D01*
X-237669Y190709D01*
X-237704Y190705D01*
X-237738Y190709D01*
X-237817Y190697D01*
X-238374Y191019D01*
X-238405Y191031D01*
X-238476Y191068D01*
X-239072Y191303D01*
X-239117Y191359D01*
X-239165Y191434D01*
X-239192Y191455D01*
X-239213Y191483D01*
X-239348Y191582D01*
X-241257Y192685D01*
X-241289Y192697D01*
X-241318Y192717D01*
X-241404Y192740D01*
X-241487Y192772D01*
X-241522Y192773D01*
X-241555Y192782D01*
X-241634Y192782D01*
X-242137Y193184D01*
X-242166Y193200D01*
X-242232Y193248D01*
X-242786Y193568D01*
X-242821Y193631D01*
X-242858Y193712D01*
X-242881Y193737D01*
X-242898Y193767D01*
X-243017Y193886D01*
X-244740Y195261D01*
X-244770Y195278D01*
X-244796Y195301D01*
X-244877Y195337D01*
X-244955Y195381D01*
X-244989Y195387D01*
X-245020Y195402D01*
X-245099Y195413D01*
X-245536Y195885D01*
X-245562Y195905D01*
X-245620Y195963D01*
X-246120Y196362D01*
X-246145Y196428D01*
X-246148Y196442D01*
X-246150Y196445D01*
X-246170Y196515D01*
X-246190Y196543D01*
X-246202Y196576D01*
X-246302Y196711D01*
X-247800Y198327D01*
X-247828Y198348D01*
X-247849Y198375D01*
X-247924Y198423D01*
X-247995Y198478D01*
X-248027Y198489D01*
X-248056Y198508D01*
X-248132Y198531D01*
X-248495Y199063D01*
X-248518Y199087D01*
X-248566Y199152D01*
X-249001Y199622D01*
X-249016Y199692D01*
X-249027Y199780D01*
X-249042Y199811D01*
X-249050Y199845D01*
X-249129Y199993D01*
X-249439Y200449D01*
X-249518Y200531D01*
X-249595Y200616D01*
X-249602Y200620D01*
X-249608Y200627D01*
X-249709Y200680D01*
X-249809Y200736D01*
X-249818Y200738D01*
X-249826Y200742D01*
X-249939Y200760D01*
X-250051Y200781D01*
X-250060Y200780D01*
X-250068Y200781D01*
X-250181Y200763D01*
X-250295Y200747D01*
X-250304Y200742D01*
X-250311Y200741D01*
X-250331Y200731D01*
X-250448Y200679D01*
X-280174Y183518D01*
X-280246Y183458D01*
X-280323Y183405D01*
X-280341Y183381D01*
X-280364Y183362D01*
X-280414Y183283D01*
X-280470Y183208D01*
X-280479Y183179D01*
X-280495Y183154D01*
X-280517Y183063D01*
X-280546Y182974D01*
X-280545Y182944D01*
X-280552Y182914D01*
X-280544Y182822D01*
X-280543Y182728D01*
X-280533Y182691D01*
X-280531Y182669D01*
X-280518Y182640D01*
X-280497Y182567D01*
X-279865Y181042D01*
X-279116Y178245D01*
X-278738Y175374D01*
X-278738Y172478D01*
X-279116Y169606D01*
X-279727Y167324D01*
X-279739Y167205D01*
X-279752Y167088D01*
X-279751Y167083D01*
X-279751Y167079D01*
X-279725Y166964D01*
X-279700Y166847D01*
X-279698Y166844D01*
X-279697Y166839D01*
X-279634Y166738D01*
X-279574Y166636D01*
X-279570Y166633D01*
X-279568Y166630D01*
X-279477Y166554D01*
X-279387Y166476D01*
X-279383Y166475D01*
X-279379Y166472D01*
X-279270Y166429D01*
X-279158Y166384D01*
X-279153Y166384D01*
X-279150Y166382D01*
X-279137Y166382D01*
X-278992Y166366D01*
X-277748Y166366D01*
X-277748Y160012D01*
X-277745Y159992D01*
X-277747Y159973D01*
X-277725Y159871D01*
X-277708Y159769D01*
X-277699Y159752D01*
X-277695Y159732D01*
X-277642Y159643D01*
X-277593Y159552D01*
X-277579Y159538D01*
X-277569Y159521D01*
X-277490Y159454D01*
X-277415Y159383D01*
X-277397Y159374D01*
X-277382Y159361D01*
X-277286Y159322D01*
X-277192Y159279D01*
X-277172Y159277D01*
X-277154Y159269D01*
X-276987Y159251D01*
X-276224Y159251D01*
X-276224Y159249D01*
X-276987Y159249D01*
X-277007Y159246D01*
X-277026Y159248D01*
X-277128Y159226D01*
X-277230Y159209D01*
X-277247Y159200D01*
X-277267Y159196D01*
X-277356Y159143D01*
X-277447Y159094D01*
X-277461Y159080D01*
X-277478Y159070D01*
X-277545Y158991D01*
X-277616Y158916D01*
X-277625Y158898D01*
X-277638Y158883D01*
X-277677Y158787D01*
X-277720Y158693D01*
X-277722Y158673D01*
X-277730Y158655D01*
X-277748Y158488D01*
X-277748Y152134D01*
X-282659Y152134D01*
X-283306Y152307D01*
X-283885Y152642D01*
X-284358Y153115D01*
X-284693Y153694D01*
X-284866Y154341D01*
X-284866Y156808D01*
X-284877Y156879D01*
X-284879Y156951D01*
X-284897Y157000D01*
X-284905Y157051D01*
X-284939Y157114D01*
X-284964Y157182D01*
X-284996Y157222D01*
X-285021Y157268D01*
X-285073Y157318D01*
X-285117Y157374D01*
X-285161Y157402D01*
X-285199Y157438D01*
X-285264Y157468D01*
X-285324Y157507D01*
X-285375Y157519D01*
X-285422Y157541D01*
X-285493Y157549D01*
X-285563Y157567D01*
X-285615Y157563D01*
X-285666Y157568D01*
X-285737Y157553D01*
X-285808Y157548D01*
X-285856Y157527D01*
X-285907Y157516D01*
X-285968Y157479D01*
X-286034Y157451D01*
X-286090Y157407D01*
X-286118Y157390D01*
X-286133Y157372D01*
X-286165Y157346D01*
X-286233Y157279D01*
X-288530Y155516D01*
X-291038Y154068D01*
X-293714Y152960D01*
X-296511Y152210D01*
X-298150Y151995D01*
X-298239Y151968D01*
X-298330Y151948D01*
X-298356Y151932D01*
X-298385Y151924D01*
X-298461Y151870D01*
X-298541Y151822D01*
X-298561Y151799D01*
X-298586Y151781D01*
X-298641Y151706D01*
X-298701Y151635D01*
X-298713Y151607D01*
X-298730Y151582D01*
X-298758Y151493D01*
X-298793Y151407D01*
X-298798Y151369D01*
X-298804Y151347D01*
X-298803Y151315D01*
X-298812Y151240D01*
X-298812Y116899D01*
X-298793Y116787D01*
X-298777Y116673D01*
X-298773Y116665D01*
X-298772Y116657D01*
X-298719Y116556D01*
X-298667Y116453D01*
X-298661Y116447D01*
X-298657Y116439D01*
X-298574Y116361D01*
X-298493Y116280D01*
X-298485Y116276D01*
X-298479Y116270D01*
X-298375Y116222D01*
X-298272Y116171D01*
X-298262Y116169D01*
X-298256Y116166D01*
X-298233Y116164D01*
X-298107Y116140D01*
X-297551Y116098D01*
X-297517Y116102D01*
X-297482Y116096D01*
X-297395Y116112D01*
X-297306Y116120D01*
X-297274Y116134D01*
X-297240Y116140D01*
X-297169Y116175D01*
X-296541Y116031D01*
X-296508Y116029D01*
X-296429Y116014D01*
X-295790Y115967D01*
X-295731Y115926D01*
X-295663Y115868D01*
X-295631Y115856D01*
X-295602Y115836D01*
X-295444Y115781D01*
X-294160Y115488D01*
X-293297Y115291D01*
X-293263Y115289D01*
X-293229Y115279D01*
X-293141Y115281D01*
X-293052Y115276D01*
X-293018Y115285D01*
X-292984Y115286D01*
X-292908Y115309D01*
X-292309Y115074D01*
X-292277Y115067D01*
X-292200Y115041D01*
X-291576Y114898D01*
X-291524Y114849D01*
X-291465Y114782D01*
X-291435Y114765D01*
X-291409Y114741D01*
X-291261Y114663D01*
X-289211Y113858D01*
X-289177Y113851D01*
X-289146Y113836D01*
X-289058Y113825D01*
X-288971Y113807D01*
X-288936Y113811D01*
X-288902Y113806D01*
X-288823Y113818D01*
X-288266Y113496D01*
X-288235Y113485D01*
X-288163Y113447D01*
X-287567Y113213D01*
X-287523Y113157D01*
X-287475Y113082D01*
X-287448Y113060D01*
X-287427Y113033D01*
X-287291Y112934D01*
X-285384Y111833D01*
X-285352Y111821D01*
X-285323Y111801D01*
X-285238Y111777D01*
X-285154Y111746D01*
X-285120Y111745D01*
X-285086Y111735D01*
X-285007Y111735D01*
X-284504Y111334D01*
X-284475Y111318D01*
X-284410Y111270D01*
X-283855Y110950D01*
X-283820Y110887D01*
X-283783Y110806D01*
X-283760Y110781D01*
X-283743Y110751D01*
X-283624Y110632D01*
X-281902Y109259D01*
X-281872Y109243D01*
X-281846Y109219D01*
X-281765Y109183D01*
X-281688Y109139D01*
X-281654Y109133D01*
X-281622Y109119D01*
X-281543Y109107D01*
X-281106Y108635D01*
X-281080Y108615D01*
X-281022Y108558D01*
X-280521Y108158D01*
X-280496Y108092D01*
X-280472Y108006D01*
X-280452Y107977D01*
X-280440Y107945D01*
X-280340Y107810D01*
X-278842Y106196D01*
X-278815Y106175D01*
X-278793Y106148D01*
X-278718Y106100D01*
X-278648Y106045D01*
X-278615Y106034D01*
X-278586Y106015D01*
X-278510Y105992D01*
X-278148Y105460D01*
X-278125Y105436D01*
X-278077Y105371D01*
X-277641Y104901D01*
X-277626Y104831D01*
X-277615Y104743D01*
X-277600Y104712D01*
X-277592Y104678D01*
X-277514Y104530D01*
X-276273Y102711D01*
X-276249Y102685D01*
X-276232Y102655D01*
X-276165Y102597D01*
X-276104Y102532D01*
X-276073Y102516D01*
X-276047Y102493D01*
X-275975Y102459D01*
X-275696Y101879D01*
X-275677Y101852D01*
X-275639Y101781D01*
X-275279Y101251D01*
X-275274Y101180D01*
X-275276Y101091D01*
X-275266Y101058D01*
X-275264Y101023D01*
X-275208Y100865D01*
X-274252Y98881D01*
X-274233Y98853D01*
X-274220Y98821D01*
X-274162Y98753D01*
X-274111Y98680D01*
X-274083Y98659D01*
X-274061Y98633D01*
X-273995Y98588D01*
X-273806Y97973D01*
X-273791Y97943D01*
X-273764Y97867D01*
X-273486Y97290D01*
X-273492Y97219D01*
X-273508Y97131D01*
X-273502Y97097D01*
X-273505Y97062D01*
X-273474Y96898D01*
X-272825Y94793D01*
X-272809Y94762D01*
X-272802Y94729D01*
X-272755Y94653D01*
X-272715Y94573D01*
X-272691Y94549D01*
X-272673Y94519D01*
X-272614Y94465D01*
X-272518Y93829D01*
X-272508Y93797D01*
X-272493Y93718D01*
X-272304Y93106D01*
X-272321Y93036D01*
X-272349Y92952D01*
X-272349Y92917D01*
X-272357Y92883D01*
X-272351Y92716D01*
X-272023Y90539D01*
X-272012Y90506D01*
X-272009Y90471D01*
X-271974Y90389D01*
X-271947Y90304D01*
X-271926Y90276D01*
X-271913Y90245D01*
X-271863Y90183D01*
X-271863Y89539D01*
X-271858Y89506D01*
X-271855Y89426D01*
X-271759Y88792D01*
X-271786Y88726D01*
X-271827Y88647D01*
X-271832Y88612D01*
X-271845Y88580D01*
X-271863Y88413D01*
X-271863Y86212D01*
X-271858Y86177D01*
X-271860Y86143D01*
X-271838Y86057D01*
X-271824Y85969D01*
X-271807Y85938D01*
X-271799Y85905D01*
X-271759Y85836D01*
X-271855Y85199D01*
X-271854Y85166D01*
X-271863Y85086D01*
X-271863Y84446D01*
X-271900Y84384D01*
X-271952Y84312D01*
X-271962Y84278D01*
X-271979Y84249D01*
X-272023Y84086D01*
X-272351Y81909D01*
X-272350Y81874D01*
X-272358Y81841D01*
X-272349Y81752D01*
X-272348Y81663D01*
X-272336Y81631D01*
X-272333Y81596D01*
X-272303Y81522D01*
X-272493Y80907D01*
X-272498Y80874D01*
X-272518Y80796D01*
X-272614Y80163D01*
X-272659Y80107D01*
X-272721Y80044D01*
X-272736Y80012D01*
X-272758Y79985D01*
X-272825Y79832D01*
X-273474Y77727D01*
X-273479Y77693D01*
X-273491Y77661D01*
X-273495Y77572D01*
X-273507Y77484D01*
X-273501Y77450D01*
X-273503Y77415D01*
X-273485Y77338D01*
X-273764Y76758D01*
X-273773Y76726D01*
X-273806Y76652D01*
X-273994Y76040D01*
X-274047Y75992D01*
X-274118Y75938D01*
X-274138Y75909D01*
X-274163Y75886D01*
X-274252Y75744D01*
X-275208Y73760D01*
X-275218Y73727D01*
X-275235Y73697D01*
X-275252Y73609D01*
X-275277Y73524D01*
X-275276Y73489D01*
X-275283Y73455D01*
X-275277Y73376D01*
X-275639Y72844D01*
X-275653Y72815D01*
X-275696Y72746D01*
X-275974Y72169D01*
X-276034Y72129D01*
X-276112Y72087D01*
X-276135Y72061D01*
X-276164Y72042D01*
X-276273Y71914D01*
X-276389Y71745D01*
X-276908Y70984D01*
X-277427Y70223D01*
X-277427Y70222D01*
X-277514Y70095D01*
X-277528Y70064D01*
X-277550Y70037D01*
X-277580Y69953D01*
X-277618Y69872D01*
X-277621Y69838D01*
X-277633Y69805D01*
X-277639Y69726D01*
X-278077Y69254D01*
X-278095Y69227D01*
X-278148Y69165D01*
X-278465Y68700D01*
X-278508Y68636D01*
X-278573Y68606D01*
X-278657Y68575D01*
X-278684Y68554D01*
X-278715Y68539D01*
X-278842Y68429D01*
X-279482Y67740D01*
X-279513Y67692D01*
X-279553Y67651D01*
X-279581Y67590D01*
X-279617Y67535D01*
X-279632Y67480D01*
X-279657Y67427D01*
X-279664Y67362D01*
X-279681Y67298D01*
X-279677Y67240D01*
X-279684Y67183D01*
X-279670Y67118D01*
X-279665Y67052D01*
X-279644Y66999D01*
X-279631Y66943D01*
X-279597Y66886D01*
X-279572Y66825D01*
X-279535Y66781D01*
X-279505Y66732D01*
X-279455Y66688D01*
X-279412Y66638D01*
X-279362Y66609D01*
X-279318Y66572D01*
X-279257Y66547D01*
X-279200Y66513D01*
X-279144Y66501D01*
X-279090Y66480D01*
X-278990Y66469D01*
X-278959Y66462D01*
X-278946Y66464D01*
X-278923Y66461D01*
X-277516Y66461D01*
X-274851Y63797D01*
X-274851Y63627D01*
X-274848Y63607D01*
X-274850Y63588D01*
X-274828Y63486D01*
X-274812Y63384D01*
X-274802Y63367D01*
X-274798Y63347D01*
X-274745Y63258D01*
X-274696Y63167D01*
X-274682Y63153D01*
X-274672Y63136D01*
X-274593Y63069D01*
X-274518Y62997D01*
X-274500Y62989D01*
X-274485Y62976D01*
X-274389Y62937D01*
X-274295Y62894D01*
X-274275Y62892D01*
X-274257Y62884D01*
X-274090Y62866D01*
X-224243Y62866D01*
X-224172Y62877D01*
G37*
G36*
X-138585Y129838D02*
X-138585Y129838D01*
X-138533Y129839D01*
X-138465Y129863D01*
X-138395Y129879D01*
X-138350Y129905D01*
X-138302Y129923D01*
X-138246Y129968D01*
X-138184Y130005D01*
X-138150Y130044D01*
X-138110Y130077D01*
X-138071Y130137D01*
X-138024Y130192D01*
X-138005Y130240D01*
X-137977Y130284D01*
X-137959Y130353D01*
X-137932Y130420D01*
X-137924Y130491D01*
X-137916Y130522D01*
X-137918Y130546D01*
X-137914Y130587D01*
X-137914Y136764D01*
X-137917Y136784D01*
X-137915Y136804D01*
X-137937Y136905D01*
X-137953Y137007D01*
X-137963Y137024D01*
X-137967Y137044D01*
X-138020Y137133D01*
X-138069Y137224D01*
X-138083Y137238D01*
X-138093Y137255D01*
X-138172Y137322D01*
X-138247Y137394D01*
X-138265Y137402D01*
X-138280Y137415D01*
X-138376Y137454D01*
X-138470Y137497D01*
X-138490Y137499D01*
X-138508Y137507D01*
X-138675Y137525D01*
X-141632Y137525D01*
X-142525Y138418D01*
X-142525Y153682D01*
X-141632Y154575D01*
X-136368Y154575D01*
X-135475Y153682D01*
X-135475Y146434D01*
X-135460Y146344D01*
X-135453Y146253D01*
X-135441Y146223D01*
X-135435Y146191D01*
X-135393Y146110D01*
X-135357Y146026D01*
X-135331Y145994D01*
X-135320Y145974D01*
X-135297Y145951D01*
X-135252Y145895D01*
X-134544Y145187D01*
X-132840Y143483D01*
X-132782Y143442D01*
X-132730Y143392D01*
X-132683Y143370D01*
X-132641Y143340D01*
X-132572Y143319D01*
X-132507Y143289D01*
X-132455Y143283D01*
X-132405Y143268D01*
X-132334Y143269D01*
X-132263Y143261D01*
X-132212Y143273D01*
X-132160Y143274D01*
X-132092Y143299D01*
X-132022Y143314D01*
X-131977Y143340D01*
X-131929Y143358D01*
X-131873Y143403D01*
X-131811Y143440D01*
X-131777Y143479D01*
X-131737Y143512D01*
X-131698Y143572D01*
X-131651Y143627D01*
X-131632Y143675D01*
X-131604Y143719D01*
X-131586Y143788D01*
X-131559Y143855D01*
X-131551Y143926D01*
X-131543Y143957D01*
X-131545Y143981D01*
X-131541Y144022D01*
X-131541Y145051D01*
X-127238Y145051D01*
X-127219Y145054D01*
X-127199Y145052D01*
X-127097Y145074D01*
X-126995Y145090D01*
X-126994Y145091D01*
X-126967Y145079D01*
X-126947Y145077D01*
X-126929Y145069D01*
X-126762Y145051D01*
X-122459Y145051D01*
X-122459Y141734D01*
X-122448Y141663D01*
X-122446Y141592D01*
X-122428Y141543D01*
X-122420Y141491D01*
X-122386Y141428D01*
X-122361Y141361D01*
X-122329Y141320D01*
X-122304Y141274D01*
X-122252Y141225D01*
X-122208Y141169D01*
X-122164Y141141D01*
X-122126Y141105D01*
X-122061Y141074D01*
X-122001Y141036D01*
X-121950Y141023D01*
X-121903Y141001D01*
X-121832Y140993D01*
X-121762Y140976D01*
X-121710Y140980D01*
X-121659Y140974D01*
X-121588Y140989D01*
X-121517Y140995D01*
X-121469Y141015D01*
X-121418Y141026D01*
X-121357Y141063D01*
X-121291Y141091D01*
X-121235Y141136D01*
X-121207Y141152D01*
X-121192Y141170D01*
X-121160Y141196D01*
X-118748Y143608D01*
X-118695Y143682D01*
X-118635Y143751D01*
X-118623Y143781D01*
X-118604Y143808D01*
X-118577Y143895D01*
X-118543Y143979D01*
X-118539Y144020D01*
X-118532Y144043D01*
X-118533Y144075D01*
X-118525Y144146D01*
X-118525Y153682D01*
X-117632Y154575D01*
X-114037Y154575D01*
X-114018Y154578D01*
X-113998Y154576D01*
X-113896Y154598D01*
X-113794Y154614D01*
X-113777Y154624D01*
X-113757Y154628D01*
X-113668Y154681D01*
X-113577Y154730D01*
X-113563Y154744D01*
X-113546Y154754D01*
X-113479Y154833D01*
X-113408Y154908D01*
X-113399Y154926D01*
X-113386Y154941D01*
X-113348Y155037D01*
X-113304Y155131D01*
X-113302Y155151D01*
X-113294Y155169D01*
X-113276Y155336D01*
X-113276Y155430D01*
X-113224Y155482D01*
X-113171Y155556D01*
X-113111Y155625D01*
X-113099Y155655D01*
X-113080Y155682D01*
X-113053Y155769D01*
X-113019Y155853D01*
X-113015Y155894D01*
X-113008Y155917D01*
X-113009Y155949D01*
X-113001Y156020D01*
X-113001Y178907D01*
X-113016Y178998D01*
X-113023Y179088D01*
X-113035Y179118D01*
X-113041Y179150D01*
X-113083Y179231D01*
X-113119Y179315D01*
X-113145Y179347D01*
X-113156Y179368D01*
X-113179Y179390D01*
X-113224Y179446D01*
X-130023Y196245D01*
X-130097Y196298D01*
X-130167Y196358D01*
X-130197Y196370D01*
X-130223Y196389D01*
X-130310Y196416D01*
X-130395Y196450D01*
X-130436Y196454D01*
X-130458Y196461D01*
X-130490Y196460D01*
X-130562Y196468D01*
X-130605Y196468D01*
X-133764Y199627D01*
X-133838Y199680D01*
X-133908Y199740D01*
X-133938Y199752D01*
X-133964Y199771D01*
X-134051Y199798D01*
X-134136Y199832D01*
X-134177Y199836D01*
X-134199Y199843D01*
X-134231Y199842D01*
X-134303Y199850D01*
X-142502Y199850D01*
X-142592Y199836D01*
X-142683Y199828D01*
X-142713Y199816D01*
X-142745Y199811D01*
X-142825Y199768D01*
X-142909Y199732D01*
X-142941Y199706D01*
X-142962Y199695D01*
X-142984Y199672D01*
X-143040Y199627D01*
X-145437Y197230D01*
X-145786Y197230D01*
X-145880Y197215D01*
X-145975Y197206D01*
X-146001Y197195D01*
X-146029Y197191D01*
X-146113Y197146D01*
X-146200Y197108D01*
X-146221Y197089D01*
X-146246Y197075D01*
X-146312Y197006D01*
X-146382Y196942D01*
X-146396Y196918D01*
X-146416Y196897D01*
X-146456Y196811D01*
X-146502Y196727D01*
X-146507Y196700D01*
X-146519Y196674D01*
X-146530Y196579D01*
X-146547Y196486D01*
X-146543Y196458D01*
X-146546Y196430D01*
X-146526Y196336D01*
X-146513Y196242D01*
X-146498Y196210D01*
X-146494Y196189D01*
X-146477Y196161D01*
X-146445Y196088D01*
X-146145Y195568D01*
X-145972Y194922D01*
X-145972Y193337D01*
X-152024Y193337D01*
X-152044Y193334D01*
X-152064Y193336D01*
X-152165Y193314D01*
X-152267Y193297D01*
X-152285Y193288D01*
X-152304Y193283D01*
X-152393Y193230D01*
X-152484Y193182D01*
X-152498Y193168D01*
X-152515Y193157D01*
X-152518Y193154D01*
X-152573Y193205D01*
X-152591Y193213D01*
X-152606Y193226D01*
X-152702Y193265D01*
X-152796Y193309D01*
X-152815Y193311D01*
X-152834Y193318D01*
X-153001Y193337D01*
X-159053Y193337D01*
X-159053Y194922D01*
X-158880Y195568D01*
X-158546Y196148D01*
X-158073Y196621D01*
X-157493Y196955D01*
X-156847Y197128D01*
X-154749Y197128D01*
X-154678Y197140D01*
X-154606Y197142D01*
X-154557Y197160D01*
X-154506Y197168D01*
X-154443Y197202D01*
X-154375Y197226D01*
X-154335Y197259D01*
X-154288Y197283D01*
X-154239Y197335D01*
X-154183Y197380D01*
X-154155Y197424D01*
X-154119Y197461D01*
X-154089Y197526D01*
X-154050Y197587D01*
X-154037Y197637D01*
X-154015Y197684D01*
X-154008Y197756D01*
X-153990Y197825D01*
X-153994Y197877D01*
X-153988Y197929D01*
X-154004Y197999D01*
X-154009Y198070D01*
X-154030Y198118D01*
X-154041Y198169D01*
X-154077Y198231D01*
X-154106Y198297D01*
X-154150Y198353D01*
X-154167Y198380D01*
X-154185Y198396D01*
X-154210Y198428D01*
X-158370Y202587D01*
X-158370Y210163D01*
X-153013Y215520D01*
X-145437Y215520D01*
X-143040Y213123D01*
X-142966Y213070D01*
X-142897Y213010D01*
X-142867Y212998D01*
X-142840Y212979D01*
X-142753Y212952D01*
X-142669Y212918D01*
X-142628Y212914D01*
X-142605Y212907D01*
X-142573Y212908D01*
X-142502Y212900D01*
X-130956Y212900D01*
X-130063Y212007D01*
X-130063Y204146D01*
X-130048Y204056D01*
X-130041Y203965D01*
X-130028Y203935D01*
X-130023Y203903D01*
X-129980Y203822D01*
X-129945Y203738D01*
X-129919Y203706D01*
X-129908Y203686D01*
X-129885Y203663D01*
X-129840Y203607D01*
X-129428Y203195D01*
X-129370Y203153D01*
X-129318Y203104D01*
X-129270Y203082D01*
X-129228Y203052D01*
X-129160Y203031D01*
X-129094Y203000D01*
X-129043Y202995D01*
X-128993Y202979D01*
X-128921Y202981D01*
X-128850Y202973D01*
X-128799Y202984D01*
X-128747Y202986D01*
X-128680Y203010D01*
X-128610Y203026D01*
X-128565Y203052D01*
X-128516Y203070D01*
X-128460Y203115D01*
X-128399Y203152D01*
X-128365Y203191D01*
X-128324Y203224D01*
X-128285Y203284D01*
X-128239Y203339D01*
X-128219Y203387D01*
X-128191Y203431D01*
X-128174Y203500D01*
X-128147Y203567D01*
X-128139Y203638D01*
X-128131Y203669D01*
X-128133Y203693D01*
X-128128Y203734D01*
X-128128Y204852D01*
X-121611Y204852D01*
X-121611Y198834D01*
X-123588Y198834D01*
X-123659Y198823D01*
X-123731Y198821D01*
X-123780Y198803D01*
X-123831Y198795D01*
X-123894Y198761D01*
X-123962Y198736D01*
X-124002Y198704D01*
X-124048Y198679D01*
X-124098Y198628D01*
X-124154Y198583D01*
X-124182Y198539D01*
X-124218Y198501D01*
X-124248Y198436D01*
X-124287Y198376D01*
X-124299Y198325D01*
X-124321Y198278D01*
X-124329Y198207D01*
X-124347Y198137D01*
X-124343Y198085D01*
X-124348Y198034D01*
X-124333Y197963D01*
X-124328Y197892D01*
X-124307Y197844D01*
X-124296Y197793D01*
X-124259Y197732D01*
X-124231Y197666D01*
X-124186Y197610D01*
X-124170Y197582D01*
X-124152Y197567D01*
X-124126Y197535D01*
X-109740Y183149D01*
X-109682Y183107D01*
X-109630Y183057D01*
X-109583Y183035D01*
X-109541Y183005D01*
X-109472Y182984D01*
X-109407Y182954D01*
X-109355Y182948D01*
X-109305Y182933D01*
X-109234Y182935D01*
X-109163Y182927D01*
X-109112Y182938D01*
X-109060Y182939D01*
X-108992Y182964D01*
X-108922Y182979D01*
X-108878Y183006D01*
X-108829Y183023D01*
X-108773Y183068D01*
X-108711Y183105D01*
X-108677Y183145D01*
X-108637Y183177D01*
X-108598Y183237D01*
X-108551Y183292D01*
X-108532Y183340D01*
X-108504Y183384D01*
X-108486Y183454D01*
X-108459Y183520D01*
X-108451Y183591D01*
X-108443Y183623D01*
X-108445Y183646D01*
X-108441Y183687D01*
X-108441Y192072D01*
X-105479Y195033D01*
X-105426Y195107D01*
X-105367Y195177D01*
X-105355Y195207D01*
X-105336Y195233D01*
X-105309Y195320D01*
X-105275Y195405D01*
X-105270Y195446D01*
X-105263Y195468D01*
X-105264Y195500D01*
X-105256Y195572D01*
X-105256Y196134D01*
X-102738Y198652D01*
X-99751Y198652D01*
X-99746Y198653D01*
X-99740Y198652D01*
X-99625Y198672D01*
X-99509Y198691D01*
X-99504Y198694D01*
X-99498Y198695D01*
X-99395Y198752D01*
X-99291Y198807D01*
X-99287Y198811D01*
X-99282Y198813D01*
X-99202Y198900D01*
X-99122Y198985D01*
X-99120Y198990D01*
X-99116Y198994D01*
X-99068Y199102D01*
X-99018Y199208D01*
X-99018Y199214D01*
X-99015Y199219D01*
X-98991Y199385D01*
X-98986Y199521D01*
X-98990Y199555D01*
X-98986Y199590D01*
X-99005Y199677D01*
X-99016Y199765D01*
X-99031Y199796D01*
X-99039Y199830D01*
X-99117Y199978D01*
X-100360Y201799D01*
X-100384Y201824D01*
X-100401Y201854D01*
X-100468Y201913D01*
X-100529Y201977D01*
X-100560Y201993D01*
X-100586Y202016D01*
X-100658Y202051D01*
X-100937Y202630D01*
X-100956Y202657D01*
X-100994Y202729D01*
X-101355Y203258D01*
X-101360Y203329D01*
X-101358Y203418D01*
X-101368Y203452D01*
X-101370Y203486D01*
X-101426Y203644D01*
X-102383Y205630D01*
X-102403Y205658D01*
X-102415Y205690D01*
X-102456Y205739D01*
X-102486Y205788D01*
X-102505Y205805D01*
X-102524Y205831D01*
X-102552Y205852D01*
X-102574Y205878D01*
X-102640Y205923D01*
X-102830Y206538D01*
X-102845Y206568D01*
X-102871Y206644D01*
X-103150Y207221D01*
X-103144Y207292D01*
X-103128Y207380D01*
X-103133Y207414D01*
X-103130Y207449D01*
X-103162Y207613D01*
X-103812Y209719D01*
X-103828Y209750D01*
X-103836Y209784D01*
X-103882Y209860D01*
X-103922Y209939D01*
X-103946Y209964D01*
X-103965Y209994D01*
X-104023Y210047D01*
X-104119Y210684D01*
X-104129Y210715D01*
X-104144Y210795D01*
X-104333Y211407D01*
X-104317Y211476D01*
X-104289Y211561D01*
X-104289Y211595D01*
X-104281Y211629D01*
X-104287Y211797D01*
X-104616Y213976D01*
X-104627Y214009D01*
X-104630Y214044D01*
X-104665Y214126D01*
X-104692Y214210D01*
X-104713Y214238D01*
X-104726Y214270D01*
X-104776Y214332D01*
X-104776Y214976D01*
X-104781Y215008D01*
X-104784Y215089D01*
X-104880Y215722D01*
X-104853Y215789D01*
X-104813Y215868D01*
X-104808Y215902D01*
X-104795Y215934D01*
X-104776Y216101D01*
X-104777Y218305D01*
X-104783Y218339D01*
X-104780Y218374D01*
X-104802Y218460D01*
X-104817Y218548D01*
X-104833Y218579D01*
X-104842Y218612D01*
X-104882Y218681D01*
X-104786Y219317D01*
X-104786Y219350D01*
X-104777Y219431D01*
X-104778Y220071D01*
X-104766Y220091D01*
X-104763Y220094D01*
X-104760Y220101D01*
X-104741Y220133D01*
X-104689Y220205D01*
X-104679Y220238D01*
X-104662Y220268D01*
X-104618Y220430D01*
X-104291Y222610D01*
X-104291Y222645D01*
X-104284Y222679D01*
X-104293Y222767D01*
X-104294Y222856D01*
X-104305Y222889D01*
X-104309Y222923D01*
X-104338Y222997D01*
X-104149Y223612D01*
X-104144Y223645D01*
X-104123Y223723D01*
X-104028Y224356D01*
X-103983Y224412D01*
X-103921Y224476D01*
X-103906Y224507D01*
X-103884Y224534D01*
X-103817Y224688D01*
X-103168Y226794D01*
X-103163Y226829D01*
X-103151Y226861D01*
X-103147Y226950D01*
X-103135Y227038D01*
X-103141Y227072D01*
X-103139Y227107D01*
X-103157Y227184D01*
X-102878Y227764D01*
X-102869Y227796D01*
X-102837Y227870D01*
X-102648Y228482D01*
X-102595Y228530D01*
X-102524Y228584D01*
X-102505Y228613D01*
X-102479Y228636D01*
X-102390Y228778D01*
X-102143Y229291D01*
X-102111Y229400D01*
X-102076Y229509D01*
X-102077Y229518D01*
X-102074Y229527D01*
X-102078Y229641D01*
X-102080Y229755D01*
X-102083Y229764D01*
X-102083Y229773D01*
X-102124Y229880D01*
X-102162Y229987D01*
X-102168Y229994D01*
X-102171Y230003D01*
X-102243Y230091D01*
X-102314Y230181D01*
X-102322Y230187D01*
X-102327Y230193D01*
X-102347Y230205D01*
X-102449Y230280D01*
X-132178Y247444D01*
X-132265Y247477D01*
X-132350Y247517D01*
X-132380Y247520D01*
X-132408Y247531D01*
X-132501Y247534D01*
X-132594Y247545D01*
X-132624Y247539D01*
X-132654Y247540D01*
X-132743Y247514D01*
X-132835Y247494D01*
X-132861Y247479D01*
X-132890Y247470D01*
X-132966Y247417D01*
X-133047Y247369D01*
X-133073Y247342D01*
X-133091Y247329D01*
X-133110Y247303D01*
X-133163Y247248D01*
X-134166Y245941D01*
X-134166Y245940D01*
X-136214Y243893D01*
X-138512Y242129D01*
X-141020Y240681D01*
X-143696Y239573D01*
X-146493Y238824D01*
X-149289Y238455D01*
X-149289Y241049D01*
X-149279Y241049D01*
X-149246Y241056D01*
X-149199Y241055D01*
X-146173Y241547D01*
X-146141Y241559D01*
X-146095Y241566D01*
X-143186Y242537D01*
X-143157Y242554D01*
X-143113Y242569D01*
X-140398Y243994D01*
X-140371Y244015D01*
X-140330Y244037D01*
X-137878Y245879D01*
X-137856Y245904D01*
X-137818Y245932D01*
X-135694Y248143D01*
X-135676Y248172D01*
X-135643Y248205D01*
X-133902Y250729D01*
X-133890Y250756D01*
X-133872Y250778D01*
X-133852Y250846D01*
X-133824Y250912D01*
X-133823Y250941D01*
X-133815Y250968D01*
X-133823Y251040D01*
X-133823Y251111D01*
X-133834Y251137D01*
X-133837Y251166D01*
X-133873Y251228D01*
X-133900Y251294D01*
X-133921Y251314D01*
X-133935Y251339D01*
X-134012Y251403D01*
X-134043Y251433D01*
X-134053Y251437D01*
X-134063Y251445D01*
X-150563Y260945D01*
X-150636Y260969D01*
X-150707Y261000D01*
X-150730Y261001D01*
X-150752Y261008D01*
X-150829Y261002D01*
X-150906Y261003D01*
X-150930Y260994D01*
X-150950Y260992D01*
X-150990Y260972D01*
X-151062Y260945D01*
X-167562Y251445D01*
X-167583Y251426D01*
X-167610Y251414D01*
X-167657Y251361D01*
X-167711Y251314D01*
X-167723Y251288D01*
X-167743Y251266D01*
X-167766Y251199D01*
X-167797Y251134D01*
X-167798Y251105D01*
X-167807Y251078D01*
X-167803Y251007D01*
X-167806Y250936D01*
X-167796Y250909D01*
X-167794Y250880D01*
X-167751Y250789D01*
X-167737Y250749D01*
X-167729Y250741D01*
X-167723Y250729D01*
X-165982Y248205D01*
X-165957Y248182D01*
X-165931Y248143D01*
X-163807Y245932D01*
X-163779Y245913D01*
X-163747Y245879D01*
X-161295Y244037D01*
X-161265Y244022D01*
X-161227Y243994D01*
X-158512Y242569D01*
X-158480Y242559D01*
X-158439Y242537D01*
X-155530Y241566D01*
X-155496Y241562D01*
X-155452Y241547D01*
X-152426Y241055D01*
X-152392Y241057D01*
X-152346Y241049D01*
X-152336Y241049D01*
X-152336Y238455D01*
X-155132Y238824D01*
X-157929Y239573D01*
X-160605Y240681D01*
X-163113Y242129D01*
X-163144Y242153D01*
X-165411Y243892D01*
X-167459Y245940D01*
X-168462Y247248D01*
X-168530Y247312D01*
X-168593Y247381D01*
X-168619Y247396D01*
X-168642Y247417D01*
X-168726Y247455D01*
X-168808Y247501D01*
X-168838Y247506D01*
X-168865Y247519D01*
X-168958Y247529D01*
X-169050Y247546D01*
X-169080Y247542D01*
X-169110Y247545D01*
X-169201Y247524D01*
X-169293Y247511D01*
X-169328Y247496D01*
X-169350Y247491D01*
X-169378Y247474D01*
X-169447Y247444D01*
X-199176Y230280D01*
X-199265Y230207D01*
X-199355Y230138D01*
X-199360Y230130D01*
X-199367Y230125D01*
X-199428Y230027D01*
X-199490Y229932D01*
X-199493Y229924D01*
X-199497Y229916D01*
X-199524Y229805D01*
X-199553Y229695D01*
X-199553Y229686D01*
X-199555Y229677D01*
X-199545Y229563D01*
X-199537Y229449D01*
X-199534Y229439D01*
X-199533Y229432D01*
X-199524Y229411D01*
X-199482Y229291D01*
X-199235Y228778D01*
X-199215Y228750D01*
X-199202Y228718D01*
X-199145Y228649D01*
X-199094Y228577D01*
X-199066Y228556D01*
X-199043Y228530D01*
X-198978Y228485D01*
X-198788Y227870D01*
X-198782Y227856D01*
X-198781Y227855D01*
X-198778Y227850D01*
X-198774Y227840D01*
X-198747Y227764D01*
X-198469Y227187D01*
X-198475Y227115D01*
X-198491Y227028D01*
X-198485Y226994D01*
X-198488Y226959D01*
X-198457Y226794D01*
X-197808Y224688D01*
X-197792Y224657D01*
X-197785Y224623D01*
X-197738Y224547D01*
X-197698Y224468D01*
X-197674Y224443D01*
X-197656Y224413D01*
X-197597Y224360D01*
X-197502Y223723D01*
X-197492Y223692D01*
X-197476Y223612D01*
X-197288Y223000D01*
X-197304Y222930D01*
X-197333Y222846D01*
X-197333Y222811D01*
X-197341Y222778D01*
X-197334Y222610D01*
X-197007Y220430D01*
X-196996Y220397D01*
X-196993Y220363D01*
X-196958Y220281D01*
X-196931Y220196D01*
X-196911Y220168D01*
X-196897Y220136D01*
X-196847Y220074D01*
X-196848Y219431D01*
X-196842Y219398D01*
X-196839Y219317D01*
X-196744Y218684D01*
X-196771Y218618D01*
X-196811Y218538D01*
X-196816Y218504D01*
X-196829Y218472D01*
X-196848Y218305D01*
X-196849Y216101D01*
X-196843Y216067D01*
X-196846Y216032D01*
X-196823Y215946D01*
X-196809Y215858D01*
X-196793Y215828D01*
X-196784Y215794D01*
X-196744Y215726D01*
X-196840Y215089D01*
X-196840Y215056D01*
X-196849Y214976D01*
X-196849Y214335D01*
X-196886Y214274D01*
X-196938Y214201D01*
X-196948Y214168D01*
X-196965Y214138D01*
X-197009Y213976D01*
X-197338Y211797D01*
X-197337Y211762D01*
X-197345Y211728D01*
X-197336Y211640D01*
X-197335Y211551D01*
X-197323Y211518D01*
X-197320Y211484D01*
X-197291Y211410D01*
X-197481Y210795D01*
X-197485Y210762D01*
X-197506Y210684D01*
X-197602Y210051D01*
X-197647Y209995D01*
X-197709Y209931D01*
X-197724Y209900D01*
X-197746Y209873D01*
X-197813Y209719D01*
X-198463Y207613D01*
X-198468Y207579D01*
X-198480Y207547D01*
X-198485Y207458D01*
X-198497Y207370D01*
X-198490Y207336D01*
X-198492Y207301D01*
X-198474Y207224D01*
X-198754Y206644D01*
X-198763Y206612D01*
X-198795Y206538D01*
X-198984Y205926D01*
X-198997Y205914D01*
X-199018Y205903D01*
X-199055Y205864D01*
X-199108Y205824D01*
X-199128Y205795D01*
X-199153Y205772D01*
X-199174Y205739D01*
X-199187Y205725D01*
X-199200Y205697D01*
X-199242Y205630D01*
X-200199Y203644D01*
X-200209Y203611D01*
X-200226Y203581D01*
X-200244Y203494D01*
X-200269Y203408D01*
X-200267Y203374D01*
X-200274Y203340D01*
X-200268Y203261D01*
X-200631Y202729D01*
X-200645Y202699D01*
X-200688Y202630D01*
X-200966Y202053D01*
X-201025Y202014D01*
X-201104Y201971D01*
X-201127Y201946D01*
X-201156Y201926D01*
X-201265Y201799D01*
X-201703Y201158D01*
X-201703Y201157D01*
X-202222Y200396D01*
X-202223Y200396D01*
X-202508Y199978D01*
X-202522Y199947D01*
X-202544Y199920D01*
X-202574Y199836D01*
X-202611Y199755D01*
X-202615Y199721D01*
X-202627Y199688D01*
X-202633Y199609D01*
X-203071Y199137D01*
X-203089Y199110D01*
X-203142Y199049D01*
X-203503Y198520D01*
X-203567Y198489D01*
X-203651Y198459D01*
X-203678Y198437D01*
X-203710Y198422D01*
X-203837Y198313D01*
X-205218Y196825D01*
X-205261Y196760D01*
X-205311Y196701D01*
X-205329Y196658D01*
X-205354Y196620D01*
X-205374Y196545D01*
X-205403Y196473D01*
X-205410Y196411D01*
X-205418Y196382D01*
X-205416Y196356D01*
X-205422Y196307D01*
X-205422Y158320D01*
X-205410Y158249D01*
X-205408Y158177D01*
X-205390Y158128D01*
X-205382Y158077D01*
X-205348Y158014D01*
X-205324Y157946D01*
X-205291Y157906D01*
X-205267Y157860D01*
X-205215Y157810D01*
X-205170Y157754D01*
X-205126Y157726D01*
X-205089Y157690D01*
X-205024Y157660D01*
X-204963Y157621D01*
X-204913Y157609D01*
X-204866Y157587D01*
X-204794Y157579D01*
X-204725Y157561D01*
X-204673Y157565D01*
X-204621Y157560D01*
X-204551Y157575D01*
X-204480Y157580D01*
X-204432Y157601D01*
X-204381Y157612D01*
X-204319Y157649D01*
X-204253Y157677D01*
X-204197Y157721D01*
X-204170Y157738D01*
X-204154Y157756D01*
X-204122Y157781D01*
X-200911Y160992D01*
X-196216Y162937D01*
X-191134Y162937D01*
X-186439Y160992D01*
X-182845Y157399D01*
X-182477Y156510D01*
X-182425Y156427D01*
X-182380Y156341D01*
X-182361Y156323D01*
X-182347Y156301D01*
X-182272Y156238D01*
X-182202Y156171D01*
X-182178Y156160D01*
X-182158Y156144D01*
X-182067Y156109D01*
X-181978Y156068D01*
X-181953Y156065D01*
X-181928Y156056D01*
X-181831Y156051D01*
X-181734Y156041D01*
X-181709Y156046D01*
X-181682Y156045D01*
X-181589Y156072D01*
X-181494Y156093D01*
X-181471Y156106D01*
X-181446Y156114D01*
X-181366Y156169D01*
X-181283Y156219D01*
X-181266Y156239D01*
X-181244Y156254D01*
X-181186Y156332D01*
X-181123Y156406D01*
X-181113Y156430D01*
X-181097Y156451D01*
X-181067Y156544D01*
X-181031Y156634D01*
X-181027Y156667D01*
X-181021Y156685D01*
X-181021Y156718D01*
X-181012Y156801D01*
X-181012Y169952D01*
X-181015Y169971D01*
X-181013Y169991D01*
X-181035Y170092D01*
X-181052Y170194D01*
X-181061Y170212D01*
X-181066Y170231D01*
X-181119Y170320D01*
X-181167Y170412D01*
X-181181Y170425D01*
X-181192Y170442D01*
X-181270Y170510D01*
X-181345Y170581D01*
X-181363Y170589D01*
X-181379Y170602D01*
X-181475Y170641D01*
X-181568Y170685D01*
X-181588Y170687D01*
X-181607Y170694D01*
X-181773Y170713D01*
X-190282Y170713D01*
X-191175Y171606D01*
X-191175Y182869D01*
X-190282Y183762D01*
X-181773Y183762D01*
X-181754Y183765D01*
X-181734Y183763D01*
X-181633Y183785D01*
X-181531Y183802D01*
X-181513Y183811D01*
X-181494Y183816D01*
X-181405Y183869D01*
X-181313Y183917D01*
X-181300Y183931D01*
X-181283Y183942D01*
X-181215Y184020D01*
X-181144Y184095D01*
X-181136Y184113D01*
X-181123Y184129D01*
X-181084Y184225D01*
X-181043Y184314D01*
X-180119Y185237D01*
X-165856Y185237D01*
X-164963Y184344D01*
X-164963Y153636D01*
X-164969Y153620D01*
X-164974Y153579D01*
X-164981Y153557D01*
X-164980Y153525D01*
X-164988Y153453D01*
X-164988Y138530D01*
X-164973Y138440D01*
X-164966Y138349D01*
X-164953Y138320D01*
X-164948Y138288D01*
X-164905Y138207D01*
X-164870Y138123D01*
X-164844Y138091D01*
X-164833Y138070D01*
X-164810Y138048D01*
X-164765Y137992D01*
X-163337Y136564D01*
X-163279Y136522D01*
X-163227Y136473D01*
X-163179Y136451D01*
X-163137Y136421D01*
X-163069Y136399D01*
X-163003Y136369D01*
X-162952Y136364D01*
X-162902Y136348D01*
X-162830Y136350D01*
X-162759Y136342D01*
X-162708Y136353D01*
X-162656Y136355D01*
X-162589Y136379D01*
X-162519Y136394D01*
X-162474Y136421D01*
X-162425Y136439D01*
X-162369Y136484D01*
X-162308Y136521D01*
X-162274Y136560D01*
X-162233Y136593D01*
X-162194Y136653D01*
X-162148Y136708D01*
X-162128Y136756D01*
X-162100Y136800D01*
X-162083Y136869D01*
X-162056Y136936D01*
X-162048Y137007D01*
X-162040Y137038D01*
X-162042Y137061D01*
X-162037Y137102D01*
X-162037Y156601D01*
X-162031Y156618D01*
X-162026Y156659D01*
X-162019Y156681D01*
X-162020Y156713D01*
X-162012Y156784D01*
X-162012Y184344D01*
X-161119Y185237D01*
X-146856Y185237D01*
X-145963Y184344D01*
X-145963Y182411D01*
X-145960Y182391D01*
X-145962Y182372D01*
X-145940Y182270D01*
X-145923Y182168D01*
X-145914Y182151D01*
X-145909Y182131D01*
X-145856Y182042D01*
X-145808Y181951D01*
X-145794Y181937D01*
X-145783Y181920D01*
X-145705Y181853D01*
X-145630Y181781D01*
X-145612Y181773D01*
X-145596Y181760D01*
X-145500Y181721D01*
X-145407Y181678D01*
X-145387Y181676D01*
X-145368Y181668D01*
X-145202Y181650D01*
X-137806Y181650D01*
X-136913Y180757D01*
X-136913Y168493D01*
X-137806Y167600D01*
X-145202Y167600D01*
X-145221Y167597D01*
X-145241Y167599D01*
X-145342Y167577D01*
X-145444Y167561D01*
X-145462Y167551D01*
X-145481Y167547D01*
X-145570Y167494D01*
X-145662Y167445D01*
X-145675Y167431D01*
X-145692Y167421D01*
X-145760Y167342D01*
X-145831Y167267D01*
X-145839Y167249D01*
X-145852Y167234D01*
X-145891Y167138D01*
X-145935Y167044D01*
X-145937Y167024D01*
X-145944Y167006D01*
X-145963Y166839D01*
X-145963Y153793D01*
X-146856Y152900D01*
X-147227Y152900D01*
X-147246Y152897D01*
X-147266Y152899D01*
X-147367Y152877D01*
X-147469Y152861D01*
X-147487Y152851D01*
X-147506Y152847D01*
X-147595Y152794D01*
X-147687Y152745D01*
X-147700Y152731D01*
X-147717Y152721D01*
X-147785Y152642D01*
X-147856Y152567D01*
X-147864Y152549D01*
X-147877Y152534D01*
X-147916Y152437D01*
X-147960Y152344D01*
X-147962Y152324D01*
X-147969Y152306D01*
X-147988Y152139D01*
X-147988Y138530D01*
X-147973Y138440D01*
X-147966Y138349D01*
X-147953Y138320D01*
X-147948Y138288D01*
X-147905Y138207D01*
X-147870Y138123D01*
X-147844Y138091D01*
X-147833Y138070D01*
X-147810Y138048D01*
X-147765Y137992D01*
X-142622Y132849D01*
X-142548Y132796D01*
X-142478Y132737D01*
X-142448Y132725D01*
X-142422Y132706D01*
X-142335Y132679D01*
X-142250Y132645D01*
X-142209Y132640D01*
X-142187Y132633D01*
X-142155Y132634D01*
X-142084Y132626D01*
X-141791Y132626D01*
X-139439Y130275D01*
X-139213Y130048D01*
X-139155Y130007D01*
X-139103Y129957D01*
X-139056Y129935D01*
X-139014Y129905D01*
X-138945Y129884D01*
X-138880Y129854D01*
X-138828Y129848D01*
X-138778Y129833D01*
X-138707Y129834D01*
X-138636Y129826D01*
X-138585Y129838D01*
G37*
G36*
X-51444Y-26138D02*
X-51444Y-26138D01*
X-51330Y-26122D01*
X-51321Y-26117D01*
X-51314Y-26116D01*
X-51294Y-26106D01*
X-51177Y-26054D01*
X-50419Y-25617D01*
X-50367Y-25574D01*
X-50309Y-25540D01*
X-50273Y-25497D01*
X-50229Y-25461D01*
X-50193Y-25404D01*
X-50149Y-25353D01*
X-50128Y-25300D01*
X-50098Y-25253D01*
X-50083Y-25187D01*
X-50057Y-25124D01*
X-50049Y-25046D01*
X-50041Y-25014D01*
X-50043Y-24993D01*
X-50039Y-24958D01*
X-50039Y-10096D01*
X-50042Y-10077D01*
X-50040Y-10057D01*
X-50062Y-9956D01*
X-50079Y-9854D01*
X-50088Y-9836D01*
X-50092Y-9817D01*
X-50145Y-9728D01*
X-50194Y-9636D01*
X-50208Y-9623D01*
X-50218Y-9606D01*
X-50297Y-9538D01*
X-50372Y-9467D01*
X-50390Y-9459D01*
X-50405Y-9446D01*
X-50501Y-9407D01*
X-50595Y-9363D01*
X-50615Y-9361D01*
X-50633Y-9354D01*
X-50800Y-9335D01*
X-84723Y-9335D01*
X-88737Y-7672D01*
X-91810Y-4600D01*
X-93473Y-585D01*
X-93473Y83135D01*
X-92521Y85434D01*
X-92500Y85522D01*
X-92472Y85609D01*
X-92472Y85642D01*
X-92464Y85673D01*
X-92473Y85764D01*
X-92474Y85855D01*
X-92485Y85895D01*
X-92488Y85918D01*
X-92501Y85947D01*
X-92521Y86016D01*
X-93473Y88315D01*
X-93473Y174771D01*
X-93473Y174774D01*
X-93473Y174780D01*
X-93496Y176913D01*
X-93491Y176926D01*
X-93485Y176977D01*
X-92666Y178955D01*
X-92665Y178959D01*
X-92663Y178963D01*
X-91868Y180944D01*
X-91858Y180954D01*
X-91833Y180999D01*
X-90320Y182513D01*
X-90318Y182515D01*
X-90314Y182519D01*
X-88821Y184045D01*
X-88809Y184050D01*
X-88768Y184083D01*
X-86789Y184902D01*
X-86786Y184904D01*
X-86782Y184905D01*
X-84820Y185744D01*
X-84806Y185744D01*
X-84756Y185758D01*
X-82614Y185758D01*
X-82610Y185759D01*
X-82605Y185758D01*
X-50792Y186110D01*
X-50776Y186113D01*
X-50761Y186111D01*
X-50655Y186134D01*
X-50549Y186152D01*
X-50536Y186160D01*
X-50520Y186163D01*
X-50428Y186218D01*
X-50333Y186270D01*
X-50322Y186281D01*
X-50309Y186289D01*
X-50239Y186371D01*
X-50166Y186450D01*
X-50159Y186464D01*
X-50149Y186476D01*
X-50109Y186576D01*
X-50065Y186674D01*
X-50063Y186690D01*
X-50057Y186704D01*
X-50039Y186871D01*
X-50039Y199583D01*
X-50050Y199649D01*
X-50051Y199717D01*
X-50069Y199770D01*
X-50079Y199825D01*
X-50110Y199885D01*
X-50133Y199949D01*
X-50167Y199993D01*
X-50194Y200043D01*
X-50242Y200089D01*
X-50284Y200143D01*
X-50348Y200190D01*
X-50372Y200212D01*
X-50391Y200221D01*
X-50419Y200242D01*
X-51177Y200679D01*
X-51283Y200720D01*
X-51390Y200763D01*
X-51399Y200763D01*
X-51407Y200766D01*
X-51521Y200770D01*
X-51635Y200777D01*
X-51644Y200775D01*
X-51652Y200775D01*
X-51762Y200743D01*
X-51873Y200713D01*
X-51880Y200708D01*
X-51888Y200705D01*
X-51982Y200639D01*
X-52077Y200576D01*
X-52084Y200568D01*
X-52090Y200564D01*
X-52103Y200545D01*
X-52186Y200449D01*
X-52222Y200396D01*
X-52496Y199993D01*
X-52511Y199962D01*
X-52533Y199935D01*
X-52563Y199851D01*
X-52600Y199770D01*
X-52604Y199736D01*
X-52616Y199703D01*
X-52622Y199624D01*
X-53059Y199152D01*
X-53077Y199125D01*
X-53130Y199063D01*
X-53259Y198874D01*
X-53491Y198534D01*
X-53556Y198503D01*
X-53639Y198473D01*
X-53666Y198451D01*
X-53698Y198436D01*
X-53825Y198327D01*
X-55323Y196711D01*
X-55342Y196682D01*
X-55368Y196658D01*
X-55410Y196580D01*
X-55459Y196506D01*
X-55468Y196472D01*
X-55485Y196441D01*
X-55501Y196368D01*
X-55502Y196367D01*
X-55502Y196365D01*
X-55502Y196364D01*
X-56005Y195963D01*
X-56027Y195938D01*
X-56089Y195885D01*
X-56524Y195416D01*
X-56593Y195395D01*
X-56680Y195377D01*
X-56710Y195360D01*
X-56743Y195350D01*
X-56885Y195261D01*
X-58608Y193886D01*
X-58631Y193860D01*
X-58660Y193840D01*
X-58713Y193769D01*
X-58773Y193703D01*
X-58787Y193671D01*
X-58807Y193644D01*
X-58836Y193570D01*
X-59394Y193248D01*
X-59419Y193227D01*
X-59488Y193184D01*
X-59988Y192784D01*
X-60059Y192774D01*
X-60148Y192770D01*
X-60180Y192757D01*
X-60214Y192752D01*
X-60368Y192685D01*
X-62277Y191582D01*
X-62304Y191560D01*
X-62335Y191545D01*
X-62398Y191483D01*
X-62467Y191426D01*
X-62485Y191397D01*
X-62510Y191373D01*
X-62550Y191304D01*
X-63149Y191068D01*
X-63177Y191052D01*
X-63251Y191019D01*
X-63806Y190699D01*
X-63877Y190699D01*
X-63966Y190708D01*
X-64000Y190700D01*
X-64034Y190701D01*
X-64196Y190657D01*
X-66248Y189851D01*
X-66278Y189833D01*
X-66311Y189823D01*
X-66383Y189771D01*
X-66459Y189725D01*
X-66482Y189699D01*
X-66510Y189679D01*
X-66559Y189616D01*
X-67187Y189473D01*
X-67217Y189460D01*
X-67295Y189439D01*
X-67891Y189205D01*
X-67962Y189217D01*
X-68048Y189238D01*
X-68083Y189236D01*
X-68117Y189241D01*
X-68284Y189222D01*
X-70433Y188731D01*
X-70465Y188718D01*
X-70499Y188713D01*
X-70578Y188672D01*
X-70660Y188638D01*
X-70687Y188616D01*
X-70718Y188600D01*
X-70776Y188545D01*
X-71417Y188497D01*
X-71449Y188489D01*
X-71530Y188480D01*
X-72154Y188337D01*
X-72222Y188359D01*
X-72305Y188394D01*
X-72339Y188396D01*
X-72372Y188407D01*
X-72540Y188413D01*
X-74738Y188247D01*
X-74771Y188239D01*
X-74806Y188239D01*
X-74890Y188210D01*
X-74977Y188189D01*
X-75006Y188171D01*
X-75039Y188160D01*
X-75104Y188115D01*
X-75746Y188163D01*
X-75779Y188160D01*
X-75860Y188163D01*
X-76499Y188115D01*
X-76563Y188146D01*
X-76639Y188193D01*
X-76673Y188200D01*
X-76704Y188216D01*
X-76869Y188247D01*
X-79067Y188411D01*
X-79101Y188408D01*
X-79136Y188413D01*
X-79223Y188397D01*
X-79312Y188389D01*
X-79343Y188375D01*
X-79378Y188369D01*
X-79449Y188334D01*
X-80077Y188477D01*
X-80110Y188479D01*
X-80189Y188494D01*
X-80828Y188542D01*
X-80887Y188583D01*
X-80955Y188640D01*
X-80987Y188653D01*
X-81016Y188672D01*
X-81174Y188728D01*
X-83323Y189217D01*
X-83358Y189219D01*
X-83391Y189230D01*
X-83480Y189227D01*
X-83569Y189233D01*
X-83602Y189224D01*
X-83637Y189223D01*
X-83712Y189199D01*
X-84312Y189434D01*
X-84344Y189441D01*
X-84421Y189467D01*
X-85045Y189610D01*
X-85097Y189659D01*
X-85156Y189726D01*
X-85186Y189743D01*
X-85211Y189767D01*
X-85360Y189845D01*
X-87412Y190649D01*
X-87446Y190657D01*
X-87477Y190672D01*
X-87565Y190682D01*
X-87652Y190701D01*
X-87687Y190697D01*
X-87721Y190701D01*
X-87800Y190689D01*
X-88357Y191011D01*
X-88388Y191023D01*
X-88460Y191060D01*
X-89056Y191294D01*
X-89100Y191351D01*
X-89148Y191425D01*
X-89175Y191447D01*
X-89197Y191474D01*
X-89332Y191573D01*
X-89628Y191744D01*
X-89669Y191759D01*
X-89705Y191783D01*
X-89783Y191803D01*
X-89858Y191831D01*
X-89901Y191832D01*
X-89944Y191843D01*
X-90024Y191837D01*
X-90104Y191840D01*
X-90146Y191827D01*
X-90189Y191824D01*
X-90263Y191793D01*
X-90339Y191770D01*
X-90375Y191745D01*
X-90415Y191728D01*
X-90530Y191636D01*
X-90541Y191629D01*
X-90543Y191626D01*
X-90546Y191623D01*
X-99275Y182895D01*
X-99328Y182821D01*
X-99387Y182751D01*
X-99400Y182721D01*
X-99418Y182695D01*
X-99445Y182608D01*
X-99479Y182523D01*
X-99484Y182482D01*
X-99491Y182460D01*
X-99490Y182428D01*
X-99498Y182356D01*
X-99498Y115984D01*
X-103599Y111883D01*
X-104656Y110826D01*
X-104668Y110809D01*
X-104684Y110797D01*
X-104739Y110710D01*
X-104800Y110626D01*
X-104806Y110607D01*
X-104817Y110590D01*
X-104842Y110489D01*
X-104872Y110391D01*
X-104872Y110371D01*
X-104877Y110351D01*
X-104868Y110248D01*
X-104866Y110145D01*
X-104859Y110126D01*
X-104857Y110106D01*
X-104817Y110011D01*
X-104800Y109966D01*
X-104800Y106090D01*
X-104861Y106029D01*
X-104873Y106013D01*
X-104888Y106001D01*
X-104944Y105914D01*
X-105004Y105830D01*
X-105010Y105811D01*
X-105021Y105794D01*
X-105046Y105693D01*
X-105077Y105595D01*
X-105076Y105575D01*
X-105081Y105555D01*
X-105073Y105452D01*
X-105070Y105349D01*
X-105064Y105330D01*
X-105062Y105310D01*
X-105022Y105215D01*
X-104986Y105118D01*
X-104974Y105102D01*
X-104966Y105084D01*
X-104861Y104953D01*
X-104800Y104892D01*
X-104800Y101089D01*
X-104861Y101028D01*
X-104873Y101012D01*
X-104888Y101000D01*
X-104944Y100913D01*
X-105004Y100829D01*
X-105010Y100810D01*
X-105021Y100793D01*
X-105046Y100692D01*
X-105077Y100594D01*
X-105076Y100574D01*
X-105081Y100554D01*
X-105073Y100451D01*
X-105070Y100348D01*
X-105064Y100329D01*
X-105062Y100309D01*
X-105022Y100214D01*
X-104986Y100117D01*
X-104974Y100101D01*
X-104966Y100083D01*
X-104861Y99952D01*
X-104800Y99891D01*
X-104800Y96642D01*
X-104786Y96552D01*
X-104778Y96461D01*
X-104766Y96431D01*
X-104761Y96399D01*
X-104718Y96319D01*
X-104682Y96235D01*
X-104656Y96203D01*
X-104645Y96182D01*
X-104622Y96160D01*
X-104577Y96104D01*
X-104292Y95819D01*
X-103957Y95239D01*
X-103784Y94593D01*
X-103784Y93750D01*
X-109075Y93750D01*
X-109094Y93747D01*
X-109114Y93749D01*
X-109215Y93727D01*
X-109317Y93710D01*
X-109335Y93701D01*
X-109354Y93697D01*
X-109444Y93643D01*
X-109535Y93595D01*
X-109549Y93581D01*
X-109566Y93570D01*
X-109633Y93491D01*
X-109705Y93416D01*
X-109713Y93398D01*
X-109726Y93383D01*
X-109765Y93287D01*
X-109808Y93193D01*
X-109810Y93173D01*
X-109818Y93155D01*
X-109836Y92988D01*
X-109836Y87987D01*
X-109833Y87967D01*
X-109835Y87947D01*
X-109813Y87846D01*
X-109797Y87744D01*
X-109787Y87727D01*
X-109783Y87707D01*
X-109730Y87618D01*
X-109682Y87527D01*
X-109681Y87526D01*
X-109667Y87513D01*
X-109657Y87496D01*
X-109656Y87495D01*
X-109578Y87428D01*
X-109503Y87357D01*
X-109485Y87348D01*
X-109470Y87335D01*
X-109373Y87297D01*
X-109280Y87253D01*
X-109260Y87251D01*
X-109241Y87244D01*
X-109075Y87225D01*
X-103784Y87225D01*
X-103784Y86382D01*
X-103957Y85736D01*
X-104292Y85156D01*
X-104577Y84871D01*
X-104630Y84797D01*
X-104690Y84728D01*
X-104702Y84698D01*
X-104721Y84671D01*
X-104748Y84584D01*
X-104782Y84500D01*
X-104786Y84459D01*
X-104793Y84436D01*
X-104792Y84404D01*
X-104800Y84333D01*
X-104800Y81084D01*
X-104861Y81023D01*
X-104873Y81007D01*
X-104888Y80995D01*
X-104944Y80908D01*
X-105004Y80824D01*
X-105010Y80805D01*
X-105021Y80788D01*
X-105046Y80687D01*
X-105077Y80589D01*
X-105076Y80569D01*
X-105081Y80549D01*
X-105073Y80446D01*
X-105070Y80343D01*
X-105064Y80324D01*
X-105062Y80304D01*
X-105022Y80209D01*
X-104986Y80112D01*
X-104974Y80096D01*
X-104966Y80078D01*
X-104861Y79947D01*
X-104800Y79886D01*
X-104800Y76285D01*
X-104797Y76266D01*
X-104799Y76246D01*
X-104777Y76145D01*
X-104761Y76043D01*
X-104751Y76025D01*
X-104747Y76006D01*
X-104694Y75917D01*
X-104645Y75825D01*
X-104631Y75812D01*
X-104621Y75795D01*
X-104542Y75727D01*
X-104467Y75656D01*
X-104449Y75648D01*
X-104434Y75635D01*
X-104338Y75596D01*
X-104244Y75552D01*
X-104224Y75550D01*
X-104206Y75543D01*
X-104039Y75524D01*
X-103797Y75524D01*
X-96323Y68050D01*
X-96323Y-7048D01*
X-96308Y-7138D01*
X-96301Y-7229D01*
X-96288Y-7259D01*
X-96283Y-7291D01*
X-96240Y-7371D01*
X-96205Y-7455D01*
X-96179Y-7487D01*
X-96168Y-7508D01*
X-96145Y-7530D01*
X-96100Y-7586D01*
X-94512Y-9174D01*
X-94438Y-9227D01*
X-94368Y-9287D01*
X-94338Y-9299D01*
X-94312Y-9318D01*
X-94225Y-9345D01*
X-94140Y-9379D01*
X-94099Y-9383D01*
X-94077Y-9390D01*
X-94045Y-9389D01*
X-93974Y-9397D01*
X-91803Y-9397D01*
X-89285Y-11915D01*
X-89285Y-15603D01*
X-89269Y-15697D01*
X-89261Y-15792D01*
X-89249Y-15818D01*
X-89245Y-15846D01*
X-89200Y-15930D01*
X-89162Y-16017D01*
X-89143Y-16038D01*
X-89130Y-16063D01*
X-89061Y-16129D01*
X-88997Y-16199D01*
X-88972Y-16213D01*
X-88951Y-16233D01*
X-88865Y-16273D01*
X-88782Y-16319D01*
X-88754Y-16324D01*
X-88728Y-16336D01*
X-88634Y-16347D01*
X-88540Y-16364D01*
X-88512Y-16360D01*
X-88484Y-16363D01*
X-88391Y-16343D01*
X-88297Y-16330D01*
X-88264Y-16315D01*
X-88243Y-16311D01*
X-88215Y-16294D01*
X-88143Y-16262D01*
X-87802Y-16066D01*
X-87731Y-16067D01*
X-87642Y-16075D01*
X-87608Y-16068D01*
X-87574Y-16068D01*
X-87412Y-16024D01*
X-85360Y-15220D01*
X-85330Y-15202D01*
X-85297Y-15192D01*
X-85225Y-15140D01*
X-85148Y-15094D01*
X-85125Y-15068D01*
X-85097Y-15048D01*
X-85048Y-14985D01*
X-84421Y-14842D01*
X-84390Y-14830D01*
X-84312Y-14809D01*
X-83716Y-14575D01*
X-83645Y-14587D01*
X-83559Y-14608D01*
X-83524Y-14606D01*
X-83490Y-14611D01*
X-83323Y-14592D01*
X-81174Y-14103D01*
X-81142Y-14089D01*
X-81108Y-14084D01*
X-81029Y-14043D01*
X-80946Y-14010D01*
X-80920Y-13987D01*
X-80889Y-13971D01*
X-80831Y-13917D01*
X-80189Y-13869D01*
X-80157Y-13862D01*
X-80077Y-13852D01*
X-79452Y-13710D01*
X-79384Y-13732D01*
X-79302Y-13766D01*
X-79267Y-13769D01*
X-79234Y-13780D01*
X-79067Y-13786D01*
X-76869Y-13622D01*
X-76835Y-13613D01*
X-76800Y-13613D01*
X-76716Y-13585D01*
X-76630Y-13564D01*
X-76600Y-13545D01*
X-76567Y-13534D01*
X-76502Y-13489D01*
X-75860Y-13538D01*
X-75827Y-13535D01*
X-75746Y-13538D01*
X-75108Y-13490D01*
X-75043Y-13522D01*
X-74967Y-13568D01*
X-74934Y-13576D01*
X-74903Y-13591D01*
X-74738Y-13622D01*
X-72540Y-13788D01*
X-72505Y-13785D01*
X-72471Y-13790D01*
X-72383Y-13774D01*
X-72295Y-13766D01*
X-72263Y-13752D01*
X-72229Y-13746D01*
X-72157Y-13712D01*
X-71530Y-13855D01*
X-71497Y-13857D01*
X-71417Y-13872D01*
X-70779Y-13920D01*
X-70720Y-13961D01*
X-70652Y-14018D01*
X-70620Y-14031D01*
X-70591Y-14051D01*
X-70433Y-14106D01*
X-68284Y-14597D01*
X-68249Y-14599D01*
X-68216Y-14609D01*
X-68127Y-14607D01*
X-68038Y-14613D01*
X-68005Y-14604D01*
X-67970Y-14603D01*
X-67894Y-14579D01*
X-67295Y-14814D01*
X-67263Y-14821D01*
X-67187Y-14848D01*
X-66562Y-14991D01*
X-66510Y-15040D01*
X-66451Y-15107D01*
X-66421Y-15124D01*
X-66396Y-15148D01*
X-66248Y-15226D01*
X-64196Y-16032D01*
X-64162Y-16039D01*
X-64131Y-16054D01*
X-64043Y-16065D01*
X-63956Y-16084D01*
X-63921Y-16080D01*
X-63887Y-16084D01*
X-63808Y-16072D01*
X-63251Y-16394D01*
X-63220Y-16406D01*
X-63149Y-16443D01*
X-62553Y-16678D01*
X-62508Y-16734D01*
X-62460Y-16809D01*
X-62433Y-16830D01*
X-62412Y-16858D01*
X-62277Y-16957D01*
X-60368Y-18060D01*
X-60336Y-18072D01*
X-60307Y-18092D01*
X-60221Y-18115D01*
X-60138Y-18147D01*
X-60103Y-18148D01*
X-60070Y-18157D01*
X-59991Y-18157D01*
X-59488Y-18559D01*
X-59459Y-18575D01*
X-59393Y-18623D01*
X-58839Y-18943D01*
X-58804Y-19006D01*
X-58767Y-19087D01*
X-58744Y-19112D01*
X-58727Y-19142D01*
X-58608Y-19261D01*
X-56885Y-20636D01*
X-56855Y-20653D01*
X-56829Y-20676D01*
X-56817Y-20681D01*
X-56814Y-20684D01*
X-56786Y-20695D01*
X-56748Y-20712D01*
X-56670Y-20756D01*
X-56636Y-20762D01*
X-56605Y-20777D01*
X-56526Y-20788D01*
X-56089Y-21260D01*
X-56063Y-21280D01*
X-56005Y-21338D01*
X-55505Y-21737D01*
X-55484Y-21791D01*
X-55474Y-21835D01*
X-55467Y-21849D01*
X-55455Y-21890D01*
X-55435Y-21918D01*
X-55423Y-21951D01*
X-55323Y-22086D01*
X-53825Y-23702D01*
X-53797Y-23723D01*
X-53776Y-23750D01*
X-53701Y-23798D01*
X-53630Y-23853D01*
X-53598Y-23864D01*
X-53568Y-23883D01*
X-53493Y-23906D01*
X-53130Y-24438D01*
X-53107Y-24462D01*
X-53059Y-24527D01*
X-52624Y-24997D01*
X-52609Y-25067D01*
X-52598Y-25155D01*
X-52583Y-25186D01*
X-52575Y-25220D01*
X-52496Y-25368D01*
X-52186Y-25824D01*
X-52167Y-25844D01*
X-52161Y-25853D01*
X-52145Y-25867D01*
X-52107Y-25906D01*
X-52030Y-25991D01*
X-52023Y-25995D01*
X-52017Y-26002D01*
X-51916Y-26055D01*
X-51816Y-26111D01*
X-51807Y-26113D01*
X-51799Y-26117D01*
X-51686Y-26135D01*
X-51574Y-26156D01*
X-51565Y-26155D01*
X-51557Y-26156D01*
X-51444Y-26138D01*
G37*
G36*
X-150796Y-86377D02*
X-150796Y-86377D01*
X-150719Y-86378D01*
X-150695Y-86369D01*
X-150675Y-86367D01*
X-150635Y-86347D01*
X-150563Y-86320D01*
X-134063Y-76820D01*
X-134042Y-76801D01*
X-134015Y-76789D01*
X-133981Y-76751D01*
X-133978Y-76749D01*
X-133976Y-76745D01*
X-133968Y-76736D01*
X-133914Y-76689D01*
X-133902Y-76663D01*
X-133882Y-76641D01*
X-133859Y-76574D01*
X-133828Y-76509D01*
X-133827Y-76480D01*
X-133818Y-76453D01*
X-133822Y-76382D01*
X-133819Y-76311D01*
X-133829Y-76284D01*
X-133831Y-76255D01*
X-133874Y-76164D01*
X-133888Y-76124D01*
X-133896Y-76116D01*
X-133902Y-76104D01*
X-135643Y-73580D01*
X-135668Y-73557D01*
X-135694Y-73518D01*
X-137818Y-71307D01*
X-137846Y-71288D01*
X-137878Y-71254D01*
X-140330Y-69412D01*
X-140360Y-69397D01*
X-140398Y-69369D01*
X-143113Y-67944D01*
X-143145Y-67934D01*
X-143186Y-67912D01*
X-146095Y-66941D01*
X-146121Y-66938D01*
X-146131Y-66937D01*
X-146173Y-66922D01*
X-149199Y-66430D01*
X-149233Y-66432D01*
X-149279Y-66424D01*
X-149289Y-66424D01*
X-149289Y-63872D01*
X-148092Y-63946D01*
X-145414Y-64447D01*
X-142816Y-65273D01*
X-140340Y-66412D01*
X-138023Y-67847D01*
X-135900Y-69555D01*
X-134003Y-71512D01*
X-133167Y-72619D01*
X-133098Y-72685D01*
X-133033Y-72757D01*
X-133009Y-72770D01*
X-132989Y-72789D01*
X-132902Y-72829D01*
X-132818Y-72876D01*
X-132791Y-72881D01*
X-132766Y-72893D01*
X-132671Y-72904D01*
X-132576Y-72921D01*
X-132549Y-72917D01*
X-132522Y-72921D01*
X-132428Y-72900D01*
X-132333Y-72887D01*
X-132301Y-72873D01*
X-132281Y-72869D01*
X-132253Y-72852D01*
X-132179Y-72820D01*
X-102449Y-55655D01*
X-102360Y-55582D01*
X-102270Y-55513D01*
X-102265Y-55505D01*
X-102258Y-55500D01*
X-102197Y-55402D01*
X-102135Y-55307D01*
X-102132Y-55299D01*
X-102128Y-55291D01*
X-102101Y-55180D01*
X-102072Y-55070D01*
X-102072Y-55061D01*
X-102070Y-55052D01*
X-102080Y-54938D01*
X-102088Y-54824D01*
X-102091Y-54814D01*
X-102092Y-54807D01*
X-102101Y-54786D01*
X-102143Y-54666D01*
X-102390Y-54153D01*
X-102410Y-54125D01*
X-102423Y-54093D01*
X-102480Y-54024D01*
X-102531Y-53952D01*
X-102559Y-53931D01*
X-102582Y-53905D01*
X-102647Y-53860D01*
X-102837Y-53245D01*
X-102851Y-53215D01*
X-102878Y-53139D01*
X-103156Y-52562D01*
X-103150Y-52490D01*
X-103134Y-52403D01*
X-103140Y-52369D01*
X-103137Y-52334D01*
X-103168Y-52169D01*
X-103817Y-50063D01*
X-103833Y-50032D01*
X-103840Y-49998D01*
X-103887Y-49922D01*
X-103927Y-49842D01*
X-103951Y-49818D01*
X-103969Y-49788D01*
X-104028Y-49735D01*
X-104123Y-49098D01*
X-104133Y-49067D01*
X-104149Y-48987D01*
X-104337Y-48375D01*
X-104321Y-48305D01*
X-104292Y-48221D01*
X-104292Y-48186D01*
X-104284Y-48153D01*
X-104291Y-47985D01*
X-104529Y-46402D01*
X-104533Y-46388D01*
X-104534Y-46373D01*
X-104571Y-46271D01*
X-104604Y-46168D01*
X-104613Y-46156D01*
X-104618Y-46142D01*
X-104686Y-46058D01*
X-104750Y-45970D01*
X-104763Y-45962D01*
X-104772Y-45950D01*
X-104863Y-45892D01*
X-104952Y-45829D01*
X-104966Y-45825D01*
X-104979Y-45817D01*
X-105084Y-45791D01*
X-105188Y-45760D01*
X-105203Y-45761D01*
X-105217Y-45757D01*
X-105325Y-45765D01*
X-105434Y-45770D01*
X-105448Y-45775D01*
X-105462Y-45776D01*
X-105562Y-45818D01*
X-105663Y-45857D01*
X-105675Y-45867D01*
X-105689Y-45872D01*
X-105820Y-45977D01*
X-113935Y-54093D01*
X-181365Y-54093D01*
X-181385Y-54096D01*
X-181404Y-54094D01*
X-181506Y-54116D01*
X-181608Y-54132D01*
X-181625Y-54142D01*
X-181645Y-54146D01*
X-181734Y-54199D01*
X-181825Y-54247D01*
X-181839Y-54262D01*
X-181856Y-54272D01*
X-181923Y-54351D01*
X-181994Y-54426D01*
X-182003Y-54444D01*
X-182016Y-54459D01*
X-182055Y-54555D01*
X-182098Y-54649D01*
X-182100Y-54669D01*
X-182108Y-54687D01*
X-182126Y-54854D01*
X-182126Y-56507D01*
X-184644Y-59026D01*
X-188206Y-59026D01*
X-190724Y-56507D01*
X-190724Y-52946D01*
X-189318Y-51540D01*
X-189276Y-51482D01*
X-189226Y-51430D01*
X-189205Y-51383D01*
X-189174Y-51341D01*
X-189153Y-51272D01*
X-189123Y-51207D01*
X-189117Y-51155D01*
X-189102Y-51105D01*
X-189104Y-51034D01*
X-189096Y-50963D01*
X-189107Y-50912D01*
X-189108Y-50860D01*
X-189133Y-50792D01*
X-189148Y-50722D01*
X-189175Y-50677D01*
X-189193Y-50629D01*
X-189237Y-50573D01*
X-189274Y-50511D01*
X-189314Y-50477D01*
X-189346Y-50437D01*
X-189407Y-50398D01*
X-189461Y-50351D01*
X-189509Y-50332D01*
X-189553Y-50304D01*
X-189623Y-50286D01*
X-189689Y-50259D01*
X-189761Y-50251D01*
X-189792Y-50243D01*
X-189815Y-50245D01*
X-189856Y-50241D01*
X-197301Y-50241D01*
X-197330Y-50246D01*
X-197360Y-50243D01*
X-197451Y-50265D01*
X-197543Y-50280D01*
X-197570Y-50294D01*
X-197599Y-50301D01*
X-197678Y-50352D01*
X-197761Y-50396D01*
X-197781Y-50417D01*
X-197806Y-50433D01*
X-197866Y-50506D01*
X-197930Y-50574D01*
X-197943Y-50601D01*
X-197961Y-50624D01*
X-198028Y-50778D01*
X-198457Y-52169D01*
X-198462Y-52204D01*
X-198474Y-52236D01*
X-198478Y-52325D01*
X-198490Y-52413D01*
X-198484Y-52447D01*
X-198486Y-52482D01*
X-198468Y-52559D01*
X-198747Y-53139D01*
X-198756Y-53171D01*
X-198788Y-53245D01*
X-198977Y-53857D01*
X-199030Y-53905D01*
X-199101Y-53959D01*
X-199120Y-53988D01*
X-199146Y-54011D01*
X-199235Y-54153D01*
X-199482Y-54666D01*
X-199514Y-54775D01*
X-199549Y-54884D01*
X-199548Y-54893D01*
X-199551Y-54902D01*
X-199547Y-55016D01*
X-199545Y-55130D01*
X-199542Y-55139D01*
X-199542Y-55148D01*
X-199501Y-55255D01*
X-199463Y-55362D01*
X-199457Y-55369D01*
X-199454Y-55378D01*
X-199382Y-55466D01*
X-199311Y-55556D01*
X-199303Y-55562D01*
X-199298Y-55568D01*
X-199278Y-55580D01*
X-199176Y-55655D01*
X-169446Y-72820D01*
X-169356Y-72854D01*
X-169269Y-72894D01*
X-169242Y-72897D01*
X-169216Y-72906D01*
X-169120Y-72910D01*
X-169024Y-72920D01*
X-168998Y-72914D01*
X-168970Y-72915D01*
X-168878Y-72888D01*
X-168784Y-72868D01*
X-168761Y-72853D01*
X-168734Y-72846D01*
X-168656Y-72790D01*
X-168573Y-72741D01*
X-168550Y-72716D01*
X-168533Y-72704D01*
X-168514Y-72678D01*
X-168458Y-72619D01*
X-168062Y-72094D01*
X-167622Y-71512D01*
X-165725Y-69556D01*
X-163602Y-67847D01*
X-161285Y-66412D01*
X-158809Y-65273D01*
X-156211Y-64447D01*
X-153533Y-63946D01*
X-152336Y-63872D01*
X-152336Y-66424D01*
X-152346Y-66424D01*
X-152379Y-66431D01*
X-152426Y-66430D01*
X-155452Y-66922D01*
X-155484Y-66934D01*
X-155530Y-66941D01*
X-158439Y-67912D01*
X-158468Y-67929D01*
X-158512Y-67944D01*
X-161227Y-69369D01*
X-161254Y-69390D01*
X-161295Y-69412D01*
X-163747Y-71254D01*
X-163769Y-71279D01*
X-163807Y-71307D01*
X-165931Y-73518D01*
X-165949Y-73547D01*
X-165982Y-73580D01*
X-167723Y-76104D01*
X-167735Y-76131D01*
X-167753Y-76153D01*
X-167774Y-76221D01*
X-167801Y-76287D01*
X-167802Y-76316D01*
X-167810Y-76343D01*
X-167802Y-76415D01*
X-167802Y-76486D01*
X-167791Y-76512D01*
X-167788Y-76541D01*
X-167753Y-76603D01*
X-167725Y-76669D01*
X-167704Y-76689D01*
X-167690Y-76714D01*
X-167627Y-76766D01*
X-167623Y-76772D01*
X-167613Y-76777D01*
X-167613Y-76778D01*
X-167582Y-76808D01*
X-167572Y-76812D01*
X-167562Y-76820D01*
X-151062Y-86320D01*
X-150989Y-86344D01*
X-150918Y-86375D01*
X-150895Y-86376D01*
X-150873Y-86383D01*
X-150796Y-86377D01*
G37*
G36*
X-99146Y-56578D02*
X-99146Y-56578D01*
X-99119Y-56578D01*
X-99020Y-56541D01*
X-98981Y-56530D01*
X-98974Y-56524D01*
X-98963Y-56520D01*
X-52163Y-29520D01*
X-52143Y-29502D01*
X-52118Y-29491D01*
X-52069Y-29437D01*
X-52014Y-29388D01*
X-52002Y-29364D01*
X-51984Y-29344D01*
X-51960Y-29275D01*
X-51928Y-29209D01*
X-51927Y-29182D01*
X-51918Y-29156D01*
X-51923Y-29083D01*
X-51919Y-29010D01*
X-51929Y-28985D01*
X-51930Y-28958D01*
X-51974Y-28862D01*
X-51989Y-28824D01*
X-51995Y-28817D01*
X-52000Y-28806D01*
X-54273Y-25470D01*
X-54296Y-25447D01*
X-54320Y-25411D01*
X-57065Y-22451D01*
X-57091Y-22432D01*
X-57120Y-22400D01*
X-60276Y-19881D01*
X-60304Y-19867D01*
X-60338Y-19839D01*
X-63834Y-17819D01*
X-63864Y-17809D01*
X-63901Y-17787D01*
X-67659Y-16311D01*
X-67690Y-16305D01*
X-67730Y-16289D01*
X-71666Y-15389D01*
X-71698Y-15388D01*
X-71740Y-15378D01*
X-75766Y-15075D01*
X-75798Y-15079D01*
X-75841Y-15075D01*
X-79867Y-15375D01*
X-79898Y-15384D01*
X-79941Y-15386D01*
X-83878Y-16283D01*
X-83907Y-16297D01*
X-83949Y-16305D01*
X-87708Y-17779D01*
X-87735Y-17797D01*
X-87776Y-17812D01*
X-91273Y-19829D01*
X-91297Y-19850D01*
X-91335Y-19871D01*
X-94492Y-22388D01*
X-94513Y-22412D01*
X-94547Y-22439D01*
X-97294Y-25397D01*
X-97311Y-25425D01*
X-97341Y-25456D01*
X-99616Y-28791D01*
X-99629Y-28820D01*
X-99654Y-28856D01*
X-101407Y-32493D01*
X-101414Y-32524D01*
X-101434Y-32562D01*
X-102625Y-36420D01*
X-102628Y-36452D01*
X-102642Y-36493D01*
X-103245Y-40485D01*
X-103243Y-40517D01*
X-103251Y-40560D01*
X-103252Y-44598D01*
X-103249Y-44612D01*
X-103251Y-44621D01*
X-103246Y-44641D01*
X-103246Y-44672D01*
X-102646Y-48665D01*
X-102635Y-48695D01*
X-102629Y-48737D01*
X-101440Y-52596D01*
X-101425Y-52624D01*
X-101413Y-52666D01*
X-99662Y-56304D01*
X-99646Y-56326D01*
X-99636Y-56351D01*
X-99586Y-56404D01*
X-99542Y-56462D01*
X-99519Y-56476D01*
X-99500Y-56496D01*
X-99433Y-56525D01*
X-99370Y-56561D01*
X-99343Y-56565D01*
X-99318Y-56576D01*
X-99245Y-56576D01*
X-99172Y-56585D01*
X-99146Y-56578D01*
G37*
G36*
X-75809Y189704D02*
X-75809Y189704D01*
X-75766Y189700D01*
X-71740Y190003D01*
X-71709Y190011D01*
X-71666Y190014D01*
X-67730Y190914D01*
X-67701Y190927D01*
X-67659Y190936D01*
X-63901Y192412D01*
X-63874Y192429D01*
X-63834Y192444D01*
X-60338Y194464D01*
X-60314Y194485D01*
X-60276Y194506D01*
X-57120Y197025D01*
X-57100Y197049D01*
X-57065Y197076D01*
X-54320Y200036D01*
X-54303Y200064D01*
X-54273Y200095D01*
X-52000Y203431D01*
X-51989Y203457D01*
X-51972Y203477D01*
X-51951Y203547D01*
X-51923Y203615D01*
X-51923Y203642D01*
X-51915Y203668D01*
X-51923Y203741D01*
X-51924Y203814D01*
X-51934Y203839D01*
X-51937Y203866D01*
X-51973Y203929D01*
X-52002Y203996D01*
X-52021Y204015D01*
X-52035Y204039D01*
X-52116Y204106D01*
X-52145Y204134D01*
X-52154Y204138D01*
X-52163Y204145D01*
X-98963Y231145D01*
X-98989Y231154D01*
X-99011Y231169D01*
X-99082Y231185D01*
X-99152Y231208D01*
X-99179Y231206D01*
X-99205Y231212D01*
X-99277Y231198D01*
X-99350Y231193D01*
X-99374Y231180D01*
X-99401Y231175D01*
X-99462Y231134D01*
X-99526Y231101D01*
X-99544Y231080D01*
X-99566Y231065D01*
X-99627Y230979D01*
X-99653Y230948D01*
X-99656Y230938D01*
X-99662Y230929D01*
X-101413Y227291D01*
X-101421Y227260D01*
X-101440Y227221D01*
X-102629Y223362D01*
X-102632Y223331D01*
X-102646Y223290D01*
X-103246Y219297D01*
X-103245Y219265D01*
X-103252Y219223D01*
X-103251Y215185D01*
X-103245Y215155D01*
X-103247Y215143D01*
X-103245Y215135D01*
X-103245Y215110D01*
X-102642Y211118D01*
X-102631Y211088D01*
X-102625Y211045D01*
X-101434Y207187D01*
X-101419Y207159D01*
X-101407Y207118D01*
X-99654Y203481D01*
X-99634Y203455D01*
X-99616Y203416D01*
X-97341Y200081D01*
X-97318Y200059D01*
X-97294Y200022D01*
X-94547Y197064D01*
X-94521Y197045D01*
X-94492Y197013D01*
X-91335Y194496D01*
X-91306Y194482D01*
X-91273Y194454D01*
X-87776Y192437D01*
X-87745Y192427D01*
X-87708Y192404D01*
X-83949Y190930D01*
X-83918Y190925D01*
X-83878Y190908D01*
X-79941Y190011D01*
X-79909Y190010D01*
X-79867Y190000D01*
X-75841Y189700D01*
X-75809Y189704D01*
G37*
G36*
X-202348Y-56573D02*
X-202348Y-56573D01*
X-202275Y-56568D01*
X-202251Y-56555D01*
X-202224Y-56550D01*
X-202164Y-56509D01*
X-202099Y-56476D01*
X-202081Y-56455D01*
X-202059Y-56440D01*
X-201998Y-56354D01*
X-201972Y-56323D01*
X-201969Y-56313D01*
X-201963Y-56304D01*
X-200212Y-52666D01*
X-200204Y-52635D01*
X-200185Y-52596D01*
X-198996Y-48737D01*
X-198993Y-48706D01*
X-198979Y-48665D01*
X-198379Y-44672D01*
X-198380Y-44640D01*
X-198373Y-44598D01*
X-198374Y-40560D01*
X-198381Y-40529D01*
X-198380Y-40485D01*
X-198983Y-36493D01*
X-198994Y-36463D01*
X-199000Y-36420D01*
X-200191Y-32562D01*
X-200206Y-32534D01*
X-200218Y-32493D01*
X-201971Y-28856D01*
X-201991Y-28830D01*
X-202009Y-28791D01*
X-204284Y-25456D01*
X-204307Y-25434D01*
X-204331Y-25397D01*
X-207078Y-22439D01*
X-207104Y-22420D01*
X-207133Y-22388D01*
X-210290Y-19871D01*
X-210319Y-19857D01*
X-210352Y-19829D01*
X-213849Y-17812D01*
X-213880Y-17802D01*
X-213917Y-17779D01*
X-217676Y-16305D01*
X-217707Y-16300D01*
X-217747Y-16283D01*
X-221684Y-15386D01*
X-221716Y-15385D01*
X-221758Y-15375D01*
X-225784Y-15075D01*
X-225816Y-15079D01*
X-225859Y-15075D01*
X-229885Y-15378D01*
X-229916Y-15386D01*
X-229959Y-15389D01*
X-233895Y-16289D01*
X-233924Y-16302D01*
X-233966Y-16311D01*
X-237724Y-17787D01*
X-237751Y-17804D01*
X-237791Y-17819D01*
X-241288Y-19839D01*
X-241311Y-19860D01*
X-241349Y-19881D01*
X-244505Y-22400D01*
X-244526Y-22424D01*
X-244560Y-22451D01*
X-247305Y-25411D01*
X-247322Y-25439D01*
X-247352Y-25470D01*
X-249625Y-28806D01*
X-249636Y-28832D01*
X-249653Y-28852D01*
X-249674Y-28922D01*
X-249702Y-28990D01*
X-249702Y-29017D01*
X-249710Y-29043D01*
X-249702Y-29116D01*
X-249701Y-29189D01*
X-249691Y-29214D01*
X-249688Y-29241D01*
X-249652Y-29304D01*
X-249623Y-29371D01*
X-249604Y-29390D01*
X-249590Y-29414D01*
X-249509Y-29481D01*
X-249480Y-29509D01*
X-249471Y-29513D01*
X-249462Y-29520D01*
X-202662Y-56520D01*
X-202636Y-56529D01*
X-202614Y-56544D01*
X-202543Y-56560D01*
X-202473Y-56583D01*
X-202446Y-56581D01*
X-202420Y-56587D01*
X-202348Y-56573D01*
G37*
G36*
X-221758Y190000D02*
X-221758Y190000D01*
X-221727Y190009D01*
X-221684Y190011D01*
X-217747Y190908D01*
X-217718Y190922D01*
X-217676Y190930D01*
X-213917Y192404D01*
X-213890Y192422D01*
X-213849Y192437D01*
X-210352Y194454D01*
X-210328Y194475D01*
X-210290Y194496D01*
X-207133Y197013D01*
X-207112Y197037D01*
X-207078Y197064D01*
X-204331Y200022D01*
X-204314Y200050D01*
X-204284Y200081D01*
X-202009Y203416D01*
X-201996Y203445D01*
X-201971Y203481D01*
X-200218Y207118D01*
X-200211Y207149D01*
X-200191Y207187D01*
X-199000Y211045D01*
X-198997Y211077D01*
X-198983Y211118D01*
X-198380Y215110D01*
X-198382Y215142D01*
X-198374Y215185D01*
X-198373Y219223D01*
X-198380Y219254D01*
X-198379Y219297D01*
X-198979Y223290D01*
X-198990Y223320D01*
X-198996Y223362D01*
X-200185Y227221D01*
X-200200Y227249D01*
X-200212Y227291D01*
X-201963Y230929D01*
X-201979Y230951D01*
X-201989Y230976D01*
X-202039Y231029D01*
X-202083Y231087D01*
X-202106Y231101D01*
X-202125Y231121D01*
X-202192Y231150D01*
X-202255Y231186D01*
X-202282Y231190D01*
X-202307Y231201D01*
X-202380Y231201D01*
X-202453Y231210D01*
X-202479Y231203D01*
X-202506Y231203D01*
X-202605Y231166D01*
X-202644Y231155D01*
X-202651Y231149D01*
X-202662Y231145D01*
X-249462Y204145D01*
X-249482Y204127D01*
X-249507Y204116D01*
X-249556Y204062D01*
X-249611Y204013D01*
X-249623Y203989D01*
X-249641Y203969D01*
X-249665Y203900D01*
X-249697Y203834D01*
X-249698Y203807D01*
X-249707Y203781D01*
X-249702Y203708D01*
X-249706Y203635D01*
X-249696Y203610D01*
X-249695Y203583D01*
X-249651Y203487D01*
X-249636Y203449D01*
X-249630Y203442D01*
X-249625Y203431D01*
X-247352Y200095D01*
X-247329Y200072D01*
X-247305Y200036D01*
X-244560Y197076D01*
X-244534Y197057D01*
X-244505Y197025D01*
X-241349Y194506D01*
X-241321Y194492D01*
X-241288Y194464D01*
X-237791Y192444D01*
X-237761Y192434D01*
X-237724Y192412D01*
X-233966Y190936D01*
X-233935Y190930D01*
X-233895Y190914D01*
X-229959Y190014D01*
X-229927Y190013D01*
X-229885Y190003D01*
X-225859Y189700D01*
X-225827Y189704D01*
X-225784Y189700D01*
X-221758Y190000D01*
G37*
G36*
X-300787Y59816D02*
X-300787Y59816D01*
X-300775Y59815D01*
X-296751Y60116D01*
X-296720Y60125D01*
X-296677Y60127D01*
X-292743Y61025D01*
X-292714Y61038D01*
X-292672Y61047D01*
X-288915Y62522D01*
X-288888Y62539D01*
X-288848Y62554D01*
X-285353Y64572D01*
X-285329Y64593D01*
X-285292Y64614D01*
X-282137Y67130D01*
X-282116Y67154D01*
X-282082Y67181D01*
X-279337Y70139D01*
X-279321Y70166D01*
X-279291Y70197D01*
X-277017Y73531D01*
X-277005Y73561D01*
X-276980Y73596D01*
X-275229Y77232D01*
X-275221Y77263D01*
X-275202Y77301D01*
X-274012Y81157D01*
X-274009Y81189D01*
X-273996Y81230D01*
X-273394Y85220D01*
X-273396Y85252D01*
X-273389Y85295D01*
X-273389Y89330D01*
X-273395Y89361D01*
X-273394Y89405D01*
X-273996Y93395D01*
X-274007Y93425D01*
X-274012Y93468D01*
X-275202Y97324D01*
X-275217Y97352D01*
X-275229Y97393D01*
X-276980Y101029D01*
X-276999Y101055D01*
X-277017Y101094D01*
X-279291Y104428D01*
X-279313Y104450D01*
X-279337Y104486D01*
X-282082Y107444D01*
X-282108Y107463D01*
X-282137Y107495D01*
X-285292Y110011D01*
X-285320Y110026D01*
X-285353Y110053D01*
X-288848Y112071D01*
X-288878Y112081D01*
X-288915Y112103D01*
X-292672Y113578D01*
X-292703Y113583D01*
X-292743Y113600D01*
X-296677Y114498D01*
X-296709Y114498D01*
X-296751Y114509D01*
X-300775Y114810D01*
X-300802Y114807D01*
X-300829Y114811D01*
X-300900Y114795D01*
X-300972Y114785D01*
X-300996Y114772D01*
X-301022Y114765D01*
X-301081Y114722D01*
X-301144Y114685D01*
X-301161Y114664D01*
X-301183Y114648D01*
X-301220Y114585D01*
X-301264Y114526D01*
X-301270Y114500D01*
X-301284Y114477D01*
X-301302Y114373D01*
X-301311Y114333D01*
X-301310Y114324D01*
X-301312Y114313D01*
X-301312Y60313D01*
X-301306Y60286D01*
X-301309Y60259D01*
X-301287Y60189D01*
X-301272Y60118D01*
X-301257Y60095D01*
X-301249Y60069D01*
X-301201Y60014D01*
X-301160Y59954D01*
X-301137Y59939D01*
X-301119Y59918D01*
X-301054Y59886D01*
X-300992Y59847D01*
X-300965Y59842D01*
X-300941Y59830D01*
X-300836Y59820D01*
X-300796Y59814D01*
X-300787Y59816D01*
G37*
G36*
X816Y154408D02*
X816Y154408D01*
X865Y154408D01*
X4009Y154940D01*
X4042Y154953D01*
X4090Y154961D01*
X7101Y156009D01*
X7131Y156027D01*
X7177Y156043D01*
X9972Y157579D01*
X9998Y157602D01*
X10041Y157626D01*
X12540Y159606D01*
X12563Y159633D01*
X12601Y159663D01*
X14734Y162033D01*
X14752Y162063D01*
X14785Y162100D01*
X16493Y164792D01*
X16506Y164824D01*
X16532Y164866D01*
X17768Y167805D01*
X17775Y167840D01*
X17794Y167885D01*
X18522Y170989D01*
X18523Y171024D01*
X18534Y171072D01*
X18734Y174254D01*
X18729Y174289D01*
X18732Y174337D01*
X18399Y177509D01*
X18389Y177542D01*
X18383Y177591D01*
X17526Y180662D01*
X17510Y180693D01*
X17497Y180740D01*
X16139Y183625D01*
X16122Y183648D01*
X16112Y183676D01*
X16063Y183728D01*
X16020Y183785D01*
X15995Y183799D01*
X15975Y183820D01*
X15910Y183849D01*
X15849Y183885D01*
X15820Y183889D01*
X15793Y183900D01*
X15722Y183901D01*
X15652Y183910D01*
X15624Y183903D01*
X15594Y183903D01*
X15501Y183868D01*
X15460Y183857D01*
X15451Y183850D01*
X15438Y183845D01*
X-813Y174489D01*
X-17063Y183845D01*
X-17091Y183854D01*
X-17115Y183871D01*
X-17185Y183886D01*
X-17252Y183908D01*
X-17281Y183906D01*
X-17310Y183912D01*
X-17379Y183898D01*
X-17450Y183892D01*
X-17476Y183879D01*
X-17505Y183873D01*
X-17564Y183833D01*
X-17627Y183801D01*
X-17645Y183778D01*
X-17669Y183762D01*
X-17726Y183680D01*
X-17753Y183647D01*
X-17756Y183636D01*
X-17764Y183625D01*
X-19122Y180740D01*
X-19130Y180706D01*
X-19151Y180662D01*
X-20008Y177591D01*
X-20011Y177556D01*
X-20024Y177509D01*
X-20357Y174337D01*
X-20354Y174303D01*
X-20359Y174254D01*
X-20159Y171072D01*
X-20150Y171038D01*
X-20147Y170989D01*
X-19419Y167885D01*
X-19404Y167853D01*
X-19393Y167805D01*
X-18157Y164866D01*
X-18137Y164837D01*
X-18118Y164792D01*
X-16410Y162100D01*
X-16386Y162074D01*
X-16359Y162033D01*
X-14226Y159663D01*
X-14198Y159643D01*
X-14165Y159606D01*
X-11666Y157626D01*
X-11635Y157610D01*
X-11597Y157579D01*
X-8802Y156043D01*
X-8769Y156033D01*
X-8726Y156009D01*
X-5715Y154961D01*
X-5680Y154956D01*
X-5634Y154940D01*
X-2490Y154408D01*
X-2455Y154409D01*
X-2407Y154401D01*
X782Y154401D01*
X816Y154408D01*
G37*
G36*
X15754Y-9273D02*
X15754Y-9273D01*
X15825Y-9267D01*
X15851Y-9254D01*
X15880Y-9248D01*
X15939Y-9208D01*
X16002Y-9176D01*
X16020Y-9153D01*
X16044Y-9137D01*
X16101Y-9055D01*
X16128Y-9022D01*
X16131Y-9011D01*
X16139Y-9000D01*
X17497Y-6115D01*
X17505Y-6081D01*
X17526Y-6037D01*
X18383Y-2966D01*
X18386Y-2931D01*
X18399Y-2884D01*
X18732Y288D01*
X18729Y323D01*
X18734Y371D01*
X18534Y3553D01*
X18525Y3587D01*
X18522Y3636D01*
X17794Y6740D01*
X17779Y6772D01*
X17768Y6820D01*
X16532Y9759D01*
X16512Y9788D01*
X16493Y9833D01*
X14785Y12525D01*
X14761Y12551D01*
X14734Y12592D01*
X12601Y14962D01*
X12573Y14982D01*
X12540Y15019D01*
X10041Y16999D01*
X10010Y17015D01*
X9972Y17046D01*
X7177Y18582D01*
X7144Y18592D01*
X7101Y18616D01*
X7021Y18644D01*
X5587Y19143D01*
X4154Y19642D01*
X4090Y19664D01*
X4055Y19669D01*
X4009Y19685D01*
X865Y20217D01*
X830Y20216D01*
X782Y20224D01*
X-2407Y20224D01*
X-2441Y20217D01*
X-2490Y20217D01*
X-5634Y19685D01*
X-5667Y19672D01*
X-5715Y19664D01*
X-8726Y18616D01*
X-8756Y18598D01*
X-8802Y18582D01*
X-11597Y17046D01*
X-11623Y17023D01*
X-11666Y16999D01*
X-14165Y15019D01*
X-14188Y14992D01*
X-14226Y14962D01*
X-16359Y12592D01*
X-16377Y12562D01*
X-16410Y12525D01*
X-18118Y9833D01*
X-18131Y9801D01*
X-18157Y9759D01*
X-19393Y6820D01*
X-19400Y6785D01*
X-19419Y6740D01*
X-20147Y3636D01*
X-20148Y3601D01*
X-20159Y3553D01*
X-20359Y371D01*
X-20354Y336D01*
X-20357Y288D01*
X-20024Y-2884D01*
X-20014Y-2917D01*
X-20008Y-2966D01*
X-19151Y-6037D01*
X-19135Y-6068D01*
X-19122Y-6115D01*
X-17764Y-9000D01*
X-17747Y-9023D01*
X-17737Y-9051D01*
X-17688Y-9103D01*
X-17645Y-9160D01*
X-17620Y-9174D01*
X-17600Y-9195D01*
X-17535Y-9224D01*
X-17474Y-9260D01*
X-17445Y-9264D01*
X-17418Y-9275D01*
X-17347Y-9276D01*
X-17277Y-9285D01*
X-17249Y-9278D01*
X-17219Y-9278D01*
X-17126Y-9243D01*
X-17085Y-9232D01*
X-17076Y-9225D01*
X-17063Y-9220D01*
X-813Y136D01*
X15438Y-9220D01*
X15466Y-9229D01*
X15490Y-9246D01*
X15560Y-9261D01*
X15627Y-9283D01*
X15656Y-9281D01*
X15685Y-9287D01*
X15754Y-9273D01*
G37*
%LPC*%
G36*
X-265278Y117411D02*
X-265278Y117411D01*
X-265278Y121722D01*
X-265150Y122201D01*
X-265145Y122248D01*
X-265131Y122294D01*
X-265133Y122370D01*
X-265126Y122445D01*
X-265136Y122492D01*
X-265137Y122540D01*
X-265164Y122611D01*
X-265180Y122685D01*
X-265205Y122726D01*
X-265222Y122771D01*
X-265269Y122830D01*
X-265309Y122895D01*
X-265346Y122926D01*
X-265376Y122963D01*
X-265439Y123004D01*
X-265497Y123053D01*
X-265542Y123070D01*
X-265583Y123096D01*
X-265656Y123115D01*
X-265727Y123142D01*
X-265775Y123145D01*
X-265821Y123156D01*
X-265897Y123150D01*
X-265972Y123154D01*
X-266018Y123141D01*
X-266066Y123137D01*
X-266136Y123107D01*
X-266209Y123087D01*
X-266248Y123060D01*
X-266293Y123041D01*
X-266393Y122960D01*
X-266412Y122948D01*
X-266416Y122942D01*
X-266424Y122936D01*
X-268706Y120654D01*
X-268925Y120654D01*
X-269015Y120639D01*
X-269106Y120632D01*
X-269136Y120619D01*
X-269168Y120614D01*
X-269248Y120571D01*
X-269332Y120535D01*
X-269364Y120510D01*
X-269385Y120499D01*
X-269407Y120475D01*
X-269463Y120431D01*
X-269493Y120400D01*
X-282957Y120400D01*
X-283850Y121293D01*
X-283850Y131707D01*
X-282957Y132600D01*
X-280543Y132600D01*
X-280523Y132603D01*
X-280504Y132601D01*
X-280402Y132623D01*
X-280300Y132639D01*
X-280283Y132649D01*
X-280263Y132653D01*
X-280174Y132706D01*
X-280083Y132755D01*
X-280069Y132769D01*
X-280052Y132779D01*
X-279985Y132858D01*
X-279913Y132933D01*
X-279905Y132951D01*
X-279892Y132966D01*
X-279853Y133062D01*
X-279810Y133156D01*
X-279808Y133176D01*
X-279800Y133194D01*
X-279797Y133220D01*
X-265111Y147907D01*
X-254936Y147907D01*
X-254916Y147910D01*
X-254897Y147908D01*
X-254795Y147930D01*
X-254693Y147946D01*
X-254676Y147956D01*
X-254656Y147960D01*
X-254567Y148013D01*
X-254476Y148062D01*
X-254462Y148076D01*
X-254445Y148086D01*
X-254378Y148165D01*
X-254306Y148240D01*
X-254298Y148258D01*
X-254285Y148273D01*
X-254246Y148369D01*
X-254203Y148463D01*
X-254201Y148483D01*
X-254193Y148501D01*
X-254175Y148668D01*
X-254175Y158332D01*
X-253282Y159225D01*
X-242018Y159225D01*
X-241125Y158332D01*
X-241125Y143068D01*
X-242018Y142175D01*
X-249242Y142175D01*
X-249332Y142161D01*
X-249423Y142153D01*
X-249453Y142141D01*
X-249485Y142136D01*
X-249565Y142093D01*
X-249649Y142057D01*
X-249681Y142031D01*
X-249702Y142020D01*
X-249724Y141997D01*
X-249780Y141952D01*
X-250939Y140793D01*
X-261849Y140793D01*
X-261939Y140779D01*
X-262030Y140771D01*
X-262060Y140759D01*
X-262092Y140754D01*
X-262172Y140711D01*
X-262256Y140675D01*
X-262288Y140649D01*
X-262309Y140638D01*
X-262331Y140615D01*
X-262387Y140570D01*
X-263525Y139433D01*
X-263553Y139394D01*
X-263588Y139361D01*
X-263624Y139294D01*
X-263669Y139233D01*
X-263683Y139187D01*
X-263706Y139145D01*
X-263719Y139070D01*
X-263741Y138998D01*
X-263740Y138950D01*
X-263748Y138903D01*
X-263736Y138828D01*
X-263735Y138752D01*
X-263718Y138707D01*
X-263711Y138659D01*
X-263676Y138592D01*
X-263650Y138521D01*
X-263620Y138483D01*
X-263598Y138441D01*
X-263544Y138388D01*
X-263496Y138329D01*
X-263456Y138303D01*
X-263422Y138269D01*
X-263353Y138237D01*
X-263289Y138196D01*
X-263243Y138184D01*
X-263200Y138163D01*
X-263124Y138154D01*
X-263051Y138136D01*
X-263003Y138139D01*
X-262955Y138134D01*
X-262828Y138153D01*
X-262806Y138155D01*
X-262800Y138157D01*
X-262790Y138159D01*
X-262484Y138241D01*
X-258673Y138241D01*
X-258673Y130223D01*
X-264691Y130223D01*
X-264691Y136034D01*
X-264609Y136340D01*
X-264604Y136387D01*
X-264590Y136433D01*
X-264592Y136509D01*
X-264585Y136584D01*
X-264595Y136631D01*
X-264596Y136679D01*
X-264622Y136750D01*
X-264639Y136824D01*
X-264664Y136865D01*
X-264681Y136910D01*
X-264728Y136969D01*
X-264768Y137034D01*
X-264805Y137065D01*
X-264835Y137102D01*
X-264898Y137143D01*
X-264956Y137192D01*
X-265001Y137209D01*
X-265042Y137235D01*
X-265115Y137254D01*
X-265186Y137281D01*
X-265234Y137284D01*
X-265280Y137295D01*
X-265356Y137289D01*
X-265431Y137293D01*
X-265477Y137280D01*
X-265525Y137276D01*
X-265595Y137246D01*
X-265668Y137226D01*
X-265707Y137199D01*
X-265752Y137180D01*
X-265852Y137099D01*
X-265871Y137087D01*
X-265875Y137081D01*
X-265883Y137075D01*
X-269387Y133570D01*
X-269399Y133554D01*
X-269415Y133542D01*
X-269470Y133455D01*
X-269531Y133370D01*
X-269537Y133351D01*
X-269548Y133335D01*
X-269573Y133234D01*
X-269603Y133135D01*
X-269603Y133115D01*
X-269608Y133096D01*
X-269600Y132993D01*
X-269597Y132889D01*
X-269590Y132871D01*
X-269588Y132851D01*
X-269548Y132756D01*
X-269512Y132658D01*
X-269500Y132643D01*
X-269492Y132625D01*
X-269387Y132494D01*
X-268600Y131707D01*
X-268600Y131413D01*
X-268586Y131323D01*
X-268578Y131232D01*
X-268566Y131202D01*
X-268561Y131170D01*
X-268518Y131089D01*
X-268482Y131005D01*
X-268456Y130973D01*
X-268445Y130953D01*
X-268422Y130930D01*
X-268377Y130874D01*
X-265616Y128113D01*
X-265616Y127938D01*
X-265613Y127918D01*
X-265615Y127899D01*
X-265593Y127797D01*
X-265576Y127695D01*
X-265567Y127678D01*
X-265563Y127658D01*
X-265510Y127569D01*
X-265461Y127478D01*
X-265447Y127464D01*
X-265437Y127447D01*
X-265358Y127380D01*
X-265283Y127309D01*
X-265265Y127300D01*
X-265250Y127287D01*
X-265153Y127248D01*
X-265060Y127205D01*
X-265040Y127203D01*
X-265022Y127195D01*
X-264855Y127177D01*
X-258673Y127177D01*
X-258673Y119131D01*
X-258742Y119120D01*
X-258760Y119110D01*
X-258779Y119106D01*
X-258868Y119053D01*
X-258960Y119004D01*
X-258973Y118990D01*
X-258990Y118980D01*
X-259058Y118901D01*
X-259129Y118826D01*
X-259137Y118808D01*
X-259150Y118793D01*
X-259189Y118697D01*
X-259233Y118603D01*
X-259235Y118583D01*
X-259242Y118565D01*
X-259261Y118398D01*
X-259261Y117411D01*
X-265278Y117411D01*
G37*
%LPD*%
%LPC*%
G36*
X-247432Y98813D02*
X-247432Y98813D01*
X-248325Y99706D01*
X-248325Y110969D01*
X-247485Y111809D01*
X-247432Y111883D01*
X-247373Y111952D01*
X-247360Y111982D01*
X-247342Y112008D01*
X-247315Y112095D01*
X-247281Y112180D01*
X-247276Y112221D01*
X-247269Y112243D01*
X-247270Y112276D01*
X-247262Y112347D01*
X-247262Y122019D01*
X-246369Y122912D01*
X-245436Y122912D01*
X-245416Y122915D01*
X-245397Y122913D01*
X-245295Y122935D01*
X-245193Y122952D01*
X-245176Y122961D01*
X-245156Y122966D01*
X-245067Y123019D01*
X-244976Y123067D01*
X-244962Y123081D01*
X-244945Y123092D01*
X-244878Y123170D01*
X-244806Y123245D01*
X-244798Y123263D01*
X-244785Y123279D01*
X-244746Y123375D01*
X-244703Y123468D01*
X-244701Y123488D01*
X-244693Y123507D01*
X-244675Y123673D01*
X-244675Y136332D01*
X-243782Y137225D01*
X-232518Y137225D01*
X-231625Y136332D01*
X-231625Y133018D01*
X-231622Y132998D01*
X-231624Y132979D01*
X-231602Y132877D01*
X-231586Y132775D01*
X-231576Y132758D01*
X-231572Y132738D01*
X-231519Y132649D01*
X-231470Y132558D01*
X-231456Y132544D01*
X-231446Y132527D01*
X-231367Y132460D01*
X-231292Y132388D01*
X-231274Y132380D01*
X-231259Y132367D01*
X-231163Y132328D01*
X-231069Y132285D01*
X-231049Y132283D01*
X-231031Y132275D01*
X-230864Y132257D01*
X-229048Y132257D01*
X-229029Y132260D01*
X-229009Y132258D01*
X-228908Y132280D01*
X-228806Y132296D01*
X-228788Y132306D01*
X-228769Y132310D01*
X-228680Y132363D01*
X-228588Y132412D01*
X-228575Y132426D01*
X-228558Y132436D01*
X-228490Y132515D01*
X-228419Y132590D01*
X-228411Y132608D01*
X-228398Y132623D01*
X-228359Y132719D01*
X-228315Y132813D01*
X-228313Y132833D01*
X-228306Y132851D01*
X-228287Y133018D01*
X-228287Y133294D01*
X-227394Y134187D01*
X-213931Y134187D01*
X-213038Y133294D01*
X-213038Y122881D01*
X-213931Y121988D01*
X-227394Y121988D01*
X-228287Y122881D01*
X-228287Y124382D01*
X-228290Y124402D01*
X-228288Y124421D01*
X-228310Y124523D01*
X-228327Y124625D01*
X-228336Y124642D01*
X-228341Y124662D01*
X-228394Y124751D01*
X-228442Y124842D01*
X-228456Y124856D01*
X-228467Y124873D01*
X-228545Y124940D01*
X-228620Y125012D01*
X-228638Y125020D01*
X-228654Y125033D01*
X-228750Y125072D01*
X-228843Y125115D01*
X-228863Y125117D01*
X-228882Y125125D01*
X-229048Y125143D01*
X-230864Y125143D01*
X-230884Y125140D01*
X-230903Y125142D01*
X-231005Y125120D01*
X-231107Y125104D01*
X-231124Y125094D01*
X-231144Y125090D01*
X-231233Y125037D01*
X-231324Y124988D01*
X-231338Y124974D01*
X-231355Y124964D01*
X-231422Y124885D01*
X-231494Y124810D01*
X-231502Y124792D01*
X-231515Y124777D01*
X-231554Y124681D01*
X-231597Y124587D01*
X-231599Y124567D01*
X-231607Y124549D01*
X-231625Y124382D01*
X-231625Y121068D01*
X-232518Y120175D01*
X-233452Y120175D01*
X-233471Y120172D01*
X-233491Y120174D01*
X-233592Y120152D01*
X-233694Y120136D01*
X-233712Y120126D01*
X-233731Y120122D01*
X-233820Y120069D01*
X-233912Y120020D01*
X-233925Y120006D01*
X-233942Y119996D01*
X-234010Y119917D01*
X-234081Y119842D01*
X-234089Y119824D01*
X-234102Y119809D01*
X-234141Y119713D01*
X-234185Y119619D01*
X-234187Y119599D01*
X-234194Y119581D01*
X-234213Y119414D01*
X-234213Y109662D01*
X-234218Y109644D01*
X-234246Y109584D01*
X-234248Y109567D01*
X-234257Y109545D01*
X-234261Y109504D01*
X-234268Y109482D01*
X-234267Y109449D01*
X-234275Y109378D01*
X-234275Y100205D01*
X-234260Y100109D01*
X-234250Y100012D01*
X-234240Y99988D01*
X-234236Y99962D01*
X-234190Y99876D01*
X-234150Y99787D01*
X-234133Y99768D01*
X-234120Y99745D01*
X-234050Y99678D01*
X-233984Y99606D01*
X-233961Y99594D01*
X-233942Y99576D01*
X-233857Y99536D01*
X-233931Y99550D01*
X-234026Y99573D01*
X-234052Y99571D01*
X-234077Y99576D01*
X-234174Y99562D01*
X-234271Y99554D01*
X-234295Y99544D01*
X-234321Y99540D01*
X-234408Y99496D01*
X-234497Y99458D01*
X-234523Y99437D01*
X-234540Y99429D01*
X-234563Y99405D01*
X-234628Y99353D01*
X-235168Y98813D01*
X-247432Y98813D01*
G37*
%LPD*%
%LPC*%
G36*
X-196216Y17388D02*
X-196216Y17388D01*
X-200911Y19333D01*
X-204505Y22926D01*
X-206450Y27621D01*
X-206450Y32704D01*
X-204505Y37399D01*
X-200911Y40992D01*
X-196216Y42937D01*
X-191134Y42937D01*
X-186439Y40992D01*
X-182845Y37399D01*
X-180900Y32704D01*
X-180900Y27621D01*
X-182845Y22926D01*
X-186439Y19333D01*
X-191134Y17388D01*
X-196216Y17388D01*
G37*
%LPD*%
G36*
X-300804Y154377D02*
X-300804Y154377D01*
X-300791Y154375D01*
X-297734Y154622D01*
X-297702Y154632D01*
X-297655Y154635D01*
X-294678Y155369D01*
X-294647Y155383D01*
X-294602Y155394D01*
X-291781Y156596D01*
X-291753Y156615D01*
X-291710Y156633D01*
X-289118Y158272D01*
X-289094Y158296D01*
X-289054Y158321D01*
X-286759Y160354D01*
X-286739Y160381D01*
X-286703Y160412D01*
X-284764Y162787D01*
X-284748Y162817D01*
X-284719Y162853D01*
X-283185Y165508D01*
X-283175Y165541D01*
X-283151Y165581D01*
X-282064Y168448D01*
X-282058Y168481D01*
X-282041Y168525D01*
X-281428Y171529D01*
X-281428Y171563D01*
X-281418Y171609D01*
X-281295Y174673D01*
X-281300Y174706D01*
X-281298Y174753D01*
X-281668Y177797D01*
X-281678Y177829D01*
X-281684Y177876D01*
X-282537Y180821D01*
X-282553Y180851D01*
X-282565Y180896D01*
X-283880Y183666D01*
X-283897Y183689D01*
X-283907Y183716D01*
X-283956Y183768D01*
X-283999Y183825D01*
X-284024Y183840D01*
X-284044Y183861D01*
X-284109Y183889D01*
X-284171Y183925D01*
X-284200Y183929D01*
X-284226Y183940D01*
X-284298Y183941D01*
X-284368Y183950D01*
X-284396Y183942D01*
X-284425Y183942D01*
X-284519Y183907D01*
X-284560Y183896D01*
X-284568Y183889D01*
X-284581Y183884D01*
X-301058Y174345D01*
X-301116Y174293D01*
X-301178Y174248D01*
X-301190Y174228D01*
X-301207Y174213D01*
X-301240Y174143D01*
X-301279Y174077D01*
X-301284Y174052D01*
X-301293Y174033D01*
X-301295Y173989D01*
X-301307Y173913D01*
X-301330Y154874D01*
X-301324Y154845D01*
X-301327Y154816D01*
X-301305Y154749D01*
X-301291Y154679D01*
X-301274Y154655D01*
X-301265Y154627D01*
X-301219Y154573D01*
X-301178Y154515D01*
X-301154Y154499D01*
X-301135Y154477D01*
X-301071Y154446D01*
X-301011Y154407D01*
X-300982Y154403D01*
X-300956Y154390D01*
X-300857Y154381D01*
X-300815Y154374D01*
X-300804Y154377D01*
G37*
G36*
X149204Y-86377D02*
X149204Y-86377D01*
X149281Y-86378D01*
X149305Y-86369D01*
X149325Y-86367D01*
X149365Y-86347D01*
X149437Y-86320D01*
X165937Y-76820D01*
X165958Y-76801D01*
X165985Y-76789D01*
X166019Y-76751D01*
X166022Y-76749D01*
X166024Y-76745D01*
X166032Y-76736D01*
X166086Y-76689D01*
X166098Y-76663D01*
X166118Y-76641D01*
X166141Y-76574D01*
X166172Y-76509D01*
X166173Y-76480D01*
X166182Y-76453D01*
X166178Y-76382D01*
X166181Y-76311D01*
X166171Y-76284D01*
X166169Y-76255D01*
X166126Y-76164D01*
X166112Y-76124D01*
X166104Y-76116D01*
X166098Y-76104D01*
X164357Y-73580D01*
X164332Y-73557D01*
X164306Y-73518D01*
X162182Y-71307D01*
X162154Y-71288D01*
X162122Y-71254D01*
X159670Y-69412D01*
X159640Y-69397D01*
X159602Y-69369D01*
X156887Y-67944D01*
X156855Y-67934D01*
X156814Y-67912D01*
X153905Y-66941D01*
X153879Y-66938D01*
X153870Y-66937D01*
X153827Y-66922D01*
X150801Y-66430D01*
X150767Y-66432D01*
X150721Y-66424D01*
X147654Y-66424D01*
X147621Y-66431D01*
X147574Y-66430D01*
X144548Y-66922D01*
X144516Y-66934D01*
X144470Y-66941D01*
X141561Y-67912D01*
X141532Y-67929D01*
X141488Y-67944D01*
X138773Y-69369D01*
X138746Y-69390D01*
X138705Y-69412D01*
X136253Y-71254D01*
X136231Y-71279D01*
X136193Y-71307D01*
X134069Y-73518D01*
X134051Y-73547D01*
X134018Y-73580D01*
X132277Y-76104D01*
X132265Y-76131D01*
X132247Y-76153D01*
X132227Y-76221D01*
X132199Y-76287D01*
X132198Y-76316D01*
X132190Y-76343D01*
X132198Y-76415D01*
X132198Y-76486D01*
X132209Y-76512D01*
X132212Y-76541D01*
X132248Y-76603D01*
X132275Y-76669D01*
X132296Y-76689D01*
X132310Y-76714D01*
X132373Y-76766D01*
X132377Y-76772D01*
X132387Y-76777D01*
X132387Y-76778D01*
X132418Y-76808D01*
X132428Y-76812D01*
X132438Y-76820D01*
X148938Y-86320D01*
X149011Y-86344D01*
X149082Y-86375D01*
X149105Y-86376D01*
X149127Y-86383D01*
X149204Y-86377D01*
G37*
G36*
X150754Y241056D02*
X150754Y241056D01*
X150801Y241055D01*
X153827Y241547D01*
X153859Y241559D01*
X153905Y241566D01*
X156814Y242537D01*
X156843Y242554D01*
X156887Y242569D01*
X159602Y243994D01*
X159629Y244015D01*
X159670Y244037D01*
X162122Y245879D01*
X162144Y245904D01*
X162182Y245932D01*
X164306Y248143D01*
X164324Y248172D01*
X164357Y248205D01*
X166098Y250729D01*
X166110Y250756D01*
X166128Y250778D01*
X166149Y250846D01*
X166176Y250912D01*
X166177Y250941D01*
X166185Y250968D01*
X166177Y251040D01*
X166177Y251111D01*
X166166Y251137D01*
X166163Y251166D01*
X166128Y251228D01*
X166100Y251294D01*
X166079Y251314D01*
X166065Y251339D01*
X165988Y251403D01*
X165957Y251433D01*
X165947Y251437D01*
X165937Y251445D01*
X149437Y260945D01*
X149364Y260969D01*
X149293Y261000D01*
X149270Y261001D01*
X149248Y261008D01*
X149171Y261002D01*
X149094Y261003D01*
X149070Y260994D01*
X149050Y260992D01*
X149010Y260972D01*
X148938Y260945D01*
X132438Y251445D01*
X132417Y251426D01*
X132390Y251414D01*
X132343Y251361D01*
X132289Y251314D01*
X132277Y251288D01*
X132257Y251266D01*
X132234Y251199D01*
X132203Y251134D01*
X132202Y251105D01*
X132193Y251078D01*
X132197Y251007D01*
X132194Y250936D01*
X132204Y250909D01*
X132206Y250880D01*
X132249Y250789D01*
X132263Y250749D01*
X132271Y250741D01*
X132277Y250729D01*
X134018Y248205D01*
X134043Y248182D01*
X134069Y248143D01*
X136193Y245932D01*
X136221Y245913D01*
X136253Y245879D01*
X138705Y244037D01*
X138735Y244022D01*
X138773Y243994D01*
X141488Y242569D01*
X141520Y242559D01*
X141561Y242537D01*
X144470Y241566D01*
X144504Y241562D01*
X144548Y241547D01*
X147574Y241055D01*
X147608Y241057D01*
X147654Y241049D01*
X150721Y241049D01*
X150754Y241056D01*
G37*
%LPC*%
G36*
X-249644Y15200D02*
X-249644Y15200D01*
X-250537Y16093D01*
X-250537Y16955D01*
X-250549Y17025D01*
X-250551Y17097D01*
X-250569Y17146D01*
X-250577Y17197D01*
X-250611Y17261D01*
X-250635Y17328D01*
X-250668Y17369D01*
X-250692Y17415D01*
X-250744Y17464D01*
X-250789Y17520D01*
X-250833Y17548D01*
X-250870Y17584D01*
X-250935Y17614D01*
X-250996Y17653D01*
X-251046Y17666D01*
X-251093Y17688D01*
X-251165Y17696D01*
X-251234Y17713D01*
X-251286Y17709D01*
X-251338Y17715D01*
X-251408Y17700D01*
X-251479Y17694D01*
X-251527Y17674D01*
X-251578Y17663D01*
X-251640Y17626D01*
X-251706Y17598D01*
X-251762Y17553D01*
X-251789Y17536D01*
X-251805Y17519D01*
X-251837Y17493D01*
X-253241Y16089D01*
X-257009Y16089D01*
X-259674Y18753D01*
X-259674Y22522D01*
X-257009Y25186D01*
X-253241Y25186D01*
X-251837Y23782D01*
X-251779Y23740D01*
X-251727Y23691D01*
X-251679Y23669D01*
X-251637Y23639D01*
X-251569Y23618D01*
X-251503Y23587D01*
X-251452Y23582D01*
X-251402Y23566D01*
X-251330Y23568D01*
X-251259Y23560D01*
X-251208Y23571D01*
X-251156Y23573D01*
X-251089Y23597D01*
X-251019Y23612D01*
X-250974Y23639D01*
X-250925Y23657D01*
X-250869Y23702D01*
X-250808Y23739D01*
X-250774Y23778D01*
X-250733Y23811D01*
X-250694Y23871D01*
X-250648Y23926D01*
X-250628Y23974D01*
X-250600Y24018D01*
X-250583Y24087D01*
X-250556Y24154D01*
X-250548Y24225D01*
X-250540Y24256D01*
X-250542Y24279D01*
X-250537Y24320D01*
X-250537Y28357D01*
X-249644Y29250D01*
X-238381Y29250D01*
X-237488Y28357D01*
X-237488Y16093D01*
X-238381Y15200D01*
X-249644Y15200D01*
G37*
%LPD*%
%LPC*%
G36*
X-190282Y187713D02*
X-190282Y187713D01*
X-191175Y188606D01*
X-191175Y199869D01*
X-190282Y200762D01*
X-178018Y200762D01*
X-177125Y199869D01*
X-177125Y198555D01*
X-177122Y198536D01*
X-177124Y198516D01*
X-177102Y198415D01*
X-177086Y198313D01*
X-177076Y198295D01*
X-177072Y198276D01*
X-177019Y198187D01*
X-176970Y198095D01*
X-176956Y198082D01*
X-176946Y198065D01*
X-176867Y197997D01*
X-176792Y197926D01*
X-176774Y197918D01*
X-176759Y197905D01*
X-176663Y197866D01*
X-176569Y197822D01*
X-176549Y197820D01*
X-176531Y197813D01*
X-176364Y197794D01*
X-175189Y197794D01*
X-173957Y196562D01*
X-173883Y196509D01*
X-173813Y196449D01*
X-173783Y196437D01*
X-173757Y196418D01*
X-173670Y196391D01*
X-173585Y196357D01*
X-173544Y196353D01*
X-173522Y196346D01*
X-173490Y196347D01*
X-173418Y196339D01*
X-172829Y196339D01*
X-172825Y196335D01*
X-172751Y196282D01*
X-172682Y196223D01*
X-172652Y196210D01*
X-172626Y196192D01*
X-172539Y196165D01*
X-172454Y196131D01*
X-172413Y196126D01*
X-172390Y196119D01*
X-172358Y196120D01*
X-172287Y196112D01*
X-169881Y196112D01*
X-168988Y195219D01*
X-168988Y188956D01*
X-169881Y188063D01*
X-172474Y188063D01*
X-172564Y188048D01*
X-172655Y188041D01*
X-172684Y188028D01*
X-172716Y188023D01*
X-172717Y188023D01*
X-176331Y188023D01*
X-176385Y188044D01*
X-176426Y188049D01*
X-176448Y188056D01*
X-176480Y188055D01*
X-176551Y188063D01*
X-177353Y188063D01*
X-177443Y188048D01*
X-177534Y188041D01*
X-177564Y188028D01*
X-177596Y188023D01*
X-177677Y187980D01*
X-177760Y187945D01*
X-177793Y187919D01*
X-177813Y187908D01*
X-177835Y187885D01*
X-177891Y187840D01*
X-178018Y187713D01*
X-190282Y187713D01*
G37*
%LPD*%
%LPC*%
G36*
X-256214Y117411D02*
X-256214Y117411D01*
X-256214Y123957D01*
X-256145Y123968D01*
X-256128Y123977D01*
X-256108Y123982D01*
X-256019Y124035D01*
X-255928Y124083D01*
X-255914Y124097D01*
X-255897Y124108D01*
X-255830Y124186D01*
X-255759Y124261D01*
X-255750Y124279D01*
X-255737Y124295D01*
X-255698Y124391D01*
X-255655Y124484D01*
X-255653Y124504D01*
X-255645Y124523D01*
X-255627Y124689D01*
X-255627Y127177D01*
X-249609Y127177D01*
X-249609Y121366D01*
X-249782Y120719D01*
X-250095Y120178D01*
X-250135Y120072D01*
X-250178Y119964D01*
X-250179Y119954D01*
X-250182Y119948D01*
X-250183Y119926D01*
X-250197Y119798D01*
X-250197Y117411D01*
X-256214Y117411D01*
G37*
%LPD*%
%LPC*%
G36*
X-255627Y130223D02*
X-255627Y130223D01*
X-255627Y138241D01*
X-251816Y138241D01*
X-251169Y138068D01*
X-250590Y137733D01*
X-250117Y137260D01*
X-249782Y136681D01*
X-249609Y136034D01*
X-249609Y130223D01*
X-255627Y130223D01*
G37*
%LPD*%
%LPC*%
G36*
X-263203Y172973D02*
X-263203Y172973D01*
X-263203Y177884D01*
X-263030Y178531D01*
X-262696Y179110D01*
X-262223Y179583D01*
X-261643Y179918D01*
X-260997Y180091D01*
X-257611Y180091D01*
X-257611Y172973D01*
X-263203Y172973D01*
G37*
%LPD*%
%LPC*%
G36*
X-260997Y162809D02*
X-260997Y162809D01*
X-261643Y162982D01*
X-262223Y163317D01*
X-262696Y163790D01*
X-263030Y164369D01*
X-263203Y165016D01*
X-263203Y169927D01*
X-257611Y169927D01*
X-257611Y162809D01*
X-260997Y162809D01*
G37*
%LPD*%
%LPC*%
G36*
X-254564Y172973D02*
X-254564Y172973D01*
X-254564Y180091D01*
X-251178Y180091D01*
X-250532Y179918D01*
X-249952Y179583D01*
X-249479Y179110D01*
X-249145Y178531D01*
X-248972Y177884D01*
X-248972Y172973D01*
X-254564Y172973D01*
G37*
%LPD*%
%LPC*%
G36*
X-274702Y160773D02*
X-274702Y160773D01*
X-274702Y166366D01*
X-269791Y166366D01*
X-269144Y166193D01*
X-268565Y165858D01*
X-268092Y165385D01*
X-267757Y164806D01*
X-267584Y164159D01*
X-267584Y160773D01*
X-274702Y160773D01*
G37*
%LPD*%
%LPC*%
G36*
X-274702Y157727D02*
X-274702Y157727D01*
X-267584Y157727D01*
X-267584Y154341D01*
X-267757Y153694D01*
X-268092Y153115D01*
X-268565Y152642D01*
X-269144Y152307D01*
X-269791Y152134D01*
X-274702Y152134D01*
X-274702Y157727D01*
G37*
%LPD*%
%LPC*%
G36*
X-254564Y162809D02*
X-254564Y162809D01*
X-254564Y169927D01*
X-248972Y169927D01*
X-248972Y165016D01*
X-249145Y164369D01*
X-249479Y163790D01*
X-249952Y163317D01*
X-250532Y162982D01*
X-251178Y162809D01*
X-254564Y162809D01*
G37*
%LPD*%
%LPC*%
G36*
X-133978Y176148D02*
X-133978Y176148D01*
X-133978Y180459D01*
X-133805Y181106D01*
X-133471Y181685D01*
X-132998Y182158D01*
X-132418Y182493D01*
X-131772Y182666D01*
X-127961Y182666D01*
X-127961Y176148D01*
X-133978Y176148D01*
G37*
%LPD*%
%LPC*%
G36*
X-196397Y-9628D02*
X-196397Y-9628D01*
X-197043Y-9455D01*
X-197623Y-9121D01*
X-198096Y-8648D01*
X-198430Y-8068D01*
X-198603Y-7422D01*
X-198603Y-3111D01*
X-192586Y-3111D01*
X-192586Y-9628D01*
X-196397Y-9628D01*
G37*
%LPD*%
%LPC*%
G36*
X-128128Y207898D02*
X-128128Y207898D01*
X-128128Y211710D01*
X-127955Y212356D01*
X-127621Y212935D01*
X-127148Y213408D01*
X-126568Y213743D01*
X-125922Y213916D01*
X-121611Y213916D01*
X-121611Y207898D01*
X-128128Y207898D01*
G37*
%LPD*%
%LPC*%
G36*
X-263072Y107847D02*
X-263072Y107847D01*
X-263718Y108020D01*
X-264298Y108354D01*
X-264771Y108827D01*
X-265105Y109407D01*
X-265278Y110053D01*
X-265278Y114364D01*
X-259261Y114364D01*
X-259261Y107847D01*
X-263072Y107847D01*
G37*
%LPD*%
%LPC*%
G36*
X-118564Y207898D02*
X-118564Y207898D01*
X-118564Y213916D01*
X-114253Y213916D01*
X-113607Y213743D01*
X-113027Y213408D01*
X-112554Y212935D01*
X-112220Y212356D01*
X-112047Y211709D01*
X-112047Y207898D01*
X-118564Y207898D01*
G37*
%LPD*%
%LPC*%
G36*
X-131772Y166584D02*
X-131772Y166584D01*
X-132418Y166757D01*
X-132998Y167092D01*
X-133471Y167565D01*
X-133805Y168144D01*
X-133978Y168791D01*
X-133978Y173102D01*
X-127961Y173102D01*
X-127961Y166584D01*
X-131772Y166584D01*
G37*
%LPD*%
%LPC*%
G36*
X-124914Y176148D02*
X-124914Y176148D01*
X-124914Y182666D01*
X-121103Y182666D01*
X-120457Y182493D01*
X-119877Y182158D01*
X-119404Y181685D01*
X-119070Y181106D01*
X-118897Y180459D01*
X-118897Y176148D01*
X-124914Y176148D01*
G37*
%LPD*%
%LPC*%
G36*
X-189539Y-9628D02*
X-189539Y-9628D01*
X-189539Y-3111D01*
X-183522Y-3111D01*
X-183522Y-7422D01*
X-183695Y-8068D01*
X-184029Y-8648D01*
X-184502Y-9121D01*
X-185082Y-9455D01*
X-185728Y-9628D01*
X-189539Y-9628D01*
G37*
%LPD*%
%LPC*%
G36*
X-198603Y-64D02*
X-198603Y-64D01*
X-198603Y4247D01*
X-198430Y4893D01*
X-198096Y5473D01*
X-197623Y5946D01*
X-197043Y6280D01*
X-196397Y6453D01*
X-192586Y6453D01*
X-192586Y-64D01*
X-198603Y-64D01*
G37*
%LPD*%
%LPC*%
G36*
X-256214Y107847D02*
X-256214Y107847D01*
X-256214Y114364D01*
X-250197Y114364D01*
X-250197Y110053D01*
X-250370Y109407D01*
X-250704Y108827D01*
X-251177Y108354D01*
X-251757Y108020D01*
X-252403Y107847D01*
X-256214Y107847D01*
G37*
%LPD*%
%LPC*%
G36*
X-118564Y198834D02*
X-118564Y198834D01*
X-118564Y204852D01*
X-112047Y204852D01*
X-112047Y201041D01*
X-112220Y200394D01*
X-112554Y199815D01*
X-113027Y199342D01*
X-113607Y199007D01*
X-114253Y198834D01*
X-118564Y198834D01*
G37*
%LPD*%
%LPC*%
G36*
X-124914Y166584D02*
X-124914Y166584D01*
X-124914Y173102D01*
X-118897Y173102D01*
X-118897Y168791D01*
X-119070Y168144D01*
X-119404Y167565D01*
X-119877Y167092D01*
X-120457Y166757D01*
X-121103Y166584D01*
X-124914Y166584D01*
G37*
%LPD*%
%LPC*%
G36*
X-189539Y-64D02*
X-189539Y-64D01*
X-189539Y6453D01*
X-185728Y6453D01*
X-185082Y6280D01*
X-184502Y5946D01*
X-184029Y5473D01*
X-183695Y4893D01*
X-183522Y4247D01*
X-183522Y-64D01*
X-189539Y-64D01*
G37*
%LPD*%
%LPC*%
G36*
X-131541Y147049D02*
X-131541Y147049D01*
X-131541Y153384D01*
X-131368Y154031D01*
X-131033Y154610D01*
X-130560Y155083D01*
X-129981Y155418D01*
X-129334Y155591D01*
X-127999Y155591D01*
X-127999Y147049D01*
X-131541Y147049D01*
G37*
%LPD*%
%LPC*%
G36*
X-126001Y147049D02*
X-126001Y147049D01*
X-126001Y155591D01*
X-124666Y155591D01*
X-124019Y155418D01*
X-123440Y155083D01*
X-122967Y154610D01*
X-122632Y154031D01*
X-122459Y153384D01*
X-122459Y147049D01*
X-126001Y147049D01*
G37*
%LPD*%
%LPC*%
G36*
X-156847Y187047D02*
X-156847Y187047D01*
X-157493Y187220D01*
X-158073Y187554D01*
X-158546Y188027D01*
X-158880Y188607D01*
X-159053Y189253D01*
X-159053Y190838D01*
X-153762Y190838D01*
X-153762Y187047D01*
X-156847Y187047D01*
G37*
%LPD*%
%LPC*%
G36*
X-151263Y187047D02*
X-151263Y187047D01*
X-151263Y190838D01*
X-145972Y190838D01*
X-145972Y189253D01*
X-146145Y188607D01*
X-146479Y188027D01*
X-146952Y187554D01*
X-147532Y187220D01*
X-148178Y187047D01*
X-151263Y187047D01*
G37*
%LPD*%
%LPC*%
G36*
X-108314Y88748D02*
X-108314Y88748D01*
X-108314Y92227D01*
X-103784Y92227D01*
X-103784Y91384D01*
X-103972Y90685D01*
X-103983Y90570D01*
X-103997Y90456D01*
X-103995Y90446D01*
X-103996Y90440D01*
X-103991Y90418D01*
X-103972Y90290D01*
X-103784Y89591D01*
X-103784Y88748D01*
X-108314Y88748D01*
G37*
%LPD*%
%LPC*%
G36*
X-257151Y128699D02*
X-257151Y128699D01*
X-257151Y128701D01*
X-257149Y128701D01*
X-257149Y128699D01*
X-257151Y128699D01*
G37*
%LPD*%
%LPC*%
G36*
X-257738Y115887D02*
X-257738Y115887D01*
X-257738Y115888D01*
X-257737Y115888D01*
X-257737Y115887D01*
X-257738Y115887D01*
G37*
%LPD*%
%LPC*%
G36*
X-120088Y206374D02*
X-120088Y206374D01*
X-120088Y206376D01*
X-120087Y206376D01*
X-120087Y206374D01*
X-120088Y206374D01*
G37*
%LPD*%
%LPC*%
G36*
X-256088Y171449D02*
X-256088Y171449D01*
X-256088Y171451D01*
X-256087Y171451D01*
X-256087Y171449D01*
X-256088Y171449D01*
G37*
%LPD*%
%LPC*%
G36*
X-126438Y174624D02*
X-126438Y174624D01*
X-126438Y174626D01*
X-126437Y174626D01*
X-126437Y174624D01*
X-126438Y174624D01*
G37*
%LPD*%
%LPC*%
G36*
X-191063Y-1588D02*
X-191063Y-1588D01*
X-191063Y-1587D01*
X-191062Y-1587D01*
X-191062Y-1588D01*
X-191063Y-1588D01*
G37*
%LPD*%
D10*
X-150813Y252513D03*
X-93Y164833D03*
X-93Y9793D03*
X-150813Y-77888D03*
X-222313Y211213D03*
X-79313Y211213D03*
X-79313Y-36588D03*
X-222313Y-36588D03*
X149188Y252513D03*
X149188Y-77888D03*
X-293880Y169913D03*
X-293880Y4713D03*
X-293913Y87313D03*
D11*
X-213675Y90163D03*
X-193675Y30163D03*
X-71675Y30163D03*
X-71675Y150163D03*
X-193675Y150163D03*
D12*
X-115000Y146050D03*
X-127000Y146050D03*
X-139000Y146050D03*
D13*
X-170382Y124288D03*
X-165381Y124288D03*
X-160379Y124288D03*
X-155378Y124288D03*
X-150377Y124288D03*
X-145376Y124288D03*
X-140374Y124288D03*
X-135373Y124288D03*
X-130372Y124288D03*
X-125371Y124288D03*
X-120369Y124288D03*
X-115368Y124288D03*
D14*
X-109075Y117995D03*
X-109075Y112994D03*
X-109075Y107992D03*
X-109075Y102991D03*
X-109075Y97990D03*
X-109075Y92989D03*
X-109075Y87987D03*
X-109075Y82986D03*
X-109075Y77985D03*
X-109075Y72984D03*
X-109075Y67982D03*
X-109075Y62981D03*
D13*
X-115368Y56688D03*
X-120369Y56688D03*
X-125371Y56688D03*
X-130372Y56688D03*
X-135373Y56688D03*
X-140374Y56688D03*
X-145376Y56688D03*
X-150377Y56688D03*
X-155378Y56688D03*
X-160379Y56688D03*
X-165381Y56688D03*
X-170382Y56688D03*
D14*
X-176675Y62981D03*
X-176675Y67982D03*
X-176675Y72984D03*
X-176675Y77985D03*
X-176675Y82986D03*
X-176675Y87987D03*
X-176675Y92989D03*
X-176675Y97990D03*
X-176675Y102991D03*
X-176675Y107992D03*
X-176675Y112994D03*
X-176675Y117995D03*
D15*
X-142875Y90488D03*
D16*
X-149225Y206375D03*
D17*
X-227013Y22225D03*
X-244013Y22225D03*
D18*
X-137088Y206375D03*
X-120088Y206375D03*
D17*
X-191063Y-1588D03*
X-174063Y-1588D03*
D19*
X-173038Y-33338D03*
X-147638Y-33338D03*
X-122238Y-33338D03*
D20*
X-172988Y176213D03*
X-153988Y176213D03*
D18*
X-172013Y150813D03*
X-155013Y150813D03*
D17*
X-126438Y174625D03*
X-143438Y174625D03*
D18*
X-172013Y141288D03*
X-155013Y141288D03*
X-184150Y194238D03*
X-184150Y177238D03*
D21*
X-174513Y192088D03*
X-152513Y192088D03*
D20*
X-172988Y161925D03*
X-153988Y161925D03*
D18*
X-241300Y105338D03*
X-241300Y88338D03*
D17*
X-240738Y115888D03*
X-257738Y115888D03*
D22*
X-247650Y150700D03*
X-257150Y128700D03*
X-238150Y128700D03*
D23*
X-220663Y128088D03*
X-220663Y160838D03*
D24*
X-256088Y171450D03*
X-223338Y171450D03*
D23*
X-276225Y126500D03*
X-276225Y159250D03*
D25*
X146050Y12700D03*
D26*
X146050Y162700D03*
D25*
X60325Y165100D03*
D26*
X60325Y15100D03*
D27*
X245682Y37275D02*
X265494Y37275D01*
X265494Y87313D02*
X245682Y87313D01*
X245682Y137351D02*
X265494Y137351D01*
D28*
X11020Y-1320D02*
X-93Y9793D01*
X149188Y-72988D02*
X149188Y-77888D01*
X-93Y9793D02*
X-17195Y9793D01*
X-34925Y-7938D01*
D29*
X-257150Y128700D02*
X-257738Y128113D01*
X-257738Y115888D01*
D28*
X-150813Y252513D02*
X-118500Y220200D01*
X-286888Y169913D02*
X-293880Y169913D01*
X-286888Y169913D02*
X-276225Y159250D01*
X-271605Y26988D02*
X-293880Y4713D01*
X-271605Y26988D02*
X-271510Y26988D01*
D30*
X-249238Y47625D03*
X-239713Y68263D03*
D28*
X-87811Y-7938D02*
X-34925Y-7938D01*
D30*
X-87811Y-7938D03*
X-128588Y-65088D03*
X-173038Y-63500D03*
X-192088Y-34925D03*
D28*
X-276225Y152400D02*
X-276225Y159250D01*
X-286544Y140494D02*
X-286897Y140141D01*
X-286544Y142081D02*
X-276225Y152400D01*
X-262438Y171450D02*
X-256088Y171450D01*
X-262438Y171450D02*
X-274638Y159250D01*
X-276225Y159250D01*
X-256088Y171450D02*
X-254000Y171450D01*
X-249238Y176213D01*
D30*
X-201613Y171450D03*
X-242888Y176213D03*
D28*
X-126438Y174625D02*
X-126438Y146613D01*
X-127000Y146050D01*
X-126438Y174625D02*
X-143900Y192088D01*
X-152513Y192088D01*
X-157725Y192088D02*
X-169447Y203810D01*
X-157725Y192088D02*
X-152513Y192088D01*
D30*
X-112713Y200025D03*
X-93190Y183677D03*
D28*
X-40834Y183677D01*
X-8193Y164833D01*
X-93Y164833D01*
X-93Y165193D01*
X-3175Y168275D01*
D31*
X-109075Y87987D02*
X-140374Y87987D01*
X-142875Y90488D01*
X-140374Y92989D02*
X-109075Y92989D01*
X-140374Y92989D02*
X-142875Y90488D01*
X-109075Y92989D02*
X-109075Y87987D01*
X-109075Y92989D02*
X-100926Y92989D01*
X-100013Y92075D01*
X-99099Y87987D02*
X-109075Y87987D01*
X-99099Y87987D02*
X-98425Y87313D01*
D28*
X-194222Y178841D02*
X-201613Y171450D01*
X-194222Y201131D02*
X-191544Y203810D01*
X-169447Y203810D01*
X-194222Y201131D02*
X-194222Y178841D01*
X-169447Y203810D02*
X-150813Y222444D01*
X-150813Y252513D01*
X-242888Y176213D02*
X-249238Y176213D01*
X-286544Y142081D02*
X-286544Y140494D01*
X-286897Y140141D02*
X-286897Y120031D01*
X-282753Y115888D01*
X-257738Y115888D01*
X-93Y9793D02*
X149188Y-77888D01*
X149188Y252513D02*
X146511Y252513D01*
X1694Y166619D02*
X-93Y164833D01*
X1694Y166619D02*
X146511Y252513D01*
X-150813Y-71438D02*
X-150813Y-77888D01*
X-150813Y-71438D02*
X-150813Y-58738D01*
D30*
X28575Y165100D03*
X150813Y219075D03*
X141288Y-60325D03*
X22225Y11113D03*
D32*
X-174513Y192088D02*
X-174513Y192274D01*
D29*
X-174513Y192088D02*
X-176663Y194238D01*
X-184150Y194238D01*
D30*
X-184150Y194238D03*
D28*
X117364Y-36402D02*
X141288Y-60325D01*
X117364Y-36402D02*
X26544Y6793D01*
X22225Y11113D01*
X28575Y165100D02*
X39577Y176102D01*
X39577Y178111D01*
X44781Y183315D02*
X105072Y219075D01*
X150813Y219075D01*
X44781Y183315D02*
X39577Y178111D01*
D33*
X-93583Y-13696D03*
D34*
X-98864Y-8416D02*
X-98864Y66998D01*
X-98864Y-8416D02*
X-93583Y-13696D01*
X-98864Y66998D02*
X-104849Y72984D01*
X-109075Y72984D01*
X-80900Y-36588D02*
X-79313Y-36588D01*
X-80900Y-36588D02*
X-103188Y-14300D01*
X-103188Y64705D01*
X-106464Y67982D01*
X-109075Y67982D01*
X-176675Y82986D02*
X-180540Y82986D01*
X-203200Y60325D01*
X-277813Y60325D01*
X-279400Y61913D01*
D35*
X-279400Y61913D03*
D34*
X-286888Y55182D02*
X-293913Y62206D01*
X-293913Y87313D01*
X-286888Y55182D02*
X-203315Y55182D01*
X-180512Y77985D01*
X-176675Y77985D01*
X-105900Y191020D02*
X-102567Y194353D01*
X-105900Y191020D02*
X-105900Y121170D01*
X-109075Y117995D01*
X-102567Y194353D02*
X-100958Y194353D01*
D33*
X-100958Y194353D03*
D34*
X-79313Y206450D02*
X-79313Y211213D01*
X-79313Y206450D02*
X-102039Y183724D01*
X-102039Y117037D02*
X-106363Y112713D01*
X-108794Y112713D01*
X-109075Y112994D01*
X-102039Y117037D02*
X-102039Y183724D01*
D31*
X-145376Y124288D02*
X-150377Y124288D01*
X-155378Y124288D01*
X-156315Y125225D01*
X-156315Y128195D01*
X-157952Y129832D01*
X-160557Y129832D01*
X-172013Y141288D01*
D32*
X-172988Y161925D02*
X-172988Y176213D01*
X-172988Y161925D02*
X-172988Y151788D01*
X-172013Y150813D01*
X-172013Y141288D01*
D29*
X-172988Y176213D02*
X-183125Y176213D01*
X-184150Y177238D01*
D31*
X-155013Y141288D02*
X-143557Y129832D01*
X-142949Y129832D01*
X-140374Y127257D01*
X-140374Y124288D01*
D32*
X-153988Y161925D02*
X-153988Y176213D01*
X-153988Y161925D02*
X-153988Y151838D01*
X-155013Y150813D01*
X-155013Y141288D01*
X-152400Y174625D02*
X-143438Y174625D01*
X-152400Y174625D02*
X-153988Y176213D01*
D34*
X-130372Y128391D02*
X-130372Y124288D01*
X-115000Y143762D02*
X-115000Y146050D01*
X-115000Y143762D02*
X-130372Y128391D01*
X-135373Y142423D02*
X-139000Y146050D01*
X-135373Y142423D02*
X-135373Y124288D01*
X-111948Y136510D02*
X-110460Y137998D01*
X-110460Y154102D01*
X-110735Y154377D01*
X-125371Y126898D02*
X-125371Y124288D01*
X-125371Y126898D02*
X-115759Y136510D01*
X-111948Y136510D01*
X-110460Y154102D02*
X-110460Y180275D01*
X-129448Y199263D01*
D31*
X-136560Y206375D01*
X-137088Y206375D01*
X-149225Y206375D01*
D35*
X-216115Y186615D03*
D34*
X-181037Y112994D02*
X-176675Y112994D01*
X-216115Y170557D02*
X-216115Y186615D01*
X-216115Y170557D02*
X-212023Y166465D01*
X-212023Y143979D02*
X-181037Y112994D01*
X-212023Y143979D02*
X-212023Y166465D01*
X-221841Y210741D02*
X-222313Y211213D01*
X-207963Y196863D01*
X-181009Y117995D02*
X-176675Y117995D01*
X-181009Y117995D02*
X-207963Y144948D01*
X-207963Y196863D01*
X-173038Y-33338D02*
X-147638Y-33338D01*
D31*
X-173038Y-33338D02*
X-174063Y-32313D01*
X-174063Y-1588D01*
X-170382Y2093D02*
X-170382Y56688D01*
X-170382Y2093D02*
X-174063Y-1588D01*
D34*
X-165381Y9806D02*
X-122238Y-33338D01*
X-165381Y9806D02*
X-165381Y56688D01*
D31*
X-190127Y62981D02*
X-227013Y26095D01*
X-227013Y22225D01*
X-190127Y62981D02*
X-176675Y62981D01*
D29*
X-220663Y128088D02*
X-221275Y128700D01*
X-238150Y128700D01*
D31*
X-241300Y115325D02*
X-241300Y105338D01*
X-241300Y115325D02*
X-240738Y115888D01*
X-238150Y118475D02*
X-238150Y128700D01*
X-238150Y118475D02*
X-240738Y115888D01*
X-241300Y88338D02*
X-236355Y83393D01*
X-236355Y80768D01*
X-219894Y64308D01*
X-205868Y64308D01*
X-182189Y87987D02*
X-176675Y87987D01*
X-182189Y87987D02*
X-205868Y64308D01*
D29*
X-220663Y160838D02*
X-223338Y163513D01*
X-223338Y171450D01*
X-247650Y149113D02*
X-252413Y144350D01*
X-263638Y144350D01*
X-276225Y131763D01*
X-276225Y126500D01*
X-247650Y149113D02*
X-247650Y150700D01*
D30*
X-270891Y125928D03*
D32*
X-271463Y126500D02*
X-276225Y126500D01*
X-271463Y126500D02*
X-270891Y125928D01*
D34*
X-135373Y1125D02*
X-106798Y-27450D01*
X-135373Y1125D02*
X-135373Y56688D01*
X-106798Y-27450D02*
X-106798Y-43362D01*
X-114987Y-51552D02*
X-183250Y-51552D01*
X-186425Y-54727D01*
X-114987Y-51552D02*
X-106798Y-43362D01*
D33*
X-186425Y-54727D03*
D34*
X-150377Y10650D02*
X-110690Y-29038D01*
X-150377Y10650D02*
X-150377Y56688D01*
X-110690Y-29038D02*
X-110690Y-40852D01*
X-117538Y-47700D01*
X-211200Y-47700D01*
X-222313Y-36588D01*
D35*
X-255125Y20638D03*
D31*
X-245600Y20638D02*
X-244013Y22225D01*
X-245600Y20638D02*
X-255125Y20638D01*
M02*
