G04 EAGLE Gerber RS-274X export*
G75*
%MOMM*%
%FSLAX34Y34*%
%LPD*%
%INTop Copper*%
%IPPOS*%
%AMOC8*
5,1,8,0,0,1.08239X$1,22.5*%
G01*
%ADD10C,1.000000*%
%ADD11C,2.250000*%
%ADD12R,1.100000X1.000000*%
%ADD13R,0.800000X0.800000*%
%ADD14P,1.649562X8X112.500000*%
%ADD15C,1.524000*%
%ADD16R,1.000000X1.100000*%
%ADD17R,1.508000X1.508000*%
%ADD18C,1.508000*%
%ADD19R,1.800000X3.200000*%
%ADD20C,1.981200*%
%ADD21C,0.200000*%
%ADD22C,0.750000*%
%ADD23C,0.609600*%
%ADD24C,0.254000*%
%ADD25C,0.406400*%
%ADD26C,0.554800*%
%ADD27C,0.203200*%
%ADD28C,0.604800*%

G36*
X192174Y-43866D02*
X192174Y-43866D01*
X192262Y-43863D01*
X192314Y-43846D01*
X192369Y-43838D01*
X192449Y-43802D01*
X192532Y-43775D01*
X192571Y-43747D01*
X192628Y-43722D01*
X192742Y-43626D01*
X192805Y-43580D01*
X211855Y-24530D01*
X211908Y-24461D01*
X211968Y-24397D01*
X211993Y-24347D01*
X212026Y-24303D01*
X212057Y-24222D01*
X212097Y-24144D01*
X212105Y-24096D01*
X212128Y-24038D01*
X212140Y-23890D01*
X212153Y-23813D01*
X212153Y46864D01*
X227425Y46864D01*
X227540Y46883D01*
X227656Y46900D01*
X227661Y46903D01*
X227668Y46904D01*
X227770Y46958D01*
X227875Y47011D01*
X227879Y47016D01*
X227885Y47019D01*
X227965Y47103D01*
X228047Y47187D01*
X228051Y47193D01*
X228054Y47197D01*
X228062Y47214D01*
X228128Y47334D01*
X228670Y48641D01*
X234315Y54286D01*
X241690Y57341D01*
X269485Y57341D01*
X276860Y54286D01*
X282505Y48641D01*
X283047Y47334D01*
X283109Y47234D01*
X283168Y47134D01*
X283173Y47130D01*
X283176Y47125D01*
X283267Y47050D01*
X283355Y46974D01*
X283361Y46972D01*
X283366Y46968D01*
X283474Y46926D01*
X283583Y46882D01*
X283591Y46881D01*
X283596Y46880D01*
X283614Y46879D01*
X283750Y46864D01*
X296426Y46864D01*
X296445Y46867D01*
X296465Y46865D01*
X296566Y46887D01*
X296668Y46904D01*
X296686Y46913D01*
X296705Y46917D01*
X296794Y46970D01*
X296886Y47019D01*
X296899Y47033D01*
X296916Y47043D01*
X296984Y47122D01*
X297055Y47197D01*
X297063Y47215D01*
X297076Y47230D01*
X297115Y47326D01*
X297159Y47420D01*
X297161Y47440D01*
X297168Y47458D01*
X297187Y47625D01*
X297187Y125413D01*
X297184Y125432D01*
X297186Y125452D01*
X297164Y125553D01*
X297147Y125655D01*
X297138Y125673D01*
X297133Y125692D01*
X297080Y125781D01*
X297032Y125873D01*
X297018Y125886D01*
X297007Y125903D01*
X296929Y125971D01*
X296854Y126042D01*
X296836Y126050D01*
X296820Y126063D01*
X296724Y126102D01*
X296631Y126146D01*
X296611Y126148D01*
X296592Y126155D01*
X296426Y126174D01*
X283011Y126174D01*
X282921Y126159D01*
X282830Y126152D01*
X282800Y126139D01*
X282768Y126134D01*
X282687Y126091D01*
X282603Y126056D01*
X282571Y126030D01*
X282551Y126019D01*
X282528Y125996D01*
X282472Y125951D01*
X276860Y120339D01*
X269485Y117284D01*
X241690Y117284D01*
X234315Y120339D01*
X228703Y125951D01*
X228629Y126004D01*
X228559Y126063D01*
X228529Y126075D01*
X228503Y126094D01*
X228416Y126121D01*
X228331Y126155D01*
X228290Y126160D01*
X228268Y126167D01*
X228236Y126166D01*
X228164Y126174D01*
X216915Y126174D01*
X216915Y193675D01*
X216903Y193762D01*
X216900Y193849D01*
X216883Y193902D01*
X216875Y193957D01*
X216840Y194036D01*
X216813Y194120D01*
X216785Y194159D01*
X216759Y194216D01*
X216663Y194329D01*
X216618Y194393D01*
X192805Y218205D01*
X192736Y218258D01*
X192672Y218318D01*
X192622Y218343D01*
X192578Y218376D01*
X192497Y218407D01*
X192419Y218447D01*
X192371Y218455D01*
X192313Y218478D01*
X192165Y218490D01*
X192088Y218503D01*
X166688Y218503D01*
X166630Y218495D01*
X166571Y218496D01*
X166490Y218475D01*
X166406Y218463D01*
X166353Y218439D01*
X166296Y218424D01*
X166224Y218381D01*
X166147Y218347D01*
X166102Y218309D01*
X166052Y218279D01*
X165994Y218217D01*
X165930Y218163D01*
X165897Y218114D01*
X165857Y218072D01*
X165819Y217997D01*
X165772Y217926D01*
X165754Y217871D01*
X165728Y217819D01*
X165716Y217751D01*
X165686Y217655D01*
X165684Y217556D01*
X165672Y217488D01*
X165672Y126174D01*
X-230188Y126174D01*
X-230207Y126171D01*
X-230227Y126173D01*
X-230328Y126151D01*
X-230430Y126134D01*
X-230448Y126125D01*
X-230467Y126120D01*
X-230556Y126067D01*
X-230648Y126019D01*
X-230661Y126005D01*
X-230678Y125994D01*
X-230746Y125916D01*
X-230817Y125841D01*
X-230825Y125823D01*
X-230838Y125807D01*
X-230877Y125711D01*
X-230921Y125618D01*
X-230923Y125598D01*
X-230930Y125579D01*
X-230949Y125413D01*
X-230949Y79487D01*
X-230934Y79397D01*
X-230927Y79306D01*
X-230914Y79276D01*
X-230909Y79244D01*
X-230866Y79163D01*
X-230831Y79079D01*
X-230805Y79047D01*
X-230794Y79027D01*
X-230771Y79005D01*
X-230726Y78949D01*
X-227920Y76142D01*
X-225802Y71030D01*
X-225802Y65495D01*
X-226446Y63941D01*
X-226461Y63877D01*
X-226485Y63816D01*
X-226494Y63733D01*
X-226502Y63701D01*
X-226500Y63682D01*
X-226504Y63649D01*
X-226504Y54523D01*
X-228515Y49668D01*
X-230019Y48163D01*
X-230061Y48105D01*
X-230110Y48053D01*
X-230132Y48006D01*
X-230163Y47964D01*
X-230184Y47895D01*
X-230214Y47830D01*
X-230220Y47778D01*
X-230235Y47728D01*
X-230233Y47657D01*
X-230241Y47586D01*
X-230230Y47535D01*
X-230229Y47483D01*
X-230204Y47415D01*
X-230189Y47345D01*
X-230162Y47301D01*
X-230144Y47252D01*
X-230099Y47196D01*
X-230063Y47134D01*
X-230023Y47100D01*
X-229991Y47060D01*
X-229930Y47021D01*
X-229876Y46974D01*
X-229828Y46955D01*
X-229784Y46927D01*
X-229714Y46909D01*
X-229648Y46882D01*
X-229576Y46874D01*
X-229545Y46866D01*
X-229522Y46868D01*
X-229481Y46864D01*
X-207568Y46864D01*
X-207478Y46879D01*
X-207387Y46886D01*
X-207358Y46898D01*
X-207326Y46904D01*
X-207245Y46946D01*
X-207161Y46982D01*
X-207129Y47008D01*
X-207108Y47019D01*
X-207086Y47042D01*
X-207030Y47087D01*
X-205803Y48314D01*
X-197934Y51573D01*
X-189416Y51573D01*
X-181547Y48314D01*
X-180320Y47087D01*
X-180246Y47034D01*
X-180176Y46974D01*
X-180146Y46962D01*
X-180120Y46943D01*
X-180033Y46916D01*
X-179948Y46882D01*
X-179907Y46878D01*
X-179885Y46871D01*
X-179853Y46872D01*
X-179782Y46864D01*
X-85568Y46864D01*
X-85478Y46879D01*
X-85387Y46886D01*
X-85358Y46898D01*
X-85326Y46904D01*
X-85245Y46946D01*
X-85161Y46982D01*
X-85129Y47008D01*
X-85108Y47019D01*
X-85086Y47042D01*
X-85030Y47087D01*
X-83803Y48314D01*
X-75934Y51573D01*
X-67416Y51573D01*
X-59547Y48314D01*
X-58320Y47087D01*
X-58246Y47034D01*
X-58176Y46974D01*
X-58146Y46962D01*
X-58120Y46943D01*
X-58033Y46916D01*
X-57948Y46882D01*
X-57907Y46878D01*
X-57885Y46871D01*
X-57853Y46872D01*
X-57782Y46864D01*
X165672Y46864D01*
X165672Y-4342D01*
X164680Y-5335D01*
X136525Y-5335D01*
X136467Y-5343D01*
X136409Y-5341D01*
X136327Y-5363D01*
X136244Y-5375D01*
X136190Y-5399D01*
X136134Y-5413D01*
X136061Y-5456D01*
X135984Y-5491D01*
X135939Y-5529D01*
X135889Y-5559D01*
X135831Y-5620D01*
X135767Y-5675D01*
X135735Y-5723D01*
X135695Y-5766D01*
X135656Y-5841D01*
X135610Y-5911D01*
X135592Y-5967D01*
X135565Y-6019D01*
X135554Y-6087D01*
X135524Y-6182D01*
X135521Y-6282D01*
X135510Y-6350D01*
X135510Y-41275D01*
X135522Y-41362D01*
X135525Y-41449D01*
X135542Y-41502D01*
X135550Y-41557D01*
X135585Y-41636D01*
X135612Y-41720D01*
X135640Y-41759D01*
X135666Y-41816D01*
X135762Y-41929D01*
X135807Y-41993D01*
X137395Y-43580D01*
X137464Y-43633D01*
X137528Y-43693D01*
X137578Y-43718D01*
X137622Y-43751D01*
X137704Y-43782D01*
X137781Y-43822D01*
X137829Y-43830D01*
X137887Y-43853D01*
X138035Y-43865D01*
X138113Y-43878D01*
X192088Y-43878D01*
X192174Y-43866D01*
G37*
G36*
X-150796Y-86377D02*
X-150796Y-86377D01*
X-150719Y-86378D01*
X-150695Y-86369D01*
X-150675Y-86367D01*
X-150635Y-86347D01*
X-150563Y-86320D01*
X-134063Y-76820D01*
X-134042Y-76801D01*
X-134015Y-76789D01*
X-133981Y-76751D01*
X-133978Y-76749D01*
X-133976Y-76745D01*
X-133968Y-76736D01*
X-133914Y-76689D01*
X-133902Y-76663D01*
X-133882Y-76641D01*
X-133859Y-76574D01*
X-133828Y-76509D01*
X-133827Y-76480D01*
X-133818Y-76453D01*
X-133822Y-76382D01*
X-133819Y-76311D01*
X-133829Y-76284D01*
X-133831Y-76255D01*
X-133874Y-76164D01*
X-133888Y-76124D01*
X-133896Y-76116D01*
X-133902Y-76104D01*
X-135643Y-73580D01*
X-135668Y-73557D01*
X-135694Y-73518D01*
X-137818Y-71307D01*
X-137846Y-71288D01*
X-137878Y-71254D01*
X-140330Y-69412D01*
X-140360Y-69397D01*
X-140398Y-69369D01*
X-143113Y-67944D01*
X-143145Y-67934D01*
X-143186Y-67912D01*
X-146095Y-66941D01*
X-146121Y-66938D01*
X-146131Y-66937D01*
X-146173Y-66922D01*
X-149199Y-66430D01*
X-149233Y-66432D01*
X-149279Y-66424D01*
X-149289Y-66424D01*
X-149289Y-63872D01*
X-148092Y-63946D01*
X-145414Y-64447D01*
X-142816Y-65273D01*
X-140340Y-66412D01*
X-138023Y-67847D01*
X-135900Y-69555D01*
X-134003Y-71512D01*
X-133167Y-72619D01*
X-133098Y-72685D01*
X-133033Y-72757D01*
X-133009Y-72770D01*
X-132989Y-72789D01*
X-132902Y-72829D01*
X-132818Y-72876D01*
X-132791Y-72881D01*
X-132766Y-72893D01*
X-132671Y-72904D01*
X-132576Y-72921D01*
X-132549Y-72917D01*
X-132522Y-72921D01*
X-132428Y-72900D01*
X-132333Y-72887D01*
X-132301Y-72873D01*
X-132281Y-72869D01*
X-132253Y-72852D01*
X-132179Y-72820D01*
X-130383Y-71783D01*
X-130346Y-71752D01*
X-130304Y-71730D01*
X-130252Y-71675D01*
X-130193Y-71627D01*
X-130167Y-71586D01*
X-130134Y-71552D01*
X-130102Y-71483D01*
X-130062Y-71419D01*
X-130051Y-71372D01*
X-130031Y-71328D01*
X-130022Y-71253D01*
X-130005Y-71179D01*
X-130009Y-71132D01*
X-130004Y-71084D01*
X-130020Y-71010D01*
X-130026Y-70934D01*
X-130046Y-70891D01*
X-130056Y-70844D01*
X-130095Y-70779D01*
X-130125Y-70709D01*
X-130157Y-70674D01*
X-130182Y-70633D01*
X-130239Y-70583D01*
X-130291Y-70527D01*
X-130332Y-70504D01*
X-130369Y-70473D01*
X-130439Y-70444D01*
X-130505Y-70407D01*
X-130552Y-70399D01*
X-130597Y-70381D01*
X-130725Y-70366D01*
X-130747Y-70362D01*
X-130754Y-70363D01*
X-130764Y-70362D01*
X-130772Y-70362D01*
X-133862Y-67272D01*
X-133862Y-62903D01*
X-133383Y-62424D01*
X-133339Y-62362D01*
X-133309Y-62330D01*
X-133303Y-62318D01*
X-133271Y-62280D01*
X-133258Y-62250D01*
X-133240Y-62224D01*
X-133213Y-62137D01*
X-133179Y-62052D01*
X-133174Y-62011D01*
X-133167Y-61989D01*
X-133168Y-61957D01*
X-133160Y-61885D01*
X-133160Y-55036D01*
X-121906Y-43782D01*
X-121865Y-43724D01*
X-121815Y-43672D01*
X-121793Y-43624D01*
X-121763Y-43582D01*
X-121742Y-43514D01*
X-121712Y-43448D01*
X-121706Y-43397D01*
X-121691Y-43347D01*
X-121692Y-43275D01*
X-121685Y-43204D01*
X-121696Y-43153D01*
X-121697Y-43101D01*
X-121722Y-43034D01*
X-121737Y-42964D01*
X-121763Y-42919D01*
X-121781Y-42870D01*
X-121826Y-42814D01*
X-121863Y-42753D01*
X-121903Y-42719D01*
X-121935Y-42678D01*
X-121995Y-42639D01*
X-122050Y-42593D01*
X-122098Y-42573D01*
X-122142Y-42545D01*
X-122211Y-42528D01*
X-122278Y-42501D01*
X-122349Y-42493D01*
X-122381Y-42485D01*
X-122404Y-42487D01*
X-122445Y-42482D01*
X-124056Y-42482D01*
X-127418Y-41090D01*
X-129990Y-38518D01*
X-131382Y-35156D01*
X-131382Y-31519D01*
X-129990Y-28157D01*
X-127418Y-25585D01*
X-124056Y-24193D01*
X-120419Y-24193D01*
X-117057Y-25585D01*
X-115918Y-26725D01*
X-115860Y-26766D01*
X-115808Y-26816D01*
X-115760Y-26838D01*
X-115718Y-26868D01*
X-115650Y-26889D01*
X-115584Y-26919D01*
X-115533Y-26925D01*
X-115483Y-26941D01*
X-115411Y-26939D01*
X-115340Y-26947D01*
X-115289Y-26936D01*
X-115237Y-26934D01*
X-115170Y-26910D01*
X-115100Y-26894D01*
X-115055Y-26868D01*
X-115006Y-26850D01*
X-114950Y-26805D01*
X-114889Y-26768D01*
X-114855Y-26729D01*
X-114814Y-26696D01*
X-114775Y-26636D01*
X-114729Y-26581D01*
X-114709Y-26533D01*
X-114681Y-26489D01*
X-114664Y-26420D01*
X-114637Y-26353D01*
X-114629Y-26282D01*
X-114621Y-26251D01*
X-114623Y-26227D01*
X-114618Y-26186D01*
X-114618Y-17875D01*
X-98520Y-1777D01*
X-87504Y-1777D01*
X-86842Y-2440D01*
X-86768Y-2493D01*
X-86698Y-2552D01*
X-86668Y-2565D01*
X-86642Y-2583D01*
X-86555Y-2610D01*
X-86470Y-2644D01*
X-86429Y-2649D01*
X-86407Y-2656D01*
X-86375Y-2655D01*
X-86304Y-2663D01*
X-85626Y-2663D01*
X-82536Y-5753D01*
X-82536Y-10122D01*
X-85626Y-13212D01*
X-88523Y-13212D01*
X-88543Y-13215D01*
X-88563Y-13213D01*
X-88664Y-13235D01*
X-88766Y-13252D01*
X-88784Y-13261D01*
X-88803Y-13266D01*
X-88892Y-13319D01*
X-88983Y-13367D01*
X-88997Y-13381D01*
X-89014Y-13392D01*
X-89082Y-13470D01*
X-89153Y-13545D01*
X-89161Y-13563D01*
X-89174Y-13579D01*
X-89213Y-13675D01*
X-89256Y-13768D01*
X-89259Y-13788D01*
X-89266Y-13807D01*
X-89285Y-13973D01*
X-89285Y-14086D01*
X-89270Y-14176D01*
X-89263Y-14267D01*
X-89250Y-14297D01*
X-89245Y-14329D01*
X-89202Y-14410D01*
X-89166Y-14494D01*
X-89141Y-14526D01*
X-89130Y-14546D01*
X-89106Y-14569D01*
X-89062Y-14625D01*
X-87944Y-15743D01*
X-87855Y-15806D01*
X-87768Y-15874D01*
X-87755Y-15878D01*
X-87744Y-15886D01*
X-87639Y-15918D01*
X-87535Y-15954D01*
X-87522Y-15954D01*
X-87509Y-15958D01*
X-87399Y-15956D01*
X-87289Y-15957D01*
X-87273Y-15952D01*
X-87263Y-15952D01*
X-87236Y-15942D01*
X-87127Y-15913D01*
X-85360Y-15220D01*
X-85330Y-15202D01*
X-85297Y-15192D01*
X-85225Y-15140D01*
X-85148Y-15094D01*
X-85125Y-15068D01*
X-85097Y-15048D01*
X-85048Y-14985D01*
X-84421Y-14842D01*
X-84390Y-14830D01*
X-84312Y-14809D01*
X-83716Y-14575D01*
X-83645Y-14587D01*
X-83559Y-14608D01*
X-83524Y-14606D01*
X-83490Y-14611D01*
X-83323Y-14592D01*
X-81174Y-14103D01*
X-81142Y-14089D01*
X-81108Y-14084D01*
X-81029Y-14043D01*
X-80946Y-14010D01*
X-80920Y-13987D01*
X-80889Y-13971D01*
X-80831Y-13917D01*
X-80189Y-13869D01*
X-80157Y-13862D01*
X-80077Y-13852D01*
X-79452Y-13710D01*
X-79384Y-13732D01*
X-79302Y-13766D01*
X-79267Y-13769D01*
X-79234Y-13780D01*
X-79067Y-13786D01*
X-76869Y-13622D01*
X-76835Y-13613D01*
X-76800Y-13613D01*
X-76716Y-13585D01*
X-76630Y-13564D01*
X-76600Y-13545D01*
X-76567Y-13534D01*
X-76502Y-13489D01*
X-75860Y-13538D01*
X-75827Y-13535D01*
X-75746Y-13538D01*
X-75108Y-13490D01*
X-75043Y-13522D01*
X-74967Y-13568D01*
X-74934Y-13576D01*
X-74903Y-13591D01*
X-74738Y-13622D01*
X-72540Y-13788D01*
X-72505Y-13785D01*
X-72471Y-13790D01*
X-72383Y-13774D01*
X-72295Y-13766D01*
X-72263Y-13752D01*
X-72229Y-13746D01*
X-72157Y-13712D01*
X-71530Y-13855D01*
X-71497Y-13857D01*
X-71417Y-13872D01*
X-70779Y-13920D01*
X-70720Y-13961D01*
X-70652Y-14018D01*
X-70620Y-14031D01*
X-70591Y-14051D01*
X-70433Y-14106D01*
X-68284Y-14597D01*
X-68249Y-14599D01*
X-68216Y-14609D01*
X-68127Y-14607D01*
X-68038Y-14613D01*
X-68005Y-14604D01*
X-67970Y-14603D01*
X-67894Y-14579D01*
X-67295Y-14814D01*
X-67263Y-14821D01*
X-67187Y-14848D01*
X-66562Y-14991D01*
X-66510Y-15040D01*
X-66451Y-15107D01*
X-66421Y-15124D01*
X-66396Y-15148D01*
X-66248Y-15226D01*
X-64196Y-16032D01*
X-64162Y-16039D01*
X-64131Y-16054D01*
X-64043Y-16065D01*
X-63956Y-16084D01*
X-63921Y-16080D01*
X-63887Y-16084D01*
X-63808Y-16072D01*
X-63251Y-16394D01*
X-63220Y-16406D01*
X-63149Y-16443D01*
X-62553Y-16678D01*
X-62508Y-16734D01*
X-62460Y-16809D01*
X-62433Y-16830D01*
X-62412Y-16858D01*
X-62277Y-16957D01*
X-60368Y-18060D01*
X-60336Y-18072D01*
X-60307Y-18092D01*
X-60221Y-18115D01*
X-60138Y-18147D01*
X-60103Y-18148D01*
X-60070Y-18157D01*
X-59991Y-18157D01*
X-59488Y-18559D01*
X-59459Y-18575D01*
X-59393Y-18623D01*
X-58839Y-18943D01*
X-58804Y-19006D01*
X-58767Y-19087D01*
X-58744Y-19112D01*
X-58727Y-19142D01*
X-58608Y-19261D01*
X-56885Y-20636D01*
X-56855Y-20653D01*
X-56829Y-20676D01*
X-56817Y-20681D01*
X-56814Y-20684D01*
X-56786Y-20695D01*
X-56748Y-20712D01*
X-56670Y-20756D01*
X-56636Y-20762D01*
X-56605Y-20777D01*
X-56526Y-20788D01*
X-56089Y-21260D01*
X-56063Y-21280D01*
X-56005Y-21338D01*
X-55505Y-21737D01*
X-55484Y-21791D01*
X-55474Y-21835D01*
X-55467Y-21849D01*
X-55455Y-21890D01*
X-55435Y-21918D01*
X-55423Y-21951D01*
X-55323Y-22086D01*
X-53825Y-23702D01*
X-53797Y-23723D01*
X-53776Y-23750D01*
X-53701Y-23798D01*
X-53630Y-23853D01*
X-53598Y-23864D01*
X-53568Y-23883D01*
X-53493Y-23906D01*
X-53130Y-24438D01*
X-53107Y-24462D01*
X-53059Y-24527D01*
X-52624Y-24997D01*
X-52609Y-25067D01*
X-52598Y-25155D01*
X-52583Y-25186D01*
X-52575Y-25220D01*
X-52496Y-25368D01*
X-52186Y-25824D01*
X-52167Y-25844D01*
X-52161Y-25853D01*
X-52145Y-25867D01*
X-52107Y-25906D01*
X-52030Y-25991D01*
X-52023Y-25995D01*
X-52017Y-26002D01*
X-51916Y-26055D01*
X-51816Y-26111D01*
X-51807Y-26113D01*
X-51799Y-26117D01*
X-51686Y-26135D01*
X-51574Y-26156D01*
X-51565Y-26155D01*
X-51557Y-26156D01*
X-51444Y-26138D01*
X-51330Y-26122D01*
X-51321Y-26117D01*
X-51314Y-26116D01*
X-51294Y-26106D01*
X-51177Y-26054D01*
X-21452Y-8893D01*
X-21379Y-8833D01*
X-21301Y-8779D01*
X-21284Y-8756D01*
X-21262Y-8737D01*
X-21211Y-8657D01*
X-21155Y-8581D01*
X-21146Y-8553D01*
X-21131Y-8529D01*
X-21109Y-8437D01*
X-21080Y-8347D01*
X-21080Y-8318D01*
X-21073Y-8290D01*
X-21082Y-8195D01*
X-21083Y-8101D01*
X-21093Y-8066D01*
X-21095Y-8045D01*
X-21108Y-8015D01*
X-21130Y-7940D01*
X-21733Y-6502D01*
X-22481Y-3795D01*
X-22881Y-1016D01*
X-22925Y1792D01*
X-22614Y4583D01*
X-21952Y7312D01*
X-21586Y8269D01*
X-18784Y8269D01*
X-19393Y6820D01*
X-19400Y6785D01*
X-19419Y6740D01*
X-20147Y3636D01*
X-20148Y3601D01*
X-20159Y3553D01*
X-20359Y371D01*
X-20354Y336D01*
X-20357Y288D01*
X-20024Y-2884D01*
X-20014Y-2917D01*
X-20008Y-2966D01*
X-19151Y-6037D01*
X-19135Y-6068D01*
X-19122Y-6115D01*
X-17764Y-9000D01*
X-17747Y-9023D01*
X-17737Y-9051D01*
X-17688Y-9103D01*
X-17645Y-9160D01*
X-17620Y-9174D01*
X-17600Y-9195D01*
X-17535Y-9224D01*
X-17474Y-9260D01*
X-17445Y-9264D01*
X-17418Y-9275D01*
X-17347Y-9276D01*
X-17277Y-9285D01*
X-17249Y-9278D01*
X-17219Y-9278D01*
X-17126Y-9243D01*
X-17085Y-9232D01*
X-17076Y-9225D01*
X-17063Y-9220D01*
X-813Y136D01*
X15438Y-9220D01*
X15466Y-9229D01*
X15490Y-9246D01*
X15560Y-9261D01*
X15627Y-9283D01*
X15656Y-9281D01*
X15685Y-9287D01*
X15754Y-9273D01*
X15825Y-9267D01*
X15851Y-9254D01*
X15880Y-9248D01*
X15939Y-9208D01*
X16002Y-9176D01*
X16020Y-9153D01*
X16044Y-9137D01*
X16101Y-9055D01*
X16128Y-9022D01*
X16131Y-9011D01*
X16139Y-9000D01*
X17497Y-6115D01*
X17505Y-6081D01*
X17526Y-6037D01*
X18383Y-2966D01*
X18386Y-2931D01*
X18399Y-2884D01*
X18732Y288D01*
X18729Y323D01*
X18734Y371D01*
X18534Y3553D01*
X18525Y3587D01*
X18522Y3636D01*
X17794Y6740D01*
X17779Y6772D01*
X17768Y6820D01*
X16532Y9759D01*
X16512Y9788D01*
X16493Y9833D01*
X14785Y12525D01*
X14761Y12551D01*
X14734Y12592D01*
X12601Y14962D01*
X12573Y14982D01*
X12540Y15019D01*
X10041Y16999D01*
X10010Y17015D01*
X9972Y17046D01*
X7177Y18582D01*
X7144Y18592D01*
X7101Y18616D01*
X7021Y18644D01*
X5587Y19143D01*
X4154Y19642D01*
X4090Y19664D01*
X4055Y19669D01*
X4009Y19685D01*
X865Y20217D01*
X830Y20216D01*
X782Y20224D01*
X-2407Y20224D01*
X-2441Y20217D01*
X-2490Y20217D01*
X-5634Y19685D01*
X-5667Y19672D01*
X-5715Y19664D01*
X-8726Y18616D01*
X-8756Y18598D01*
X-8802Y18582D01*
X-11597Y17046D01*
X-11623Y17023D01*
X-11666Y16999D01*
X-14165Y15019D01*
X-14188Y14992D01*
X-14226Y14962D01*
X-16359Y12592D01*
X-16377Y12562D01*
X-16410Y12525D01*
X-17178Y11316D01*
X-20210Y11316D01*
X-19624Y12411D01*
X-18521Y13959D01*
X-17995Y14698D01*
X-16089Y16761D01*
X-13938Y18566D01*
X-11576Y20084D01*
X-9041Y21291D01*
X-6373Y22167D01*
X-3615Y22699D01*
X-3127Y22730D01*
X-3012Y22756D01*
X-2895Y22781D01*
X-2891Y22784D01*
X-2887Y22785D01*
X-2787Y22846D01*
X-2684Y22908D01*
X-2681Y22911D01*
X-2677Y22913D01*
X-2602Y23003D01*
X-2524Y23094D01*
X-2522Y23099D01*
X-2520Y23102D01*
X-2477Y23212D01*
X-2432Y23323D01*
X-2432Y23328D01*
X-2430Y23331D01*
X-2430Y23346D01*
X-2414Y23489D01*
X-2414Y35941D01*
X-2417Y35961D01*
X-2415Y35980D01*
X-2437Y36082D01*
X-2454Y36184D01*
X-2463Y36201D01*
X-2467Y36221D01*
X-2520Y36310D01*
X-2569Y36401D01*
X-2583Y36415D01*
X-2593Y36432D01*
X-2672Y36499D01*
X-2747Y36571D01*
X-2765Y36579D01*
X-2780Y36592D01*
X-2876Y36631D01*
X-2970Y36674D01*
X-2990Y36676D01*
X-3008Y36684D01*
X-3175Y36702D01*
X-50070Y36702D01*
X-50115Y36695D01*
X-50161Y36697D01*
X-50236Y36675D01*
X-50313Y36663D01*
X-50353Y36641D01*
X-50397Y36628D01*
X-50461Y36584D01*
X-50530Y36547D01*
X-50562Y36514D01*
X-50599Y36488D01*
X-50646Y36426D01*
X-50699Y36369D01*
X-50719Y36327D01*
X-50746Y36291D01*
X-50770Y36217D01*
X-50803Y36146D01*
X-50808Y36100D01*
X-50822Y36057D01*
X-50821Y35979D01*
X-50830Y35902D01*
X-50820Y35857D01*
X-50820Y35811D01*
X-50782Y35679D01*
X-50778Y35661D01*
X-50775Y35657D01*
X-50773Y35650D01*
X-50264Y34421D01*
X-50264Y25904D01*
X-53524Y18034D01*
X-59547Y12011D01*
X-67416Y8752D01*
X-75934Y8752D01*
X-83803Y12011D01*
X-89826Y18034D01*
X-93086Y25904D01*
X-93086Y34421D01*
X-92577Y35650D01*
X-92566Y35694D01*
X-92547Y35736D01*
X-92539Y35813D01*
X-92521Y35889D01*
X-92525Y35935D01*
X-92520Y35980D01*
X-92537Y36057D01*
X-92544Y36134D01*
X-92563Y36176D01*
X-92572Y36221D01*
X-92612Y36288D01*
X-92644Y36359D01*
X-92675Y36393D01*
X-92698Y36432D01*
X-92758Y36483D01*
X-92810Y36540D01*
X-92850Y36562D01*
X-92885Y36592D01*
X-92958Y36621D01*
X-93026Y36658D01*
X-93071Y36667D01*
X-93114Y36684D01*
X-93249Y36699D01*
X-93268Y36702D01*
X-93273Y36701D01*
X-93280Y36702D01*
X-180287Y36702D01*
X-180362Y36690D01*
X-180437Y36687D01*
X-180483Y36670D01*
X-180530Y36663D01*
X-180597Y36627D01*
X-180668Y36600D01*
X-180705Y36570D01*
X-180747Y36547D01*
X-180799Y36493D01*
X-180858Y36445D01*
X-180884Y36404D01*
X-180917Y36369D01*
X-180949Y36300D01*
X-180989Y36236D01*
X-181000Y36190D01*
X-181020Y36146D01*
X-181029Y36071D01*
X-181046Y35997D01*
X-181042Y35949D01*
X-181047Y35902D01*
X-181031Y35828D01*
X-181025Y35752D01*
X-181002Y35692D01*
X-180995Y35661D01*
X-180982Y35639D01*
X-180965Y35595D01*
X-180895Y35456D01*
X-180224Y33392D01*
X-179954Y31686D01*
X-192913Y31686D01*
X-192933Y31682D01*
X-192952Y31685D01*
X-193054Y31663D01*
X-193156Y31646D01*
X-193173Y31637D01*
X-193193Y31632D01*
X-193282Y31579D01*
X-193373Y31531D01*
X-193387Y31516D01*
X-193404Y31506D01*
X-193471Y31428D01*
X-193542Y31353D01*
X-193551Y31334D01*
X-193564Y31319D01*
X-193602Y31223D01*
X-193646Y31129D01*
X-193648Y31110D01*
X-193656Y31091D01*
X-193674Y30924D01*
X-193674Y30162D01*
X-193676Y30162D01*
X-193676Y30924D01*
X-193679Y30944D01*
X-193677Y30964D01*
X-193699Y31065D01*
X-193716Y31167D01*
X-193725Y31185D01*
X-193729Y31204D01*
X-193782Y31293D01*
X-193831Y31385D01*
X-193845Y31398D01*
X-193855Y31415D01*
X-193934Y31483D01*
X-194009Y31554D01*
X-194027Y31562D01*
X-194042Y31575D01*
X-194138Y31614D01*
X-194232Y31658D01*
X-194252Y31660D01*
X-194270Y31667D01*
X-194437Y31686D01*
X-207396Y31686D01*
X-207126Y33392D01*
X-206455Y35456D01*
X-206385Y35595D01*
X-206361Y35667D01*
X-206330Y35736D01*
X-206324Y35784D01*
X-206310Y35830D01*
X-206311Y35905D01*
X-206303Y35980D01*
X-206313Y36028D01*
X-206314Y36076D01*
X-206339Y36147D01*
X-206355Y36221D01*
X-206379Y36262D01*
X-206396Y36307D01*
X-206442Y36367D01*
X-206481Y36432D01*
X-206517Y36463D01*
X-206547Y36501D01*
X-206610Y36543D01*
X-206668Y36592D01*
X-206713Y36610D01*
X-206753Y36636D01*
X-206826Y36655D01*
X-206896Y36684D01*
X-206961Y36691D01*
X-206991Y36699D01*
X-207016Y36697D01*
X-207063Y36702D01*
X-232360Y36702D01*
X-236375Y38365D01*
X-239447Y41438D01*
X-241110Y45452D01*
X-241110Y47448D01*
X-241122Y47518D01*
X-241124Y47590D01*
X-241142Y47639D01*
X-241150Y47690D01*
X-241183Y47754D01*
X-241208Y47821D01*
X-241241Y47862D01*
X-241265Y47908D01*
X-241317Y47957D01*
X-241362Y48013D01*
X-241406Y48041D01*
X-241443Y48077D01*
X-241508Y48107D01*
X-241569Y48146D01*
X-241619Y48159D01*
X-241666Y48181D01*
X-241738Y48189D01*
X-241807Y48206D01*
X-241859Y48202D01*
X-241911Y48208D01*
X-241981Y48193D01*
X-242052Y48187D01*
X-242100Y48167D01*
X-242151Y48156D01*
X-242213Y48119D01*
X-242279Y48091D01*
X-242335Y48046D01*
X-242362Y48029D01*
X-242378Y48012D01*
X-242410Y47986D01*
X-243740Y46656D01*
X-243793Y46582D01*
X-243852Y46512D01*
X-243865Y46482D01*
X-243883Y46456D01*
X-243910Y46369D01*
X-243944Y46284D01*
X-243949Y46243D01*
X-243956Y46221D01*
X-243955Y46189D01*
X-243963Y46118D01*
X-243963Y45440D01*
X-247254Y42149D01*
X-247265Y42133D01*
X-247281Y42121D01*
X-247311Y42074D01*
X-247328Y42056D01*
X-247341Y42028D01*
X-247397Y41949D01*
X-247403Y41930D01*
X-247414Y41914D01*
X-247439Y41813D01*
X-247470Y41714D01*
X-247469Y41694D01*
X-247474Y41675D01*
X-247466Y41572D01*
X-247463Y41468D01*
X-247456Y41450D01*
X-247455Y41430D01*
X-247415Y41335D01*
X-247379Y41237D01*
X-247366Y41222D01*
X-247359Y41204D01*
X-247254Y41073D01*
X-246888Y40707D01*
X-246888Y31443D01*
X-247781Y30550D01*
X-257044Y30550D01*
X-257937Y31443D01*
X-257937Y40707D01*
X-257044Y41600D01*
X-255968Y41600D01*
X-255949Y41603D01*
X-255929Y41601D01*
X-255828Y41623D01*
X-255726Y41639D01*
X-255708Y41649D01*
X-255689Y41653D01*
X-255600Y41706D01*
X-255508Y41755D01*
X-255495Y41769D01*
X-255478Y41779D01*
X-255410Y41858D01*
X-255339Y41933D01*
X-255331Y41951D01*
X-255318Y41966D01*
X-255279Y42062D01*
X-255235Y42156D01*
X-255233Y42176D01*
X-255226Y42194D01*
X-255207Y42361D01*
X-255207Y45608D01*
X-254735Y46080D01*
X-254682Y46154D01*
X-254623Y46223D01*
X-254610Y46253D01*
X-254592Y46279D01*
X-254565Y46366D01*
X-254531Y46451D01*
X-254526Y46492D01*
X-254519Y46514D01*
X-254520Y46547D01*
X-254512Y46618D01*
X-254512Y49810D01*
X-251422Y52900D01*
X-250745Y52900D01*
X-250655Y52914D01*
X-250564Y52922D01*
X-250534Y52934D01*
X-250502Y52939D01*
X-250421Y52982D01*
X-250338Y53018D01*
X-250305Y53044D01*
X-250285Y53055D01*
X-250263Y53078D01*
X-250207Y53123D01*
X-244508Y58821D01*
X-244455Y58895D01*
X-244396Y58965D01*
X-244383Y58995D01*
X-244365Y59021D01*
X-244338Y59108D01*
X-244304Y59193D01*
X-244299Y59234D01*
X-244292Y59256D01*
X-244293Y59288D01*
X-244285Y59359D01*
X-244285Y65060D01*
X-244300Y65150D01*
X-244307Y65241D01*
X-244320Y65271D01*
X-244325Y65303D01*
X-244368Y65383D01*
X-244403Y65467D01*
X-244429Y65500D01*
X-244440Y65520D01*
X-244463Y65543D01*
X-244508Y65598D01*
X-244572Y65663D01*
X-244630Y65704D01*
X-244682Y65754D01*
X-244730Y65776D01*
X-244772Y65806D01*
X-244840Y65827D01*
X-244906Y65857D01*
X-244957Y65863D01*
X-245007Y65879D01*
X-245079Y65877D01*
X-245150Y65885D01*
X-245201Y65874D01*
X-245253Y65872D01*
X-245320Y65848D01*
X-245390Y65832D01*
X-245435Y65806D01*
X-245484Y65788D01*
X-245540Y65743D01*
X-245601Y65706D01*
X-245635Y65667D01*
X-245676Y65634D01*
X-245715Y65574D01*
X-245761Y65519D01*
X-245781Y65471D01*
X-245809Y65427D01*
X-245826Y65358D01*
X-245853Y65291D01*
X-245861Y65220D01*
X-245869Y65189D01*
X-245867Y65165D01*
X-245872Y65124D01*
X-245872Y62778D01*
X-246045Y62132D01*
X-246379Y61552D01*
X-246852Y61079D01*
X-247432Y60745D01*
X-248078Y60572D01*
X-250889Y60572D01*
X-250889Y66350D01*
X-250893Y66370D01*
X-250890Y66390D01*
X-250912Y66491D01*
X-250929Y66593D01*
X-250938Y66611D01*
X-250943Y66630D01*
X-250996Y66719D01*
X-251044Y66811D01*
X-251059Y66824D01*
X-251069Y66841D01*
X-251147Y66909D01*
X-251222Y66980D01*
X-251241Y66988D01*
X-251256Y67001D01*
X-251352Y67040D01*
X-251446Y67084D01*
X-251465Y67086D01*
X-251484Y67093D01*
X-251651Y67112D01*
X-252413Y67112D01*
X-252413Y67113D01*
X-251651Y67113D01*
X-251631Y67117D01*
X-251611Y67114D01*
X-251510Y67136D01*
X-251408Y67153D01*
X-251390Y67162D01*
X-251371Y67167D01*
X-251282Y67220D01*
X-251190Y67268D01*
X-251177Y67283D01*
X-251160Y67293D01*
X-251092Y67372D01*
X-251021Y67447D01*
X-251013Y67465D01*
X-251000Y67480D01*
X-250961Y67576D01*
X-250917Y67670D01*
X-250915Y67689D01*
X-250908Y67708D01*
X-250889Y67875D01*
X-250889Y73653D01*
X-248078Y73653D01*
X-247432Y73480D01*
X-246852Y73146D01*
X-246379Y72673D01*
X-246045Y72093D01*
X-245872Y71447D01*
X-245872Y71401D01*
X-245860Y71330D01*
X-245858Y71258D01*
X-245840Y71209D01*
X-245832Y71158D01*
X-245798Y71095D01*
X-245774Y71027D01*
X-245741Y70987D01*
X-245717Y70941D01*
X-245665Y70891D01*
X-245620Y70835D01*
X-245576Y70807D01*
X-245539Y70771D01*
X-245474Y70741D01*
X-245413Y70702D01*
X-245363Y70689D01*
X-245316Y70668D01*
X-245244Y70660D01*
X-245175Y70642D01*
X-245123Y70646D01*
X-245071Y70640D01*
X-245001Y70656D01*
X-244930Y70661D01*
X-244882Y70682D01*
X-244831Y70693D01*
X-244769Y70729D01*
X-244703Y70758D01*
X-244647Y70802D01*
X-244620Y70819D01*
X-244604Y70837D01*
X-244572Y70862D01*
X-241897Y73537D01*
X-241871Y73537D01*
X-241852Y73540D01*
X-241832Y73538D01*
X-241731Y73560D01*
X-241629Y73577D01*
X-241611Y73586D01*
X-241592Y73591D01*
X-241503Y73644D01*
X-241411Y73692D01*
X-241398Y73706D01*
X-241381Y73717D01*
X-241313Y73795D01*
X-241242Y73870D01*
X-241234Y73888D01*
X-241221Y73904D01*
X-241182Y74000D01*
X-241138Y74093D01*
X-241136Y74113D01*
X-241129Y74132D01*
X-241110Y74298D01*
X-241110Y126109D01*
X-241122Y126180D01*
X-241124Y126252D01*
X-241142Y126301D01*
X-241150Y126352D01*
X-241184Y126416D01*
X-241208Y126483D01*
X-241241Y126524D01*
X-241265Y126570D01*
X-241317Y126619D01*
X-241362Y126675D01*
X-241406Y126703D01*
X-241443Y126739D01*
X-241508Y126769D01*
X-241569Y126808D01*
X-241619Y126821D01*
X-241666Y126843D01*
X-241738Y126851D01*
X-241807Y126868D01*
X-241859Y126864D01*
X-241911Y126870D01*
X-241981Y126854D01*
X-242052Y126849D01*
X-242100Y126829D01*
X-242151Y126817D01*
X-242213Y126781D01*
X-242279Y126753D01*
X-242335Y126708D01*
X-242362Y126691D01*
X-242378Y126673D01*
X-242410Y126648D01*
X-245665Y123393D01*
X-245718Y123319D01*
X-245777Y123249D01*
X-245789Y123219D01*
X-245808Y123193D01*
X-245835Y123106D01*
X-245869Y123021D01*
X-245874Y122980D01*
X-245881Y122958D01*
X-245880Y122926D01*
X-245888Y122854D01*
X-245888Y118134D01*
X-245873Y118044D01*
X-245866Y117953D01*
X-245853Y117924D01*
X-245848Y117892D01*
X-245805Y117811D01*
X-245770Y117727D01*
X-245744Y117695D01*
X-245733Y117674D01*
X-245710Y117652D01*
X-245665Y117596D01*
X-245388Y117319D01*
X-245388Y106056D01*
X-246281Y105163D01*
X-258544Y105163D01*
X-259437Y106056D01*
X-259437Y117381D01*
X-259452Y117472D01*
X-259459Y117562D01*
X-259472Y117592D01*
X-259477Y117624D01*
X-259520Y117705D01*
X-259555Y117789D01*
X-259581Y117821D01*
X-259592Y117842D01*
X-259615Y117864D01*
X-259660Y117920D01*
X-264065Y122324D01*
X-264139Y122377D01*
X-264208Y122437D01*
X-264238Y122449D01*
X-264265Y122468D01*
X-264351Y122495D01*
X-264436Y122529D01*
X-264477Y122533D01*
X-264500Y122540D01*
X-264532Y122539D01*
X-264603Y122547D01*
X-266497Y122547D01*
X-266587Y122533D01*
X-266678Y122525D01*
X-266708Y122513D01*
X-266740Y122508D01*
X-266820Y122465D01*
X-266904Y122429D01*
X-266936Y122403D01*
X-266957Y122392D01*
X-266979Y122369D01*
X-267035Y122324D01*
X-268706Y120654D01*
X-273076Y120654D01*
X-276166Y123743D01*
X-276166Y128113D01*
X-273076Y131203D01*
X-268706Y131203D01*
X-267387Y129884D01*
X-267313Y129831D01*
X-267243Y129771D01*
X-267213Y129759D01*
X-267187Y129740D01*
X-267100Y129713D01*
X-267015Y129679D01*
X-266974Y129675D01*
X-266952Y129668D01*
X-266920Y129669D01*
X-266848Y129661D01*
X-261341Y129661D01*
X-259750Y128070D01*
X-259734Y128058D01*
X-259722Y128043D01*
X-259635Y127987D01*
X-259551Y127926D01*
X-259532Y127921D01*
X-259515Y127910D01*
X-259414Y127884D01*
X-259316Y127854D01*
X-259296Y127855D01*
X-259276Y127850D01*
X-259173Y127858D01*
X-259070Y127860D01*
X-259051Y127867D01*
X-259031Y127869D01*
X-258936Y127909D01*
X-258839Y127945D01*
X-258823Y127957D01*
X-258805Y127965D01*
X-258674Y128070D01*
X-258044Y128700D01*
X-250733Y128700D01*
X-250643Y128714D01*
X-250552Y128722D01*
X-250522Y128734D01*
X-250490Y128739D01*
X-250410Y128782D01*
X-250326Y128818D01*
X-250294Y128844D01*
X-250273Y128855D01*
X-250251Y128878D01*
X-250195Y128923D01*
X-248767Y130351D01*
X-248725Y130409D01*
X-248676Y130461D01*
X-248654Y130508D01*
X-248623Y130550D01*
X-248602Y130619D01*
X-248572Y130684D01*
X-248566Y130736D01*
X-248551Y130786D01*
X-248553Y130857D01*
X-248545Y130928D01*
X-248556Y130979D01*
X-248557Y131031D01*
X-248582Y131099D01*
X-248597Y131169D01*
X-248624Y131214D01*
X-248642Y131262D01*
X-248687Y131318D01*
X-248723Y131380D01*
X-248763Y131414D01*
X-248795Y131454D01*
X-248856Y131493D01*
X-248910Y131540D01*
X-248958Y131559D01*
X-249002Y131587D01*
X-249072Y131605D01*
X-249138Y131632D01*
X-249210Y131640D01*
X-249241Y131648D01*
X-249264Y131646D01*
X-249305Y131650D01*
X-258044Y131650D01*
X-258937Y132543D01*
X-258937Y142216D01*
X-258952Y142306D01*
X-258959Y142397D01*
X-258972Y142426D01*
X-258977Y142458D01*
X-259020Y142539D01*
X-259055Y142623D01*
X-259081Y142655D01*
X-259092Y142676D01*
X-259115Y142698D01*
X-259160Y142754D01*
X-259437Y143031D01*
X-259437Y154294D01*
X-258544Y155187D01*
X-246281Y155187D01*
X-245388Y154294D01*
X-245388Y143031D01*
X-245665Y142754D01*
X-245718Y142680D01*
X-245777Y142610D01*
X-245790Y142580D01*
X-245808Y142554D01*
X-245835Y142467D01*
X-245869Y142382D01*
X-245874Y142341D01*
X-245881Y142319D01*
X-245880Y142287D01*
X-245888Y142216D01*
X-245888Y135068D01*
X-245876Y134997D01*
X-245874Y134925D01*
X-245856Y134876D01*
X-245848Y134825D01*
X-245814Y134761D01*
X-245790Y134694D01*
X-245757Y134653D01*
X-245733Y134607D01*
X-245681Y134558D01*
X-245636Y134502D01*
X-245592Y134474D01*
X-245555Y134438D01*
X-245490Y134408D01*
X-245429Y134369D01*
X-245379Y134356D01*
X-245332Y134334D01*
X-245260Y134326D01*
X-245191Y134309D01*
X-245139Y134313D01*
X-245087Y134307D01*
X-245017Y134323D01*
X-244946Y134328D01*
X-244898Y134348D01*
X-244847Y134360D01*
X-244785Y134396D01*
X-244719Y134424D01*
X-244663Y134469D01*
X-244636Y134486D01*
X-244620Y134504D01*
X-244588Y134529D01*
X-225398Y153719D01*
X-206538Y153719D01*
X-206423Y153738D01*
X-206307Y153755D01*
X-206301Y153758D01*
X-206295Y153759D01*
X-206192Y153813D01*
X-206087Y153867D01*
X-206083Y153871D01*
X-206078Y153874D01*
X-205998Y153958D01*
X-205915Y154042D01*
X-205912Y154049D01*
X-205908Y154052D01*
X-205900Y154069D01*
X-205834Y154189D01*
X-204505Y157399D01*
X-200911Y160992D01*
X-197702Y162322D01*
X-197602Y162383D01*
X-197502Y162443D01*
X-197498Y162448D01*
X-197493Y162451D01*
X-197418Y162542D01*
X-197342Y162630D01*
X-197340Y162636D01*
X-197336Y162641D01*
X-197294Y162749D01*
X-197250Y162858D01*
X-197249Y162866D01*
X-197248Y162871D01*
X-197247Y162889D01*
X-197232Y163025D01*
X-197232Y166533D01*
X-197243Y166604D01*
X-197245Y166676D01*
X-197263Y166725D01*
X-197271Y166776D01*
X-197305Y166839D01*
X-197330Y166907D01*
X-197362Y166947D01*
X-197387Y166993D01*
X-197439Y167043D01*
X-197483Y167099D01*
X-197527Y167127D01*
X-197565Y167163D01*
X-197630Y167193D01*
X-197690Y167232D01*
X-197741Y167245D01*
X-197788Y167266D01*
X-197859Y167274D01*
X-197929Y167292D01*
X-197981Y167288D01*
X-198032Y167294D01*
X-198103Y167278D01*
X-198174Y167273D01*
X-198222Y167252D01*
X-198273Y167241D01*
X-198334Y167205D01*
X-198400Y167176D01*
X-198456Y167132D01*
X-198484Y167115D01*
X-198499Y167097D01*
X-198531Y167072D01*
X-199428Y166175D01*
X-203797Y166175D01*
X-204276Y166654D01*
X-204350Y166708D01*
X-204420Y166767D01*
X-204450Y166779D01*
X-204476Y166798D01*
X-204563Y166825D01*
X-204648Y166859D01*
X-204689Y166863D01*
X-204711Y166870D01*
X-204743Y166869D01*
X-204815Y166877D01*
X-207552Y166877D01*
X-207642Y166863D01*
X-207733Y166855D01*
X-207763Y166843D01*
X-207795Y166838D01*
X-207875Y166795D01*
X-207888Y166789D01*
X-237192Y166789D01*
X-240094Y169691D01*
X-241118Y170715D01*
X-241192Y170768D01*
X-241261Y170827D01*
X-241291Y170839D01*
X-241318Y170858D01*
X-241405Y170885D01*
X-241489Y170919D01*
X-241530Y170924D01*
X-241553Y170931D01*
X-241585Y170930D01*
X-241656Y170938D01*
X-243611Y170938D01*
X-243630Y170935D01*
X-243650Y170937D01*
X-243751Y170915D01*
X-243853Y170898D01*
X-243871Y170889D01*
X-243890Y170884D01*
X-243979Y170831D01*
X-244071Y170783D01*
X-244084Y170769D01*
X-244101Y170758D01*
X-244169Y170680D01*
X-244240Y170605D01*
X-244248Y170587D01*
X-244261Y170571D01*
X-244300Y170475D01*
X-244344Y170382D01*
X-244346Y170362D01*
X-244353Y170343D01*
X-244372Y170177D01*
X-244372Y167186D01*
X-250889Y167186D01*
X-250889Y173203D01*
X-248923Y173203D01*
X-248904Y173206D01*
X-248884Y173204D01*
X-248783Y173226D01*
X-248681Y173243D01*
X-248663Y173252D01*
X-248644Y173257D01*
X-248555Y173310D01*
X-248463Y173358D01*
X-248450Y173372D01*
X-248433Y173383D01*
X-248365Y173461D01*
X-248294Y173536D01*
X-248286Y173554D01*
X-248273Y173570D01*
X-248234Y173666D01*
X-248190Y173759D01*
X-248188Y173779D01*
X-248181Y173798D01*
X-248162Y173964D01*
X-248162Y178397D01*
X-245072Y181487D01*
X-240703Y181487D01*
X-240224Y181008D01*
X-240150Y180955D01*
X-240080Y180896D01*
X-240050Y180883D01*
X-240024Y180865D01*
X-239937Y180838D01*
X-239852Y180804D01*
X-239811Y180799D01*
X-239789Y180792D01*
X-239757Y180793D01*
X-239685Y180785D01*
X-238255Y180785D01*
X-233627Y176158D01*
X-233553Y176105D01*
X-233484Y176045D01*
X-233454Y176033D01*
X-233427Y176014D01*
X-233340Y175988D01*
X-233256Y175953D01*
X-233215Y175949D01*
X-233192Y175942D01*
X-233160Y175943D01*
X-233089Y175935D01*
X-212059Y175935D01*
X-211968Y175950D01*
X-211878Y175957D01*
X-211848Y175969D01*
X-211816Y175975D01*
X-211735Y176017D01*
X-211722Y176023D01*
X-204815Y176023D01*
X-204725Y176037D01*
X-204634Y176045D01*
X-204604Y176057D01*
X-204572Y176062D01*
X-204491Y176105D01*
X-204407Y176141D01*
X-204375Y176167D01*
X-204355Y176178D01*
X-204332Y176201D01*
X-204276Y176246D01*
X-203797Y176725D01*
X-199428Y176725D01*
X-198912Y176209D01*
X-198854Y176167D01*
X-198802Y176118D01*
X-198754Y176096D01*
X-198712Y176065D01*
X-198644Y176044D01*
X-198578Y176014D01*
X-198527Y176008D01*
X-198477Y175993D01*
X-198405Y175995D01*
X-198334Y175987D01*
X-198283Y175998D01*
X-198231Y175999D01*
X-198164Y176024D01*
X-198094Y176039D01*
X-198049Y176066D01*
X-198000Y176084D01*
X-197944Y176129D01*
X-197883Y176165D01*
X-197849Y176205D01*
X-197808Y176237D01*
X-197769Y176298D01*
X-197723Y176352D01*
X-197703Y176401D01*
X-197675Y176444D01*
X-197658Y176514D01*
X-197631Y176580D01*
X-197623Y176652D01*
X-197615Y176683D01*
X-197617Y176706D01*
X-197612Y176747D01*
X-197612Y186721D01*
X-196133Y188200D01*
X-188042Y188200D01*
X-186563Y186721D01*
X-186563Y176629D01*
X-188042Y175150D01*
X-189357Y175150D01*
X-189377Y175147D01*
X-189396Y175149D01*
X-189498Y175127D01*
X-189600Y175111D01*
X-189617Y175101D01*
X-189637Y175097D01*
X-189726Y175044D01*
X-189817Y174995D01*
X-189831Y174981D01*
X-189848Y174971D01*
X-189915Y174892D01*
X-189987Y174817D01*
X-189995Y174799D01*
X-190008Y174784D01*
X-190047Y174688D01*
X-190090Y174594D01*
X-190092Y174574D01*
X-190100Y174556D01*
X-190118Y174389D01*
X-190118Y163025D01*
X-190099Y162910D01*
X-190082Y162794D01*
X-190080Y162789D01*
X-190079Y162782D01*
X-190024Y162680D01*
X-189971Y162575D01*
X-189966Y162571D01*
X-189963Y162565D01*
X-189879Y162485D01*
X-189795Y162403D01*
X-189789Y162399D01*
X-189785Y162396D01*
X-189768Y162388D01*
X-189648Y162322D01*
X-186439Y160992D01*
X-182845Y157399D01*
X-180900Y152704D01*
X-180900Y147621D01*
X-182845Y142926D01*
X-186439Y139333D01*
X-190139Y137800D01*
X-190222Y137748D01*
X-190308Y137703D01*
X-190326Y137684D01*
X-190348Y137670D01*
X-190410Y137595D01*
X-190477Y137525D01*
X-190488Y137501D01*
X-190505Y137481D01*
X-190540Y137390D01*
X-190581Y137301D01*
X-190584Y137275D01*
X-190593Y137251D01*
X-190597Y137154D01*
X-190608Y137057D01*
X-190603Y137032D01*
X-190604Y137005D01*
X-190577Y136912D01*
X-190556Y136817D01*
X-190542Y136794D01*
X-190535Y136769D01*
X-190480Y136689D01*
X-190430Y136606D01*
X-190410Y136589D01*
X-190395Y136567D01*
X-190317Y136509D01*
X-190243Y136446D01*
X-190219Y136436D01*
X-190198Y136420D01*
X-190105Y136390D01*
X-190015Y136354D01*
X-189982Y136350D01*
X-189964Y136344D01*
X-189931Y136344D01*
X-189848Y136335D01*
X-89965Y136335D01*
X-89894Y136347D01*
X-89822Y136349D01*
X-89773Y136367D01*
X-89722Y136375D01*
X-89659Y136408D01*
X-89591Y136433D01*
X-89551Y136466D01*
X-89505Y136490D01*
X-89455Y136542D01*
X-89399Y136587D01*
X-89371Y136631D01*
X-89335Y136668D01*
X-89305Y136734D01*
X-89266Y136794D01*
X-89254Y136844D01*
X-89232Y136891D01*
X-89224Y136963D01*
X-89206Y137032D01*
X-89210Y137084D01*
X-89205Y137136D01*
X-89220Y137206D01*
X-89225Y137278D01*
X-89246Y137325D01*
X-89257Y137376D01*
X-89294Y137438D01*
X-89322Y137504D01*
X-89367Y137560D01*
X-89383Y137587D01*
X-89401Y137603D01*
X-89427Y137635D01*
X-89826Y138034D01*
X-93086Y145904D01*
X-93086Y154421D01*
X-89826Y162291D01*
X-83803Y168314D01*
X-75934Y171573D01*
X-67416Y171573D01*
X-59547Y168314D01*
X-53524Y162291D01*
X-50264Y154421D01*
X-50264Y145904D01*
X-53524Y138034D01*
X-53923Y137635D01*
X-53965Y137576D01*
X-54015Y137525D01*
X-54037Y137477D01*
X-54067Y137435D01*
X-54088Y137367D01*
X-54118Y137301D01*
X-54124Y137250D01*
X-54139Y137200D01*
X-54137Y137128D01*
X-54145Y137057D01*
X-54134Y137006D01*
X-54133Y136954D01*
X-54108Y136887D01*
X-54093Y136817D01*
X-54066Y136772D01*
X-54048Y136723D01*
X-54004Y136667D01*
X-53967Y136606D01*
X-53927Y136572D01*
X-53895Y136531D01*
X-53835Y136492D01*
X-53780Y136446D01*
X-53732Y136426D01*
X-53688Y136398D01*
X-53619Y136381D01*
X-53552Y136354D01*
X-53481Y136346D01*
X-53449Y136338D01*
X-53426Y136340D01*
X-53385Y136335D01*
X-3175Y136335D01*
X-3155Y136338D01*
X-3136Y136336D01*
X-3034Y136358D01*
X-2932Y136375D01*
X-2915Y136384D01*
X-2895Y136389D01*
X-2806Y136442D01*
X-2715Y136490D01*
X-2701Y136504D01*
X-2684Y136515D01*
X-2617Y136593D01*
X-2546Y136668D01*
X-2537Y136686D01*
X-2524Y136702D01*
X-2485Y136798D01*
X-2442Y136891D01*
X-2440Y136911D01*
X-2432Y136930D01*
X-2414Y137096D01*
X-2414Y151136D01*
X-2433Y151253D01*
X-2451Y151370D01*
X-2453Y151374D01*
X-2453Y151378D01*
X-2509Y151483D01*
X-2563Y151589D01*
X-2566Y151592D01*
X-2569Y151596D01*
X-2654Y151677D01*
X-2740Y151760D01*
X-2744Y151762D01*
X-2747Y151765D01*
X-2855Y151816D01*
X-2961Y151866D01*
X-2967Y151867D01*
X-2970Y151869D01*
X-2985Y151870D01*
X-3127Y151895D01*
X-3615Y151926D01*
X-4994Y152192D01*
X-6372Y152458D01*
X-7950Y152976D01*
X-9040Y153334D01*
X-10694Y154121D01*
X-11576Y154541D01*
X-13217Y155596D01*
X-13938Y156059D01*
X-15498Y157368D01*
X-16089Y157864D01*
X-17995Y159927D01*
X-19624Y162214D01*
X-20210Y163309D01*
X-17178Y163309D01*
X-16410Y162100D01*
X-16386Y162074D01*
X-16359Y162033D01*
X-14226Y159663D01*
X-14198Y159643D01*
X-14165Y159606D01*
X-11666Y157626D01*
X-11635Y157610D01*
X-11597Y157579D01*
X-8802Y156043D01*
X-8769Y156033D01*
X-8726Y156009D01*
X-5715Y154961D01*
X-5680Y154956D01*
X-5634Y154940D01*
X-2490Y154408D01*
X-2455Y154409D01*
X-2407Y154401D01*
X782Y154401D01*
X816Y154408D01*
X865Y154408D01*
X4009Y154940D01*
X4042Y154953D01*
X4090Y154961D01*
X7101Y156009D01*
X7131Y156027D01*
X7177Y156043D01*
X9972Y157579D01*
X9998Y157602D01*
X10041Y157626D01*
X12540Y159606D01*
X12563Y159633D01*
X12601Y159663D01*
X14734Y162033D01*
X14752Y162063D01*
X14785Y162100D01*
X16493Y164792D01*
X16506Y164824D01*
X16532Y164866D01*
X17768Y167805D01*
X17775Y167840D01*
X17794Y167885D01*
X18522Y170989D01*
X18523Y171024D01*
X18534Y171072D01*
X18734Y174254D01*
X18729Y174289D01*
X18732Y174337D01*
X18399Y177509D01*
X18389Y177542D01*
X18383Y177591D01*
X17526Y180662D01*
X17510Y180693D01*
X17497Y180740D01*
X16139Y183625D01*
X16122Y183648D01*
X16112Y183676D01*
X16063Y183728D01*
X16020Y183785D01*
X15995Y183799D01*
X15975Y183820D01*
X15910Y183849D01*
X15849Y183885D01*
X15820Y183889D01*
X15793Y183900D01*
X15722Y183901D01*
X15652Y183910D01*
X15624Y183903D01*
X15594Y183903D01*
X15501Y183868D01*
X15460Y183857D01*
X15451Y183850D01*
X15438Y183845D01*
X-813Y174489D01*
X-17063Y183845D01*
X-17091Y183854D01*
X-17115Y183871D01*
X-17185Y183886D01*
X-17252Y183908D01*
X-17281Y183906D01*
X-17310Y183912D01*
X-17379Y183898D01*
X-17450Y183892D01*
X-17476Y183879D01*
X-17505Y183873D01*
X-17564Y183833D01*
X-17627Y183801D01*
X-17645Y183778D01*
X-17669Y183762D01*
X-17726Y183680D01*
X-17753Y183647D01*
X-17756Y183636D01*
X-17764Y183625D01*
X-19122Y180740D01*
X-19130Y180706D01*
X-19151Y180662D01*
X-20008Y177591D01*
X-20011Y177556D01*
X-20024Y177509D01*
X-20357Y174337D01*
X-20354Y174303D01*
X-20359Y174254D01*
X-20159Y171072D01*
X-20150Y171038D01*
X-20147Y170989D01*
X-19419Y167885D01*
X-19404Y167853D01*
X-19393Y167805D01*
X-18783Y166356D01*
X-21586Y166356D01*
X-21952Y167313D01*
X-22614Y170042D01*
X-22925Y172833D01*
X-22881Y175641D01*
X-22481Y178420D01*
X-22473Y178448D01*
X-21842Y180732D01*
X-21733Y181127D01*
X-21436Y181835D01*
X-21130Y182565D01*
X-21108Y182657D01*
X-21080Y182747D01*
X-21080Y182776D01*
X-21073Y182804D01*
X-21082Y182898D01*
X-21083Y182993D01*
X-21093Y183020D01*
X-21095Y183049D01*
X-21134Y183136D01*
X-21165Y183225D01*
X-21183Y183248D01*
X-21195Y183274D01*
X-21258Y183344D01*
X-21317Y183419D01*
X-21346Y183440D01*
X-21360Y183456D01*
X-21389Y183472D01*
X-21452Y183518D01*
X-51177Y200679D01*
X-51284Y200720D01*
X-51390Y200763D01*
X-51399Y200763D01*
X-51407Y200766D01*
X-51521Y200770D01*
X-51635Y200777D01*
X-51644Y200775D01*
X-51652Y200775D01*
X-51763Y200743D01*
X-51873Y200713D01*
X-51880Y200708D01*
X-51888Y200705D01*
X-51982Y200639D01*
X-52077Y200576D01*
X-52084Y200568D01*
X-52090Y200564D01*
X-52103Y200546D01*
X-52186Y200449D01*
X-52222Y200396D01*
X-52496Y199993D01*
X-52511Y199962D01*
X-52533Y199935D01*
X-52563Y199851D01*
X-52600Y199770D01*
X-52604Y199736D01*
X-52616Y199703D01*
X-52622Y199624D01*
X-53059Y199152D01*
X-53077Y199125D01*
X-53130Y199063D01*
X-53259Y198874D01*
X-53491Y198534D01*
X-53556Y198503D01*
X-53639Y198473D01*
X-53666Y198451D01*
X-53698Y198436D01*
X-53825Y198327D01*
X-55323Y196711D01*
X-55342Y196682D01*
X-55368Y196658D01*
X-55410Y196580D01*
X-55459Y196506D01*
X-55468Y196472D01*
X-55485Y196441D01*
X-55501Y196368D01*
X-55502Y196367D01*
X-55502Y196365D01*
X-55502Y196364D01*
X-56005Y195963D01*
X-56027Y195938D01*
X-56089Y195885D01*
X-56524Y195416D01*
X-56593Y195395D01*
X-56680Y195377D01*
X-56710Y195360D01*
X-56743Y195350D01*
X-56885Y195261D01*
X-58608Y193886D01*
X-58631Y193860D01*
X-58660Y193840D01*
X-58713Y193769D01*
X-58773Y193703D01*
X-58787Y193671D01*
X-58807Y193644D01*
X-58836Y193570D01*
X-59394Y193248D01*
X-59419Y193227D01*
X-59488Y193184D01*
X-59988Y192784D01*
X-60059Y192774D01*
X-60148Y192770D01*
X-60180Y192757D01*
X-60214Y192752D01*
X-60368Y192685D01*
X-62277Y191582D01*
X-62304Y191560D01*
X-62335Y191545D01*
X-62398Y191483D01*
X-62467Y191426D01*
X-62485Y191397D01*
X-62510Y191373D01*
X-62550Y191304D01*
X-63149Y191068D01*
X-63177Y191052D01*
X-63251Y191019D01*
X-63806Y190699D01*
X-63877Y190699D01*
X-63966Y190708D01*
X-64000Y190700D01*
X-64034Y190701D01*
X-64196Y190657D01*
X-66248Y189851D01*
X-66278Y189833D01*
X-66311Y189823D01*
X-66383Y189771D01*
X-66459Y189725D01*
X-66482Y189699D01*
X-66510Y189679D01*
X-66559Y189616D01*
X-67187Y189473D01*
X-67217Y189460D01*
X-67295Y189439D01*
X-67891Y189205D01*
X-67962Y189217D01*
X-68048Y189238D01*
X-68083Y189236D01*
X-68117Y189241D01*
X-68284Y189222D01*
X-70433Y188731D01*
X-70465Y188718D01*
X-70499Y188713D01*
X-70578Y188672D01*
X-70660Y188638D01*
X-70687Y188616D01*
X-70718Y188600D01*
X-70776Y188545D01*
X-71417Y188497D01*
X-71449Y188489D01*
X-71530Y188480D01*
X-72154Y188337D01*
X-72222Y188359D01*
X-72305Y188394D01*
X-72339Y188396D01*
X-72372Y188407D01*
X-72540Y188413D01*
X-74738Y188247D01*
X-74771Y188239D01*
X-74806Y188239D01*
X-74890Y188210D01*
X-74977Y188189D01*
X-75006Y188171D01*
X-75039Y188160D01*
X-75104Y188115D01*
X-75746Y188163D01*
X-75779Y188160D01*
X-75860Y188163D01*
X-76499Y188115D01*
X-76563Y188146D01*
X-76639Y188193D01*
X-76673Y188200D01*
X-76704Y188216D01*
X-76869Y188247D01*
X-79067Y188411D01*
X-79101Y188408D01*
X-79136Y188413D01*
X-79223Y188397D01*
X-79312Y188389D01*
X-79343Y188375D01*
X-79378Y188369D01*
X-79449Y188334D01*
X-80077Y188477D01*
X-80110Y188479D01*
X-80189Y188494D01*
X-80828Y188542D01*
X-80887Y188583D01*
X-80955Y188640D01*
X-80987Y188653D01*
X-81016Y188672D01*
X-81174Y188728D01*
X-83323Y189217D01*
X-83358Y189219D01*
X-83391Y189230D01*
X-83480Y189227D01*
X-83569Y189233D01*
X-83602Y189224D01*
X-83637Y189223D01*
X-83712Y189199D01*
X-84312Y189434D01*
X-84344Y189441D01*
X-84421Y189467D01*
X-85045Y189610D01*
X-85097Y189659D01*
X-85156Y189726D01*
X-85186Y189743D01*
X-85211Y189767D01*
X-85360Y189845D01*
X-87412Y190649D01*
X-87446Y190657D01*
X-87477Y190672D01*
X-87565Y190682D01*
X-87652Y190701D01*
X-87687Y190697D01*
X-87721Y190701D01*
X-87800Y190689D01*
X-88357Y191011D01*
X-88388Y191023D01*
X-88460Y191060D01*
X-89056Y191294D01*
X-89100Y191350D01*
X-89148Y191425D01*
X-89175Y191447D01*
X-89197Y191474D01*
X-89332Y191573D01*
X-91241Y192675D01*
X-91274Y192687D01*
X-91302Y192707D01*
X-91388Y192730D01*
X-91471Y192762D01*
X-91506Y192763D01*
X-91539Y192772D01*
X-91619Y192772D01*
X-92122Y193173D01*
X-92151Y193189D01*
X-92216Y193237D01*
X-92771Y193557D01*
X-92806Y193620D01*
X-92843Y193701D01*
X-92866Y193726D01*
X-92883Y193756D01*
X-93002Y193875D01*
X-94726Y195248D01*
X-94756Y195265D01*
X-94782Y195289D01*
X-94863Y195325D01*
X-94941Y195369D01*
X-94975Y195375D01*
X-95006Y195389D01*
X-95085Y195401D01*
X-95140Y195461D01*
X-95167Y195481D01*
X-95189Y195508D01*
X-95264Y195557D01*
X-95335Y195611D01*
X-95367Y195623D01*
X-95395Y195641D01*
X-95482Y195663D01*
X-95567Y195693D01*
X-95601Y195693D01*
X-95634Y195701D01*
X-95723Y195694D01*
X-95813Y195695D01*
X-95845Y195685D01*
X-95879Y195682D01*
X-95962Y195647D01*
X-96047Y195619D01*
X-96074Y195599D01*
X-96106Y195586D01*
X-96236Y195481D01*
X-96436Y195281D01*
X-96489Y195208D01*
X-96548Y195138D01*
X-96561Y195108D01*
X-96579Y195082D01*
X-96606Y194995D01*
X-96640Y194910D01*
X-96645Y194869D01*
X-96652Y194847D01*
X-96651Y194815D01*
X-96659Y194743D01*
X-96659Y192572D01*
X-99341Y189891D01*
X-99352Y189874D01*
X-99368Y189862D01*
X-99424Y189775D01*
X-99484Y189691D01*
X-99490Y189672D01*
X-99501Y189655D01*
X-99526Y189555D01*
X-99557Y189456D01*
X-99556Y189436D01*
X-99561Y189416D01*
X-99553Y189313D01*
X-99550Y189210D01*
X-99543Y189191D01*
X-99542Y189171D01*
X-99501Y189076D01*
X-99466Y188979D01*
X-99453Y188963D01*
X-99445Y188945D01*
X-99341Y188814D01*
X-99000Y188473D01*
X-98926Y188420D01*
X-98856Y188360D01*
X-98826Y188348D01*
X-98800Y188329D01*
X-98713Y188303D01*
X-98628Y188268D01*
X-98587Y188264D01*
X-98565Y188257D01*
X-98533Y188258D01*
X-98461Y188250D01*
X-96392Y188250D01*
X-96302Y188265D01*
X-96211Y188272D01*
X-96181Y188285D01*
X-96149Y188290D01*
X-96069Y188332D01*
X-95985Y188368D01*
X-95953Y188394D01*
X-95932Y188405D01*
X-95910Y188428D01*
X-95854Y188473D01*
X-95375Y188952D01*
X-91005Y188952D01*
X-87915Y185862D01*
X-87915Y181492D01*
X-91005Y178403D01*
X-95375Y178403D01*
X-95854Y178882D01*
X-95928Y178935D01*
X-95997Y178994D01*
X-96027Y179006D01*
X-96053Y179025D01*
X-96140Y179052D01*
X-96225Y179086D01*
X-96266Y179091D01*
X-96289Y179097D01*
X-96321Y179097D01*
X-96392Y179105D01*
X-102565Y179105D01*
X-112876Y189416D01*
X-112876Y193407D01*
X-112891Y193497D01*
X-112898Y193588D01*
X-112911Y193617D01*
X-112916Y193649D01*
X-112959Y193730D01*
X-112994Y193814D01*
X-113020Y193846D01*
X-113031Y193867D01*
X-113054Y193889D01*
X-113099Y193945D01*
X-113682Y194527D01*
X-113756Y194580D01*
X-113825Y194640D01*
X-113855Y194652D01*
X-113881Y194671D01*
X-113968Y194698D01*
X-114053Y194732D01*
X-114094Y194736D01*
X-114116Y194743D01*
X-114149Y194742D01*
X-114220Y194750D01*
X-114897Y194750D01*
X-117987Y197840D01*
X-117987Y202210D01*
X-114897Y205300D01*
X-110528Y205300D01*
X-107438Y202210D01*
X-107438Y201532D01*
X-107423Y201442D01*
X-107416Y201351D01*
X-107403Y201322D01*
X-107398Y201290D01*
X-107355Y201209D01*
X-107320Y201125D01*
X-107294Y201093D01*
X-107283Y201072D01*
X-107260Y201050D01*
X-107215Y200994D01*
X-106632Y200412D01*
X-104344Y198123D01*
X-104327Y198111D01*
X-104315Y198096D01*
X-104228Y198040D01*
X-104144Y197979D01*
X-104125Y197973D01*
X-104108Y197963D01*
X-104008Y197937D01*
X-103909Y197907D01*
X-103889Y197907D01*
X-103869Y197903D01*
X-103767Y197911D01*
X-103663Y197913D01*
X-103644Y197920D01*
X-103624Y197922D01*
X-103529Y197962D01*
X-103432Y197998D01*
X-103416Y198010D01*
X-103398Y198018D01*
X-103267Y198123D01*
X-102738Y198652D01*
X-100567Y198652D01*
X-100477Y198666D01*
X-100386Y198674D01*
X-100357Y198686D01*
X-100325Y198691D01*
X-100244Y198734D01*
X-100160Y198770D01*
X-100128Y198796D01*
X-100107Y198807D01*
X-100085Y198830D01*
X-100029Y198875D01*
X-99486Y199418D01*
X-99444Y199477D01*
X-99394Y199529D01*
X-99372Y199576D01*
X-99342Y199618D01*
X-99321Y199687D01*
X-99291Y199752D01*
X-99285Y199804D01*
X-99270Y199853D01*
X-99272Y199925D01*
X-99264Y199997D01*
X-99275Y200047D01*
X-99276Y200099D01*
X-99301Y200167D01*
X-99316Y200237D01*
X-99350Y200300D01*
X-99361Y200330D01*
X-99375Y200348D01*
X-99395Y200385D01*
X-100360Y201799D01*
X-100384Y201824D01*
X-100401Y201854D01*
X-100468Y201913D01*
X-100529Y201977D01*
X-100560Y201993D01*
X-100586Y202016D01*
X-100658Y202051D01*
X-100937Y202630D01*
X-100956Y202657D01*
X-100994Y202729D01*
X-101355Y203258D01*
X-101360Y203329D01*
X-101358Y203418D01*
X-101368Y203452D01*
X-101370Y203486D01*
X-101426Y203644D01*
X-102383Y205630D01*
X-102403Y205658D01*
X-102415Y205690D01*
X-102456Y205739D01*
X-102486Y205788D01*
X-102505Y205805D01*
X-102524Y205831D01*
X-102552Y205852D01*
X-102574Y205878D01*
X-102640Y205923D01*
X-102830Y206538D01*
X-102845Y206568D01*
X-102871Y206644D01*
X-103150Y207221D01*
X-103144Y207292D01*
X-103128Y207380D01*
X-103133Y207414D01*
X-103130Y207449D01*
X-103162Y207613D01*
X-103812Y209719D01*
X-103828Y209750D01*
X-103836Y209784D01*
X-103882Y209860D01*
X-103922Y209939D01*
X-103946Y209964D01*
X-103965Y209994D01*
X-104023Y210047D01*
X-104119Y210684D01*
X-104129Y210715D01*
X-104144Y210795D01*
X-104333Y211407D01*
X-104317Y211476D01*
X-104289Y211561D01*
X-104289Y211595D01*
X-104281Y211629D01*
X-104287Y211797D01*
X-104616Y213976D01*
X-104627Y214009D01*
X-104630Y214044D01*
X-104665Y214126D01*
X-104692Y214210D01*
X-104713Y214238D01*
X-104726Y214270D01*
X-104776Y214332D01*
X-104776Y214976D01*
X-104781Y215008D01*
X-104784Y215089D01*
X-104880Y215722D01*
X-104853Y215789D01*
X-104813Y215868D01*
X-104808Y215902D01*
X-104795Y215934D01*
X-104776Y216101D01*
X-104777Y218305D01*
X-104783Y218339D01*
X-104780Y218374D01*
X-104802Y218460D01*
X-104817Y218548D01*
X-104833Y218579D01*
X-104842Y218612D01*
X-104882Y218681D01*
X-104786Y219317D01*
X-104786Y219350D01*
X-104777Y219431D01*
X-104778Y220071D01*
X-104766Y220091D01*
X-104763Y220094D01*
X-104760Y220101D01*
X-104741Y220133D01*
X-104689Y220205D01*
X-104679Y220238D01*
X-104662Y220268D01*
X-104618Y220430D01*
X-104291Y222610D01*
X-104291Y222645D01*
X-104284Y222679D01*
X-104293Y222767D01*
X-104294Y222856D01*
X-104305Y222889D01*
X-104309Y222923D01*
X-104338Y222997D01*
X-104149Y223612D01*
X-104144Y223645D01*
X-104123Y223723D01*
X-104028Y224356D01*
X-103983Y224412D01*
X-103921Y224476D01*
X-103906Y224507D01*
X-103884Y224534D01*
X-103817Y224688D01*
X-103168Y226794D01*
X-103163Y226829D01*
X-103151Y226861D01*
X-103147Y226950D01*
X-103135Y227038D01*
X-103141Y227072D01*
X-103139Y227107D01*
X-103157Y227184D01*
X-102878Y227764D01*
X-102869Y227796D01*
X-102837Y227870D01*
X-102648Y228482D01*
X-102595Y228530D01*
X-102524Y228584D01*
X-102505Y228613D01*
X-102479Y228636D01*
X-102390Y228778D01*
X-102143Y229291D01*
X-102111Y229400D01*
X-102076Y229509D01*
X-102077Y229518D01*
X-102074Y229527D01*
X-102078Y229641D01*
X-102080Y229755D01*
X-102083Y229764D01*
X-102083Y229773D01*
X-102124Y229880D01*
X-102162Y229987D01*
X-102168Y229994D01*
X-102171Y230003D01*
X-102243Y230091D01*
X-102314Y230181D01*
X-102322Y230187D01*
X-102327Y230193D01*
X-102347Y230205D01*
X-102449Y230280D01*
X-132178Y247444D01*
X-132265Y247477D01*
X-132350Y247517D01*
X-132380Y247520D01*
X-132408Y247531D01*
X-132501Y247534D01*
X-132594Y247545D01*
X-132624Y247539D01*
X-132654Y247540D01*
X-132743Y247514D01*
X-132835Y247494D01*
X-132861Y247479D01*
X-132890Y247470D01*
X-132966Y247417D01*
X-133047Y247369D01*
X-133073Y247342D01*
X-133091Y247329D01*
X-133110Y247303D01*
X-133163Y247248D01*
X-134166Y245941D01*
X-134166Y245940D01*
X-136214Y243893D01*
X-138512Y242129D01*
X-141020Y240681D01*
X-143696Y239573D01*
X-146493Y238824D01*
X-149289Y238455D01*
X-149289Y241049D01*
X-149279Y241049D01*
X-149246Y241056D01*
X-149199Y241055D01*
X-146173Y241547D01*
X-146141Y241559D01*
X-146095Y241566D01*
X-143186Y242537D01*
X-143157Y242554D01*
X-143113Y242569D01*
X-140398Y243994D01*
X-140371Y244015D01*
X-140330Y244037D01*
X-137878Y245879D01*
X-137856Y245904D01*
X-137818Y245932D01*
X-135694Y248143D01*
X-135676Y248172D01*
X-135643Y248205D01*
X-133902Y250729D01*
X-133890Y250756D01*
X-133872Y250778D01*
X-133852Y250846D01*
X-133824Y250912D01*
X-133823Y250941D01*
X-133815Y250968D01*
X-133823Y251040D01*
X-133823Y251111D01*
X-133834Y251137D01*
X-133837Y251166D01*
X-133873Y251228D01*
X-133900Y251294D01*
X-133921Y251314D01*
X-133935Y251339D01*
X-134012Y251403D01*
X-134043Y251433D01*
X-134053Y251437D01*
X-134063Y251445D01*
X-150563Y260945D01*
X-150636Y260969D01*
X-150707Y261000D01*
X-150730Y261001D01*
X-150752Y261008D01*
X-150829Y261002D01*
X-150906Y261003D01*
X-150930Y260994D01*
X-150950Y260992D01*
X-150990Y260972D01*
X-151062Y260945D01*
X-167562Y251445D01*
X-167583Y251426D01*
X-167610Y251414D01*
X-167657Y251361D01*
X-167711Y251314D01*
X-167723Y251288D01*
X-167743Y251266D01*
X-167766Y251199D01*
X-167797Y251134D01*
X-167798Y251105D01*
X-167807Y251078D01*
X-167803Y251007D01*
X-167806Y250936D01*
X-167796Y250909D01*
X-167794Y250880D01*
X-167751Y250789D01*
X-167737Y250749D01*
X-167729Y250741D01*
X-167723Y250729D01*
X-165982Y248205D01*
X-165957Y248182D01*
X-165931Y248143D01*
X-163807Y245932D01*
X-163779Y245913D01*
X-163747Y245879D01*
X-161295Y244037D01*
X-161265Y244022D01*
X-161227Y243994D01*
X-158512Y242569D01*
X-158480Y242559D01*
X-158439Y242537D01*
X-155530Y241566D01*
X-155496Y241562D01*
X-155452Y241547D01*
X-152426Y241055D01*
X-152392Y241057D01*
X-152346Y241049D01*
X-152336Y241049D01*
X-152336Y238455D01*
X-155132Y238824D01*
X-157929Y239573D01*
X-160605Y240681D01*
X-163113Y242129D01*
X-163144Y242153D01*
X-165411Y243892D01*
X-167459Y245940D01*
X-168462Y247248D01*
X-168530Y247312D01*
X-168593Y247381D01*
X-168619Y247396D01*
X-168642Y247417D01*
X-168726Y247455D01*
X-168808Y247501D01*
X-168838Y247506D01*
X-168865Y247519D01*
X-168958Y247529D01*
X-169050Y247546D01*
X-169080Y247542D01*
X-169110Y247545D01*
X-169201Y247524D01*
X-169293Y247511D01*
X-169328Y247496D01*
X-169350Y247491D01*
X-169378Y247474D01*
X-169447Y247444D01*
X-199176Y230280D01*
X-199265Y230207D01*
X-199355Y230138D01*
X-199360Y230130D01*
X-199367Y230125D01*
X-199428Y230027D01*
X-199490Y229932D01*
X-199493Y229924D01*
X-199497Y229916D01*
X-199524Y229805D01*
X-199553Y229695D01*
X-199553Y229686D01*
X-199555Y229677D01*
X-199545Y229563D01*
X-199537Y229449D01*
X-199534Y229439D01*
X-199533Y229432D01*
X-199524Y229411D01*
X-199482Y229291D01*
X-199235Y228778D01*
X-199215Y228750D01*
X-199202Y228718D01*
X-199145Y228649D01*
X-199094Y228577D01*
X-199066Y228556D01*
X-199043Y228530D01*
X-198978Y228485D01*
X-198788Y227870D01*
X-198782Y227856D01*
X-198781Y227855D01*
X-198778Y227850D01*
X-198774Y227840D01*
X-198747Y227764D01*
X-198469Y227187D01*
X-198475Y227115D01*
X-198491Y227028D01*
X-198485Y226994D01*
X-198488Y226959D01*
X-198457Y226794D01*
X-197808Y224688D01*
X-197792Y224657D01*
X-197785Y224623D01*
X-197738Y224547D01*
X-197698Y224468D01*
X-197674Y224443D01*
X-197656Y224413D01*
X-197597Y224360D01*
X-197502Y223723D01*
X-197492Y223692D01*
X-197476Y223612D01*
X-197288Y223000D01*
X-197304Y222930D01*
X-197333Y222846D01*
X-197333Y222811D01*
X-197341Y222778D01*
X-197334Y222610D01*
X-197007Y220430D01*
X-196996Y220397D01*
X-196993Y220363D01*
X-196958Y220281D01*
X-196931Y220196D01*
X-196911Y220168D01*
X-196897Y220136D01*
X-196847Y220074D01*
X-196848Y219431D01*
X-196842Y219398D01*
X-196839Y219317D01*
X-196744Y218684D01*
X-196771Y218618D01*
X-196811Y218538D01*
X-196816Y218504D01*
X-196829Y218472D01*
X-196848Y218305D01*
X-196849Y216101D01*
X-196843Y216067D01*
X-196846Y216032D01*
X-196823Y215946D01*
X-196809Y215858D01*
X-196793Y215828D01*
X-196784Y215794D01*
X-196744Y215726D01*
X-196840Y215089D01*
X-196840Y215056D01*
X-196849Y214976D01*
X-196849Y214335D01*
X-196886Y214274D01*
X-196938Y214201D01*
X-196948Y214168D01*
X-196965Y214138D01*
X-197009Y213976D01*
X-197016Y213927D01*
X-197015Y213874D01*
X-197024Y213822D01*
X-197014Y213752D01*
X-197013Y213682D01*
X-196995Y213631D01*
X-196987Y213579D01*
X-196955Y213516D01*
X-196932Y213449D01*
X-196899Y213407D01*
X-196875Y213360D01*
X-196824Y213311D01*
X-196781Y213255D01*
X-196736Y213226D01*
X-196698Y213189D01*
X-196634Y213158D01*
X-196576Y213119D01*
X-196524Y213106D01*
X-196476Y213083D01*
X-196406Y213074D01*
X-196338Y213056D01*
X-196285Y213059D01*
X-196232Y213053D01*
X-196121Y213070D01*
X-196092Y213072D01*
X-196083Y213076D01*
X-196066Y213078D01*
X-195554Y213216D01*
X-193611Y213216D01*
X-193611Y206437D01*
X-193607Y206417D01*
X-193610Y206398D01*
X-193588Y206296D01*
X-193571Y206194D01*
X-193562Y206177D01*
X-193557Y206157D01*
X-193504Y206068D01*
X-193456Y205977D01*
X-193441Y205963D01*
X-193431Y205946D01*
X-193352Y205879D01*
X-193277Y205808D01*
X-193259Y205799D01*
X-193244Y205786D01*
X-193148Y205747D01*
X-193054Y205704D01*
X-193035Y205702D01*
X-193016Y205694D01*
X-192849Y205676D01*
X-192087Y205676D01*
X-192087Y205674D01*
X-192849Y205674D01*
X-192869Y205671D01*
X-192889Y205673D01*
X-192990Y205651D01*
X-193092Y205634D01*
X-193110Y205625D01*
X-193129Y205621D01*
X-193218Y205568D01*
X-193310Y205519D01*
X-193323Y205505D01*
X-193340Y205495D01*
X-193408Y205416D01*
X-193479Y205341D01*
X-193487Y205323D01*
X-193500Y205308D01*
X-193539Y205212D01*
X-193583Y205118D01*
X-193585Y205098D01*
X-193592Y205080D01*
X-193611Y204913D01*
X-193611Y198134D01*
X-195554Y198134D01*
X-196454Y198376D01*
X-197262Y198842D01*
X-197921Y199501D01*
X-198387Y200308D01*
X-198628Y201209D01*
X-198628Y203571D01*
X-198641Y203646D01*
X-198643Y203722D01*
X-198660Y203767D01*
X-198668Y203814D01*
X-198704Y203881D01*
X-198731Y203952D01*
X-198761Y203989D01*
X-198783Y204031D01*
X-198838Y204083D01*
X-198887Y204142D01*
X-198927Y204168D01*
X-198961Y204200D01*
X-199031Y204233D01*
X-199095Y204273D01*
X-199141Y204284D01*
X-199184Y204304D01*
X-199260Y204312D01*
X-199334Y204330D01*
X-199382Y204326D01*
X-199429Y204331D01*
X-199503Y204315D01*
X-199579Y204308D01*
X-199623Y204289D01*
X-199669Y204279D01*
X-199735Y204240D01*
X-199804Y204209D01*
X-199840Y204177D01*
X-199880Y204153D01*
X-199930Y204095D01*
X-199986Y204044D01*
X-200020Y203989D01*
X-200040Y203966D01*
X-200050Y203942D01*
X-200075Y203901D01*
X-200199Y203644D01*
X-200209Y203611D01*
X-200226Y203581D01*
X-200244Y203494D01*
X-200269Y203408D01*
X-200267Y203374D01*
X-200274Y203340D01*
X-200268Y203261D01*
X-200631Y202729D01*
X-200645Y202699D01*
X-200688Y202630D01*
X-200966Y202053D01*
X-201025Y202014D01*
X-201104Y201971D01*
X-201127Y201946D01*
X-201156Y201926D01*
X-201265Y201799D01*
X-201703Y201158D01*
X-201703Y201157D01*
X-202222Y200396D01*
X-202223Y200396D01*
X-202508Y199978D01*
X-202522Y199947D01*
X-202544Y199920D01*
X-202574Y199836D01*
X-202611Y199755D01*
X-202615Y199721D01*
X-202627Y199688D01*
X-202633Y199609D01*
X-203071Y199137D01*
X-203089Y199110D01*
X-203142Y199049D01*
X-203503Y198520D01*
X-203567Y198489D01*
X-203651Y198459D01*
X-203678Y198437D01*
X-203710Y198422D01*
X-203837Y198313D01*
X-205336Y196697D01*
X-205356Y196668D01*
X-205381Y196645D01*
X-205423Y196567D01*
X-205472Y196492D01*
X-205481Y196459D01*
X-205498Y196428D01*
X-205510Y196374D01*
X-205514Y196367D01*
X-205515Y196351D01*
X-206019Y195950D01*
X-206041Y195925D01*
X-206102Y195873D01*
X-206538Y195403D01*
X-206607Y195383D01*
X-206694Y195365D01*
X-206724Y195348D01*
X-206757Y195338D01*
X-206899Y195248D01*
X-208623Y193875D01*
X-208646Y193849D01*
X-208675Y193829D01*
X-208728Y193758D01*
X-208788Y193692D01*
X-208802Y193661D01*
X-208823Y193633D01*
X-208851Y193559D01*
X-209409Y193237D01*
X-209434Y193216D01*
X-209503Y193173D01*
X-210004Y192774D01*
X-210075Y192764D01*
X-210164Y192760D01*
X-210196Y192747D01*
X-210230Y192742D01*
X-210384Y192675D01*
X-212293Y191573D01*
X-212320Y191552D01*
X-212351Y191536D01*
X-212415Y191474D01*
X-212483Y191418D01*
X-212502Y191388D01*
X-212527Y191364D01*
X-212566Y191295D01*
X-212774Y191214D01*
X-212819Y191187D01*
X-212869Y191169D01*
X-212924Y191124D01*
X-212985Y191088D01*
X-213020Y191048D01*
X-213061Y191015D01*
X-213099Y190955D01*
X-213145Y190902D01*
X-213165Y190853D01*
X-213194Y190808D01*
X-213211Y190739D01*
X-213238Y190674D01*
X-213241Y190621D01*
X-213254Y190569D01*
X-213249Y190499D01*
X-213253Y190428D01*
X-213239Y190377D01*
X-213235Y190324D01*
X-213208Y190259D01*
X-213189Y190191D01*
X-213160Y190147D01*
X-213139Y190098D01*
X-213069Y190010D01*
X-213053Y189986D01*
X-213044Y189980D01*
X-213034Y189967D01*
X-211566Y188499D01*
X-211566Y184731D01*
X-214231Y182066D01*
X-217999Y182066D01*
X-220664Y184731D01*
X-220664Y187255D01*
X-220678Y187345D01*
X-220686Y187436D01*
X-220698Y187466D01*
X-220703Y187498D01*
X-220746Y187578D01*
X-220782Y187663D01*
X-220808Y187695D01*
X-220819Y187715D01*
X-220842Y187737D01*
X-220887Y187793D01*
X-221269Y188176D01*
X-221312Y188207D01*
X-221349Y188246D01*
X-221412Y188278D01*
X-221469Y188319D01*
X-221520Y188335D01*
X-221567Y188360D01*
X-221637Y188371D01*
X-221704Y188392D01*
X-221757Y188390D01*
X-221810Y188399D01*
X-221921Y188386D01*
X-221950Y188385D01*
X-221960Y188382D01*
X-221977Y188380D01*
X-222173Y188335D01*
X-222241Y188357D01*
X-222323Y188391D01*
X-222358Y188394D01*
X-222391Y188405D01*
X-222558Y188411D01*
X-224756Y188247D01*
X-224790Y188238D01*
X-224825Y188238D01*
X-224909Y188210D01*
X-224995Y188189D01*
X-225025Y188170D01*
X-225058Y188159D01*
X-225123Y188114D01*
X-225765Y188163D01*
X-225798Y188160D01*
X-225879Y188163D01*
X-226517Y188115D01*
X-226582Y188147D01*
X-226658Y188193D01*
X-226691Y188201D01*
X-226722Y188216D01*
X-226887Y188247D01*
X-229085Y188413D01*
X-229120Y188410D01*
X-229154Y188415D01*
X-229242Y188399D01*
X-229330Y188391D01*
X-229362Y188377D01*
X-229396Y188371D01*
X-229468Y188337D01*
X-230095Y188480D01*
X-230128Y188482D01*
X-230208Y188497D01*
X-230846Y188545D01*
X-230905Y188586D01*
X-230973Y188643D01*
X-231005Y188656D01*
X-231034Y188676D01*
X-231192Y188731D01*
X-233341Y189222D01*
X-233376Y189224D01*
X-233409Y189234D01*
X-233498Y189232D01*
X-233587Y189238D01*
X-233620Y189229D01*
X-233655Y189228D01*
X-233731Y189204D01*
X-234330Y189439D01*
X-234362Y189446D01*
X-234438Y189473D01*
X-235063Y189616D01*
X-235115Y189665D01*
X-235174Y189732D01*
X-235204Y189749D01*
X-235229Y189773D01*
X-235377Y189851D01*
X-237429Y190657D01*
X-237463Y190664D01*
X-237494Y190679D01*
X-237582Y190690D01*
X-237669Y190709D01*
X-237704Y190705D01*
X-237738Y190709D01*
X-237817Y190697D01*
X-238374Y191019D01*
X-238405Y191031D01*
X-238476Y191068D01*
X-239072Y191303D01*
X-239117Y191359D01*
X-239165Y191434D01*
X-239192Y191455D01*
X-239213Y191483D01*
X-239348Y191582D01*
X-241257Y192685D01*
X-241289Y192697D01*
X-241318Y192717D01*
X-241404Y192740D01*
X-241487Y192772D01*
X-241522Y192773D01*
X-241555Y192782D01*
X-241634Y192782D01*
X-242137Y193184D01*
X-242166Y193200D01*
X-242232Y193248D01*
X-242786Y193568D01*
X-242821Y193631D01*
X-242858Y193712D01*
X-242881Y193737D01*
X-242898Y193767D01*
X-243017Y193886D01*
X-244740Y195261D01*
X-244770Y195278D01*
X-244796Y195301D01*
X-244877Y195337D01*
X-244955Y195381D01*
X-244989Y195387D01*
X-245020Y195402D01*
X-245099Y195413D01*
X-245536Y195885D01*
X-245562Y195905D01*
X-245620Y195963D01*
X-246120Y196362D01*
X-246145Y196428D01*
X-246148Y196442D01*
X-246150Y196445D01*
X-246170Y196515D01*
X-246190Y196543D01*
X-246202Y196576D01*
X-246302Y196711D01*
X-247800Y198327D01*
X-247828Y198348D01*
X-247849Y198375D01*
X-247924Y198423D01*
X-247995Y198478D01*
X-248027Y198489D01*
X-248056Y198508D01*
X-248132Y198531D01*
X-248495Y199063D01*
X-248518Y199087D01*
X-248566Y199152D01*
X-249001Y199622D01*
X-249016Y199692D01*
X-249027Y199780D01*
X-249042Y199811D01*
X-249050Y199845D01*
X-249129Y199993D01*
X-249439Y200449D01*
X-249518Y200531D01*
X-249595Y200616D01*
X-249602Y200620D01*
X-249608Y200627D01*
X-249709Y200680D01*
X-249809Y200736D01*
X-249818Y200738D01*
X-249826Y200742D01*
X-249939Y200760D01*
X-250051Y200781D01*
X-250060Y200780D01*
X-250068Y200781D01*
X-250181Y200763D01*
X-250295Y200747D01*
X-250304Y200742D01*
X-250311Y200741D01*
X-250331Y200731D01*
X-250448Y200679D01*
X-280174Y183518D01*
X-280246Y183458D01*
X-280323Y183405D01*
X-280341Y183381D01*
X-280364Y183362D01*
X-280414Y183283D01*
X-280470Y183208D01*
X-280479Y183179D01*
X-280495Y183154D01*
X-280517Y183063D01*
X-280546Y182974D01*
X-280545Y182944D01*
X-280552Y182914D01*
X-280544Y182822D01*
X-280543Y182728D01*
X-280533Y182691D01*
X-280531Y182669D01*
X-280518Y182640D01*
X-280497Y182567D01*
X-279865Y181042D01*
X-279116Y178245D01*
X-278738Y175374D01*
X-278738Y172478D01*
X-279116Y169606D01*
X-279865Y166809D01*
X-280944Y164203D01*
X-283190Y165500D01*
X-283185Y165508D01*
X-283175Y165541D01*
X-283151Y165581D01*
X-282064Y168448D01*
X-282058Y168481D01*
X-282041Y168525D01*
X-281428Y171529D01*
X-281428Y171563D01*
X-281418Y171609D01*
X-281295Y174673D01*
X-281300Y174706D01*
X-281298Y174753D01*
X-281668Y177797D01*
X-281678Y177829D01*
X-281684Y177876D01*
X-282537Y180821D01*
X-282553Y180851D01*
X-282565Y180896D01*
X-283880Y183666D01*
X-283897Y183689D01*
X-283907Y183716D01*
X-283956Y183768D01*
X-283999Y183825D01*
X-284024Y183840D01*
X-284044Y183861D01*
X-284109Y183889D01*
X-284171Y183925D01*
X-284200Y183929D01*
X-284226Y183940D01*
X-284298Y183941D01*
X-284368Y183950D01*
X-284396Y183942D01*
X-284425Y183942D01*
X-284519Y183907D01*
X-284560Y183896D01*
X-284568Y183889D01*
X-284581Y183884D01*
X-301058Y174345D01*
X-301116Y174293D01*
X-301178Y174248D01*
X-301190Y174228D01*
X-301207Y174213D01*
X-301240Y174143D01*
X-301279Y174077D01*
X-301284Y174052D01*
X-301293Y174033D01*
X-301295Y173989D01*
X-301307Y173913D01*
X-301330Y154874D01*
X-301324Y154845D01*
X-301327Y154816D01*
X-301305Y154749D01*
X-301291Y154679D01*
X-301274Y154655D01*
X-301265Y154627D01*
X-301219Y154573D01*
X-301178Y154515D01*
X-301154Y154499D01*
X-301135Y154477D01*
X-301071Y154446D01*
X-301011Y154407D01*
X-300982Y154403D01*
X-300956Y154390D01*
X-300857Y154381D01*
X-300815Y154374D01*
X-300804Y154377D01*
X-300791Y154375D01*
X-297734Y154622D01*
X-297702Y154632D01*
X-297655Y154635D01*
X-294678Y155369D01*
X-294647Y155383D01*
X-294602Y155394D01*
X-291781Y156596D01*
X-291753Y156615D01*
X-291710Y156633D01*
X-289118Y158272D01*
X-289094Y158296D01*
X-289054Y158321D01*
X-286759Y160354D01*
X-286739Y160381D01*
X-286703Y160412D01*
X-284764Y162787D01*
X-284748Y162817D01*
X-284719Y162853D01*
X-284714Y162862D01*
X-282468Y161565D01*
X-284184Y159327D01*
X-286232Y157279D01*
X-288530Y155516D01*
X-291038Y154068D01*
X-293714Y152960D01*
X-296511Y152210D01*
X-298150Y151995D01*
X-298239Y151968D01*
X-298330Y151948D01*
X-298356Y151932D01*
X-298385Y151924D01*
X-298461Y151870D01*
X-298541Y151822D01*
X-298561Y151799D01*
X-298586Y151781D01*
X-298641Y151706D01*
X-298701Y151635D01*
X-298713Y151607D01*
X-298730Y151582D01*
X-298758Y151493D01*
X-298793Y151407D01*
X-298798Y151369D01*
X-298804Y151347D01*
X-298803Y151315D01*
X-298812Y151240D01*
X-298812Y116899D01*
X-298793Y116787D01*
X-298777Y116673D01*
X-298773Y116665D01*
X-298772Y116657D01*
X-298719Y116556D01*
X-298667Y116453D01*
X-298661Y116447D01*
X-298657Y116439D01*
X-298574Y116361D01*
X-298493Y116280D01*
X-298485Y116276D01*
X-298479Y116270D01*
X-298375Y116222D01*
X-298272Y116171D01*
X-298262Y116169D01*
X-298256Y116166D01*
X-298233Y116164D01*
X-298107Y116140D01*
X-297551Y116098D01*
X-297517Y116102D01*
X-297482Y116096D01*
X-297395Y116112D01*
X-297306Y116120D01*
X-297274Y116134D01*
X-297240Y116140D01*
X-297169Y116175D01*
X-296541Y116031D01*
X-296508Y116029D01*
X-296429Y116014D01*
X-295790Y115967D01*
X-295731Y115926D01*
X-295663Y115868D01*
X-295631Y115856D01*
X-295602Y115836D01*
X-295444Y115781D01*
X-294160Y115488D01*
X-293297Y115291D01*
X-293263Y115289D01*
X-293229Y115279D01*
X-293141Y115281D01*
X-293052Y115276D01*
X-293018Y115285D01*
X-292984Y115286D01*
X-292908Y115309D01*
X-292309Y115074D01*
X-292277Y115067D01*
X-292200Y115041D01*
X-291576Y114898D01*
X-291524Y114849D01*
X-291465Y114782D01*
X-291435Y114765D01*
X-291409Y114741D01*
X-291261Y114663D01*
X-289211Y113858D01*
X-289177Y113851D01*
X-289146Y113836D01*
X-289058Y113825D01*
X-288971Y113807D01*
X-288936Y113811D01*
X-288902Y113806D01*
X-288823Y113818D01*
X-288266Y113496D01*
X-288235Y113485D01*
X-288163Y113447D01*
X-287567Y113213D01*
X-287523Y113157D01*
X-287475Y113082D01*
X-287448Y113060D01*
X-287427Y113033D01*
X-287291Y112934D01*
X-285384Y111833D01*
X-285352Y111821D01*
X-285323Y111801D01*
X-285238Y111777D01*
X-285154Y111746D01*
X-285120Y111745D01*
X-285086Y111735D01*
X-285007Y111735D01*
X-284504Y111334D01*
X-284475Y111318D01*
X-284410Y111270D01*
X-283855Y110950D01*
X-283820Y110887D01*
X-283783Y110806D01*
X-283760Y110781D01*
X-283743Y110751D01*
X-283624Y110632D01*
X-281902Y109259D01*
X-281872Y109243D01*
X-281846Y109219D01*
X-281765Y109183D01*
X-281688Y109139D01*
X-281654Y109133D01*
X-281622Y109119D01*
X-281543Y109107D01*
X-281106Y108635D01*
X-281080Y108615D01*
X-281022Y108558D01*
X-280521Y108158D01*
X-280496Y108092D01*
X-280472Y108006D01*
X-280452Y107977D01*
X-280440Y107945D01*
X-280340Y107810D01*
X-278842Y106196D01*
X-278815Y106175D01*
X-278793Y106148D01*
X-278718Y106100D01*
X-278648Y106045D01*
X-278615Y106034D01*
X-278586Y106015D01*
X-278510Y105992D01*
X-278148Y105460D01*
X-278125Y105436D01*
X-278077Y105371D01*
X-277641Y104901D01*
X-277626Y104831D01*
X-277615Y104743D01*
X-277600Y104712D01*
X-277592Y104678D01*
X-277514Y104530D01*
X-276273Y102711D01*
X-276249Y102685D01*
X-276232Y102655D01*
X-276165Y102597D01*
X-276104Y102532D01*
X-276073Y102516D01*
X-276047Y102493D01*
X-275975Y102459D01*
X-275696Y101879D01*
X-275677Y101852D01*
X-275639Y101781D01*
X-275279Y101251D01*
X-275274Y101180D01*
X-275276Y101091D01*
X-275266Y101058D01*
X-275264Y101023D01*
X-275208Y100865D01*
X-274252Y98881D01*
X-274233Y98853D01*
X-274220Y98821D01*
X-274162Y98753D01*
X-274111Y98680D01*
X-274083Y98659D01*
X-274061Y98633D01*
X-273995Y98588D01*
X-273806Y97973D01*
X-273791Y97943D01*
X-273764Y97867D01*
X-273486Y97290D01*
X-273492Y97219D01*
X-273508Y97131D01*
X-273502Y97097D01*
X-273505Y97062D01*
X-273474Y96898D01*
X-272825Y94793D01*
X-272809Y94762D01*
X-272802Y94729D01*
X-272755Y94653D01*
X-272715Y94573D01*
X-272691Y94549D01*
X-272673Y94519D01*
X-272614Y94465D01*
X-272518Y93829D01*
X-272508Y93797D01*
X-272493Y93718D01*
X-272304Y93106D01*
X-272321Y93036D01*
X-272349Y92952D01*
X-272349Y92917D01*
X-272357Y92883D01*
X-272351Y92716D01*
X-272023Y90539D01*
X-272012Y90506D01*
X-272009Y90471D01*
X-271974Y90389D01*
X-271947Y90304D01*
X-271926Y90276D01*
X-271913Y90245D01*
X-271863Y90183D01*
X-271863Y89539D01*
X-271858Y89506D01*
X-271855Y89426D01*
X-271759Y88792D01*
X-271786Y88726D01*
X-271827Y88647D01*
X-271832Y88612D01*
X-271845Y88580D01*
X-271863Y88413D01*
X-271863Y86212D01*
X-271858Y86177D01*
X-271860Y86143D01*
X-271838Y86057D01*
X-271824Y85969D01*
X-271807Y85938D01*
X-271799Y85905D01*
X-271759Y85836D01*
X-271855Y85199D01*
X-271854Y85166D01*
X-271863Y85086D01*
X-271863Y84446D01*
X-271900Y84384D01*
X-271952Y84312D01*
X-271962Y84278D01*
X-271979Y84249D01*
X-272023Y84086D01*
X-272351Y81909D01*
X-272350Y81874D01*
X-272358Y81841D01*
X-272349Y81752D01*
X-272348Y81663D01*
X-272336Y81631D01*
X-272333Y81596D01*
X-272303Y81522D01*
X-272493Y80907D01*
X-272498Y80874D01*
X-272518Y80796D01*
X-272614Y80163D01*
X-272659Y80107D01*
X-272721Y80044D01*
X-272736Y80012D01*
X-272758Y79985D01*
X-272825Y79832D01*
X-273474Y77727D01*
X-273479Y77693D01*
X-273491Y77661D01*
X-273495Y77572D01*
X-273507Y77484D01*
X-273501Y77450D01*
X-273503Y77415D01*
X-273485Y77338D01*
X-273764Y76758D01*
X-273773Y76726D01*
X-273806Y76652D01*
X-273994Y76040D01*
X-274047Y75992D01*
X-274118Y75938D01*
X-274138Y75909D01*
X-274163Y75886D01*
X-274252Y75744D01*
X-275208Y73760D01*
X-275218Y73727D01*
X-275235Y73697D01*
X-275252Y73609D01*
X-275277Y73524D01*
X-275276Y73489D01*
X-275283Y73455D01*
X-275277Y73376D01*
X-275639Y72844D01*
X-275653Y72815D01*
X-275696Y72746D01*
X-275974Y72169D01*
X-276034Y72129D01*
X-276112Y72087D01*
X-276135Y72061D01*
X-276164Y72042D01*
X-276273Y71914D01*
X-276389Y71745D01*
X-276727Y71249D01*
X-276736Y71231D01*
X-276749Y71215D01*
X-276788Y71119D01*
X-276831Y71026D01*
X-276833Y71006D01*
X-276841Y70987D01*
X-276859Y70820D01*
X-276859Y66120D01*
X-276845Y66030D01*
X-276837Y65939D01*
X-276825Y65909D01*
X-276820Y65877D01*
X-276777Y65797D01*
X-276741Y65713D01*
X-276715Y65681D01*
X-276704Y65660D01*
X-276681Y65638D01*
X-276636Y65582D01*
X-274851Y63797D01*
X-274851Y60028D01*
X-277516Y57364D01*
X-281284Y57364D01*
X-283949Y60028D01*
X-283949Y62153D01*
X-283953Y62182D01*
X-283951Y62211D01*
X-283973Y62303D01*
X-283988Y62395D01*
X-284002Y62421D01*
X-284009Y62450D01*
X-284060Y62530D01*
X-284104Y62613D01*
X-284125Y62633D01*
X-284140Y62658D01*
X-284214Y62717D01*
X-284282Y62782D01*
X-284308Y62795D01*
X-284331Y62813D01*
X-284419Y62846D01*
X-284505Y62886D01*
X-284534Y62889D01*
X-284562Y62899D01*
X-284656Y62903D01*
X-284749Y62913D01*
X-284778Y62907D01*
X-284807Y62908D01*
X-284882Y62885D01*
X-284919Y62889D01*
X-284953Y62888D01*
X-284987Y62894D01*
X-285075Y62882D01*
X-285164Y62877D01*
X-285196Y62864D01*
X-285231Y62860D01*
X-285384Y62792D01*
X-287291Y61691D01*
X-287318Y61669D01*
X-287349Y61654D01*
X-287413Y61592D01*
X-287482Y61535D01*
X-287500Y61506D01*
X-287525Y61482D01*
X-287564Y61413D01*
X-288163Y61178D01*
X-288192Y61161D01*
X-288266Y61129D01*
X-288821Y60808D01*
X-288892Y60809D01*
X-288981Y60818D01*
X-289015Y60810D01*
X-289049Y60810D01*
X-289211Y60767D01*
X-291261Y59962D01*
X-291291Y59944D01*
X-291324Y59934D01*
X-291396Y59882D01*
X-291472Y59837D01*
X-291495Y59810D01*
X-291523Y59790D01*
X-291573Y59728D01*
X-292200Y59584D01*
X-292231Y59572D01*
X-292309Y59551D01*
X-292905Y59317D01*
X-292976Y59328D01*
X-293062Y59350D01*
X-293096Y59348D01*
X-293131Y59353D01*
X-293297Y59334D01*
X-295444Y58844D01*
X-295476Y58831D01*
X-295510Y58826D01*
X-295590Y58785D01*
X-295672Y58751D01*
X-295698Y58729D01*
X-295729Y58713D01*
X-295787Y58659D01*
X-296429Y58611D01*
X-296461Y58603D01*
X-296541Y58594D01*
X-297166Y58451D01*
X-297234Y58473D01*
X-297316Y58507D01*
X-297351Y58510D01*
X-297384Y58521D01*
X-297551Y58526D01*
X-298107Y58485D01*
X-298219Y58458D01*
X-298330Y58434D01*
X-298338Y58429D01*
X-298346Y58427D01*
X-298443Y58366D01*
X-298541Y58307D01*
X-298547Y58301D01*
X-298555Y58296D01*
X-298627Y58208D01*
X-298701Y58121D01*
X-298705Y58112D01*
X-298710Y58106D01*
X-298750Y57999D01*
X-298793Y57892D01*
X-298794Y57882D01*
X-298797Y57875D01*
X-298798Y57852D01*
X-298812Y57726D01*
X-298812Y23385D01*
X-298797Y23293D01*
X-298789Y23200D01*
X-298777Y23172D01*
X-298772Y23142D01*
X-298728Y23060D01*
X-298691Y22974D01*
X-298671Y22952D01*
X-298657Y22925D01*
X-298589Y22861D01*
X-298527Y22791D01*
X-298501Y22776D01*
X-298479Y22756D01*
X-298394Y22716D01*
X-298313Y22670D01*
X-298276Y22661D01*
X-298256Y22652D01*
X-298223Y22648D01*
X-298150Y22630D01*
X-296511Y22415D01*
X-294362Y21839D01*
X-293714Y21665D01*
X-291517Y20755D01*
X-291038Y20557D01*
X-288896Y19320D01*
X-288530Y19109D01*
X-286451Y17513D01*
X-286232Y17346D01*
X-284185Y15298D01*
X-282468Y13060D01*
X-284714Y11763D01*
X-284719Y11772D01*
X-284741Y11798D01*
X-284764Y11838D01*
X-286703Y14213D01*
X-286730Y14235D01*
X-286759Y14271D01*
X-289054Y16305D01*
X-289083Y16321D01*
X-289118Y16353D01*
X-291710Y17992D01*
X-291742Y18004D01*
X-291781Y18029D01*
X-294602Y19231D01*
X-294635Y19238D01*
X-294678Y19256D01*
X-297655Y19990D01*
X-297689Y19991D01*
X-297734Y20003D01*
X-300791Y20250D01*
X-300819Y20246D01*
X-300848Y20251D01*
X-300917Y20234D01*
X-300988Y20226D01*
X-301013Y20211D01*
X-301041Y20205D01*
X-301099Y20162D01*
X-301161Y20127D01*
X-301178Y20104D01*
X-301201Y20087D01*
X-301238Y20025D01*
X-301281Y19968D01*
X-301288Y19940D01*
X-301303Y19915D01*
X-301319Y19817D01*
X-301330Y19776D01*
X-301328Y19765D01*
X-301330Y19751D01*
X-301307Y712D01*
X-301292Y637D01*
X-301284Y560D01*
X-301272Y540D01*
X-301268Y517D01*
X-301224Y454D01*
X-301186Y387D01*
X-301166Y370D01*
X-301155Y353D01*
X-301117Y329D01*
X-301058Y280D01*
X-284581Y-9259D01*
X-284554Y-9268D01*
X-284530Y-9285D01*
X-284460Y-9300D01*
X-284393Y-9322D01*
X-284364Y-9320D01*
X-284335Y-9326D01*
X-284265Y-9313D01*
X-284194Y-9307D01*
X-284169Y-9294D01*
X-284140Y-9288D01*
X-284081Y-9248D01*
X-284018Y-9216D01*
X-283999Y-9193D01*
X-283975Y-9177D01*
X-283918Y-9095D01*
X-283891Y-9063D01*
X-283888Y-9052D01*
X-283880Y-9041D01*
X-282565Y-6271D01*
X-282557Y-6238D01*
X-282537Y-6196D01*
X-281684Y-3251D01*
X-281681Y-3217D01*
X-281668Y-3172D01*
X-281298Y-128D01*
X-281301Y-94D01*
X-281295Y-48D01*
X-281418Y3016D01*
X-281426Y3049D01*
X-281428Y3096D01*
X-282041Y6100D01*
X-282055Y6131D01*
X-282064Y6177D01*
X-283151Y9044D01*
X-283169Y9073D01*
X-283185Y9117D01*
X-283190Y9125D01*
X-280944Y10422D01*
X-279865Y7816D01*
X-279116Y5019D01*
X-278738Y2147D01*
X-278738Y-749D01*
X-279116Y-3620D01*
X-279865Y-6418D01*
X-280497Y-7942D01*
X-280518Y-8033D01*
X-280546Y-8122D01*
X-280546Y-8152D01*
X-280553Y-8182D01*
X-280544Y-8274D01*
X-280543Y-8368D01*
X-280533Y-8396D01*
X-280530Y-8426D01*
X-280492Y-8512D01*
X-280461Y-8600D01*
X-280442Y-8623D01*
X-280430Y-8651D01*
X-280367Y-8720D01*
X-280309Y-8793D01*
X-280278Y-8816D01*
X-280263Y-8832D01*
X-280235Y-8848D01*
X-280174Y-8893D01*
X-250448Y-26054D01*
X-250341Y-26095D01*
X-250235Y-26138D01*
X-250226Y-26138D01*
X-250218Y-26141D01*
X-250104Y-26145D01*
X-249990Y-26152D01*
X-249981Y-26150D01*
X-249973Y-26150D01*
X-249863Y-26118D01*
X-249752Y-26088D01*
X-249745Y-26083D01*
X-249737Y-26080D01*
X-249643Y-26015D01*
X-249548Y-25951D01*
X-249541Y-25943D01*
X-249535Y-25939D01*
X-249522Y-25921D01*
X-249439Y-25824D01*
X-249129Y-25368D01*
X-249114Y-25337D01*
X-249092Y-25310D01*
X-249062Y-25226D01*
X-249025Y-25145D01*
X-249021Y-25111D01*
X-249009Y-25078D01*
X-249003Y-24999D01*
X-248566Y-24527D01*
X-248548Y-24500D01*
X-248495Y-24438D01*
X-248379Y-24268D01*
X-248379Y-24267D01*
X-248378Y-24267D01*
X-248134Y-23909D01*
X-248069Y-23878D01*
X-247986Y-23848D01*
X-247959Y-23826D01*
X-247927Y-23811D01*
X-247800Y-23702D01*
X-246302Y-22086D01*
X-246283Y-22057D01*
X-246257Y-22033D01*
X-246233Y-21988D01*
X-246229Y-21984D01*
X-246219Y-21962D01*
X-246215Y-21955D01*
X-246166Y-21881D01*
X-246157Y-21847D01*
X-246140Y-21816D01*
X-246130Y-21771D01*
X-246125Y-21761D01*
X-246123Y-21740D01*
X-246123Y-21739D01*
X-245620Y-21338D01*
X-245598Y-21313D01*
X-245536Y-21260D01*
X-245101Y-20791D01*
X-245032Y-20770D01*
X-244945Y-20752D01*
X-244915Y-20735D01*
X-244882Y-20725D01*
X-244751Y-20643D01*
X-244745Y-20640D01*
X-244744Y-20638D01*
X-244740Y-20636D01*
X-243017Y-19261D01*
X-242994Y-19235D01*
X-242965Y-19215D01*
X-242912Y-19144D01*
X-242852Y-19078D01*
X-242838Y-19046D01*
X-242818Y-19019D01*
X-242789Y-18945D01*
X-242232Y-18623D01*
X-242206Y-18602D01*
X-242137Y-18559D01*
X-241637Y-18159D01*
X-241566Y-18149D01*
X-241477Y-18145D01*
X-241445Y-18132D01*
X-241411Y-18127D01*
X-241257Y-18060D01*
X-239348Y-16957D01*
X-239321Y-16935D01*
X-239290Y-16920D01*
X-239227Y-16858D01*
X-239158Y-16801D01*
X-239140Y-16772D01*
X-239115Y-16748D01*
X-239075Y-16679D01*
X-238476Y-16443D01*
X-238448Y-16427D01*
X-238374Y-16394D01*
X-237819Y-16074D01*
X-237748Y-16074D01*
X-237659Y-16083D01*
X-237625Y-16075D01*
X-237591Y-16076D01*
X-237429Y-16032D01*
X-235377Y-15226D01*
X-235347Y-15208D01*
X-235314Y-15198D01*
X-235242Y-15146D01*
X-235166Y-15100D01*
X-235143Y-15074D01*
X-235115Y-15054D01*
X-235066Y-14991D01*
X-234438Y-14848D01*
X-234408Y-14835D01*
X-234330Y-14814D01*
X-233734Y-14580D01*
X-233663Y-14592D01*
X-233577Y-14613D01*
X-233542Y-14611D01*
X-233508Y-14616D01*
X-233341Y-14597D01*
X-231192Y-14106D01*
X-231160Y-14093D01*
X-231126Y-14088D01*
X-231047Y-14047D01*
X-230965Y-14013D01*
X-230938Y-13991D01*
X-230907Y-13975D01*
X-230849Y-13920D01*
X-230208Y-13872D01*
X-230176Y-13864D01*
X-230095Y-13855D01*
X-229471Y-13712D01*
X-229403Y-13734D01*
X-229320Y-13769D01*
X-229286Y-13771D01*
X-229253Y-13782D01*
X-229085Y-13788D01*
X-226887Y-13622D01*
X-226854Y-13614D01*
X-226819Y-13614D01*
X-226735Y-13585D01*
X-226648Y-13564D01*
X-226619Y-13546D01*
X-226586Y-13535D01*
X-226521Y-13490D01*
X-225879Y-13538D01*
X-225846Y-13535D01*
X-225765Y-13538D01*
X-225126Y-13490D01*
X-225062Y-13521D01*
X-224986Y-13568D01*
X-224952Y-13575D01*
X-224921Y-13591D01*
X-224756Y-13622D01*
X-222558Y-13786D01*
X-222524Y-13783D01*
X-222489Y-13788D01*
X-222402Y-13772D01*
X-222313Y-13764D01*
X-222281Y-13750D01*
X-222247Y-13744D01*
X-222176Y-13709D01*
X-221548Y-13852D01*
X-221515Y-13854D01*
X-221436Y-13869D01*
X-220797Y-13917D01*
X-220738Y-13958D01*
X-220670Y-14015D01*
X-220638Y-14028D01*
X-220609Y-14047D01*
X-220451Y-14103D01*
X-218302Y-14592D01*
X-218267Y-14595D01*
X-218234Y-14605D01*
X-218145Y-14602D01*
X-218056Y-14608D01*
X-218023Y-14599D01*
X-217988Y-14598D01*
X-217912Y-14574D01*
X-217313Y-14809D01*
X-217281Y-14816D01*
X-217204Y-14842D01*
X-216580Y-14985D01*
X-216528Y-15034D01*
X-216469Y-15101D01*
X-216439Y-15118D01*
X-216414Y-15142D01*
X-216265Y-15220D01*
X-214213Y-16024D01*
X-214179Y-16032D01*
X-214148Y-16047D01*
X-214060Y-16057D01*
X-213973Y-16076D01*
X-213938Y-16072D01*
X-213904Y-16076D01*
X-213825Y-16064D01*
X-213268Y-16386D01*
X-213237Y-16398D01*
X-213165Y-16435D01*
X-212569Y-16669D01*
X-212525Y-16725D01*
X-212477Y-16800D01*
X-212450Y-16822D01*
X-212428Y-16849D01*
X-212293Y-16948D01*
X-210384Y-18050D01*
X-210351Y-18062D01*
X-210323Y-18082D01*
X-210237Y-18105D01*
X-210154Y-18137D01*
X-210119Y-18138D01*
X-210086Y-18147D01*
X-210006Y-18147D01*
X-209503Y-18548D01*
X-209474Y-18564D01*
X-209409Y-18612D01*
X-208854Y-18932D01*
X-208819Y-18995D01*
X-208782Y-19076D01*
X-208759Y-19101D01*
X-208742Y-19131D01*
X-208623Y-19250D01*
X-206899Y-20623D01*
X-206869Y-20640D01*
X-206843Y-20664D01*
X-206762Y-20700D01*
X-206684Y-20744D01*
X-206650Y-20750D01*
X-206619Y-20764D01*
X-206540Y-20776D01*
X-206102Y-21248D01*
X-206076Y-21268D01*
X-206019Y-21325D01*
X-205518Y-21724D01*
X-205498Y-21775D01*
X-205485Y-21835D01*
X-205475Y-21853D01*
X-205468Y-21877D01*
X-205449Y-21905D01*
X-205436Y-21938D01*
X-205374Y-22021D01*
X-205359Y-22047D01*
X-205349Y-22055D01*
X-205336Y-22072D01*
X-203837Y-23688D01*
X-203809Y-23709D01*
X-203788Y-23736D01*
X-203713Y-23784D01*
X-203642Y-23839D01*
X-203610Y-23850D01*
X-203580Y-23869D01*
X-203505Y-23892D01*
X-203142Y-24424D01*
X-203119Y-24447D01*
X-203071Y-24512D01*
X-202635Y-24982D01*
X-202620Y-25052D01*
X-202609Y-25140D01*
X-202594Y-25171D01*
X-202586Y-25205D01*
X-202508Y-25353D01*
X-201265Y-27174D01*
X-201241Y-27199D01*
X-201224Y-27229D01*
X-201157Y-27288D01*
X-201096Y-27352D01*
X-201065Y-27368D01*
X-201039Y-27391D01*
X-200967Y-27426D01*
X-200688Y-28005D01*
X-200669Y-28032D01*
X-200631Y-28104D01*
X-200270Y-28633D01*
X-200265Y-28704D01*
X-200267Y-28793D01*
X-200257Y-28826D01*
X-200255Y-28861D01*
X-200199Y-29019D01*
X-199242Y-31005D01*
X-199222Y-31033D01*
X-199210Y-31065D01*
X-199152Y-31133D01*
X-199101Y-31206D01*
X-199073Y-31227D01*
X-199051Y-31253D01*
X-198985Y-31298D01*
X-198795Y-31913D01*
X-198780Y-31943D01*
X-198754Y-32019D01*
X-198532Y-32478D01*
X-198518Y-32498D01*
X-198510Y-32521D01*
X-198448Y-32599D01*
X-198391Y-32680D01*
X-198371Y-32694D01*
X-198356Y-32713D01*
X-198273Y-32767D01*
X-198193Y-32825D01*
X-198170Y-32833D01*
X-198149Y-32846D01*
X-198053Y-32870D01*
X-197959Y-32901D01*
X-197934Y-32900D01*
X-197911Y-32906D01*
X-197812Y-32899D01*
X-197713Y-32897D01*
X-197690Y-32889D01*
X-197665Y-32887D01*
X-197574Y-32848D01*
X-197481Y-32815D01*
X-197461Y-32800D01*
X-197439Y-32791D01*
X-197308Y-32686D01*
X-194272Y-29650D01*
X-189903Y-29650D01*
X-186813Y-32740D01*
X-186813Y-37168D01*
X-186798Y-37258D01*
X-186791Y-37349D01*
X-186778Y-37379D01*
X-186773Y-37411D01*
X-186730Y-37491D01*
X-186695Y-37575D01*
X-186669Y-37607D01*
X-186658Y-37628D01*
X-186635Y-37650D01*
X-186590Y-37706D01*
X-177408Y-46888D01*
X-174506Y-49790D01*
X-174506Y-55249D01*
X-174491Y-55339D01*
X-174484Y-55430D01*
X-174472Y-55460D01*
X-174466Y-55492D01*
X-174424Y-55573D01*
X-174388Y-55657D01*
X-174362Y-55689D01*
X-174351Y-55709D01*
X-174328Y-55732D01*
X-174283Y-55787D01*
X-172068Y-58002D01*
X-171994Y-58055D01*
X-171925Y-58115D01*
X-171895Y-58127D01*
X-171869Y-58146D01*
X-171782Y-58173D01*
X-171697Y-58207D01*
X-171656Y-58211D01*
X-171634Y-58218D01*
X-171601Y-58217D01*
X-171530Y-58225D01*
X-170853Y-58225D01*
X-167763Y-61315D01*
X-167763Y-65685D01*
X-170853Y-68775D01*
X-173611Y-68775D01*
X-173658Y-68782D01*
X-173706Y-68781D01*
X-173779Y-68802D01*
X-173854Y-68814D01*
X-173896Y-68837D01*
X-173942Y-68851D01*
X-174004Y-68894D01*
X-174071Y-68930D01*
X-174104Y-68964D01*
X-174143Y-68992D01*
X-174188Y-69053D01*
X-174240Y-69108D01*
X-174261Y-69151D01*
X-174289Y-69190D01*
X-174312Y-69262D01*
X-174344Y-69331D01*
X-174349Y-69379D01*
X-174364Y-69424D01*
X-174363Y-69500D01*
X-174371Y-69575D01*
X-174361Y-69622D01*
X-174360Y-69670D01*
X-174335Y-69742D01*
X-174319Y-69816D01*
X-174294Y-69857D01*
X-174278Y-69902D01*
X-174232Y-69962D01*
X-174193Y-70027D01*
X-174156Y-70058D01*
X-174127Y-70096D01*
X-174023Y-70172D01*
X-174006Y-70187D01*
X-174000Y-70189D01*
X-173992Y-70195D01*
X-169446Y-72820D01*
X-169356Y-72854D01*
X-169269Y-72894D01*
X-169242Y-72897D01*
X-169216Y-72906D01*
X-169120Y-72910D01*
X-169024Y-72920D01*
X-168998Y-72914D01*
X-168970Y-72915D01*
X-168878Y-72888D01*
X-168784Y-72868D01*
X-168761Y-72853D01*
X-168734Y-72846D01*
X-168656Y-72790D01*
X-168573Y-72741D01*
X-168550Y-72716D01*
X-168533Y-72704D01*
X-168514Y-72678D01*
X-168458Y-72619D01*
X-168062Y-72094D01*
X-167622Y-71512D01*
X-165725Y-69556D01*
X-163602Y-67847D01*
X-161285Y-66412D01*
X-158809Y-65273D01*
X-156211Y-64447D01*
X-153533Y-63946D01*
X-152336Y-63872D01*
X-152336Y-66424D01*
X-152346Y-66424D01*
X-152379Y-66431D01*
X-152426Y-66430D01*
X-155452Y-66922D01*
X-155484Y-66934D01*
X-155530Y-66941D01*
X-158439Y-67912D01*
X-158468Y-67929D01*
X-158512Y-67944D01*
X-161227Y-69369D01*
X-161254Y-69390D01*
X-161295Y-69412D01*
X-163747Y-71254D01*
X-163769Y-71279D01*
X-163807Y-71307D01*
X-165931Y-73518D01*
X-165949Y-73547D01*
X-165982Y-73580D01*
X-167723Y-76104D01*
X-167735Y-76131D01*
X-167753Y-76153D01*
X-167774Y-76221D01*
X-167801Y-76287D01*
X-167802Y-76316D01*
X-167810Y-76343D01*
X-167802Y-76415D01*
X-167802Y-76486D01*
X-167791Y-76512D01*
X-167788Y-76541D01*
X-167753Y-76603D01*
X-167725Y-76669D01*
X-167704Y-76689D01*
X-167690Y-76714D01*
X-167627Y-76766D01*
X-167623Y-76772D01*
X-167613Y-76777D01*
X-167613Y-76778D01*
X-167582Y-76808D01*
X-167572Y-76812D01*
X-167562Y-76820D01*
X-151062Y-86320D01*
X-150989Y-86344D01*
X-150918Y-86375D01*
X-150895Y-86376D01*
X-150873Y-86383D01*
X-150796Y-86377D01*
G37*
G36*
X104865Y-43609D02*
X104865Y-43609D01*
X104956Y-43602D01*
X104986Y-43589D01*
X105018Y-43584D01*
X105098Y-43541D01*
X105182Y-43506D01*
X105214Y-43480D01*
X105235Y-43469D01*
X105257Y-43446D01*
X105313Y-43401D01*
X113251Y-35463D01*
X113304Y-35389D01*
X113363Y-35320D01*
X113375Y-35290D01*
X113394Y-35264D01*
X113421Y-35177D01*
X113455Y-35092D01*
X113460Y-35051D01*
X113467Y-35028D01*
X113466Y-34996D01*
X113474Y-34925D01*
X113474Y33338D01*
X113471Y33357D01*
X113473Y33377D01*
X113451Y33478D01*
X113434Y33580D01*
X113425Y33598D01*
X113420Y33617D01*
X113367Y33706D01*
X113319Y33798D01*
X113305Y33811D01*
X113294Y33828D01*
X113216Y33896D01*
X113141Y33967D01*
X113123Y33975D01*
X113107Y33988D01*
X113011Y34027D01*
X112918Y34071D01*
X112898Y34073D01*
X112879Y34080D01*
X112713Y34099D01*
X53975Y34099D01*
X53885Y34084D01*
X53794Y34077D01*
X53764Y34064D01*
X53732Y34059D01*
X53652Y34016D01*
X53568Y33981D01*
X53536Y33955D01*
X53515Y33944D01*
X53493Y33921D01*
X53437Y33876D01*
X48674Y29113D01*
X48621Y29039D01*
X48562Y28970D01*
X48550Y28940D01*
X48531Y28914D01*
X48504Y28827D01*
X48470Y28742D01*
X48465Y28701D01*
X48458Y28678D01*
X48459Y28646D01*
X48451Y28575D01*
X48451Y-9525D01*
X48466Y-9615D01*
X48473Y-9706D01*
X48486Y-9736D01*
X48491Y-9768D01*
X48534Y-9848D01*
X48569Y-9932D01*
X48595Y-9964D01*
X48606Y-9985D01*
X48629Y-10007D01*
X48674Y-10063D01*
X82012Y-43401D01*
X82086Y-43454D01*
X82155Y-43513D01*
X82185Y-43526D01*
X82211Y-43544D01*
X82298Y-43571D01*
X82383Y-43605D01*
X82424Y-43610D01*
X82447Y-43617D01*
X82479Y-43616D01*
X82550Y-43624D01*
X104775Y-43624D01*
X104865Y-43609D01*
G37*
G36*
X154007Y138942D02*
X154007Y138942D01*
X154027Y138940D01*
X154128Y138962D01*
X154230Y138979D01*
X154248Y138988D01*
X154267Y138992D01*
X154356Y139045D01*
X154448Y139094D01*
X154461Y139108D01*
X154478Y139118D01*
X154546Y139197D01*
X154617Y139272D01*
X154625Y139290D01*
X154638Y139305D01*
X154677Y139401D01*
X154721Y139495D01*
X154723Y139515D01*
X154730Y139533D01*
X154749Y139700D01*
X154749Y204509D01*
X154741Y204555D01*
X154743Y204600D01*
X154722Y204675D01*
X154709Y204752D01*
X154688Y204793D01*
X154675Y204837D01*
X154630Y204901D01*
X154594Y204969D01*
X154561Y205001D01*
X154534Y205039D01*
X154472Y205085D01*
X154416Y205139D01*
X154374Y205158D01*
X154337Y205186D01*
X154263Y205210D01*
X154193Y205242D01*
X154147Y205247D01*
X154103Y205262D01*
X154025Y205261D01*
X153948Y205270D01*
X153903Y205260D01*
X153857Y205259D01*
X153726Y205221D01*
X153708Y205217D01*
X153703Y205215D01*
X153696Y205213D01*
X153580Y205164D01*
X148045Y205164D01*
X142933Y207282D01*
X139020Y211195D01*
X138376Y212750D01*
X138341Y212806D01*
X138315Y212866D01*
X138263Y212931D01*
X138246Y212959D01*
X138231Y212972D01*
X138210Y212997D01*
X137990Y213218D01*
X135979Y218073D01*
X135979Y225425D01*
X135976Y225445D01*
X135978Y225464D01*
X135956Y225566D01*
X135939Y225668D01*
X135930Y225685D01*
X135925Y225705D01*
X135872Y225794D01*
X135824Y225885D01*
X135810Y225899D01*
X135799Y225916D01*
X135721Y225983D01*
X135646Y226055D01*
X135628Y226063D01*
X135612Y226076D01*
X135516Y226115D01*
X135423Y226158D01*
X135403Y226160D01*
X135384Y226168D01*
X135218Y226186D01*
X107950Y226186D01*
X107930Y226183D01*
X107911Y226185D01*
X107809Y226163D01*
X107707Y226147D01*
X107690Y226137D01*
X107670Y226133D01*
X107581Y226080D01*
X107490Y226031D01*
X107476Y226017D01*
X107459Y226007D01*
X107392Y225928D01*
X107321Y225853D01*
X107312Y225835D01*
X107299Y225820D01*
X107260Y225724D01*
X107217Y225630D01*
X107215Y225610D01*
X107207Y225592D01*
X107189Y225425D01*
X107189Y139700D01*
X107192Y139680D01*
X107190Y139661D01*
X107212Y139559D01*
X107229Y139457D01*
X107238Y139440D01*
X107242Y139420D01*
X107295Y139331D01*
X107344Y139240D01*
X107358Y139226D01*
X107368Y139209D01*
X107447Y139142D01*
X107522Y139071D01*
X107540Y139062D01*
X107555Y139049D01*
X107651Y139010D01*
X107745Y138967D01*
X107765Y138965D01*
X107783Y138957D01*
X107950Y138939D01*
X153988Y138939D01*
X154007Y138942D01*
G37*
G36*
X-99146Y-56578D02*
X-99146Y-56578D01*
X-99119Y-56578D01*
X-99020Y-56541D01*
X-98981Y-56530D01*
X-98974Y-56524D01*
X-98963Y-56520D01*
X-52163Y-29520D01*
X-52143Y-29502D01*
X-52118Y-29491D01*
X-52069Y-29437D01*
X-52014Y-29388D01*
X-52002Y-29364D01*
X-51984Y-29344D01*
X-51960Y-29275D01*
X-51928Y-29209D01*
X-51927Y-29182D01*
X-51918Y-29156D01*
X-51923Y-29083D01*
X-51919Y-29010D01*
X-51929Y-28985D01*
X-51930Y-28958D01*
X-51974Y-28862D01*
X-51989Y-28824D01*
X-51995Y-28817D01*
X-52000Y-28806D01*
X-54273Y-25470D01*
X-54296Y-25447D01*
X-54320Y-25411D01*
X-57065Y-22451D01*
X-57091Y-22432D01*
X-57120Y-22400D01*
X-60276Y-19881D01*
X-60304Y-19867D01*
X-60338Y-19839D01*
X-63834Y-17819D01*
X-63864Y-17809D01*
X-63901Y-17787D01*
X-67659Y-16311D01*
X-67690Y-16305D01*
X-67730Y-16289D01*
X-71666Y-15389D01*
X-71698Y-15388D01*
X-71740Y-15378D01*
X-75766Y-15075D01*
X-75798Y-15079D01*
X-75841Y-15075D01*
X-79867Y-15375D01*
X-79898Y-15384D01*
X-79941Y-15386D01*
X-83878Y-16283D01*
X-83907Y-16297D01*
X-83949Y-16305D01*
X-87708Y-17779D01*
X-87735Y-17797D01*
X-87776Y-17812D01*
X-91273Y-19829D01*
X-91297Y-19850D01*
X-91335Y-19871D01*
X-94492Y-22388D01*
X-94513Y-22412D01*
X-94547Y-22439D01*
X-97294Y-25397D01*
X-97311Y-25425D01*
X-97341Y-25456D01*
X-99616Y-28791D01*
X-99629Y-28820D01*
X-99654Y-28856D01*
X-101407Y-32493D01*
X-101414Y-32524D01*
X-101434Y-32562D01*
X-102625Y-36420D01*
X-102628Y-36452D01*
X-102642Y-36493D01*
X-103245Y-40485D01*
X-103243Y-40517D01*
X-103251Y-40560D01*
X-103252Y-44598D01*
X-103249Y-44612D01*
X-103251Y-44621D01*
X-103246Y-44641D01*
X-103246Y-44672D01*
X-102646Y-48665D01*
X-102635Y-48695D01*
X-102629Y-48737D01*
X-101440Y-52596D01*
X-101425Y-52624D01*
X-101413Y-52666D01*
X-99662Y-56304D01*
X-99646Y-56326D01*
X-99636Y-56351D01*
X-99586Y-56404D01*
X-99542Y-56462D01*
X-99519Y-56476D01*
X-99500Y-56496D01*
X-99433Y-56525D01*
X-99370Y-56561D01*
X-99343Y-56565D01*
X-99318Y-56576D01*
X-99245Y-56576D01*
X-99172Y-56585D01*
X-99146Y-56578D01*
G37*
G36*
X-75809Y189704D02*
X-75809Y189704D01*
X-75766Y189700D01*
X-71740Y190003D01*
X-71709Y190011D01*
X-71666Y190014D01*
X-67730Y190914D01*
X-67701Y190927D01*
X-67659Y190936D01*
X-63901Y192412D01*
X-63874Y192429D01*
X-63834Y192444D01*
X-60338Y194464D01*
X-60314Y194485D01*
X-60276Y194506D01*
X-57120Y197025D01*
X-57100Y197049D01*
X-57065Y197076D01*
X-54320Y200036D01*
X-54303Y200064D01*
X-54273Y200095D01*
X-52000Y203431D01*
X-51989Y203457D01*
X-51972Y203477D01*
X-51951Y203547D01*
X-51923Y203615D01*
X-51923Y203642D01*
X-51915Y203668D01*
X-51923Y203741D01*
X-51924Y203814D01*
X-51934Y203839D01*
X-51937Y203866D01*
X-51973Y203929D01*
X-52002Y203996D01*
X-52021Y204015D01*
X-52035Y204039D01*
X-52116Y204106D01*
X-52145Y204134D01*
X-52154Y204138D01*
X-52163Y204145D01*
X-98963Y231145D01*
X-98989Y231154D01*
X-99011Y231169D01*
X-99082Y231185D01*
X-99152Y231208D01*
X-99179Y231206D01*
X-99205Y231212D01*
X-99277Y231198D01*
X-99350Y231193D01*
X-99374Y231180D01*
X-99401Y231175D01*
X-99462Y231134D01*
X-99526Y231101D01*
X-99544Y231080D01*
X-99566Y231065D01*
X-99627Y230979D01*
X-99653Y230948D01*
X-99656Y230938D01*
X-99662Y230929D01*
X-101413Y227291D01*
X-101421Y227260D01*
X-101440Y227221D01*
X-102629Y223362D01*
X-102632Y223331D01*
X-102646Y223290D01*
X-103246Y219297D01*
X-103245Y219265D01*
X-103252Y219223D01*
X-103251Y215185D01*
X-103245Y215155D01*
X-103247Y215143D01*
X-103245Y215135D01*
X-103245Y215110D01*
X-102642Y211118D01*
X-102631Y211088D01*
X-102625Y211045D01*
X-101434Y207187D01*
X-101419Y207159D01*
X-101407Y207118D01*
X-99654Y203481D01*
X-99634Y203455D01*
X-99616Y203416D01*
X-97341Y200081D01*
X-97318Y200059D01*
X-97294Y200022D01*
X-94547Y197064D01*
X-94521Y197045D01*
X-94492Y197013D01*
X-91335Y194496D01*
X-91306Y194482D01*
X-91273Y194454D01*
X-87776Y192437D01*
X-87745Y192427D01*
X-87708Y192404D01*
X-83949Y190930D01*
X-83918Y190925D01*
X-83878Y190908D01*
X-79941Y190011D01*
X-79909Y190010D01*
X-79867Y190000D01*
X-75841Y189700D01*
X-75809Y189704D01*
G37*
G36*
X-202348Y-56573D02*
X-202348Y-56573D01*
X-202275Y-56568D01*
X-202251Y-56555D01*
X-202224Y-56550D01*
X-202164Y-56509D01*
X-202099Y-56476D01*
X-202081Y-56455D01*
X-202059Y-56440D01*
X-201998Y-56354D01*
X-201972Y-56323D01*
X-201969Y-56313D01*
X-201963Y-56304D01*
X-200212Y-52666D01*
X-200204Y-52635D01*
X-200185Y-52596D01*
X-198996Y-48737D01*
X-198993Y-48706D01*
X-198979Y-48665D01*
X-198379Y-44672D01*
X-198380Y-44640D01*
X-198373Y-44598D01*
X-198374Y-40560D01*
X-198381Y-40529D01*
X-198380Y-40485D01*
X-198983Y-36493D01*
X-198994Y-36463D01*
X-199000Y-36420D01*
X-200191Y-32562D01*
X-200206Y-32534D01*
X-200218Y-32493D01*
X-201971Y-28856D01*
X-201991Y-28830D01*
X-202009Y-28791D01*
X-204284Y-25456D01*
X-204307Y-25434D01*
X-204331Y-25397D01*
X-207078Y-22439D01*
X-207104Y-22420D01*
X-207133Y-22388D01*
X-210290Y-19871D01*
X-210319Y-19857D01*
X-210352Y-19829D01*
X-213849Y-17812D01*
X-213880Y-17802D01*
X-213917Y-17779D01*
X-217676Y-16305D01*
X-217707Y-16300D01*
X-217747Y-16283D01*
X-221684Y-15386D01*
X-221716Y-15385D01*
X-221758Y-15375D01*
X-225784Y-15075D01*
X-225816Y-15079D01*
X-225859Y-15075D01*
X-229885Y-15378D01*
X-229916Y-15386D01*
X-229959Y-15389D01*
X-233895Y-16289D01*
X-233924Y-16302D01*
X-233966Y-16311D01*
X-237724Y-17787D01*
X-237751Y-17804D01*
X-237791Y-17819D01*
X-241288Y-19839D01*
X-241311Y-19860D01*
X-241349Y-19881D01*
X-244505Y-22400D01*
X-244526Y-22424D01*
X-244560Y-22451D01*
X-247305Y-25411D01*
X-247322Y-25439D01*
X-247352Y-25470D01*
X-249625Y-28806D01*
X-249636Y-28832D01*
X-249653Y-28852D01*
X-249674Y-28922D01*
X-249702Y-28990D01*
X-249702Y-29017D01*
X-249710Y-29043D01*
X-249702Y-29116D01*
X-249701Y-29189D01*
X-249691Y-29214D01*
X-249688Y-29241D01*
X-249652Y-29304D01*
X-249623Y-29371D01*
X-249604Y-29390D01*
X-249590Y-29414D01*
X-249509Y-29481D01*
X-249480Y-29509D01*
X-249471Y-29513D01*
X-249462Y-29520D01*
X-202662Y-56520D01*
X-202636Y-56529D01*
X-202614Y-56544D01*
X-202543Y-56560D01*
X-202473Y-56583D01*
X-202446Y-56581D01*
X-202420Y-56587D01*
X-202348Y-56573D01*
G37*
G36*
X-221758Y190000D02*
X-221758Y190000D01*
X-221727Y190009D01*
X-221684Y190011D01*
X-217747Y190908D01*
X-217718Y190922D01*
X-217676Y190930D01*
X-213917Y192404D01*
X-213890Y192422D01*
X-213849Y192437D01*
X-210352Y194454D01*
X-210328Y194475D01*
X-210290Y194496D01*
X-207133Y197013D01*
X-207112Y197037D01*
X-207078Y197064D01*
X-204331Y200022D01*
X-204314Y200050D01*
X-204284Y200081D01*
X-202009Y203416D01*
X-201996Y203445D01*
X-201971Y203481D01*
X-200218Y207118D01*
X-200211Y207149D01*
X-200191Y207187D01*
X-199000Y211045D01*
X-198997Y211077D01*
X-198983Y211118D01*
X-198380Y215110D01*
X-198382Y215142D01*
X-198374Y215185D01*
X-198373Y219223D01*
X-198380Y219254D01*
X-198379Y219297D01*
X-198979Y223290D01*
X-198990Y223320D01*
X-198996Y223362D01*
X-200185Y227221D01*
X-200200Y227249D01*
X-200212Y227291D01*
X-201963Y230929D01*
X-201979Y230951D01*
X-201989Y230976D01*
X-202039Y231029D01*
X-202083Y231087D01*
X-202106Y231101D01*
X-202125Y231121D01*
X-202192Y231150D01*
X-202255Y231186D01*
X-202282Y231190D01*
X-202307Y231201D01*
X-202380Y231201D01*
X-202453Y231210D01*
X-202479Y231203D01*
X-202506Y231203D01*
X-202605Y231166D01*
X-202644Y231155D01*
X-202651Y231149D01*
X-202662Y231145D01*
X-249462Y204145D01*
X-249482Y204127D01*
X-249507Y204116D01*
X-249556Y204062D01*
X-249611Y204013D01*
X-249623Y203989D01*
X-249641Y203969D01*
X-249665Y203900D01*
X-249697Y203834D01*
X-249698Y203807D01*
X-249707Y203781D01*
X-249702Y203708D01*
X-249706Y203635D01*
X-249696Y203610D01*
X-249695Y203583D01*
X-249651Y203487D01*
X-249636Y203449D01*
X-249630Y203442D01*
X-249625Y203431D01*
X-247352Y200095D01*
X-247329Y200072D01*
X-247305Y200036D01*
X-244560Y197076D01*
X-244534Y197057D01*
X-244505Y197025D01*
X-241349Y194506D01*
X-241321Y194492D01*
X-241288Y194464D01*
X-237791Y192444D01*
X-237761Y192434D01*
X-237724Y192412D01*
X-233966Y190936D01*
X-233935Y190930D01*
X-233895Y190914D01*
X-229959Y190014D01*
X-229927Y190013D01*
X-229885Y190003D01*
X-225859Y189700D01*
X-225827Y189704D01*
X-225784Y189700D01*
X-221758Y190000D01*
G37*
G36*
X-300787Y59816D02*
X-300787Y59816D01*
X-300775Y59815D01*
X-296751Y60116D01*
X-296720Y60125D01*
X-296677Y60127D01*
X-292743Y61025D01*
X-292714Y61038D01*
X-292672Y61047D01*
X-288915Y62522D01*
X-288888Y62539D01*
X-288848Y62554D01*
X-285353Y64572D01*
X-285329Y64593D01*
X-285292Y64614D01*
X-282137Y67130D01*
X-282116Y67154D01*
X-282082Y67181D01*
X-279337Y70139D01*
X-279321Y70166D01*
X-279291Y70197D01*
X-277017Y73531D01*
X-277005Y73561D01*
X-276980Y73596D01*
X-275229Y77232D01*
X-275221Y77263D01*
X-275202Y77301D01*
X-274012Y81157D01*
X-274009Y81189D01*
X-273996Y81230D01*
X-273394Y85220D01*
X-273396Y85252D01*
X-273389Y85295D01*
X-273389Y89330D01*
X-273395Y89361D01*
X-273394Y89405D01*
X-273996Y93395D01*
X-274007Y93425D01*
X-274012Y93468D01*
X-275202Y97324D01*
X-275217Y97352D01*
X-275229Y97393D01*
X-276980Y101029D01*
X-276999Y101055D01*
X-277017Y101094D01*
X-279291Y104428D01*
X-279313Y104450D01*
X-279337Y104486D01*
X-282082Y107444D01*
X-282108Y107463D01*
X-282137Y107495D01*
X-285292Y110011D01*
X-285320Y110026D01*
X-285353Y110053D01*
X-288848Y112071D01*
X-288878Y112081D01*
X-288915Y112103D01*
X-292672Y113578D01*
X-292703Y113583D01*
X-292743Y113600D01*
X-296677Y114498D01*
X-296709Y114498D01*
X-296751Y114509D01*
X-300775Y114810D01*
X-300802Y114807D01*
X-300829Y114811D01*
X-300900Y114795D01*
X-300972Y114785D01*
X-300996Y114772D01*
X-301022Y114765D01*
X-301081Y114722D01*
X-301144Y114685D01*
X-301161Y114664D01*
X-301183Y114648D01*
X-301220Y114585D01*
X-301264Y114526D01*
X-301270Y114500D01*
X-301284Y114477D01*
X-301302Y114373D01*
X-301311Y114333D01*
X-301310Y114324D01*
X-301312Y114313D01*
X-301312Y60313D01*
X-301306Y60286D01*
X-301309Y60259D01*
X-301287Y60189D01*
X-301272Y60118D01*
X-301257Y60095D01*
X-301249Y60069D01*
X-301201Y60014D01*
X-301160Y59954D01*
X-301137Y59939D01*
X-301119Y59918D01*
X-301054Y59886D01*
X-300992Y59847D01*
X-300965Y59842D01*
X-300941Y59830D01*
X-300836Y59820D01*
X-300796Y59814D01*
X-300787Y59816D01*
G37*
G36*
X149204Y-86377D02*
X149204Y-86377D01*
X149281Y-86378D01*
X149305Y-86369D01*
X149325Y-86367D01*
X149365Y-86347D01*
X149437Y-86320D01*
X165937Y-76820D01*
X165958Y-76801D01*
X165985Y-76789D01*
X166019Y-76751D01*
X166022Y-76749D01*
X166024Y-76745D01*
X166032Y-76736D01*
X166086Y-76689D01*
X166098Y-76663D01*
X166118Y-76641D01*
X166141Y-76574D01*
X166172Y-76509D01*
X166173Y-76480D01*
X166182Y-76453D01*
X166178Y-76382D01*
X166181Y-76311D01*
X166171Y-76284D01*
X166169Y-76255D01*
X166126Y-76164D01*
X166112Y-76124D01*
X166104Y-76116D01*
X166098Y-76104D01*
X164357Y-73580D01*
X164332Y-73557D01*
X164306Y-73518D01*
X162182Y-71307D01*
X162154Y-71288D01*
X162122Y-71254D01*
X159670Y-69412D01*
X159640Y-69397D01*
X159602Y-69369D01*
X156887Y-67944D01*
X156855Y-67934D01*
X156814Y-67912D01*
X153905Y-66941D01*
X153879Y-66938D01*
X153870Y-66937D01*
X153827Y-66922D01*
X150801Y-66430D01*
X150767Y-66432D01*
X150721Y-66424D01*
X147654Y-66424D01*
X147621Y-66431D01*
X147574Y-66430D01*
X144548Y-66922D01*
X144516Y-66934D01*
X144470Y-66941D01*
X141561Y-67912D01*
X141532Y-67929D01*
X141488Y-67944D01*
X138773Y-69369D01*
X138746Y-69390D01*
X138705Y-69412D01*
X136253Y-71254D01*
X136231Y-71279D01*
X136193Y-71307D01*
X134069Y-73518D01*
X134051Y-73547D01*
X134018Y-73580D01*
X132277Y-76104D01*
X132265Y-76131D01*
X132247Y-76153D01*
X132227Y-76221D01*
X132199Y-76287D01*
X132198Y-76316D01*
X132190Y-76343D01*
X132198Y-76415D01*
X132198Y-76486D01*
X132209Y-76512D01*
X132212Y-76541D01*
X132248Y-76603D01*
X132275Y-76669D01*
X132296Y-76689D01*
X132310Y-76714D01*
X132373Y-76766D01*
X132377Y-76772D01*
X132387Y-76777D01*
X132387Y-76778D01*
X132418Y-76808D01*
X132428Y-76812D01*
X132438Y-76820D01*
X148938Y-86320D01*
X149011Y-86344D01*
X149082Y-86375D01*
X149105Y-86376D01*
X149127Y-86383D01*
X149204Y-86377D01*
G37*
G36*
X150754Y241056D02*
X150754Y241056D01*
X150801Y241055D01*
X153827Y241547D01*
X153859Y241559D01*
X153905Y241566D01*
X156814Y242537D01*
X156843Y242554D01*
X156887Y242569D01*
X159602Y243994D01*
X159629Y244015D01*
X159670Y244037D01*
X162122Y245879D01*
X162144Y245904D01*
X162182Y245932D01*
X164306Y248143D01*
X164324Y248172D01*
X164357Y248205D01*
X166098Y250729D01*
X166110Y250756D01*
X166128Y250778D01*
X166149Y250846D01*
X166176Y250912D01*
X166177Y250941D01*
X166185Y250968D01*
X166177Y251040D01*
X166177Y251111D01*
X166166Y251137D01*
X166163Y251166D01*
X166128Y251228D01*
X166100Y251294D01*
X166079Y251314D01*
X166065Y251339D01*
X165988Y251403D01*
X165957Y251433D01*
X165947Y251437D01*
X165937Y251445D01*
X149437Y260945D01*
X149364Y260969D01*
X149293Y261000D01*
X149270Y261001D01*
X149248Y261008D01*
X149171Y261002D01*
X149094Y261003D01*
X149070Y260994D01*
X149050Y260992D01*
X149010Y260972D01*
X148938Y260945D01*
X132438Y251445D01*
X132417Y251426D01*
X132390Y251414D01*
X132343Y251361D01*
X132289Y251314D01*
X132277Y251288D01*
X132257Y251266D01*
X132234Y251199D01*
X132203Y251134D01*
X132202Y251105D01*
X132193Y251078D01*
X132197Y251007D01*
X132194Y250936D01*
X132204Y250909D01*
X132206Y250880D01*
X132249Y250789D01*
X132263Y250749D01*
X132271Y250741D01*
X132277Y250729D01*
X134018Y248205D01*
X134043Y248182D01*
X134069Y248143D01*
X136193Y245932D01*
X136221Y245913D01*
X136253Y245879D01*
X138705Y244037D01*
X138735Y244022D01*
X138773Y243994D01*
X141488Y242569D01*
X141520Y242559D01*
X141561Y242537D01*
X144470Y241566D01*
X144504Y241562D01*
X144548Y241547D01*
X147574Y241055D01*
X147608Y241057D01*
X147654Y241049D01*
X150721Y241049D01*
X150754Y241056D01*
G37*
%LPC*%
G36*
X-257044Y76588D02*
X-257044Y76588D01*
X-257937Y77481D01*
X-257937Y86744D01*
X-257818Y86863D01*
X-257776Y86921D01*
X-257727Y86973D01*
X-257705Y87021D01*
X-257675Y87063D01*
X-257653Y87131D01*
X-257623Y87197D01*
X-257617Y87248D01*
X-257602Y87298D01*
X-257604Y87370D01*
X-257596Y87441D01*
X-257607Y87492D01*
X-257609Y87544D01*
X-257633Y87611D01*
X-257648Y87681D01*
X-257675Y87726D01*
X-257693Y87775D01*
X-257738Y87831D01*
X-257775Y87892D01*
X-257814Y87926D01*
X-257847Y87967D01*
X-257907Y88006D01*
X-257961Y88052D01*
X-258010Y88072D01*
X-258054Y88100D01*
X-258123Y88117D01*
X-258190Y88144D01*
X-258261Y88152D01*
X-258292Y88160D01*
X-258315Y88158D01*
X-258356Y88163D01*
X-258544Y88163D01*
X-259437Y89056D01*
X-259437Y100319D01*
X-258544Y101212D01*
X-246281Y101212D01*
X-245388Y100319D01*
X-245388Y89056D01*
X-246281Y88163D01*
X-246469Y88163D01*
X-246539Y88151D01*
X-246611Y88149D01*
X-246660Y88131D01*
X-246711Y88123D01*
X-246775Y88090D01*
X-246842Y88065D01*
X-246883Y88032D01*
X-246929Y88008D01*
X-246978Y87956D01*
X-247034Y87911D01*
X-247062Y87867D01*
X-247098Y87830D01*
X-247128Y87765D01*
X-247167Y87704D01*
X-247180Y87654D01*
X-247202Y87607D01*
X-247210Y87535D01*
X-247227Y87466D01*
X-247223Y87414D01*
X-247229Y87362D01*
X-247214Y87292D01*
X-247208Y87220D01*
X-247188Y87173D01*
X-247177Y87122D01*
X-247140Y87060D01*
X-247112Y86994D01*
X-247067Y86938D01*
X-247050Y86911D01*
X-247033Y86895D01*
X-247007Y86863D01*
X-246888Y86744D01*
X-246888Y77481D01*
X-247781Y76588D01*
X-257044Y76588D01*
G37*
%LPD*%
%LPC*%
G36*
X-153013Y197230D02*
X-153013Y197230D01*
X-158370Y202587D01*
X-158370Y210163D01*
X-153013Y215520D01*
X-145437Y215520D01*
X-140080Y210163D01*
X-140080Y202587D01*
X-145437Y197230D01*
X-153013Y197230D01*
G37*
%LPD*%
%LPC*%
G36*
X-174856Y-42482D02*
X-174856Y-42482D01*
X-178218Y-41090D01*
X-180790Y-38518D01*
X-182182Y-35156D01*
X-182182Y-31519D01*
X-180790Y-28157D01*
X-178218Y-25585D01*
X-174856Y-24193D01*
X-171219Y-24193D01*
X-167857Y-25585D01*
X-165285Y-28157D01*
X-163893Y-31519D01*
X-163893Y-35156D01*
X-165285Y-38518D01*
X-167857Y-41090D01*
X-171219Y-42482D01*
X-174856Y-42482D01*
G37*
%LPD*%
%LPC*%
G36*
X-149456Y-42482D02*
X-149456Y-42482D01*
X-152818Y-41090D01*
X-155390Y-38518D01*
X-156782Y-35156D01*
X-156782Y-31519D01*
X-155390Y-28157D01*
X-152818Y-25585D01*
X-149456Y-24193D01*
X-145819Y-24193D01*
X-142457Y-25585D01*
X-139885Y-28157D01*
X-138493Y-31519D01*
X-138493Y-35156D01*
X-139885Y-38518D01*
X-142457Y-41090D01*
X-145819Y-42482D01*
X-149456Y-42482D01*
G37*
%LPD*%
%LPC*%
G36*
X-257044Y15550D02*
X-257044Y15550D01*
X-257937Y16443D01*
X-257937Y16702D01*
X-257952Y16792D01*
X-257959Y16883D01*
X-257972Y16912D01*
X-257977Y16944D01*
X-258020Y17025D01*
X-258055Y17109D01*
X-258081Y17141D01*
X-258092Y17162D01*
X-258115Y17184D01*
X-258160Y17240D01*
X-259674Y18753D01*
X-259674Y22522D01*
X-258160Y24035D01*
X-258107Y24109D01*
X-258048Y24179D01*
X-258036Y24209D01*
X-258017Y24235D01*
X-257990Y24322D01*
X-257956Y24407D01*
X-257951Y24448D01*
X-257944Y24470D01*
X-257945Y24502D01*
X-257937Y24573D01*
X-257937Y25707D01*
X-257044Y26600D01*
X-247781Y26600D01*
X-246888Y25707D01*
X-246888Y16443D01*
X-247781Y15550D01*
X-257044Y15550D01*
G37*
%LPD*%
%LPC*%
G36*
X-196904Y16711D02*
X-196904Y16711D01*
X-198969Y17382D01*
X-200903Y18368D01*
X-202659Y19644D01*
X-204194Y21178D01*
X-205470Y22935D01*
X-206455Y24869D01*
X-207126Y26933D01*
X-207396Y28639D01*
X-195198Y28639D01*
X-195198Y16441D01*
X-196904Y16711D01*
G37*
%LPD*%
%LPC*%
G36*
X-192152Y28639D02*
X-192152Y28639D01*
X-179954Y28639D01*
X-180224Y26933D01*
X-180895Y24869D01*
X-181880Y22935D01*
X-183156Y21178D01*
X-184691Y19644D01*
X-186447Y18368D01*
X-188381Y17382D01*
X-190446Y16711D01*
X-192152Y16441D01*
X-192152Y28639D01*
G37*
%LPD*%
%LPC*%
G36*
X-260453Y167186D02*
X-260453Y167186D01*
X-260453Y170997D01*
X-260280Y171643D01*
X-259946Y172223D01*
X-259473Y172696D01*
X-258893Y173030D01*
X-258247Y173203D01*
X-253936Y173203D01*
X-253936Y167186D01*
X-260453Y167186D01*
G37*
%LPD*%
%LPC*%
G36*
X-258247Y158122D02*
X-258247Y158122D01*
X-258893Y158295D01*
X-259473Y158629D01*
X-259946Y159102D01*
X-260280Y159682D01*
X-260453Y160328D01*
X-260453Y164139D01*
X-253936Y164139D01*
X-253936Y158122D01*
X-258247Y158122D01*
G37*
%LPD*%
%LPC*%
G36*
X-250889Y158122D02*
X-250889Y158122D01*
X-250889Y164139D01*
X-244372Y164139D01*
X-244372Y160328D01*
X-244545Y159682D01*
X-244879Y159102D01*
X-245352Y158629D01*
X-245932Y158295D01*
X-246578Y158122D01*
X-250889Y158122D01*
G37*
%LPD*%
%LPC*%
G36*
X-190564Y207198D02*
X-190564Y207198D01*
X-190564Y213216D01*
X-188621Y213216D01*
X-187721Y212974D01*
X-186913Y212508D01*
X-186254Y211849D01*
X-185788Y211042D01*
X-185547Y210141D01*
X-185547Y207198D01*
X-190564Y207198D01*
G37*
%LPD*%
%LPC*%
G36*
X-190564Y198134D02*
X-190564Y198134D01*
X-190564Y204152D01*
X-185547Y204152D01*
X-185547Y201209D01*
X-185788Y200308D01*
X-186254Y199501D01*
X-186913Y198842D01*
X-187721Y198376D01*
X-188621Y198134D01*
X-190564Y198134D01*
G37*
%LPD*%
%LPC*%
G36*
X-258953Y68636D02*
X-258953Y68636D01*
X-258953Y71447D01*
X-258780Y72093D01*
X-258446Y72673D01*
X-257973Y73146D01*
X-257393Y73480D01*
X-256747Y73653D01*
X-253936Y73653D01*
X-253936Y68636D01*
X-258953Y68636D01*
G37*
%LPD*%
%LPC*%
G36*
X-256747Y60572D02*
X-256747Y60572D01*
X-257393Y60745D01*
X-257973Y61079D01*
X-258446Y61552D01*
X-258780Y62132D01*
X-258953Y62778D01*
X-258953Y65589D01*
X-253936Y65589D01*
X-253936Y60572D01*
X-256747Y60572D01*
G37*
%LPD*%
%LPC*%
G36*
X-252413Y165662D02*
X-252413Y165662D01*
X-252413Y165663D01*
X-252412Y165663D01*
X-252412Y165662D01*
X-252413Y165662D01*
G37*
%LPD*%
D10*
X-150813Y252513D03*
X-93Y164833D03*
X-93Y9793D03*
X-150813Y-77888D03*
X-222313Y211213D03*
X-79313Y211213D03*
X-79313Y-36588D03*
X-222313Y-36588D03*
X149188Y252513D03*
X149188Y-77888D03*
X-293880Y169913D03*
X-293880Y4713D03*
X-293913Y87313D03*
D11*
X-213675Y90163D03*
X-193675Y30163D03*
X-71675Y30163D03*
X-71675Y150163D03*
X-193675Y150163D03*
D12*
X-252413Y111688D03*
X-252413Y94688D03*
D13*
X-252413Y67113D03*
X-252413Y82113D03*
X-252413Y21075D03*
X-252413Y36075D03*
D14*
X-149225Y206375D03*
D15*
X-173038Y-33338D03*
X-147638Y-33338D03*
X-122238Y-33338D03*
D12*
X-252413Y148663D03*
X-252413Y165663D03*
D16*
X-252413Y138675D03*
X-252413Y121675D03*
D17*
X146050Y12700D03*
D18*
X146050Y162700D03*
D19*
X177225Y200025D03*
X121225Y200025D03*
D17*
X60325Y165100D03*
D18*
X60325Y15100D03*
D19*
X147488Y-24549D03*
X91488Y-24549D03*
D20*
X245682Y37275D02*
X265494Y37275D01*
X265494Y87313D02*
X245682Y87313D01*
X245682Y137351D02*
X265494Y137351D01*
D21*
X-189088Y177675D02*
X-189088Y185675D01*
X-189088Y177675D02*
X-195088Y177675D01*
X-195088Y185675D01*
X-189088Y185675D01*
X-189088Y179575D02*
X-195088Y179575D01*
X-195088Y181475D02*
X-189088Y181475D01*
X-189088Y183375D02*
X-195088Y183375D01*
X-195088Y185275D02*
X-189088Y185275D01*
X-189088Y201675D02*
X-189088Y209675D01*
X-189088Y201675D02*
X-195088Y201675D01*
X-195088Y209675D01*
X-189088Y209675D01*
X-189088Y203575D02*
X-195088Y203575D01*
X-195088Y205475D02*
X-189088Y205475D01*
X-189088Y207375D02*
X-195088Y207375D01*
X-195088Y209275D02*
X-189088Y209275D01*
D22*
X-249238Y47625D03*
X-239713Y68263D03*
X-87811Y-7938D03*
X-128588Y-65088D03*
D23*
X-87811Y-7938D02*
X-89399Y-6350D01*
X-96626Y-6350D01*
X-128588Y-56930D02*
X-128588Y-65088D01*
X-128588Y-56930D02*
X-110046Y-38388D01*
X-110046Y-19769D02*
X-96626Y-6350D01*
X-110046Y-19769D02*
X-110046Y-38388D01*
D22*
X-173038Y-63500D03*
X-192088Y-34925D03*
D23*
X-179079Y-57459D02*
X-173038Y-63500D01*
X-179079Y-57459D02*
X-179079Y-51684D01*
X-192088Y-38675D02*
X-192088Y-34925D01*
X-192088Y-38675D02*
X-179079Y-51684D01*
X-239713Y57150D02*
X-239713Y68263D01*
X-246856Y50006D02*
X-249238Y47625D01*
X-246856Y50006D02*
X-239713Y57150D01*
D22*
X-201613Y171450D03*
X-242888Y176213D03*
D23*
X-240149Y176213D01*
X-235298Y171362D01*
D22*
X-112713Y200025D03*
X-93190Y183677D03*
D23*
X-108304Y195616D02*
X-112713Y200025D01*
X-108304Y195616D02*
X-108304Y191310D01*
X-100671Y183677D01*
X-93190Y183677D01*
D24*
X-252413Y44450D02*
X-252413Y36075D01*
X-252413Y44450D02*
X-246856Y50006D01*
D23*
X-209761Y171450D02*
X-201613Y171450D01*
X-209761Y171450D02*
X-209849Y171362D01*
X-235298Y171362D01*
D22*
X28575Y165100D03*
D23*
X175Y165100D02*
X-93Y164833D01*
X175Y165100D02*
X28575Y165100D01*
D22*
X150813Y219075D03*
D23*
X149188Y220700D02*
X149188Y252513D01*
X149188Y220700D02*
X150813Y219075D01*
X149188Y-57188D02*
X149188Y-77888D01*
X149225Y-60325D02*
X149225Y-57150D01*
X149225Y-60325D02*
X141288Y-60325D01*
X149188Y-57188D02*
X149225Y-57150D01*
D22*
X141288Y-60325D03*
X22225Y11113D03*
D23*
X20905Y9793D01*
X-93Y9793D01*
X-293880Y139892D02*
X-293880Y169913D01*
X-293880Y139892D02*
X-290513Y136525D01*
X-263506Y175172D02*
X-259803Y175172D01*
X-246063Y188913D01*
X-263506Y175172D02*
X-268766Y169913D01*
X-246063Y190500D02*
X-243660Y190500D01*
X-192088Y204088D02*
X-192088Y205675D01*
X-232142Y178982D02*
X-243660Y190500D01*
X-192088Y205675D02*
X-192088Y211238D01*
X-150813Y252513D01*
X-265550Y119500D02*
X-265113Y119063D01*
X-31750Y165100D02*
X-31483Y164833D01*
D25*
X-193675Y30163D02*
X-220663Y30163D01*
X-193675Y30163D02*
X-152400Y30163D01*
X-193675Y30163D02*
X-193675Y9525D01*
D22*
X-184150Y194238D03*
D25*
X-184150Y193675D01*
D23*
X-192088Y204088D02*
X-208519Y187656D01*
X-208519Y183469D01*
X-213005Y178982D01*
X-232142Y178982D01*
X-150813Y-52388D02*
X-150813Y-77888D01*
X-288975Y4713D02*
X-293880Y4713D01*
X-288975Y4713D02*
X-271463Y22225D01*
X-288975Y169913D02*
X-293880Y169913D01*
X-288975Y169913D02*
X-273050Y153988D01*
X-150813Y228600D02*
X-150813Y252513D01*
X-150813Y228600D02*
X-149225Y227013D01*
X-31483Y164833D02*
X-93Y164833D01*
X-93Y9793D02*
X-360Y9525D01*
X-33338Y9525D01*
D26*
X-93583Y-13696D03*
D27*
X-79313Y-27967D01*
X-79313Y-36588D01*
D28*
X-279400Y61913D03*
D27*
X-279400Y72800D01*
X-293913Y87313D01*
D26*
X-100958Y194353D03*
D27*
X-84098Y211213D01*
X-79313Y211213D01*
D25*
X-252413Y94688D02*
X-252413Y82113D01*
D27*
X-216277Y205177D02*
X-222313Y211213D01*
D28*
X-216115Y186615D03*
D27*
X-222313Y192813D01*
X-222313Y211213D01*
D25*
X-252413Y148663D02*
X-252413Y138675D01*
X-193675Y150163D02*
X-193675Y180088D01*
X-192088Y181675D01*
X-193675Y150163D02*
X-196763Y147075D01*
X-252413Y121675D02*
X-252975Y122238D01*
X-223925Y150163D02*
X-193675Y150163D01*
X-223925Y150163D02*
X-252413Y121675D01*
X-252413Y111688D01*
D22*
X-270891Y125928D03*
D25*
X-270891Y126104D02*
X-262815Y126104D01*
X-258386Y121675D02*
X-252413Y121675D01*
X-270891Y125928D02*
X-270891Y126104D01*
X-262815Y126104D02*
X-258386Y121675D01*
D26*
X-186425Y-54727D03*
D27*
X-204564Y-36588D01*
X-222313Y-36588D01*
D24*
X-252413Y21075D02*
X-255058Y21075D01*
X-255125Y20638D01*
D28*
X-255125Y20638D03*
M02*
