G04 EAGLE Gerber RS-274X export*
G75*
%MOMM*%
%FSLAX34Y34*%
%LPD*%
%INSoldermask Top*%
%IPPOS*%
%AMOC8*
5,1,8,0,0,1.08239X$1,22.5*%
G01*
%ADD10C,3.810000*%
%ADD11C,1.101600*%
%ADD12C,2.351600*%
%ADD13R,1.201600X1.101600*%
%ADD14R,0.901600X0.901600*%
%ADD15P,1.759533X8X112.500000*%
%ADD16C,1.625600*%
%ADD17R,1.101600X1.201600*%
%ADD18R,1.609600X1.609600*%
%ADD19C,1.609600*%
%ADD20R,1.901600X3.301600*%
%ADD21C,2.082800*%
%ADD22C,0.297525*%

G36*
X-786Y154416D02*
X-786Y154416D01*
X-773Y154415D01*
X2277Y154657D01*
X2310Y154667D01*
X2357Y154670D01*
X5328Y155399D01*
X5359Y155413D01*
X5405Y155424D01*
X5468Y155451D01*
X5469Y155451D01*
X6644Y155951D01*
X7820Y156450D01*
X8221Y156620D01*
X8249Y156639D01*
X8292Y156657D01*
X10880Y158290D01*
X10905Y158313D01*
X10945Y158338D01*
X13237Y160364D01*
X13258Y160391D01*
X13293Y160422D01*
X15231Y162790D01*
X15247Y162820D01*
X15277Y162856D01*
X16810Y165504D01*
X16821Y165536D01*
X16845Y165577D01*
X16898Y165716D01*
X16898Y165717D01*
X17658Y167713D01*
X17658Y167714D01*
X17848Y168213D01*
X17933Y168436D01*
X17939Y168470D01*
X17955Y168514D01*
X18571Y171511D01*
X18571Y171545D01*
X18581Y171591D01*
X18708Y174648D01*
X18702Y174681D01*
X18705Y174728D01*
X18339Y177766D01*
X18329Y177798D01*
X18323Y177845D01*
X17476Y180785D01*
X17460Y180815D01*
X17447Y180860D01*
X16139Y183626D01*
X16122Y183649D01*
X16112Y183676D01*
X16063Y183728D01*
X16020Y183785D01*
X15995Y183800D01*
X15975Y183820D01*
X15910Y183849D01*
X15848Y183885D01*
X15820Y183889D01*
X15793Y183900D01*
X15721Y183901D01*
X15651Y183910D01*
X15623Y183903D01*
X15594Y183903D01*
X15500Y183868D01*
X15459Y183857D01*
X15451Y183850D01*
X15438Y183845D01*
X-813Y174489D01*
X-17063Y183845D01*
X-17091Y183854D01*
X-17114Y183871D01*
X-17184Y183885D01*
X-17252Y183908D01*
X-17281Y183906D01*
X-17309Y183912D01*
X-17379Y183898D01*
X-17450Y183892D01*
X-17476Y183879D01*
X-17504Y183874D01*
X-17563Y183834D01*
X-17627Y183801D01*
X-17645Y183778D01*
X-17669Y183762D01*
X-17726Y183680D01*
X-17753Y183647D01*
X-17756Y183637D01*
X-17764Y183626D01*
X-19072Y180860D01*
X-19080Y180827D01*
X-19101Y180785D01*
X-19948Y177845D01*
X-19951Y177811D01*
X-19964Y177766D01*
X-20330Y174728D01*
X-20327Y174694D01*
X-20333Y174648D01*
X-20206Y171591D01*
X-20198Y171558D01*
X-20196Y171511D01*
X-19580Y168514D01*
X-19567Y168482D01*
X-19558Y168436D01*
X-18470Y165577D01*
X-18451Y165548D01*
X-18435Y165504D01*
X-16902Y162856D01*
X-16879Y162831D01*
X-16856Y162790D01*
X-14918Y160422D01*
X-14892Y160401D01*
X-14862Y160364D01*
X-12570Y158338D01*
X-12540Y158321D01*
X-12505Y158290D01*
X-9917Y156657D01*
X-9886Y156645D01*
X-9846Y156620D01*
X-7030Y155424D01*
X-6996Y155417D01*
X-6953Y155399D01*
X-3982Y154670D01*
X-3948Y154669D01*
X-3902Y154657D01*
X-852Y154415D01*
X-824Y154418D01*
X-796Y154414D01*
X-786Y154416D01*
G37*
G36*
X15754Y-9273D02*
X15754Y-9273D01*
X15825Y-9267D01*
X15851Y-9254D01*
X15879Y-9249D01*
X15938Y-9209D01*
X16002Y-9176D01*
X16020Y-9153D01*
X16044Y-9137D01*
X16101Y-9055D01*
X16128Y-9022D01*
X16131Y-9012D01*
X16139Y-9001D01*
X17447Y-6235D01*
X17455Y-6202D01*
X17476Y-6160D01*
X18323Y-3220D01*
X18326Y-3186D01*
X18339Y-3141D01*
X18705Y-103D01*
X18702Y-69D01*
X18708Y-23D01*
X18581Y3034D01*
X18573Y3067D01*
X18571Y3114D01*
X17955Y6111D01*
X17942Y6143D01*
X17933Y6189D01*
X16845Y9048D01*
X16826Y9077D01*
X16810Y9121D01*
X15277Y11769D01*
X15254Y11794D01*
X15231Y11835D01*
X13293Y14203D01*
X13267Y14224D01*
X13237Y14261D01*
X10945Y16287D01*
X10915Y16304D01*
X10880Y16335D01*
X8292Y17968D01*
X8261Y17980D01*
X8221Y18005D01*
X5405Y19201D01*
X5371Y19208D01*
X5328Y19226D01*
X2357Y19955D01*
X2323Y19956D01*
X2277Y19968D01*
X-773Y20210D01*
X-801Y20207D01*
X-829Y20211D01*
X-839Y20209D01*
X-852Y20210D01*
X-3902Y19968D01*
X-3935Y19958D01*
X-3982Y19955D01*
X-6953Y19226D01*
X-6984Y19212D01*
X-7030Y19201D01*
X-7194Y19131D01*
X-8370Y18632D01*
X-9546Y18132D01*
X-9846Y18005D01*
X-9874Y17986D01*
X-9917Y17968D01*
X-12505Y16335D01*
X-12530Y16312D01*
X-12570Y16287D01*
X-14862Y14261D01*
X-14883Y14234D01*
X-14918Y14203D01*
X-16856Y11835D01*
X-16872Y11805D01*
X-16902Y11769D01*
X-18435Y9121D01*
X-18446Y9089D01*
X-18470Y9048D01*
X-19558Y6189D01*
X-19564Y6155D01*
X-19580Y6111D01*
X-20196Y3114D01*
X-20196Y3080D01*
X-20206Y3034D01*
X-20333Y-23D01*
X-20327Y-56D01*
X-20330Y-103D01*
X-19964Y-3141D01*
X-19954Y-3173D01*
X-19948Y-3220D01*
X-19101Y-6160D01*
X-19085Y-6190D01*
X-19072Y-6235D01*
X-17764Y-9001D01*
X-17747Y-9024D01*
X-17737Y-9051D01*
X-17688Y-9103D01*
X-17645Y-9160D01*
X-17620Y-9175D01*
X-17600Y-9195D01*
X-17535Y-9224D01*
X-17473Y-9260D01*
X-17445Y-9264D01*
X-17418Y-9275D01*
X-17346Y-9276D01*
X-17276Y-9285D01*
X-17248Y-9278D01*
X-17219Y-9278D01*
X-17125Y-9243D01*
X-17084Y-9232D01*
X-17076Y-9225D01*
X-17063Y-9220D01*
X-813Y136D01*
X15438Y-9220D01*
X15466Y-9229D01*
X15489Y-9246D01*
X15559Y-9260D01*
X15627Y-9283D01*
X15656Y-9281D01*
X15684Y-9287D01*
X15754Y-9273D01*
G37*
G36*
X-300785Y69816D02*
X-300785Y69816D01*
X-300771Y69815D01*
X-297973Y70047D01*
X-297940Y70057D01*
X-297892Y70060D01*
X-295170Y70750D01*
X-295139Y70765D01*
X-295092Y70776D01*
X-292521Y71904D01*
X-292493Y71924D01*
X-292448Y71943D01*
X-290098Y73479D01*
X-290073Y73504D01*
X-290033Y73530D01*
X-287967Y75431D01*
X-287955Y75448D01*
X-287942Y75457D01*
X-287932Y75473D01*
X-287911Y75492D01*
X-286187Y77708D01*
X-286171Y77739D01*
X-286142Y77777D01*
X-284805Y80246D01*
X-284795Y80279D01*
X-284772Y80322D01*
X-283861Y82977D01*
X-283856Y83012D01*
X-283840Y83057D01*
X-283378Y85826D01*
X-283379Y85861D01*
X-283371Y85909D01*
X-283371Y88716D01*
X-283378Y88750D01*
X-283378Y88799D01*
X-283840Y91568D01*
X-283853Y91600D01*
X-283861Y91648D01*
X-284772Y94303D01*
X-284790Y94333D01*
X-284805Y94379D01*
X-286142Y96848D01*
X-286164Y96875D01*
X-286187Y96917D01*
X-287911Y99133D01*
X-287938Y99156D01*
X-287967Y99194D01*
X-290033Y101095D01*
X-290062Y101113D01*
X-290098Y101146D01*
X-292448Y102682D01*
X-292481Y102694D01*
X-292521Y102721D01*
X-295092Y103849D01*
X-295126Y103856D01*
X-295170Y103875D01*
X-297892Y104565D01*
X-297927Y104566D01*
X-297973Y104578D01*
X-300771Y104810D01*
X-300800Y104807D01*
X-300829Y104811D01*
X-300898Y104795D01*
X-300969Y104787D01*
X-300994Y104772D01*
X-301022Y104765D01*
X-301080Y104723D01*
X-301141Y104688D01*
X-301159Y104665D01*
X-301183Y104648D01*
X-301219Y104587D01*
X-301262Y104530D01*
X-301269Y104502D01*
X-301284Y104477D01*
X-301301Y104378D01*
X-301311Y104337D01*
X-301309Y104326D01*
X-301312Y104313D01*
X-301312Y70313D01*
X-301306Y70284D01*
X-301308Y70255D01*
X-301286Y70187D01*
X-301272Y70118D01*
X-301256Y70094D01*
X-301247Y70066D01*
X-301200Y70012D01*
X-301160Y69954D01*
X-301135Y69938D01*
X-301116Y69916D01*
X-301052Y69885D01*
X-300992Y69847D01*
X-300963Y69842D01*
X-300937Y69829D01*
X-300838Y69821D01*
X-300796Y69814D01*
X-300785Y69816D01*
G37*
G36*
X-211046Y-51573D02*
X-211046Y-51573D01*
X-210976Y-51568D01*
X-210950Y-51554D01*
X-210921Y-51549D01*
X-210862Y-51509D01*
X-210799Y-51476D01*
X-210780Y-51454D01*
X-210756Y-51437D01*
X-210699Y-51356D01*
X-210672Y-51323D01*
X-210669Y-51312D01*
X-210661Y-51301D01*
X-209463Y-48765D01*
X-209454Y-48732D01*
X-209434Y-48688D01*
X-208669Y-45990D01*
X-208666Y-45956D01*
X-208653Y-45909D01*
X-208343Y-43122D01*
X-208345Y-43093D01*
X-208343Y-43083D01*
X-208345Y-43078D01*
X-208340Y-43039D01*
X-208493Y-40239D01*
X-208502Y-40206D01*
X-208504Y-40157D01*
X-209116Y-37420D01*
X-209130Y-37389D01*
X-209140Y-37342D01*
X-210194Y-34743D01*
X-210213Y-34714D01*
X-210231Y-34669D01*
X-211698Y-32279D01*
X-211722Y-32253D01*
X-211747Y-32212D01*
X-213587Y-30096D01*
X-213615Y-30075D01*
X-213646Y-30039D01*
X-215810Y-28254D01*
X-215841Y-28238D01*
X-215878Y-28207D01*
X-218306Y-26804D01*
X-218338Y-26793D01*
X-218380Y-26768D01*
X-221006Y-25783D01*
X-221040Y-25778D01*
X-221085Y-25761D01*
X-223837Y-25221D01*
X-223872Y-25222D01*
X-223919Y-25212D01*
X-226723Y-25133D01*
X-226757Y-25139D01*
X-226805Y-25138D01*
X-229583Y-25521D01*
X-229616Y-25532D01*
X-229664Y-25539D01*
X-232341Y-26374D01*
X-232371Y-26391D01*
X-232417Y-26405D01*
X-234920Y-27670D01*
X-234948Y-27691D01*
X-234991Y-27713D01*
X-237251Y-29373D01*
X-237275Y-29398D01*
X-237314Y-29427D01*
X-239271Y-31436D01*
X-239289Y-31465D01*
X-239323Y-31499D01*
X-240923Y-33803D01*
X-240934Y-33830D01*
X-240953Y-33852D01*
X-240973Y-33920D01*
X-241001Y-33985D01*
X-241001Y-34015D01*
X-241010Y-34043D01*
X-241002Y-34113D01*
X-241002Y-34184D01*
X-240991Y-34211D01*
X-240988Y-34240D01*
X-240953Y-34302D01*
X-240926Y-34368D01*
X-240905Y-34388D01*
X-240891Y-34414D01*
X-240814Y-34477D01*
X-240784Y-34507D01*
X-240773Y-34511D01*
X-240762Y-34520D01*
X-211362Y-51520D01*
X-211335Y-51529D01*
X-211311Y-51546D01*
X-211241Y-51560D01*
X-211174Y-51583D01*
X-211145Y-51581D01*
X-211116Y-51587D01*
X-211046Y-51573D01*
G37*
G36*
X-223919Y199837D02*
X-223919Y199837D01*
X-223885Y199845D01*
X-223837Y199846D01*
X-221085Y200386D01*
X-221053Y200399D01*
X-221006Y200408D01*
X-218380Y201393D01*
X-218351Y201412D01*
X-218306Y201429D01*
X-215878Y202832D01*
X-215852Y202855D01*
X-215810Y202879D01*
X-213646Y204664D01*
X-213625Y204691D01*
X-213587Y204721D01*
X-211747Y206837D01*
X-211730Y206868D01*
X-211698Y206904D01*
X-210231Y209294D01*
X-210219Y209327D01*
X-210194Y209368D01*
X-209140Y211967D01*
X-209134Y212001D01*
X-209116Y212045D01*
X-208504Y214782D01*
X-208503Y214817D01*
X-208493Y214864D01*
X-208340Y217664D01*
X-208345Y217699D01*
X-208343Y217747D01*
X-208653Y220534D01*
X-208663Y220567D01*
X-208669Y220615D01*
X-209434Y223313D01*
X-209450Y223344D01*
X-209463Y223390D01*
X-210661Y225926D01*
X-210679Y225949D01*
X-210689Y225977D01*
X-210738Y226028D01*
X-210780Y226085D01*
X-210805Y226100D01*
X-210825Y226121D01*
X-210891Y226149D01*
X-210952Y226185D01*
X-210981Y226189D01*
X-211008Y226201D01*
X-211079Y226201D01*
X-211149Y226210D01*
X-211177Y226203D01*
X-211207Y226203D01*
X-211299Y226168D01*
X-211341Y226157D01*
X-211350Y226150D01*
X-211362Y226145D01*
X-240762Y209145D01*
X-240784Y209125D01*
X-240811Y209113D01*
X-240858Y209060D01*
X-240911Y209013D01*
X-240924Y208987D01*
X-240943Y208965D01*
X-240966Y208897D01*
X-240997Y208833D01*
X-240998Y208804D01*
X-241008Y208777D01*
X-241003Y208706D01*
X-241006Y208635D01*
X-240995Y208607D01*
X-240993Y208578D01*
X-240951Y208488D01*
X-240936Y208448D01*
X-240929Y208440D01*
X-240923Y208428D01*
X-239323Y206124D01*
X-239298Y206100D01*
X-239271Y206061D01*
X-237314Y204052D01*
X-237285Y204032D01*
X-237251Y203998D01*
X-234991Y202338D01*
X-234959Y202324D01*
X-234920Y202295D01*
X-232417Y201030D01*
X-232384Y201021D01*
X-232341Y200999D01*
X-229664Y200164D01*
X-229629Y200160D01*
X-229583Y200146D01*
X-226805Y199763D01*
X-226770Y199765D01*
X-226723Y199758D01*
X-223919Y199837D01*
G37*
G36*
X-90448Y-51578D02*
X-90448Y-51578D01*
X-90418Y-51578D01*
X-90326Y-51543D01*
X-90284Y-51532D01*
X-90276Y-51525D01*
X-90263Y-51520D01*
X-60863Y-34520D01*
X-60841Y-34500D01*
X-60814Y-34488D01*
X-60767Y-34435D01*
X-60714Y-34388D01*
X-60701Y-34362D01*
X-60682Y-34340D01*
X-60659Y-34272D01*
X-60628Y-34208D01*
X-60627Y-34179D01*
X-60617Y-34152D01*
X-60622Y-34081D01*
X-60619Y-34010D01*
X-60630Y-33982D01*
X-60632Y-33953D01*
X-60674Y-33863D01*
X-60689Y-33823D01*
X-60697Y-33815D01*
X-60702Y-33803D01*
X-62302Y-31499D01*
X-62327Y-31475D01*
X-62354Y-31436D01*
X-64311Y-29427D01*
X-64340Y-29407D01*
X-64374Y-29373D01*
X-66634Y-27713D01*
X-66666Y-27699D01*
X-66705Y-27670D01*
X-69208Y-26405D01*
X-69241Y-26396D01*
X-69284Y-26374D01*
X-71961Y-25539D01*
X-71996Y-25535D01*
X-72042Y-25521D01*
X-74820Y-25138D01*
X-74855Y-25140D01*
X-74902Y-25133D01*
X-77706Y-25212D01*
X-77740Y-25220D01*
X-77788Y-25221D01*
X-80540Y-25761D01*
X-80572Y-25774D01*
X-80619Y-25783D01*
X-83245Y-26768D01*
X-83274Y-26787D01*
X-83319Y-26804D01*
X-85747Y-28207D01*
X-85773Y-28230D01*
X-85815Y-28254D01*
X-87979Y-30039D01*
X-88000Y-30066D01*
X-88038Y-30096D01*
X-89878Y-32212D01*
X-89895Y-32243D01*
X-89927Y-32279D01*
X-91394Y-34669D01*
X-91406Y-34702D01*
X-91431Y-34743D01*
X-92485Y-37342D01*
X-92491Y-37376D01*
X-92509Y-37420D01*
X-93121Y-40157D01*
X-93122Y-40192D01*
X-93132Y-40239D01*
X-93285Y-43039D01*
X-93280Y-43074D01*
X-93283Y-43122D01*
X-92972Y-45909D01*
X-92962Y-45942D01*
X-92956Y-45990D01*
X-92191Y-48688D01*
X-92176Y-48719D01*
X-92162Y-48765D01*
X-90964Y-51301D01*
X-90946Y-51324D01*
X-90936Y-51352D01*
X-90887Y-51403D01*
X-90845Y-51460D01*
X-90820Y-51475D01*
X-90800Y-51496D01*
X-90734Y-51524D01*
X-90673Y-51560D01*
X-90644Y-51564D01*
X-90617Y-51576D01*
X-90546Y-51576D01*
X-90476Y-51585D01*
X-90448Y-51578D01*
G37*
G36*
X-74868Y199764D02*
X-74868Y199764D01*
X-74820Y199763D01*
X-72042Y200146D01*
X-72009Y200157D01*
X-71961Y200164D01*
X-69284Y200999D01*
X-69254Y201016D01*
X-69208Y201030D01*
X-66705Y202295D01*
X-66677Y202316D01*
X-66634Y202338D01*
X-64374Y203998D01*
X-64350Y204023D01*
X-64311Y204052D01*
X-62354Y206061D01*
X-62336Y206090D01*
X-62302Y206124D01*
X-60702Y208428D01*
X-60691Y208455D01*
X-60672Y208477D01*
X-60652Y208545D01*
X-60624Y208610D01*
X-60624Y208640D01*
X-60615Y208668D01*
X-60623Y208738D01*
X-60623Y208809D01*
X-60634Y208836D01*
X-60637Y208865D01*
X-60672Y208927D01*
X-60699Y208993D01*
X-60720Y209013D01*
X-60734Y209039D01*
X-60811Y209102D01*
X-60841Y209132D01*
X-60852Y209136D01*
X-60863Y209145D01*
X-90263Y226145D01*
X-90290Y226154D01*
X-90314Y226171D01*
X-90384Y226185D01*
X-90451Y226208D01*
X-90480Y226206D01*
X-90509Y226212D01*
X-90579Y226198D01*
X-90649Y226193D01*
X-90675Y226179D01*
X-90704Y226174D01*
X-90763Y226134D01*
X-90826Y226101D01*
X-90845Y226079D01*
X-90869Y226062D01*
X-90926Y225981D01*
X-90953Y225948D01*
X-90956Y225937D01*
X-90964Y225926D01*
X-92162Y223390D01*
X-92171Y223357D01*
X-92191Y223313D01*
X-92956Y220615D01*
X-92959Y220581D01*
X-92972Y220534D01*
X-93283Y217747D01*
X-93280Y217719D01*
X-93281Y217714D01*
X-93280Y217709D01*
X-93285Y217664D01*
X-93132Y214864D01*
X-93123Y214831D01*
X-93121Y214782D01*
X-92509Y212045D01*
X-92495Y212014D01*
X-92485Y211967D01*
X-91431Y209368D01*
X-91412Y209339D01*
X-91394Y209294D01*
X-89927Y206904D01*
X-89903Y206878D01*
X-89878Y206837D01*
X-88038Y204721D01*
X-88010Y204700D01*
X-87979Y204664D01*
X-85815Y202879D01*
X-85784Y202863D01*
X-85747Y202832D01*
X-83319Y201429D01*
X-83287Y201418D01*
X-83245Y201393D01*
X-80619Y200408D01*
X-80585Y200403D01*
X-80540Y200386D01*
X-77788Y199846D01*
X-77753Y199847D01*
X-77706Y199837D01*
X-74902Y199758D01*
X-74868Y199764D01*
G37*
G36*
X-300804Y154377D02*
X-300804Y154377D01*
X-300791Y154375D01*
X-297734Y154622D01*
X-297702Y154632D01*
X-297655Y154635D01*
X-294678Y155369D01*
X-294647Y155383D01*
X-294602Y155394D01*
X-291781Y156596D01*
X-291753Y156615D01*
X-291710Y156633D01*
X-289118Y158272D01*
X-289094Y158296D01*
X-289054Y158321D01*
X-286759Y160354D01*
X-286739Y160381D01*
X-286703Y160412D01*
X-284764Y162787D01*
X-284748Y162817D01*
X-284719Y162853D01*
X-283185Y165508D01*
X-283175Y165541D01*
X-283151Y165581D01*
X-282064Y168448D01*
X-282058Y168481D01*
X-282041Y168525D01*
X-281428Y171529D01*
X-281428Y171563D01*
X-281418Y171609D01*
X-281295Y174673D01*
X-281300Y174706D01*
X-281298Y174753D01*
X-281668Y177797D01*
X-281678Y177829D01*
X-281684Y177876D01*
X-282537Y180821D01*
X-282553Y180851D01*
X-282565Y180896D01*
X-283880Y183666D01*
X-283897Y183689D01*
X-283907Y183716D01*
X-283956Y183768D01*
X-283999Y183825D01*
X-284024Y183840D01*
X-284044Y183861D01*
X-284109Y183889D01*
X-284171Y183925D01*
X-284200Y183929D01*
X-284226Y183940D01*
X-284298Y183941D01*
X-284368Y183950D01*
X-284396Y183942D01*
X-284425Y183942D01*
X-284519Y183907D01*
X-284560Y183896D01*
X-284568Y183889D01*
X-284581Y183884D01*
X-301058Y174345D01*
X-301116Y174293D01*
X-301178Y174248D01*
X-301190Y174228D01*
X-301207Y174213D01*
X-301240Y174143D01*
X-301279Y174077D01*
X-301284Y174052D01*
X-301293Y174033D01*
X-301295Y173989D01*
X-301307Y173913D01*
X-301330Y154874D01*
X-301324Y154845D01*
X-301327Y154816D01*
X-301305Y154749D01*
X-301291Y154679D01*
X-301274Y154655D01*
X-301265Y154627D01*
X-301219Y154573D01*
X-301178Y154515D01*
X-301154Y154499D01*
X-301135Y154477D01*
X-301071Y154446D01*
X-301011Y154407D01*
X-300982Y154403D01*
X-300956Y154390D01*
X-300857Y154381D01*
X-300815Y154374D01*
X-300804Y154377D01*
G37*
G36*
X-284265Y-9313D02*
X-284265Y-9313D01*
X-284194Y-9307D01*
X-284169Y-9294D01*
X-284140Y-9288D01*
X-284081Y-9248D01*
X-284018Y-9216D01*
X-283999Y-9193D01*
X-283975Y-9177D01*
X-283918Y-9095D01*
X-283891Y-9063D01*
X-283888Y-9052D01*
X-283880Y-9041D01*
X-282565Y-6271D01*
X-282557Y-6238D01*
X-282537Y-6196D01*
X-281684Y-3251D01*
X-281681Y-3217D01*
X-281668Y-3172D01*
X-281298Y-128D01*
X-281301Y-94D01*
X-281295Y-48D01*
X-281418Y3016D01*
X-281426Y3049D01*
X-281428Y3096D01*
X-282041Y6100D01*
X-282055Y6131D01*
X-282064Y6177D01*
X-283151Y9044D01*
X-283169Y9073D01*
X-283185Y9117D01*
X-284719Y11772D01*
X-284741Y11798D01*
X-284764Y11838D01*
X-286703Y14213D01*
X-286730Y14235D01*
X-286759Y14271D01*
X-289054Y16305D01*
X-289083Y16321D01*
X-289118Y16353D01*
X-291710Y17992D01*
X-291742Y18004D01*
X-291781Y18029D01*
X-294602Y19231D01*
X-294635Y19238D01*
X-294678Y19256D01*
X-297655Y19990D01*
X-297689Y19991D01*
X-297734Y20003D01*
X-300791Y20250D01*
X-300819Y20246D01*
X-300848Y20251D01*
X-300917Y20234D01*
X-300988Y20226D01*
X-301013Y20211D01*
X-301041Y20205D01*
X-301099Y20162D01*
X-301161Y20127D01*
X-301178Y20104D01*
X-301201Y20087D01*
X-301238Y20025D01*
X-301281Y19968D01*
X-301288Y19940D01*
X-301303Y19915D01*
X-301319Y19817D01*
X-301330Y19776D01*
X-301328Y19765D01*
X-301330Y19751D01*
X-301307Y712D01*
X-301292Y637D01*
X-301284Y560D01*
X-301272Y540D01*
X-301268Y517D01*
X-301224Y454D01*
X-301186Y387D01*
X-301166Y370D01*
X-301155Y353D01*
X-301117Y329D01*
X-301058Y280D01*
X-284581Y-9259D01*
X-284554Y-9268D01*
X-284530Y-9285D01*
X-284460Y-9300D01*
X-284393Y-9322D01*
X-284364Y-9320D01*
X-284335Y-9326D01*
X-284265Y-9313D01*
G37*
G36*
X149204Y-86377D02*
X149204Y-86377D01*
X149281Y-86378D01*
X149305Y-86369D01*
X149325Y-86367D01*
X149365Y-86347D01*
X149437Y-86320D01*
X165937Y-76820D01*
X165958Y-76801D01*
X165985Y-76789D01*
X166019Y-76751D01*
X166022Y-76749D01*
X166024Y-76745D01*
X166032Y-76736D01*
X166086Y-76689D01*
X166098Y-76663D01*
X166118Y-76641D01*
X166141Y-76574D01*
X166172Y-76509D01*
X166173Y-76480D01*
X166182Y-76453D01*
X166178Y-76382D01*
X166181Y-76311D01*
X166171Y-76284D01*
X166169Y-76255D01*
X166126Y-76164D01*
X166112Y-76124D01*
X166104Y-76116D01*
X166098Y-76104D01*
X164357Y-73580D01*
X164332Y-73557D01*
X164306Y-73518D01*
X162182Y-71307D01*
X162154Y-71288D01*
X162122Y-71254D01*
X159670Y-69412D01*
X159640Y-69397D01*
X159602Y-69369D01*
X156887Y-67944D01*
X156855Y-67934D01*
X156814Y-67912D01*
X153905Y-66941D01*
X153879Y-66938D01*
X153870Y-66937D01*
X153827Y-66922D01*
X150801Y-66430D01*
X150767Y-66432D01*
X150721Y-66424D01*
X147654Y-66424D01*
X147621Y-66431D01*
X147574Y-66430D01*
X144548Y-66922D01*
X144516Y-66934D01*
X144470Y-66941D01*
X141561Y-67912D01*
X141532Y-67929D01*
X141488Y-67944D01*
X138773Y-69369D01*
X138746Y-69390D01*
X138705Y-69412D01*
X136253Y-71254D01*
X136231Y-71279D01*
X136193Y-71307D01*
X134069Y-73518D01*
X134051Y-73547D01*
X134018Y-73580D01*
X132277Y-76104D01*
X132265Y-76131D01*
X132247Y-76153D01*
X132227Y-76221D01*
X132199Y-76287D01*
X132198Y-76316D01*
X132190Y-76343D01*
X132198Y-76415D01*
X132198Y-76486D01*
X132209Y-76512D01*
X132212Y-76541D01*
X132248Y-76603D01*
X132275Y-76669D01*
X132296Y-76689D01*
X132310Y-76714D01*
X132373Y-76766D01*
X132377Y-76772D01*
X132387Y-76777D01*
X132387Y-76778D01*
X132418Y-76808D01*
X132428Y-76812D01*
X132438Y-76820D01*
X148938Y-86320D01*
X149011Y-86344D01*
X149082Y-86375D01*
X149105Y-86376D01*
X149127Y-86383D01*
X149204Y-86377D01*
G37*
G36*
X-150796Y-86377D02*
X-150796Y-86377D01*
X-150719Y-86378D01*
X-150695Y-86369D01*
X-150675Y-86367D01*
X-150635Y-86347D01*
X-150563Y-86320D01*
X-134063Y-76820D01*
X-134042Y-76801D01*
X-134015Y-76789D01*
X-133981Y-76751D01*
X-133978Y-76749D01*
X-133976Y-76745D01*
X-133968Y-76736D01*
X-133914Y-76689D01*
X-133902Y-76663D01*
X-133882Y-76641D01*
X-133859Y-76574D01*
X-133828Y-76509D01*
X-133827Y-76480D01*
X-133818Y-76453D01*
X-133822Y-76382D01*
X-133819Y-76311D01*
X-133829Y-76284D01*
X-133831Y-76255D01*
X-133874Y-76164D01*
X-133888Y-76124D01*
X-133896Y-76116D01*
X-133902Y-76104D01*
X-135643Y-73580D01*
X-135668Y-73557D01*
X-135694Y-73518D01*
X-137818Y-71307D01*
X-137846Y-71288D01*
X-137878Y-71254D01*
X-140330Y-69412D01*
X-140360Y-69397D01*
X-140398Y-69369D01*
X-143113Y-67944D01*
X-143145Y-67934D01*
X-143186Y-67912D01*
X-146095Y-66941D01*
X-146121Y-66938D01*
X-146131Y-66937D01*
X-146173Y-66922D01*
X-149199Y-66430D01*
X-149233Y-66432D01*
X-149279Y-66424D01*
X-152346Y-66424D01*
X-152379Y-66431D01*
X-152426Y-66430D01*
X-155452Y-66922D01*
X-155484Y-66934D01*
X-155530Y-66941D01*
X-158439Y-67912D01*
X-158468Y-67929D01*
X-158512Y-67944D01*
X-161227Y-69369D01*
X-161254Y-69390D01*
X-161295Y-69412D01*
X-163747Y-71254D01*
X-163769Y-71279D01*
X-163807Y-71307D01*
X-165931Y-73518D01*
X-165949Y-73547D01*
X-165982Y-73580D01*
X-167723Y-76104D01*
X-167735Y-76131D01*
X-167753Y-76153D01*
X-167774Y-76221D01*
X-167801Y-76287D01*
X-167802Y-76316D01*
X-167810Y-76343D01*
X-167802Y-76415D01*
X-167802Y-76486D01*
X-167791Y-76512D01*
X-167788Y-76541D01*
X-167753Y-76603D01*
X-167725Y-76669D01*
X-167704Y-76689D01*
X-167690Y-76714D01*
X-167627Y-76766D01*
X-167623Y-76772D01*
X-167613Y-76777D01*
X-167613Y-76778D01*
X-167582Y-76808D01*
X-167572Y-76812D01*
X-167562Y-76820D01*
X-151062Y-86320D01*
X-150989Y-86344D01*
X-150918Y-86375D01*
X-150895Y-86376D01*
X-150873Y-86383D01*
X-150796Y-86377D01*
G37*
G36*
X-149246Y241056D02*
X-149246Y241056D01*
X-149199Y241055D01*
X-146173Y241547D01*
X-146141Y241559D01*
X-146095Y241566D01*
X-143186Y242537D01*
X-143157Y242554D01*
X-143113Y242569D01*
X-140398Y243994D01*
X-140371Y244015D01*
X-140330Y244037D01*
X-137878Y245879D01*
X-137856Y245904D01*
X-137818Y245932D01*
X-135694Y248143D01*
X-135676Y248172D01*
X-135643Y248205D01*
X-133902Y250729D01*
X-133890Y250756D01*
X-133872Y250778D01*
X-133852Y250846D01*
X-133824Y250912D01*
X-133823Y250941D01*
X-133815Y250968D01*
X-133823Y251040D01*
X-133823Y251111D01*
X-133834Y251137D01*
X-133837Y251166D01*
X-133873Y251228D01*
X-133900Y251294D01*
X-133921Y251314D01*
X-133935Y251339D01*
X-134012Y251403D01*
X-134043Y251433D01*
X-134053Y251437D01*
X-134063Y251445D01*
X-150563Y260945D01*
X-150636Y260969D01*
X-150707Y261000D01*
X-150730Y261001D01*
X-150752Y261008D01*
X-150829Y261002D01*
X-150906Y261003D01*
X-150930Y260994D01*
X-150950Y260992D01*
X-150990Y260972D01*
X-151062Y260945D01*
X-167562Y251445D01*
X-167583Y251426D01*
X-167610Y251414D01*
X-167657Y251361D01*
X-167711Y251314D01*
X-167723Y251288D01*
X-167743Y251266D01*
X-167766Y251199D01*
X-167797Y251134D01*
X-167798Y251105D01*
X-167807Y251078D01*
X-167803Y251007D01*
X-167806Y250936D01*
X-167796Y250909D01*
X-167794Y250880D01*
X-167751Y250789D01*
X-167737Y250749D01*
X-167729Y250741D01*
X-167723Y250729D01*
X-165982Y248205D01*
X-165957Y248182D01*
X-165931Y248143D01*
X-163807Y245932D01*
X-163779Y245913D01*
X-163747Y245879D01*
X-161295Y244037D01*
X-161265Y244022D01*
X-161227Y243994D01*
X-158512Y242569D01*
X-158480Y242559D01*
X-158439Y242537D01*
X-155530Y241566D01*
X-155496Y241562D01*
X-155452Y241547D01*
X-152426Y241055D01*
X-152392Y241057D01*
X-152346Y241049D01*
X-149279Y241049D01*
X-149246Y241056D01*
G37*
G36*
X150754Y241056D02*
X150754Y241056D01*
X150801Y241055D01*
X153827Y241547D01*
X153859Y241559D01*
X153905Y241566D01*
X156814Y242537D01*
X156843Y242554D01*
X156887Y242569D01*
X159602Y243994D01*
X159629Y244015D01*
X159670Y244037D01*
X162122Y245879D01*
X162144Y245904D01*
X162182Y245932D01*
X164306Y248143D01*
X164324Y248172D01*
X164357Y248205D01*
X166098Y250729D01*
X166110Y250756D01*
X166128Y250778D01*
X166149Y250846D01*
X166176Y250912D01*
X166177Y250941D01*
X166185Y250968D01*
X166177Y251040D01*
X166177Y251111D01*
X166166Y251137D01*
X166163Y251166D01*
X166128Y251228D01*
X166100Y251294D01*
X166079Y251314D01*
X166065Y251339D01*
X165988Y251403D01*
X165957Y251433D01*
X165947Y251437D01*
X165937Y251445D01*
X149437Y260945D01*
X149364Y260969D01*
X149293Y261000D01*
X149270Y261001D01*
X149248Y261008D01*
X149171Y261002D01*
X149094Y261003D01*
X149070Y260994D01*
X149050Y260992D01*
X149010Y260972D01*
X148938Y260945D01*
X132438Y251445D01*
X132417Y251426D01*
X132390Y251414D01*
X132343Y251361D01*
X132289Y251314D01*
X132277Y251288D01*
X132257Y251266D01*
X132234Y251199D01*
X132203Y251134D01*
X132202Y251105D01*
X132193Y251078D01*
X132197Y251007D01*
X132194Y250936D01*
X132204Y250909D01*
X132206Y250880D01*
X132249Y250789D01*
X132263Y250749D01*
X132271Y250741D01*
X132277Y250729D01*
X134018Y248205D01*
X134043Y248182D01*
X134069Y248143D01*
X136193Y245932D01*
X136221Y245913D01*
X136253Y245879D01*
X138705Y244037D01*
X138735Y244022D01*
X138773Y243994D01*
X141488Y242569D01*
X141520Y242559D01*
X141561Y242537D01*
X144470Y241566D01*
X144504Y241562D01*
X144548Y241547D01*
X147574Y241055D01*
X147608Y241057D01*
X147654Y241049D01*
X150721Y241049D01*
X150754Y241056D01*
G37*
D10*
X258763Y88900D02*
X-211138Y88900D01*
D11*
X-150813Y252513D03*
X-93Y164833D03*
X-93Y9793D03*
X-150813Y-77888D03*
X-222313Y211213D03*
X-79313Y211213D03*
X-79313Y-36588D03*
X-222313Y-36588D03*
X149188Y252513D03*
X149188Y-77888D03*
X-293880Y169913D03*
X-293880Y4713D03*
X-293913Y87313D03*
D12*
X-213675Y90163D03*
X-193675Y30163D03*
X-71675Y30163D03*
X-71675Y150163D03*
X-193675Y150163D03*
D13*
X-252413Y111688D03*
X-252413Y94688D03*
D14*
X-252413Y67113D03*
X-252413Y82113D03*
X-252413Y21075D03*
X-252413Y36075D03*
D15*
X-149225Y206375D03*
D16*
X-173038Y-33338D03*
X-147638Y-33338D03*
X-122238Y-33338D03*
D13*
X-252413Y148663D03*
X-252413Y165663D03*
D17*
X-252413Y138675D03*
X-252413Y121675D03*
D18*
X146050Y12700D03*
D19*
X146050Y162700D03*
D20*
X177225Y200025D03*
X121225Y200025D03*
D18*
X60325Y165100D03*
D19*
X60325Y15100D03*
D20*
X147488Y-24549D03*
X91488Y-24549D03*
D21*
X245682Y37275D02*
X265494Y37275D01*
X265494Y87313D02*
X245682Y87313D01*
X245682Y137351D02*
X265494Y137351D01*
D22*
X-189067Y177654D02*
X-189067Y185696D01*
X-189067Y177654D02*
X-195109Y177654D01*
X-195109Y185696D01*
X-189067Y185696D01*
X-189067Y180480D02*
X-195109Y180480D01*
X-195109Y183306D02*
X-189067Y183306D01*
X-189067Y201654D02*
X-189067Y209696D01*
X-189067Y201654D02*
X-195109Y201654D01*
X-195109Y209696D01*
X-189067Y209696D01*
X-189067Y204480D02*
X-195109Y204480D01*
X-195109Y207306D02*
X-189067Y207306D01*
M02*
